%TF.GenerationSoftware,KiCad,Pcbnew,10.0.1*%
%TF.CreationDate,2026-05-10T15:17:57+10:00*%
%TF.ProjectId,YetAnotherUSBHub,59657441-6e6f-4746-9865-725553424875,rev?*%
%TF.SameCoordinates,Original*%
%TF.FileFunction,Copper,L2,Bot*%
%TF.FilePolarity,Positive*%
%FSLAX46Y46*%
G04 Gerber Fmt 4.6, Leading zero omitted, Abs format (unit mm)*
G04 Created by KiCad (PCBNEW 10.0.1) date 2026-05-10 15:17:57*
%MOMM*%
%LPD*%
G01*
G04 APERTURE LIST*
G04 Aperture macros list*
%AMRoundRect*
0 Rectangle with rounded corners*
0 $1 Rounding radius*
0 $2 $3 $4 $5 $6 $7 $8 $9 X,Y pos of 4 corners*
0 Add a 4 corners polygon primitive as box body*
4,1,4,$2,$3,$4,$5,$6,$7,$8,$9,$2,$3,0*
0 Add four circle primitives for the rounded corners*
1,1,$1+$1,$2,$3*
1,1,$1+$1,$4,$5*
1,1,$1+$1,$6,$7*
1,1,$1+$1,$8,$9*
0 Add four rect primitives between the rounded corners*
20,1,$1+$1,$2,$3,$4,$5,0*
20,1,$1+$1,$4,$5,$6,$7,0*
20,1,$1+$1,$6,$7,$8,$9,0*
20,1,$1+$1,$8,$9,$2,$3,0*%
G04 Aperture macros list end*
%TA.AperFunction,ComponentPad*%
%ADD10RoundRect,0.250000X-0.550000X-0.500000X0.550000X-0.500000X0.550000X0.500000X-0.550000X0.500000X0*%
%TD*%
%TA.AperFunction,ComponentPad*%
%ADD11C,1.600000*%
%TD*%
%TA.AperFunction,ComponentPad*%
%ADD12C,3.000000*%
%TD*%
%TA.AperFunction,ComponentPad*%
%ADD13O,2.100000X1.000000*%
%TD*%
%TA.AperFunction,ComponentPad*%
%ADD14O,1.600000X1.000000*%
%TD*%
%TA.AperFunction,ComponentPad*%
%ADD15O,1.000000X2.100000*%
%TD*%
%TA.AperFunction,ComponentPad*%
%ADD16O,1.000000X1.600000*%
%TD*%
%TA.AperFunction,ViaPad*%
%ADD17C,0.600000*%
%TD*%
%TA.AperFunction,ViaPad*%
%ADD18C,0.800000*%
%TD*%
%TA.AperFunction,Conductor*%
%ADD19C,0.400000*%
%TD*%
%TA.AperFunction,Conductor*%
%ADD20C,0.200000*%
%TD*%
G04 APERTURE END LIST*
D10*
%TO.P,J1,1,VBUS_1*%
%TO.N,/VBUS*%
X146900000Y-128640000D03*
D11*
%TO.P,J1,2,D-_2*%
%TO.N,/USB1_D-*%
X149400000Y-128640000D03*
%TO.P,J1,3,D+_3*%
%TO.N,/USB1_D+*%
X151400000Y-128640000D03*
%TO.P,J1,4,GND_4*%
%TO.N,GND*%
X153900000Y-128640000D03*
D12*
%TO.P,J1,SH,Shield_SH*%
X143830000Y-131350000D03*
X156970000Y-131350000D03*
%TD*%
D10*
%TO.P,J2,1,VBUS_1*%
%TO.N,/VBUS*%
X129400000Y-128640000D03*
D11*
%TO.P,J2,2,D-_2*%
%TO.N,/USB2_D-*%
X131900000Y-128640000D03*
%TO.P,J2,3,D+_3*%
%TO.N,/USB2_D+*%
X133900000Y-128640000D03*
%TO.P,J2,4,GND_4*%
%TO.N,GND*%
X136400000Y-128640000D03*
D12*
%TO.P,J2,SH,Shield_SH*%
X126330000Y-131350000D03*
X139470000Y-131350000D03*
%TD*%
D13*
%TO.P,J4,SH,SHIELD_SH*%
%TO.N,GND*%
X87590000Y-110990000D03*
D14*
X83410000Y-110990000D03*
D13*
X87590000Y-119630000D03*
D14*
X83410000Y-119630000D03*
%TD*%
D15*
%TO.P,J5,SH,SHIELD_SH*%
%TO.N,GND*%
X113090000Y-134870000D03*
D16*
X113090000Y-139050000D03*
D15*
X121730000Y-134870000D03*
D16*
X121730000Y-139050000D03*
%TD*%
D17*
%TO.N,/VBUS*%
X110000000Y-132400000D03*
D18*
X109440000Y-120810000D03*
D17*
X118600000Y-135300000D03*
%TO.N,GND*%
X106500000Y-126500000D03*
X90000000Y-112100000D03*
X84000000Y-135700000D03*
X108800000Y-133300000D03*
X108750000Y-139000000D03*
X92700000Y-117100000D03*
X108750000Y-119750000D03*
X85295000Y-128905000D03*
X121500000Y-133000000D03*
X94400000Y-132000000D03*
X111250000Y-131750000D03*
X92700000Y-113800000D03*
X106200000Y-133700000D03*
X116400000Y-131100000D03*
X104600000Y-117100000D03*
%TO.N,+3V3*%
X107500000Y-119750000D03*
X104975735Y-132675735D03*
X107250000Y-126000000D03*
X88700000Y-140000000D03*
X109250000Y-131500000D03*
%TO.N,/PMOS*%
X93800000Y-131100000D03*
X107700000Y-132000000D03*
%TO.N,Net-(U2-LED)*%
X85700000Y-138900000D03*
X102750000Y-135750000D03*
%TD*%
%TO.N,/VBUS*%
D19*
X109440000Y-120810000D02*
X109440000Y-122840000D01*
D20*
X118600000Y-135300000D02*
X118550000Y-135350000D01*
D19*
X110000000Y-132400000D02*
X110200000Y-132600000D01*
X110000000Y-123400000D02*
X110000000Y-132400000D01*
X110200000Y-132600000D02*
X115900000Y-132600000D01*
X109440000Y-122840000D02*
X110000000Y-123400000D01*
X115900000Y-132600000D02*
X118600000Y-135300000D01*
%TO.N,+3V3*%
D20*
X108050000Y-132700000D02*
X109250000Y-131500000D01*
X105000000Y-132700000D02*
X105000000Y-134348529D01*
X104975735Y-132675735D02*
X105000000Y-132700000D01*
X107250000Y-126000000D02*
X107250000Y-120000000D01*
X107250000Y-120000000D02*
X107500000Y-119750000D01*
X99348529Y-140000000D02*
X88700000Y-140000000D01*
X105000000Y-132700000D02*
X108050000Y-132700000D01*
X105000000Y-134348529D02*
X99348529Y-140000000D01*
%TO.N,/PMOS*%
X93800000Y-131100000D02*
X107000000Y-131100000D01*
X107700000Y-131800000D02*
X107700000Y-132000000D01*
X107000000Y-131100000D02*
X107700000Y-131800000D01*
%TO.N,Net-(U2-LED)*%
X86200000Y-139400000D02*
X85700000Y-138900000D01*
X102750000Y-135750000D02*
X99100000Y-139400000D01*
X99100000Y-139400000D02*
X86200000Y-139400000D01*
%TD*%
%TA.AperFunction,Conductor*%
%TO.N,GND*%
G36*
X109605989Y-108100743D02*
G01*
X109819595Y-108114167D01*
X109835016Y-108116113D01*
X110027443Y-108152775D01*
X110041425Y-108155439D01*
X110056491Y-108159302D01*
X110256358Y-108224158D01*
X110270821Y-108229877D01*
X110460991Y-108319238D01*
X110474624Y-108326722D01*
X110498084Y-108341587D01*
X110652120Y-108439190D01*
X110664694Y-108448310D01*
X110700302Y-108477716D01*
X110826720Y-108582116D01*
X110838067Y-108592752D01*
X110982054Y-108745772D01*
X110991981Y-108757744D01*
X111117981Y-108930742D01*
X111122362Y-108937172D01*
X118320004Y-120247749D01*
X118341416Y-120281396D01*
X118341421Y-120281404D01*
X118415643Y-120398058D01*
X118415644Y-120398059D01*
X118592152Y-120610947D01*
X118592156Y-120610950D01*
X118793919Y-120800064D01*
X118853253Y-120843102D01*
X118975243Y-120931588D01*
X118988782Y-120941408D01*
X119020589Y-120975211D01*
X119082600Y-121072658D01*
X119100000Y-121100000D01*
X119247913Y-121100000D01*
X119293506Y-121108685D01*
X119517370Y-121197199D01*
X119785248Y-121265891D01*
X120059618Y-121300510D01*
X120197891Y-121300500D01*
X120237773Y-121300500D01*
X157560118Y-121300500D01*
X157595933Y-121300500D01*
X157604043Y-121300765D01*
X157826790Y-121315364D01*
X157842848Y-121317479D01*
X158057781Y-121360231D01*
X158073434Y-121364426D01*
X158280941Y-121434865D01*
X158295925Y-121441071D01*
X158492464Y-121537994D01*
X158506510Y-121546104D01*
X158688705Y-121667842D01*
X158701574Y-121677716D01*
X158866328Y-121822202D01*
X158877797Y-121833671D01*
X159022283Y-121998425D01*
X159032157Y-122011294D01*
X159153895Y-122193489D01*
X159162005Y-122207535D01*
X159258928Y-122404074D01*
X159265135Y-122419060D01*
X159335571Y-122626558D01*
X159339769Y-122642225D01*
X159382518Y-122857140D01*
X159384636Y-122873221D01*
X159399235Y-123095956D01*
X159399500Y-123104066D01*
X159399500Y-138495933D01*
X159399235Y-138504043D01*
X159384636Y-138726778D01*
X159382518Y-138742859D01*
X159339769Y-138957774D01*
X159335571Y-138973441D01*
X159265135Y-139180939D01*
X159258928Y-139195925D01*
X159162005Y-139392464D01*
X159153895Y-139406510D01*
X159032157Y-139588705D01*
X159022283Y-139601574D01*
X158877797Y-139766328D01*
X158866328Y-139777797D01*
X158701574Y-139922283D01*
X158688705Y-139932157D01*
X158506510Y-140053895D01*
X158492464Y-140062005D01*
X158295925Y-140158928D01*
X158280939Y-140165135D01*
X158073441Y-140235571D01*
X158057774Y-140239769D01*
X157842859Y-140282518D01*
X157826778Y-140284636D01*
X157604043Y-140299235D01*
X157595933Y-140299500D01*
X122494077Y-140299500D01*
X122427038Y-140279815D01*
X122381283Y-140227011D01*
X122371339Y-140157853D01*
X122400364Y-140094297D01*
X122406396Y-140087819D01*
X122506748Y-139987466D01*
X122506751Y-139987462D01*
X122616185Y-139823684D01*
X122616192Y-139823671D01*
X122691569Y-139641693D01*
X122691572Y-139641681D01*
X122729999Y-139448495D01*
X122730000Y-139448492D01*
X122730000Y-139300000D01*
X122030000Y-139300000D01*
X122030000Y-138800000D01*
X122730000Y-138800000D01*
X122730000Y-138651508D01*
X122729999Y-138651504D01*
X122691572Y-138458318D01*
X122691569Y-138458306D01*
X122616192Y-138276328D01*
X122616185Y-138276315D01*
X122506751Y-138112537D01*
X122506748Y-138112533D01*
X122367466Y-137973251D01*
X122367462Y-137973248D01*
X122203684Y-137863814D01*
X122203671Y-137863807D01*
X122021691Y-137788429D01*
X122021683Y-137788427D01*
X121980000Y-137780135D01*
X121980000Y-138583011D01*
X121970060Y-138565795D01*
X121914205Y-138509940D01*
X121845796Y-138470444D01*
X121769496Y-138450000D01*
X121690504Y-138450000D01*
X121614204Y-138470444D01*
X121545795Y-138509940D01*
X121489940Y-138565795D01*
X121480000Y-138583011D01*
X121480000Y-137780136D01*
X121479999Y-137780135D01*
X121438316Y-137788427D01*
X121438308Y-137788429D01*
X121256328Y-137863807D01*
X121256315Y-137863814D01*
X121092537Y-137973248D01*
X121092533Y-137973251D01*
X120953251Y-138112533D01*
X120953248Y-138112537D01*
X120843814Y-138276315D01*
X120843807Y-138276328D01*
X120768430Y-138458306D01*
X120768427Y-138458318D01*
X120730000Y-138651504D01*
X120730000Y-138800000D01*
X121430000Y-138800000D01*
X121430000Y-139300000D01*
X120730000Y-139300000D01*
X120730000Y-139448495D01*
X120768427Y-139641681D01*
X120768430Y-139641693D01*
X120843807Y-139823671D01*
X120843814Y-139823684D01*
X120953248Y-139987462D01*
X120953251Y-139987466D01*
X121053604Y-140087819D01*
X121087089Y-140149142D01*
X121082105Y-140218834D01*
X121040233Y-140274767D01*
X120974769Y-140299184D01*
X120965923Y-140299500D01*
X113854077Y-140299500D01*
X113787038Y-140279815D01*
X113741283Y-140227011D01*
X113731339Y-140157853D01*
X113760364Y-140094297D01*
X113766396Y-140087819D01*
X113866748Y-139987466D01*
X113866751Y-139987462D01*
X113976185Y-139823684D01*
X113976192Y-139823671D01*
X114051569Y-139641693D01*
X114051572Y-139641681D01*
X114089999Y-139448495D01*
X114090000Y-139448492D01*
X114090000Y-139300000D01*
X113390000Y-139300000D01*
X113390000Y-138800000D01*
X114090000Y-138800000D01*
X114090000Y-138651508D01*
X114089999Y-138651504D01*
X114051572Y-138458318D01*
X114051569Y-138458306D01*
X113976192Y-138276328D01*
X113976185Y-138276315D01*
X113866751Y-138112537D01*
X113866748Y-138112533D01*
X113727466Y-137973251D01*
X113727462Y-137973248D01*
X113563684Y-137863814D01*
X113563671Y-137863807D01*
X113381691Y-137788429D01*
X113381683Y-137788427D01*
X113340000Y-137780135D01*
X113340000Y-138583011D01*
X113330060Y-138565795D01*
X113274205Y-138509940D01*
X113205796Y-138470444D01*
X113129496Y-138450000D01*
X113050504Y-138450000D01*
X112974204Y-138470444D01*
X112905795Y-138509940D01*
X112849940Y-138565795D01*
X112840000Y-138583011D01*
X112840000Y-137780136D01*
X112839999Y-137780135D01*
X112798316Y-137788427D01*
X112798308Y-137788429D01*
X112616328Y-137863807D01*
X112616315Y-137863814D01*
X112452537Y-137973248D01*
X112452533Y-137973251D01*
X112313251Y-138112533D01*
X112313248Y-138112537D01*
X112203814Y-138276315D01*
X112203807Y-138276328D01*
X112128430Y-138458306D01*
X112128427Y-138458318D01*
X112090000Y-138651504D01*
X112090000Y-138800000D01*
X112790000Y-138800000D01*
X112790000Y-139300000D01*
X112090000Y-139300000D01*
X112090000Y-139448495D01*
X112128427Y-139641681D01*
X112128430Y-139641693D01*
X112203807Y-139823671D01*
X112203814Y-139823684D01*
X112313248Y-139987462D01*
X112313251Y-139987466D01*
X112413604Y-140087819D01*
X112447089Y-140149142D01*
X112442105Y-140218834D01*
X112400233Y-140274767D01*
X112334769Y-140299184D01*
X112325923Y-140299500D01*
X100197626Y-140299500D01*
X100130587Y-140279815D01*
X100084832Y-140227011D01*
X100074888Y-140157853D01*
X100103913Y-140094297D01*
X100109945Y-140087819D01*
X100808268Y-139389496D01*
X105368713Y-134829050D01*
X105368716Y-134829049D01*
X105480520Y-134717245D01*
X105530639Y-134630433D01*
X105559577Y-134580314D01*
X105600501Y-134427586D01*
X105600501Y-134269472D01*
X105600501Y-134261877D01*
X105600500Y-134261859D01*
X105600500Y-133424500D01*
X105620185Y-133357461D01*
X105672989Y-133311706D01*
X105724500Y-133300500D01*
X107963331Y-133300500D01*
X107963347Y-133300501D01*
X107970943Y-133300501D01*
X108129054Y-133300501D01*
X108129057Y-133300501D01*
X108281785Y-133259577D01*
X108331904Y-133230639D01*
X108418716Y-133180520D01*
X108530520Y-133068716D01*
X108530520Y-133068714D01*
X108540728Y-133058507D01*
X108540729Y-133058504D01*
X109022411Y-132576822D01*
X109083731Y-132543340D01*
X109153423Y-132548324D01*
X109209356Y-132590196D01*
X109228747Y-132628501D01*
X109230263Y-132633499D01*
X109290602Y-132779172D01*
X109290609Y-132779185D01*
X109378210Y-132910288D01*
X109378213Y-132910292D01*
X109489707Y-133021786D01*
X109489711Y-133021789D01*
X109620814Y-133109390D01*
X109620827Y-133109397D01*
X109713035Y-133147590D01*
X109766503Y-133169737D01*
X109778335Y-133172090D01*
X109823035Y-133190604D01*
X109868189Y-133220775D01*
X109995672Y-133273580D01*
X109995676Y-133273580D01*
X109995677Y-133273581D01*
X110131003Y-133300500D01*
X110131006Y-133300500D01*
X110131007Y-133300500D01*
X112407063Y-133300500D01*
X112474102Y-133320185D01*
X112519857Y-133372989D01*
X112529801Y-133442147D01*
X112500776Y-133505703D01*
X112475954Y-133527602D01*
X112452536Y-133543248D01*
X112313251Y-133682533D01*
X112313248Y-133682537D01*
X112203814Y-133846315D01*
X112203807Y-133846328D01*
X112128430Y-134028306D01*
X112128427Y-134028318D01*
X112090000Y-134221504D01*
X112090000Y-134620000D01*
X112790000Y-134620000D01*
X112790000Y-135120000D01*
X112090000Y-135120000D01*
X112090000Y-135518495D01*
X112128427Y-135711681D01*
X112128430Y-135711693D01*
X112203807Y-135893671D01*
X112203814Y-135893684D01*
X112313248Y-136057462D01*
X112313251Y-136057466D01*
X112452533Y-136196748D01*
X112452537Y-136196751D01*
X112616315Y-136306185D01*
X112616328Y-136306192D01*
X112798308Y-136381569D01*
X112840000Y-136389862D01*
X112840000Y-135586988D01*
X112849940Y-135604205D01*
X112905795Y-135660060D01*
X112974204Y-135699556D01*
X113050504Y-135720000D01*
X113129496Y-135720000D01*
X113205796Y-135699556D01*
X113274205Y-135660060D01*
X113330060Y-135604205D01*
X113340000Y-135586988D01*
X113340000Y-136389862D01*
X113381690Y-136381569D01*
X113381692Y-136381569D01*
X113563671Y-136306192D01*
X113563684Y-136306185D01*
X113727462Y-136196751D01*
X113727466Y-136196748D01*
X113866748Y-136057466D01*
X113866751Y-136057462D01*
X113979574Y-135888613D01*
X113981007Y-135889570D01*
X114024198Y-135845580D01*
X114092332Y-135830103D01*
X114158018Y-135853919D01*
X114160089Y-135855697D01*
X114160189Y-135855568D01*
X114166630Y-135860510D01*
X114166635Y-135860515D01*
X114297865Y-135936281D01*
X114444234Y-135975500D01*
X114444236Y-135975500D01*
X114595764Y-135975500D01*
X114595766Y-135975500D01*
X114742135Y-135936281D01*
X114873365Y-135860515D01*
X114980515Y-135753365D01*
X115056281Y-135622135D01*
X115095500Y-135475766D01*
X115095500Y-135324234D01*
X115056281Y-135177865D01*
X114980515Y-135046635D01*
X114873365Y-134939485D01*
X114807750Y-134901602D01*
X114742136Y-134863719D01*
X114650833Y-134839255D01*
X114595766Y-134824500D01*
X114444234Y-134824500D01*
X114297863Y-134863719D01*
X114166635Y-134939485D01*
X114166632Y-134939487D01*
X114059486Y-135046633D01*
X114059482Y-135046638D01*
X114052923Y-135058000D01*
X114002356Y-135106216D01*
X113945536Y-135120000D01*
X113390000Y-135120000D01*
X113390000Y-134620000D01*
X114090000Y-134620000D01*
X114090000Y-134221508D01*
X114089999Y-134221504D01*
X114051572Y-134028318D01*
X114051569Y-134028306D01*
X113976192Y-133846328D01*
X113976185Y-133846315D01*
X113866751Y-133682537D01*
X113866748Y-133682533D01*
X113727463Y-133543248D01*
X113704046Y-133527602D01*
X113659241Y-133473990D01*
X113650534Y-133404665D01*
X113680688Y-133341638D01*
X113740131Y-133304918D01*
X113772937Y-133300500D01*
X115558481Y-133300500D01*
X115625520Y-133320185D01*
X115646162Y-133336819D01*
X117803928Y-135494585D01*
X117830808Y-135534814D01*
X117890602Y-135679172D01*
X117890609Y-135679185D01*
X117978210Y-135810288D01*
X117978213Y-135810292D01*
X118089707Y-135921786D01*
X118089711Y-135921789D01*
X118220814Y-136009390D01*
X118220827Y-136009397D01*
X118336868Y-136057462D01*
X118366503Y-136069737D01*
X118521153Y-136100499D01*
X118521156Y-136100500D01*
X118521158Y-136100500D01*
X118678844Y-136100500D01*
X118678845Y-136100499D01*
X118833497Y-136069737D01*
X118979179Y-136009394D01*
X119110289Y-135921789D01*
X119221789Y-135810289D01*
X119309394Y-135679179D01*
X119369737Y-135533497D01*
X119400500Y-135378842D01*
X119400500Y-135324234D01*
X119724500Y-135324234D01*
X119724500Y-135475766D01*
X119735414Y-135516498D01*
X119763719Y-135622136D01*
X119796657Y-135679185D01*
X119839485Y-135753365D01*
X119946635Y-135860515D01*
X120077865Y-135936281D01*
X120224234Y-135975500D01*
X120224236Y-135975500D01*
X120375764Y-135975500D01*
X120375766Y-135975500D01*
X120522135Y-135936281D01*
X120653365Y-135860515D01*
X120653372Y-135860507D01*
X120659811Y-135855568D01*
X120662044Y-135858478D01*
X120708258Y-135832865D01*
X120777980Y-135837411D01*
X120834176Y-135878930D01*
X120840394Y-135888634D01*
X120840426Y-135888613D01*
X120953248Y-136057462D01*
X120953251Y-136057466D01*
X121092533Y-136196748D01*
X121092537Y-136196751D01*
X121256315Y-136306185D01*
X121256328Y-136306192D01*
X121438308Y-136381569D01*
X121480000Y-136389862D01*
X121480000Y-135586988D01*
X121489940Y-135604205D01*
X121545795Y-135660060D01*
X121614204Y-135699556D01*
X121690504Y-135720000D01*
X121769496Y-135720000D01*
X121845796Y-135699556D01*
X121914205Y-135660060D01*
X121970060Y-135604205D01*
X121980000Y-135586988D01*
X121980000Y-136389862D01*
X122021690Y-136381569D01*
X122021692Y-136381569D01*
X122203671Y-136306192D01*
X122203684Y-136306185D01*
X122367462Y-136196751D01*
X122367466Y-136196748D01*
X122506748Y-136057466D01*
X122506751Y-136057462D01*
X122616185Y-135893684D01*
X122616192Y-135893671D01*
X122691569Y-135711693D01*
X122691572Y-135711681D01*
X122729999Y-135518495D01*
X122730000Y-135518492D01*
X122730000Y-135120000D01*
X122030000Y-135120000D01*
X122030000Y-134620000D01*
X122730000Y-134620000D01*
X122730000Y-134221508D01*
X122729999Y-134221504D01*
X122691572Y-134028318D01*
X122691569Y-134028306D01*
X122616192Y-133846328D01*
X122616185Y-133846315D01*
X122506751Y-133682537D01*
X122506748Y-133682533D01*
X122367466Y-133543251D01*
X122367462Y-133543248D01*
X122203684Y-133433814D01*
X122203671Y-133433807D01*
X122021691Y-133358429D01*
X122021683Y-133358427D01*
X121980000Y-133350135D01*
X121980000Y-134153011D01*
X121970060Y-134135795D01*
X121914205Y-134079940D01*
X121845796Y-134040444D01*
X121769496Y-134020000D01*
X121690504Y-134020000D01*
X121614204Y-134040444D01*
X121545795Y-134079940D01*
X121489940Y-134135795D01*
X121480000Y-134153011D01*
X121480000Y-133350136D01*
X121479999Y-133350135D01*
X121438316Y-133358427D01*
X121438308Y-133358429D01*
X121256328Y-133433807D01*
X121256315Y-133433814D01*
X121092537Y-133543248D01*
X121092533Y-133543251D01*
X120953251Y-133682533D01*
X120953248Y-133682537D01*
X120843814Y-133846315D01*
X120843807Y-133846328D01*
X120768430Y-134028306D01*
X120768427Y-134028318D01*
X120730000Y-134221504D01*
X120730000Y-134620000D01*
X121430000Y-134620000D01*
X121430000Y-135120000D01*
X120874464Y-135120000D01*
X120807425Y-135100315D01*
X120767077Y-135058000D01*
X120760517Y-135046638D01*
X120760513Y-135046633D01*
X120653367Y-134939487D01*
X120653365Y-134939485D01*
X120587750Y-134901602D01*
X120522136Y-134863719D01*
X120430833Y-134839255D01*
X120375766Y-134824500D01*
X120224234Y-134824500D01*
X120077863Y-134863719D01*
X119946635Y-134939485D01*
X119946632Y-134939487D01*
X119839487Y-135046632D01*
X119839485Y-135046635D01*
X119763719Y-135177863D01*
X119724500Y-135324234D01*
X119400500Y-135324234D01*
X119400500Y-135221158D01*
X119400500Y-135221155D01*
X119400499Y-135221153D01*
X119383186Y-135134115D01*
X119369737Y-135066503D01*
X119361509Y-135046638D01*
X119309397Y-134920827D01*
X119309390Y-134920814D01*
X119221789Y-134789711D01*
X119221786Y-134789707D01*
X119110292Y-134678213D01*
X119110288Y-134678210D01*
X118979185Y-134590609D01*
X118979172Y-134590602D01*
X118834814Y-134530808D01*
X118794585Y-134503928D01*
X118593755Y-134303098D01*
X117260304Y-132969646D01*
X116346545Y-132055887D01*
X116231807Y-131979222D01*
X116104332Y-131926421D01*
X116104322Y-131926418D01*
X115968996Y-131899500D01*
X115968994Y-131899500D01*
X115968993Y-131899500D01*
X110824500Y-131899500D01*
X110757461Y-131879815D01*
X110711706Y-131827011D01*
X110700500Y-131775500D01*
X110700500Y-131218905D01*
X124330000Y-131218905D01*
X124330000Y-131481094D01*
X124364220Y-131741009D01*
X124364222Y-131741020D01*
X124432075Y-131994255D01*
X124532404Y-132236471D01*
X124532409Y-132236482D01*
X124663488Y-132463516D01*
X124663494Y-132463524D01*
X124750080Y-132576365D01*
X125357912Y-131968532D01*
X125452829Y-132099175D01*
X125580825Y-132227171D01*
X125711465Y-132322086D01*
X125103633Y-132929917D01*
X125103633Y-132929918D01*
X125216475Y-133016505D01*
X125216483Y-133016511D01*
X125443517Y-133147590D01*
X125443528Y-133147595D01*
X125685744Y-133247924D01*
X125938979Y-133315777D01*
X125938990Y-133315779D01*
X126198905Y-133349999D01*
X126198920Y-133350000D01*
X126461080Y-133350000D01*
X126461094Y-133349999D01*
X126721009Y-133315779D01*
X126721020Y-133315777D01*
X126974255Y-133247924D01*
X127216471Y-133147595D01*
X127216482Y-133147590D01*
X127443516Y-133016511D01*
X127443534Y-133016499D01*
X127556365Y-132929919D01*
X127556365Y-132929917D01*
X126948534Y-132322086D01*
X127079175Y-132227171D01*
X127207171Y-132099175D01*
X127302086Y-131968534D01*
X127909917Y-132576365D01*
X127909919Y-132576365D01*
X127996499Y-132463534D01*
X127996511Y-132463516D01*
X128127590Y-132236482D01*
X128127595Y-132236471D01*
X128227924Y-131994255D01*
X128295777Y-131741020D01*
X128295779Y-131741009D01*
X128329999Y-131481094D01*
X128330000Y-131481080D01*
X128330000Y-131218919D01*
X128329999Y-131218905D01*
X137470000Y-131218905D01*
X137470000Y-131481094D01*
X137504220Y-131741009D01*
X137504222Y-131741020D01*
X137572075Y-131994255D01*
X137672404Y-132236471D01*
X137672409Y-132236482D01*
X137803488Y-132463516D01*
X137803494Y-132463524D01*
X137890080Y-132576365D01*
X138497912Y-131968532D01*
X138592829Y-132099175D01*
X138720825Y-132227171D01*
X138851465Y-132322086D01*
X138243633Y-132929917D01*
X138243633Y-132929918D01*
X138356475Y-133016505D01*
X138356483Y-133016511D01*
X138583517Y-133147590D01*
X138583528Y-133147595D01*
X138825744Y-133247924D01*
X139078979Y-133315777D01*
X139078990Y-133315779D01*
X139338905Y-133349999D01*
X139338920Y-133350000D01*
X139601080Y-133350000D01*
X139601094Y-133349999D01*
X139861009Y-133315779D01*
X139861020Y-133315777D01*
X140114255Y-133247924D01*
X140356471Y-133147595D01*
X140356482Y-133147590D01*
X140583516Y-133016511D01*
X140583534Y-133016499D01*
X140696365Y-132929919D01*
X140696365Y-132929917D01*
X140088534Y-132322086D01*
X140219175Y-132227171D01*
X140347171Y-132099175D01*
X140442086Y-131968534D01*
X141049917Y-132576365D01*
X141049919Y-132576365D01*
X141136499Y-132463534D01*
X141136511Y-132463516D01*
X141267590Y-132236482D01*
X141267595Y-132236471D01*
X141367924Y-131994255D01*
X141435777Y-131741020D01*
X141435779Y-131741009D01*
X141469999Y-131481094D01*
X141470000Y-131481080D01*
X141470000Y-131218919D01*
X141469999Y-131218905D01*
X141830000Y-131218905D01*
X141830000Y-131481094D01*
X141864220Y-131741009D01*
X141864222Y-131741020D01*
X141932075Y-131994255D01*
X142032404Y-132236471D01*
X142032409Y-132236482D01*
X142163488Y-132463516D01*
X142163494Y-132463524D01*
X142250080Y-132576365D01*
X142857912Y-131968532D01*
X142952829Y-132099175D01*
X143080825Y-132227171D01*
X143211465Y-132322086D01*
X142603633Y-132929917D01*
X142603633Y-132929918D01*
X142716475Y-133016505D01*
X142716483Y-133016511D01*
X142943517Y-133147590D01*
X142943528Y-133147595D01*
X143185744Y-133247924D01*
X143438979Y-133315777D01*
X143438990Y-133315779D01*
X143698905Y-133349999D01*
X143698920Y-133350000D01*
X143961080Y-133350000D01*
X143961094Y-133349999D01*
X144221009Y-133315779D01*
X144221020Y-133315777D01*
X144474255Y-133247924D01*
X144716471Y-133147595D01*
X144716482Y-133147590D01*
X144943516Y-133016511D01*
X144943534Y-133016499D01*
X145056365Y-132929919D01*
X145056365Y-132929917D01*
X144448534Y-132322086D01*
X144579175Y-132227171D01*
X144707171Y-132099175D01*
X144802086Y-131968534D01*
X145409917Y-132576365D01*
X145409919Y-132576365D01*
X145496499Y-132463534D01*
X145496511Y-132463516D01*
X145627590Y-132236482D01*
X145627595Y-132236471D01*
X145727924Y-131994255D01*
X145795777Y-131741020D01*
X145795779Y-131741009D01*
X145829999Y-131481094D01*
X145830000Y-131481080D01*
X145830000Y-131218919D01*
X145829999Y-131218905D01*
X154970000Y-131218905D01*
X154970000Y-131481094D01*
X155004220Y-131741009D01*
X155004222Y-131741020D01*
X155072075Y-131994255D01*
X155172404Y-132236471D01*
X155172409Y-132236482D01*
X155303488Y-132463516D01*
X155303494Y-132463524D01*
X155390080Y-132576365D01*
X155997912Y-131968532D01*
X156092829Y-132099175D01*
X156220825Y-132227171D01*
X156351465Y-132322086D01*
X155743633Y-132929917D01*
X155743633Y-132929918D01*
X155856475Y-133016505D01*
X155856483Y-133016511D01*
X156083517Y-133147590D01*
X156083528Y-133147595D01*
X156325744Y-133247924D01*
X156578979Y-133315777D01*
X156578990Y-133315779D01*
X156838905Y-133349999D01*
X156838920Y-133350000D01*
X157101080Y-133350000D01*
X157101094Y-133349999D01*
X157361009Y-133315779D01*
X157361020Y-133315777D01*
X157614255Y-133247924D01*
X157856471Y-133147595D01*
X157856482Y-133147590D01*
X158083516Y-133016511D01*
X158083534Y-133016499D01*
X158196365Y-132929919D01*
X158196365Y-132929917D01*
X157588534Y-132322086D01*
X157719175Y-132227171D01*
X157847171Y-132099175D01*
X157942086Y-131968534D01*
X158549917Y-132576365D01*
X158549919Y-132576365D01*
X158636499Y-132463534D01*
X158636511Y-132463516D01*
X158767590Y-132236482D01*
X158767595Y-132236471D01*
X158867924Y-131994255D01*
X158935777Y-131741020D01*
X158935779Y-131741009D01*
X158969999Y-131481094D01*
X158970000Y-131481080D01*
X158970000Y-131218919D01*
X158969999Y-131218905D01*
X158935779Y-130958990D01*
X158935777Y-130958979D01*
X158867924Y-130705744D01*
X158767595Y-130463528D01*
X158767590Y-130463517D01*
X158636511Y-130236483D01*
X158636505Y-130236475D01*
X158549918Y-130123633D01*
X158549917Y-130123633D01*
X157942085Y-130731465D01*
X157847171Y-130600825D01*
X157719175Y-130472829D01*
X157588532Y-130377912D01*
X158196365Y-129770080D01*
X158083524Y-129683494D01*
X158083516Y-129683488D01*
X157856482Y-129552409D01*
X157856471Y-129552404D01*
X157614255Y-129452075D01*
X157361020Y-129384222D01*
X157361009Y-129384220D01*
X157101094Y-129350000D01*
X156838905Y-129350000D01*
X156578990Y-129384220D01*
X156578979Y-129384222D01*
X156325744Y-129452075D01*
X156083528Y-129552404D01*
X156083517Y-129552409D01*
X155856471Y-129683496D01*
X155743633Y-129770079D01*
X155743633Y-129770080D01*
X156351466Y-130377913D01*
X156220825Y-130472829D01*
X156092829Y-130600825D01*
X155997913Y-130731466D01*
X155390080Y-130123633D01*
X155390079Y-130123633D01*
X155303496Y-130236471D01*
X155172409Y-130463517D01*
X155172404Y-130463528D01*
X155072075Y-130705744D01*
X155004222Y-130958979D01*
X155004220Y-130958990D01*
X154970000Y-131218905D01*
X145829999Y-131218905D01*
X145795779Y-130958990D01*
X145795777Y-130958979D01*
X145727924Y-130705744D01*
X145627595Y-130463528D01*
X145627590Y-130463517D01*
X145496511Y-130236483D01*
X145496505Y-130236475D01*
X145409918Y-130123633D01*
X145409917Y-130123633D01*
X144802085Y-130731464D01*
X144707171Y-130600825D01*
X144579175Y-130472829D01*
X144448532Y-130377912D01*
X145056365Y-129770080D01*
X144943524Y-129683494D01*
X144943516Y-129683488D01*
X144716482Y-129552409D01*
X144716471Y-129552404D01*
X144474255Y-129452075D01*
X144221020Y-129384222D01*
X144221009Y-129384220D01*
X143961094Y-129350000D01*
X143698905Y-129350000D01*
X143438990Y-129384220D01*
X143438979Y-129384222D01*
X143185744Y-129452075D01*
X142943528Y-129552404D01*
X142943517Y-129552409D01*
X142716471Y-129683496D01*
X142603633Y-129770079D01*
X142603633Y-129770080D01*
X143211466Y-130377913D01*
X143080825Y-130472829D01*
X142952829Y-130600825D01*
X142857913Y-130731466D01*
X142250080Y-130123633D01*
X142250079Y-130123633D01*
X142163496Y-130236471D01*
X142032409Y-130463517D01*
X142032404Y-130463528D01*
X141932075Y-130705744D01*
X141864222Y-130958979D01*
X141864220Y-130958990D01*
X141830000Y-131218905D01*
X141469999Y-131218905D01*
X141435779Y-130958990D01*
X141435777Y-130958979D01*
X141367924Y-130705744D01*
X141267595Y-130463528D01*
X141267590Y-130463517D01*
X141136511Y-130236483D01*
X141136505Y-130236475D01*
X141049918Y-130123633D01*
X141049917Y-130123633D01*
X140442085Y-130731465D01*
X140347171Y-130600825D01*
X140219175Y-130472829D01*
X140088532Y-130377912D01*
X140696365Y-129770080D01*
X140583524Y-129683494D01*
X140583516Y-129683488D01*
X140356482Y-129552409D01*
X140356471Y-129552404D01*
X140114255Y-129452075D01*
X139861020Y-129384222D01*
X139861009Y-129384220D01*
X139601094Y-129350000D01*
X139338905Y-129350000D01*
X139078990Y-129384220D01*
X139078979Y-129384222D01*
X138825744Y-129452075D01*
X138583528Y-129552404D01*
X138583517Y-129552409D01*
X138356471Y-129683496D01*
X138243633Y-129770079D01*
X138243633Y-129770080D01*
X138851466Y-130377913D01*
X138720825Y-130472829D01*
X138592829Y-130600825D01*
X138497913Y-130731466D01*
X137890080Y-130123633D01*
X137890079Y-130123633D01*
X137803496Y-130236471D01*
X137672409Y-130463517D01*
X137672404Y-130463528D01*
X137572075Y-130705744D01*
X137504222Y-130958979D01*
X137504220Y-130958990D01*
X137470000Y-131218905D01*
X128329999Y-131218905D01*
X128295779Y-130958990D01*
X128295777Y-130958979D01*
X128227924Y-130705744D01*
X128127595Y-130463528D01*
X128127590Y-130463517D01*
X127996511Y-130236483D01*
X127996505Y-130236475D01*
X127909918Y-130123633D01*
X127909917Y-130123633D01*
X127302085Y-130731465D01*
X127207171Y-130600825D01*
X127079175Y-130472829D01*
X126948532Y-130377912D01*
X127556365Y-129770080D01*
X127443524Y-129683494D01*
X127443516Y-129683488D01*
X127216482Y-129552409D01*
X127216471Y-129552404D01*
X126974255Y-129452075D01*
X126721020Y-129384222D01*
X126721009Y-129384220D01*
X126461094Y-129350000D01*
X126198905Y-129350000D01*
X125938990Y-129384220D01*
X125938979Y-129384222D01*
X125685744Y-129452075D01*
X125443528Y-129552404D01*
X125443517Y-129552409D01*
X125216471Y-129683496D01*
X125103633Y-129770079D01*
X125103633Y-129770080D01*
X125711466Y-130377913D01*
X125580825Y-130472829D01*
X125452829Y-130600825D01*
X125357913Y-130731466D01*
X124750080Y-130123633D01*
X124750079Y-130123633D01*
X124663496Y-130236471D01*
X124532409Y-130463517D01*
X124532404Y-130463528D01*
X124432075Y-130705744D01*
X124364222Y-130958979D01*
X124364220Y-130958990D01*
X124330000Y-131218905D01*
X110700500Y-131218905D01*
X110700500Y-128089983D01*
X128099500Y-128089983D01*
X128099500Y-129190001D01*
X128099501Y-129190019D01*
X128110000Y-129292796D01*
X128110001Y-129292799D01*
X128165185Y-129459331D01*
X128165187Y-129459336D01*
X128200069Y-129515888D01*
X128257288Y-129608656D01*
X128381344Y-129732712D01*
X128530666Y-129824814D01*
X128697203Y-129879999D01*
X128799991Y-129890500D01*
X130000008Y-129890499D01*
X130102797Y-129879999D01*
X130269334Y-129824814D01*
X130418656Y-129732712D01*
X130542712Y-129608656D01*
X130634814Y-129459334D01*
X130638047Y-129449576D01*
X130677817Y-129392135D01*
X130742332Y-129365310D01*
X130811108Y-129377624D01*
X130856071Y-129415697D01*
X130908034Y-129487219D01*
X131052786Y-129631971D01*
X131191444Y-129732710D01*
X131218390Y-129752287D01*
X131334607Y-129811503D01*
X131400776Y-129845218D01*
X131400778Y-129845218D01*
X131400781Y-129845220D01*
X131505137Y-129879127D01*
X131595465Y-129908477D01*
X131696557Y-129924488D01*
X131797648Y-129940500D01*
X131797649Y-129940500D01*
X132002351Y-129940500D01*
X132002352Y-129940500D01*
X132204534Y-129908477D01*
X132399219Y-129845220D01*
X132581610Y-129752287D01*
X132676304Y-129683488D01*
X132747213Y-129631971D01*
X132747215Y-129631968D01*
X132747219Y-129631966D01*
X132812319Y-129566866D01*
X132873642Y-129533381D01*
X132943334Y-129538365D01*
X132987681Y-129566866D01*
X133052786Y-129631971D01*
X133191444Y-129732710D01*
X133218390Y-129752287D01*
X133334607Y-129811503D01*
X133400776Y-129845218D01*
X133400778Y-129845218D01*
X133400781Y-129845220D01*
X133505137Y-129879127D01*
X133595465Y-129908477D01*
X133696557Y-129924488D01*
X133797648Y-129940500D01*
X133797649Y-129940500D01*
X134002351Y-129940500D01*
X134002352Y-129940500D01*
X134204534Y-129908477D01*
X134399219Y-129845220D01*
X134581610Y-129752287D01*
X134676304Y-129683488D01*
X134747213Y-129631971D01*
X134747215Y-129631968D01*
X134747219Y-129631966D01*
X134891966Y-129487219D01*
X134891968Y-129487215D01*
X134891971Y-129487213D01*
X135012286Y-129321611D01*
X135012415Y-129321359D01*
X135039795Y-129267621D01*
X135087769Y-129216826D01*
X135155589Y-129200030D01*
X135221725Y-129222567D01*
X135260765Y-129267621D01*
X135288141Y-129321350D01*
X135288147Y-129321359D01*
X135320523Y-129365921D01*
X135320524Y-129365922D01*
X135937449Y-128748997D01*
X135957370Y-128823343D01*
X136019905Y-128931657D01*
X136108343Y-129020095D01*
X136216657Y-129082630D01*
X136291002Y-129102550D01*
X135674076Y-129719474D01*
X135718650Y-129751859D01*
X135900968Y-129844755D01*
X136095582Y-129907990D01*
X136297683Y-129940000D01*
X136502317Y-129940000D01*
X136704417Y-129907990D01*
X136899031Y-129844755D01*
X137081351Y-129751858D01*
X137081353Y-129751857D01*
X137125921Y-129719475D01*
X137125921Y-129719474D01*
X136508997Y-129102550D01*
X136583343Y-129082630D01*
X136691657Y-129020095D01*
X136780095Y-128931657D01*
X136842630Y-128823343D01*
X136862550Y-128748997D01*
X137479474Y-129365921D01*
X137511859Y-129321349D01*
X137604755Y-129139031D01*
X137667990Y-128944417D01*
X137700000Y-128742317D01*
X137700000Y-128537682D01*
X137667990Y-128335582D01*
X137604754Y-128140967D01*
X137578776Y-128089983D01*
X145599500Y-128089983D01*
X145599500Y-129190001D01*
X145599501Y-129190019D01*
X145610000Y-129292796D01*
X145610001Y-129292799D01*
X145665185Y-129459331D01*
X145665187Y-129459336D01*
X145700069Y-129515888D01*
X145757288Y-129608656D01*
X145881344Y-129732712D01*
X146030666Y-129824814D01*
X146197203Y-129879999D01*
X146299991Y-129890500D01*
X147500008Y-129890499D01*
X147602797Y-129879999D01*
X147769334Y-129824814D01*
X147918656Y-129732712D01*
X148042712Y-129608656D01*
X148134814Y-129459334D01*
X148138047Y-129449576D01*
X148177817Y-129392135D01*
X148242332Y-129365310D01*
X148311108Y-129377624D01*
X148356071Y-129415697D01*
X148408034Y-129487219D01*
X148552786Y-129631971D01*
X148691444Y-129732710D01*
X148718390Y-129752287D01*
X148834607Y-129811503D01*
X148900776Y-129845218D01*
X148900778Y-129845218D01*
X148900781Y-129845220D01*
X149005137Y-129879127D01*
X149095465Y-129908477D01*
X149196557Y-129924488D01*
X149297648Y-129940500D01*
X149297649Y-129940500D01*
X149502351Y-129940500D01*
X149502352Y-129940500D01*
X149704534Y-129908477D01*
X149899219Y-129845220D01*
X150081610Y-129752287D01*
X150176304Y-129683488D01*
X150247213Y-129631971D01*
X150247215Y-129631968D01*
X150247219Y-129631966D01*
X150312319Y-129566866D01*
X150373642Y-129533381D01*
X150443334Y-129538365D01*
X150487681Y-129566866D01*
X150552786Y-129631971D01*
X150691444Y-129732710D01*
X150718390Y-129752287D01*
X150834607Y-129811503D01*
X150900776Y-129845218D01*
X150900778Y-129845218D01*
X150900781Y-129845220D01*
X151005137Y-129879127D01*
X151095465Y-129908477D01*
X151196557Y-129924488D01*
X151297648Y-129940500D01*
X151297649Y-129940500D01*
X151502351Y-129940500D01*
X151502352Y-129940500D01*
X151704534Y-129908477D01*
X151899219Y-129845220D01*
X152081610Y-129752287D01*
X152176304Y-129683488D01*
X152247213Y-129631971D01*
X152247215Y-129631968D01*
X152247219Y-129631966D01*
X152391966Y-129487219D01*
X152391968Y-129487215D01*
X152391971Y-129487213D01*
X152512286Y-129321611D01*
X152512415Y-129321359D01*
X152539795Y-129267621D01*
X152587769Y-129216826D01*
X152655589Y-129200030D01*
X152721725Y-129222567D01*
X152760765Y-129267621D01*
X152788141Y-129321350D01*
X152788147Y-129321359D01*
X152820523Y-129365921D01*
X152820524Y-129365922D01*
X153437449Y-128748997D01*
X153457370Y-128823343D01*
X153519905Y-128931657D01*
X153608343Y-129020095D01*
X153716657Y-129082630D01*
X153791002Y-129102550D01*
X153174076Y-129719474D01*
X153218650Y-129751859D01*
X153400968Y-129844755D01*
X153595582Y-129907990D01*
X153797683Y-129940000D01*
X154002317Y-129940000D01*
X154204417Y-129907990D01*
X154399031Y-129844755D01*
X154581351Y-129751858D01*
X154581353Y-129751857D01*
X154625921Y-129719475D01*
X154625921Y-129719474D01*
X154008997Y-129102550D01*
X154083343Y-129082630D01*
X154191657Y-129020095D01*
X154280095Y-128931657D01*
X154342630Y-128823343D01*
X154362550Y-128748998D01*
X154979474Y-129365922D01*
X154979474Y-129365921D01*
X155011859Y-129321349D01*
X155104755Y-129139031D01*
X155167990Y-128944417D01*
X155200000Y-128742317D01*
X155200000Y-128537682D01*
X155167990Y-128335582D01*
X155104755Y-128140968D01*
X155011859Y-127958650D01*
X154979474Y-127914077D01*
X154979474Y-127914076D01*
X154362550Y-128531001D01*
X154342630Y-128456657D01*
X154280095Y-128348343D01*
X154191657Y-128259905D01*
X154083343Y-128197370D01*
X154008996Y-128177449D01*
X154625922Y-127560524D01*
X154625921Y-127560523D01*
X154581359Y-127528147D01*
X154581350Y-127528141D01*
X154399031Y-127435244D01*
X154204417Y-127372009D01*
X154002317Y-127340000D01*
X153797683Y-127340000D01*
X153595582Y-127372009D01*
X153400968Y-127435244D01*
X153218644Y-127528143D01*
X153174077Y-127560523D01*
X153174077Y-127560524D01*
X153791003Y-128177449D01*
X153716657Y-128197370D01*
X153608343Y-128259905D01*
X153519905Y-128348343D01*
X153457370Y-128456657D01*
X153437449Y-128531002D01*
X152820524Y-127914077D01*
X152820523Y-127914077D01*
X152788143Y-127958644D01*
X152760765Y-128012378D01*
X152712790Y-128063174D01*
X152644969Y-128079969D01*
X152578834Y-128057431D01*
X152539795Y-128012378D01*
X152512284Y-127958385D01*
X152391971Y-127792786D01*
X152247213Y-127648028D01*
X152081613Y-127527715D01*
X152081612Y-127527714D01*
X152081610Y-127527713D01*
X152024653Y-127498691D01*
X151899223Y-127434781D01*
X151704534Y-127371522D01*
X151529995Y-127343878D01*
X151502352Y-127339500D01*
X151297648Y-127339500D01*
X151273329Y-127343351D01*
X151095465Y-127371522D01*
X150900776Y-127434781D01*
X150718386Y-127527715D01*
X150552786Y-127648028D01*
X150552782Y-127648032D01*
X150487681Y-127713134D01*
X150426358Y-127746619D01*
X150356666Y-127741635D01*
X150312319Y-127713134D01*
X150247213Y-127648028D01*
X150081613Y-127527715D01*
X150081612Y-127527714D01*
X150081610Y-127527713D01*
X150024653Y-127498691D01*
X149899223Y-127434781D01*
X149704534Y-127371522D01*
X149529995Y-127343878D01*
X149502352Y-127339500D01*
X149297648Y-127339500D01*
X149273329Y-127343351D01*
X149095465Y-127371522D01*
X148900776Y-127434781D01*
X148718386Y-127527715D01*
X148552786Y-127648028D01*
X148408032Y-127792782D01*
X148408028Y-127792787D01*
X148356070Y-127864302D01*
X148300740Y-127906968D01*
X148231127Y-127912947D01*
X148169332Y-127880341D01*
X148138046Y-127830421D01*
X148134814Y-127820666D01*
X148042712Y-127671344D01*
X147918656Y-127547288D01*
X147769334Y-127455186D01*
X147602797Y-127400001D01*
X147602795Y-127400000D01*
X147500010Y-127389500D01*
X146299998Y-127389500D01*
X146299981Y-127389501D01*
X146197203Y-127400000D01*
X146197200Y-127400001D01*
X146030668Y-127455185D01*
X146030663Y-127455187D01*
X145881342Y-127547289D01*
X145757289Y-127671342D01*
X145665187Y-127820663D01*
X145665185Y-127820668D01*
X145650726Y-127864302D01*
X145610001Y-127987203D01*
X145610001Y-127987204D01*
X145610000Y-127987204D01*
X145599500Y-128089983D01*
X137578776Y-128089983D01*
X137511859Y-127958650D01*
X137479474Y-127914077D01*
X137479474Y-127914076D01*
X136862550Y-128531001D01*
X136842630Y-128456657D01*
X136780095Y-128348343D01*
X136691657Y-128259905D01*
X136583343Y-128197370D01*
X136508996Y-128177449D01*
X137125922Y-127560524D01*
X137125921Y-127560523D01*
X137081359Y-127528147D01*
X137081350Y-127528141D01*
X136899031Y-127435244D01*
X136704417Y-127372009D01*
X136502317Y-127340000D01*
X136297683Y-127340000D01*
X136095582Y-127372009D01*
X135900968Y-127435244D01*
X135718644Y-127528143D01*
X135674077Y-127560523D01*
X135674077Y-127560524D01*
X136291003Y-128177449D01*
X136216657Y-128197370D01*
X136108343Y-128259905D01*
X136019905Y-128348343D01*
X135957370Y-128456657D01*
X135937449Y-128531002D01*
X135320524Y-127914077D01*
X135320523Y-127914077D01*
X135288143Y-127958644D01*
X135260765Y-128012378D01*
X135212790Y-128063174D01*
X135144969Y-128079969D01*
X135078834Y-128057431D01*
X135039795Y-128012378D01*
X135012284Y-127958385D01*
X134891971Y-127792786D01*
X134747213Y-127648028D01*
X134581613Y-127527715D01*
X134581612Y-127527714D01*
X134581610Y-127527713D01*
X134524653Y-127498691D01*
X134399223Y-127434781D01*
X134204534Y-127371522D01*
X134029995Y-127343878D01*
X134002352Y-127339500D01*
X133797648Y-127339500D01*
X133773329Y-127343351D01*
X133595465Y-127371522D01*
X133400776Y-127434781D01*
X133218386Y-127527715D01*
X133052786Y-127648028D01*
X133052782Y-127648032D01*
X132987681Y-127713134D01*
X132926358Y-127746619D01*
X132856666Y-127741635D01*
X132812319Y-127713134D01*
X132747213Y-127648028D01*
X132581613Y-127527715D01*
X132581612Y-127527714D01*
X132581610Y-127527713D01*
X132524653Y-127498691D01*
X132399223Y-127434781D01*
X132204534Y-127371522D01*
X132029995Y-127343878D01*
X132002352Y-127339500D01*
X131797648Y-127339500D01*
X131773329Y-127343351D01*
X131595465Y-127371522D01*
X131400776Y-127434781D01*
X131218386Y-127527715D01*
X131052786Y-127648028D01*
X130908032Y-127792782D01*
X130908028Y-127792787D01*
X130856070Y-127864302D01*
X130800740Y-127906968D01*
X130731127Y-127912947D01*
X130669332Y-127880341D01*
X130638046Y-127830421D01*
X130634814Y-127820666D01*
X130542712Y-127671344D01*
X130418656Y-127547288D01*
X130269334Y-127455186D01*
X130102797Y-127400001D01*
X130102795Y-127400000D01*
X130000010Y-127389500D01*
X128799998Y-127389500D01*
X128799981Y-127389501D01*
X128697203Y-127400000D01*
X128697200Y-127400001D01*
X128530668Y-127455185D01*
X128530663Y-127455187D01*
X128381342Y-127547289D01*
X128257289Y-127671342D01*
X128165187Y-127820663D01*
X128165185Y-127820668D01*
X128150726Y-127864302D01*
X128110001Y-127987203D01*
X128110001Y-127987204D01*
X128110000Y-127987204D01*
X128099500Y-128089983D01*
X110700500Y-128089983D01*
X110700500Y-123331006D01*
X110696077Y-123308775D01*
X110691655Y-123286543D01*
X110673580Y-123195672D01*
X110620775Y-123068189D01*
X110544114Y-122953457D01*
X110544112Y-122953454D01*
X110176819Y-122586161D01*
X110143334Y-122524838D01*
X110140500Y-122498480D01*
X110140500Y-121420099D01*
X110160185Y-121353060D01*
X110161398Y-121351208D01*
X110238013Y-121236547D01*
X110305894Y-121072666D01*
X110340500Y-120898691D01*
X110340500Y-120721309D01*
X110340500Y-120721306D01*
X110340499Y-120721304D01*
X110305896Y-120547341D01*
X110305893Y-120547332D01*
X110238016Y-120383459D01*
X110238009Y-120383446D01*
X110139464Y-120235965D01*
X110139461Y-120235961D01*
X110014038Y-120110538D01*
X110014034Y-120110535D01*
X109866553Y-120011990D01*
X109866540Y-120011983D01*
X109702667Y-119944106D01*
X109702658Y-119944103D01*
X109528694Y-119909500D01*
X109528691Y-119909500D01*
X109351309Y-119909500D01*
X109351306Y-119909500D01*
X109177341Y-119944103D01*
X109177332Y-119944106D01*
X109013459Y-120011983D01*
X109013446Y-120011990D01*
X108865965Y-120110535D01*
X108865961Y-120110538D01*
X108740538Y-120235961D01*
X108740535Y-120235965D01*
X108641990Y-120383446D01*
X108641983Y-120383459D01*
X108574106Y-120547332D01*
X108574103Y-120547341D01*
X108539500Y-120721304D01*
X108539500Y-120898695D01*
X108574103Y-121072658D01*
X108574106Y-121072667D01*
X108641984Y-121236542D01*
X108641985Y-121236543D01*
X108641987Y-121236547D01*
X108696066Y-121317481D01*
X108718602Y-121351208D01*
X108739480Y-121417885D01*
X108739500Y-121420099D01*
X108739500Y-122771006D01*
X108739500Y-122908994D01*
X108739500Y-122908996D01*
X108739499Y-122908996D01*
X108766418Y-123044322D01*
X108766421Y-123044332D01*
X108819222Y-123171807D01*
X108895887Y-123286544D01*
X108895888Y-123286546D01*
X109263181Y-123653838D01*
X109296666Y-123715161D01*
X109299500Y-123741519D01*
X109299500Y-130575500D01*
X109279815Y-130642539D01*
X109227011Y-130688294D01*
X109175500Y-130699500D01*
X109171155Y-130699500D01*
X109016510Y-130730261D01*
X109016498Y-130730264D01*
X108870827Y-130790602D01*
X108870814Y-130790609D01*
X108739711Y-130878210D01*
X108739707Y-130878213D01*
X108628213Y-130989707D01*
X108628210Y-130989711D01*
X108540609Y-131120814D01*
X108540602Y-131120827D01*
X108480264Y-131266498D01*
X108480261Y-131266507D01*
X108462195Y-131357330D01*
X108429809Y-131419240D01*
X108369093Y-131453814D01*
X108299324Y-131450073D01*
X108252897Y-131420818D01*
X108210292Y-131378213D01*
X108210288Y-131378210D01*
X108079185Y-131290609D01*
X108079176Y-131290604D01*
X108034811Y-131272228D01*
X107994583Y-131245348D01*
X107487590Y-130738355D01*
X107487588Y-130738352D01*
X107368717Y-130619481D01*
X107368716Y-130619480D01*
X107281904Y-130569360D01*
X107281904Y-130569359D01*
X107281900Y-130569358D01*
X107231785Y-130540423D01*
X107079057Y-130499499D01*
X106920943Y-130499499D01*
X106913347Y-130499499D01*
X106913331Y-130499500D01*
X94379766Y-130499500D01*
X94312727Y-130479815D01*
X94310875Y-130478602D01*
X94179185Y-130390609D01*
X94179172Y-130390602D01*
X94033501Y-130330264D01*
X94033489Y-130330261D01*
X93878845Y-130299500D01*
X93878842Y-130299500D01*
X93721158Y-130299500D01*
X93721155Y-130299500D01*
X93566510Y-130330261D01*
X93566498Y-130330264D01*
X93420827Y-130390602D01*
X93420814Y-130390609D01*
X93289711Y-130478210D01*
X93289707Y-130478213D01*
X93178213Y-130589707D01*
X93178210Y-130589711D01*
X93090609Y-130720814D01*
X93090602Y-130720827D01*
X93030264Y-130866498D01*
X93030261Y-130866510D01*
X92999500Y-131021153D01*
X92999500Y-131178846D01*
X93030261Y-131333489D01*
X93030264Y-131333501D01*
X93090602Y-131479172D01*
X93090609Y-131479185D01*
X93178210Y-131610288D01*
X93178213Y-131610292D01*
X93289707Y-131721786D01*
X93289711Y-131721789D01*
X93420814Y-131809390D01*
X93420827Y-131809397D01*
X93499894Y-131842147D01*
X93566503Y-131869737D01*
X93694614Y-131895220D01*
X93721153Y-131900499D01*
X93721156Y-131900500D01*
X93721158Y-131900500D01*
X93878844Y-131900500D01*
X93878845Y-131900499D01*
X94033497Y-131869737D01*
X94179179Y-131809394D01*
X94281508Y-131741020D01*
X94310875Y-131721398D01*
X94377553Y-131700520D01*
X94379766Y-131700500D01*
X104614963Y-131700500D01*
X104682002Y-131720185D01*
X104727757Y-131772989D01*
X104737701Y-131842147D01*
X104708676Y-131905703D01*
X104662415Y-131939061D01*
X104596562Y-131966337D01*
X104596549Y-131966344D01*
X104465446Y-132053945D01*
X104465442Y-132053948D01*
X104353948Y-132165442D01*
X104353945Y-132165446D01*
X104266344Y-132296549D01*
X104266337Y-132296562D01*
X104205999Y-132442233D01*
X104205996Y-132442245D01*
X104175235Y-132596888D01*
X104175235Y-132754581D01*
X104205996Y-132909224D01*
X104205999Y-132909236D01*
X104266337Y-133054907D01*
X104266344Y-133054920D01*
X104353945Y-133186023D01*
X104353947Y-133186026D01*
X104363178Y-133195256D01*
X104396665Y-133256577D01*
X104399500Y-133282940D01*
X104399500Y-134048432D01*
X104379815Y-134115471D01*
X104363181Y-134136113D01*
X103398663Y-135100630D01*
X103337340Y-135134115D01*
X103267648Y-135129131D01*
X103242091Y-135116051D01*
X103129185Y-135040609D01*
X103129172Y-135040602D01*
X102983501Y-134980264D01*
X102983489Y-134980261D01*
X102828845Y-134949500D01*
X102828842Y-134949500D01*
X102671158Y-134949500D01*
X102671155Y-134949500D01*
X102516510Y-134980261D01*
X102516498Y-134980264D01*
X102370827Y-135040602D01*
X102370814Y-135040609D01*
X102239711Y-135128210D01*
X102239707Y-135128213D01*
X102128213Y-135239707D01*
X102128210Y-135239711D01*
X102040609Y-135370814D01*
X102040602Y-135370827D01*
X101980264Y-135516498D01*
X101980261Y-135516508D01*
X101949362Y-135671848D01*
X101916977Y-135733759D01*
X101915426Y-135735337D01*
X98887584Y-138763181D01*
X98826261Y-138796666D01*
X98799903Y-138799500D01*
X86597956Y-138799500D01*
X86530917Y-138779815D01*
X86485162Y-138727011D01*
X86476339Y-138699691D01*
X86469738Y-138666510D01*
X86469737Y-138666503D01*
X86463524Y-138651504D01*
X86409397Y-138520827D01*
X86409390Y-138520814D01*
X86321789Y-138389711D01*
X86321786Y-138389707D01*
X86210292Y-138278213D01*
X86210288Y-138278210D01*
X86079185Y-138190609D01*
X86079172Y-138190602D01*
X85933501Y-138130264D01*
X85933489Y-138130261D01*
X85778845Y-138099500D01*
X85778842Y-138099500D01*
X85621158Y-138099500D01*
X85621155Y-138099500D01*
X85466510Y-138130261D01*
X85466498Y-138130264D01*
X85320827Y-138190602D01*
X85320814Y-138190609D01*
X85189711Y-138278210D01*
X85189707Y-138278213D01*
X85078213Y-138389707D01*
X85078210Y-138389711D01*
X84990609Y-138520814D01*
X84990602Y-138520827D01*
X84930264Y-138666498D01*
X84930261Y-138666510D01*
X84899500Y-138821153D01*
X84899500Y-138978846D01*
X84930261Y-139133489D01*
X84930264Y-139133501D01*
X84990602Y-139279172D01*
X84990609Y-139279185D01*
X85078210Y-139410288D01*
X85078213Y-139410292D01*
X85189707Y-139521786D01*
X85189711Y-139521789D01*
X85320814Y-139609390D01*
X85320827Y-139609397D01*
X85398769Y-139641681D01*
X85466503Y-139669737D01*
X85621158Y-139700500D01*
X85621847Y-139700637D01*
X85683758Y-139733022D01*
X85685337Y-139734573D01*
X85831284Y-139880520D01*
X85831286Y-139880521D01*
X85831290Y-139880524D01*
X85968209Y-139959573D01*
X85968216Y-139959577D01*
X86120943Y-140000501D01*
X86120945Y-140000501D01*
X86286654Y-140000501D01*
X86286670Y-140000500D01*
X87782152Y-140000500D01*
X87812607Y-140009442D01*
X87843511Y-140016745D01*
X87845897Y-140019217D01*
X87849191Y-140020185D01*
X87869972Y-140044167D01*
X87892027Y-140067024D01*
X87893571Y-140071403D01*
X87894946Y-140072989D01*
X87903769Y-140100308D01*
X87913914Y-140151308D01*
X87907687Y-140220899D01*
X87864825Y-140276077D01*
X87798935Y-140299322D01*
X87792297Y-140299500D01*
X84004067Y-140299500D01*
X83995957Y-140299235D01*
X83773221Y-140284636D01*
X83757140Y-140282518D01*
X83542225Y-140239769D01*
X83526558Y-140235571D01*
X83319060Y-140165135D01*
X83304074Y-140158928D01*
X83107535Y-140062005D01*
X83093489Y-140053895D01*
X82911294Y-139932157D01*
X82898425Y-139922283D01*
X82733671Y-139777797D01*
X82722202Y-139766328D01*
X82577716Y-139601574D01*
X82567842Y-139588705D01*
X82446104Y-139406510D01*
X82437994Y-139392464D01*
X82341071Y-139195925D01*
X82334864Y-139180939D01*
X82266263Y-138978846D01*
X82264426Y-138973434D01*
X82260230Y-138957774D01*
X82217479Y-138742848D01*
X82215364Y-138726790D01*
X82200765Y-138504043D01*
X82200500Y-138495933D01*
X82200500Y-125921153D01*
X106449500Y-125921153D01*
X106449500Y-126078846D01*
X106480261Y-126233489D01*
X106480264Y-126233501D01*
X106540602Y-126379172D01*
X106540609Y-126379185D01*
X106628210Y-126510288D01*
X106628213Y-126510292D01*
X106739707Y-126621786D01*
X106739711Y-126621789D01*
X106870814Y-126709390D01*
X106870827Y-126709397D01*
X107016498Y-126769735D01*
X107016503Y-126769737D01*
X107171153Y-126800499D01*
X107171156Y-126800500D01*
X107171158Y-126800500D01*
X107328844Y-126800500D01*
X107328845Y-126800499D01*
X107483497Y-126769737D01*
X107629179Y-126709394D01*
X107760289Y-126621789D01*
X107871789Y-126510289D01*
X107959394Y-126379179D01*
X108019737Y-126233497D01*
X108050500Y-126078842D01*
X108050500Y-125921158D01*
X108050500Y-125921155D01*
X108050499Y-125921153D01*
X108019738Y-125766510D01*
X108019737Y-125766503D01*
X108019735Y-125766498D01*
X107959397Y-125620827D01*
X107959390Y-125620814D01*
X107871398Y-125489125D01*
X107850520Y-125422447D01*
X107850500Y-125420234D01*
X107850500Y-120544836D01*
X107870185Y-120477797D01*
X107905609Y-120441734D01*
X108010289Y-120371789D01*
X108121786Y-120260292D01*
X108121789Y-120260289D01*
X108209394Y-120129179D01*
X108269737Y-119983497D01*
X108300500Y-119828842D01*
X108300500Y-119671158D01*
X108300500Y-119671155D01*
X108300499Y-119671153D01*
X108269738Y-119516510D01*
X108269737Y-119516503D01*
X108240449Y-119445795D01*
X108209397Y-119370827D01*
X108209390Y-119370814D01*
X108121789Y-119239711D01*
X108121786Y-119239707D01*
X108010292Y-119128213D01*
X108010288Y-119128210D01*
X107879185Y-119040609D01*
X107879172Y-119040602D01*
X107733501Y-118980264D01*
X107733489Y-118980261D01*
X107578845Y-118949500D01*
X107578842Y-118949500D01*
X107421158Y-118949500D01*
X107421155Y-118949500D01*
X107266510Y-118980261D01*
X107266498Y-118980264D01*
X107120827Y-119040602D01*
X107120814Y-119040609D01*
X106989711Y-119128210D01*
X106989707Y-119128213D01*
X106878213Y-119239707D01*
X106878210Y-119239711D01*
X106790609Y-119370814D01*
X106790602Y-119370827D01*
X106730264Y-119516498D01*
X106730261Y-119516510D01*
X106699500Y-119671153D01*
X106699500Y-119721636D01*
X106691834Y-119760179D01*
X106692527Y-119760365D01*
X106690424Y-119768213D01*
X106690423Y-119768215D01*
X106649499Y-119920943D01*
X106649499Y-119920945D01*
X106649499Y-120089046D01*
X106649500Y-120089059D01*
X106649500Y-125420234D01*
X106629815Y-125487273D01*
X106628602Y-125489125D01*
X106540609Y-125620814D01*
X106540602Y-125620827D01*
X106480264Y-125766498D01*
X106480261Y-125766510D01*
X106449500Y-125921153D01*
X82200500Y-125921153D01*
X82200500Y-120434077D01*
X82220185Y-120367038D01*
X82272989Y-120321283D01*
X82342147Y-120311339D01*
X82405703Y-120340364D01*
X82412181Y-120346396D01*
X82472533Y-120406748D01*
X82472537Y-120406751D01*
X82636315Y-120516185D01*
X82636328Y-120516192D01*
X82818306Y-120591569D01*
X82818318Y-120591572D01*
X83011504Y-120629999D01*
X83011508Y-120630000D01*
X83160000Y-120630000D01*
X83160000Y-119930000D01*
X83660000Y-119930000D01*
X83660000Y-120630000D01*
X83808492Y-120630000D01*
X83808495Y-120629999D01*
X84001681Y-120591572D01*
X84001693Y-120591569D01*
X84183671Y-120516192D01*
X84183684Y-120516185D01*
X84347462Y-120406751D01*
X84347466Y-120406748D01*
X84486748Y-120267466D01*
X84486751Y-120267462D01*
X84596185Y-120103684D01*
X84596192Y-120103671D01*
X84671569Y-119921692D01*
X84671569Y-119921690D01*
X84679862Y-119880000D01*
X83876988Y-119880000D01*
X83894205Y-119870060D01*
X83950060Y-119814205D01*
X83989556Y-119745796D01*
X84010000Y-119669496D01*
X84010000Y-119590504D01*
X83989556Y-119514204D01*
X83950060Y-119445795D01*
X83894205Y-119389940D01*
X83876988Y-119380000D01*
X84679862Y-119380000D01*
X86070138Y-119380000D01*
X86873012Y-119380000D01*
X86855795Y-119389940D01*
X86799940Y-119445795D01*
X86760444Y-119514204D01*
X86740000Y-119590504D01*
X86740000Y-119669496D01*
X86760444Y-119745796D01*
X86799940Y-119814205D01*
X86855795Y-119870060D01*
X86873012Y-119880000D01*
X86070138Y-119880000D01*
X86078430Y-119921690D01*
X86078430Y-119921692D01*
X86153807Y-120103671D01*
X86153814Y-120103684D01*
X86263248Y-120267462D01*
X86263251Y-120267466D01*
X86402533Y-120406748D01*
X86402537Y-120406751D01*
X86566315Y-120516185D01*
X86566328Y-120516192D01*
X86748306Y-120591569D01*
X86748318Y-120591572D01*
X86941504Y-120629999D01*
X86941508Y-120630000D01*
X87340000Y-120630000D01*
X87340000Y-119930000D01*
X87840000Y-119930000D01*
X87840000Y-120630000D01*
X88238492Y-120630000D01*
X88238495Y-120629999D01*
X88431681Y-120591572D01*
X88431693Y-120591569D01*
X88613671Y-120516192D01*
X88613684Y-120516185D01*
X88777462Y-120406751D01*
X88777466Y-120406748D01*
X88916748Y-120267466D01*
X88916751Y-120267462D01*
X89026185Y-120103684D01*
X89026192Y-120103671D01*
X89101569Y-119921692D01*
X89101569Y-119921690D01*
X89109862Y-119880000D01*
X88306988Y-119880000D01*
X88324205Y-119870060D01*
X88380060Y-119814205D01*
X88419556Y-119745796D01*
X88440000Y-119669496D01*
X88440000Y-119590504D01*
X88419556Y-119514204D01*
X88380060Y-119445795D01*
X88324205Y-119389940D01*
X88306988Y-119380000D01*
X89109862Y-119380000D01*
X89101569Y-119338309D01*
X89101569Y-119338307D01*
X89026192Y-119156328D01*
X89026185Y-119156315D01*
X88916751Y-118992537D01*
X88916748Y-118992533D01*
X88777466Y-118853251D01*
X88777462Y-118853248D01*
X88613684Y-118743814D01*
X88613671Y-118743807D01*
X88431693Y-118668430D01*
X88431681Y-118668427D01*
X88238495Y-118630000D01*
X87840000Y-118630000D01*
X87840000Y-119330000D01*
X87340000Y-119330000D01*
X87340000Y-118774463D01*
X87359685Y-118707424D01*
X87402000Y-118667076D01*
X87413365Y-118660515D01*
X87520515Y-118553365D01*
X87521372Y-118551879D01*
X87541721Y-118516637D01*
X87596279Y-118422138D01*
X87596281Y-118422135D01*
X87635500Y-118275766D01*
X87635500Y-118124234D01*
X87596281Y-117977865D01*
X87520515Y-117846635D01*
X87413365Y-117739485D01*
X87347750Y-117701602D01*
X87282136Y-117663719D01*
X87208950Y-117644109D01*
X87135766Y-117624500D01*
X86984234Y-117624500D01*
X86837863Y-117663719D01*
X86706635Y-117739485D01*
X86706632Y-117739487D01*
X86599487Y-117846632D01*
X86599485Y-117846635D01*
X86523719Y-117977863D01*
X86484500Y-118124234D01*
X86484500Y-118275765D01*
X86523719Y-118422136D01*
X86561602Y-118487750D01*
X86599485Y-118553365D01*
X86599487Y-118553367D01*
X86604432Y-118559811D01*
X86601612Y-118561974D01*
X86627302Y-118609020D01*
X86622318Y-118678712D01*
X86580446Y-118734645D01*
X86571379Y-118740416D01*
X86571387Y-118740427D01*
X86402536Y-118853248D01*
X86263251Y-118992533D01*
X86263248Y-118992537D01*
X86153814Y-119156315D01*
X86153807Y-119156328D01*
X86078430Y-119338307D01*
X86078430Y-119338309D01*
X86070138Y-119380000D01*
X84679862Y-119380000D01*
X84671569Y-119338309D01*
X84671569Y-119338307D01*
X84596192Y-119156328D01*
X84596185Y-119156315D01*
X84486751Y-118992537D01*
X84486748Y-118992533D01*
X84347466Y-118853251D01*
X84347462Y-118853248D01*
X84183684Y-118743814D01*
X84183671Y-118743807D01*
X84001693Y-118668430D01*
X84001681Y-118668427D01*
X83808495Y-118630000D01*
X83660000Y-118630000D01*
X83660000Y-119330000D01*
X83160000Y-119330000D01*
X83160000Y-118630000D01*
X83011504Y-118630000D01*
X82818318Y-118668427D01*
X82818306Y-118668430D01*
X82636328Y-118743807D01*
X82636315Y-118743814D01*
X82472537Y-118853248D01*
X82472533Y-118853251D01*
X82412181Y-118913604D01*
X82350858Y-118947089D01*
X82281166Y-118942105D01*
X82225233Y-118900233D01*
X82200816Y-118834769D01*
X82200500Y-118825923D01*
X82200500Y-111794077D01*
X82220185Y-111727038D01*
X82272989Y-111681283D01*
X82342147Y-111671339D01*
X82405703Y-111700364D01*
X82412181Y-111706396D01*
X82472533Y-111766748D01*
X82472537Y-111766751D01*
X82636315Y-111876185D01*
X82636328Y-111876192D01*
X82818306Y-111951569D01*
X82818318Y-111951572D01*
X83011504Y-111989999D01*
X83011508Y-111990000D01*
X83160000Y-111990000D01*
X83160000Y-111290000D01*
X83660000Y-111290000D01*
X83660000Y-111990000D01*
X83808492Y-111990000D01*
X83808495Y-111989999D01*
X84001681Y-111951572D01*
X84001693Y-111951569D01*
X84183671Y-111876192D01*
X84183684Y-111876185D01*
X84347462Y-111766751D01*
X84347466Y-111766748D01*
X84486748Y-111627466D01*
X84486751Y-111627462D01*
X84596185Y-111463684D01*
X84596192Y-111463671D01*
X84671569Y-111281692D01*
X84671569Y-111281690D01*
X84679862Y-111240000D01*
X83876988Y-111240000D01*
X83894205Y-111230060D01*
X83950060Y-111174205D01*
X83989556Y-111105796D01*
X84010000Y-111029496D01*
X84010000Y-110950504D01*
X83989556Y-110874204D01*
X83950060Y-110805795D01*
X83894205Y-110749940D01*
X83876988Y-110740000D01*
X84679862Y-110740000D01*
X86070138Y-110740000D01*
X86873012Y-110740000D01*
X86855795Y-110749940D01*
X86799940Y-110805795D01*
X86760444Y-110874204D01*
X86740000Y-110950504D01*
X86740000Y-111029496D01*
X86760444Y-111105796D01*
X86799940Y-111174205D01*
X86855795Y-111230060D01*
X86873012Y-111240000D01*
X86070138Y-111240000D01*
X86078430Y-111281690D01*
X86078430Y-111281692D01*
X86153807Y-111463671D01*
X86153814Y-111463684D01*
X86263248Y-111627462D01*
X86263251Y-111627466D01*
X86402533Y-111766748D01*
X86402537Y-111766751D01*
X86571387Y-111879574D01*
X86570430Y-111881005D01*
X86614425Y-111924211D01*
X86629895Y-111992346D01*
X86606072Y-112058029D01*
X86604309Y-112060094D01*
X86604432Y-112060189D01*
X86599485Y-112066635D01*
X86523719Y-112197863D01*
X86484500Y-112344234D01*
X86484500Y-112495765D01*
X86523719Y-112642136D01*
X86561602Y-112707750D01*
X86599485Y-112773365D01*
X86706635Y-112880515D01*
X86837865Y-112956281D01*
X86984234Y-112995500D01*
X86984236Y-112995500D01*
X87135764Y-112995500D01*
X87135766Y-112995500D01*
X87282135Y-112956281D01*
X87413365Y-112880515D01*
X87520515Y-112773365D01*
X87596281Y-112642135D01*
X87635500Y-112495766D01*
X87635500Y-112344234D01*
X87596281Y-112197865D01*
X87520515Y-112066635D01*
X87413365Y-111959485D01*
X87401998Y-111952922D01*
X87353783Y-111902354D01*
X87340000Y-111845536D01*
X87340000Y-111290000D01*
X87840000Y-111290000D01*
X87840000Y-111990000D01*
X88238492Y-111990000D01*
X88238495Y-111989999D01*
X88431681Y-111951572D01*
X88431693Y-111951569D01*
X88613671Y-111876192D01*
X88613684Y-111876185D01*
X88777462Y-111766751D01*
X88777466Y-111766748D01*
X88916748Y-111627466D01*
X88916751Y-111627462D01*
X89026185Y-111463684D01*
X89026192Y-111463671D01*
X89101569Y-111281692D01*
X89101569Y-111281690D01*
X89109862Y-111240000D01*
X88306988Y-111240000D01*
X88324205Y-111230060D01*
X88380060Y-111174205D01*
X88419556Y-111105796D01*
X88440000Y-111029496D01*
X88440000Y-110950504D01*
X88419556Y-110874204D01*
X88380060Y-110805795D01*
X88324205Y-110749940D01*
X88306988Y-110740000D01*
X89109862Y-110740000D01*
X89101569Y-110698309D01*
X89101569Y-110698307D01*
X89026192Y-110516328D01*
X89026185Y-110516315D01*
X88916751Y-110352537D01*
X88916748Y-110352533D01*
X88777466Y-110213251D01*
X88777462Y-110213248D01*
X88613684Y-110103814D01*
X88613671Y-110103807D01*
X88431693Y-110028430D01*
X88431681Y-110028427D01*
X88238495Y-109990000D01*
X87840000Y-109990000D01*
X87840000Y-110690000D01*
X87340000Y-110690000D01*
X87340000Y-109990000D01*
X86941504Y-109990000D01*
X86748318Y-110028427D01*
X86748306Y-110028430D01*
X86566328Y-110103807D01*
X86566315Y-110103814D01*
X86402537Y-110213248D01*
X86402533Y-110213251D01*
X86263251Y-110352533D01*
X86263248Y-110352537D01*
X86153814Y-110516315D01*
X86153807Y-110516328D01*
X86078430Y-110698307D01*
X86078430Y-110698309D01*
X86070138Y-110740000D01*
X84679862Y-110740000D01*
X84671569Y-110698309D01*
X84671569Y-110698307D01*
X84596192Y-110516328D01*
X84596185Y-110516315D01*
X84486751Y-110352537D01*
X84486748Y-110352533D01*
X84347466Y-110213251D01*
X84347462Y-110213248D01*
X84183684Y-110103814D01*
X84183671Y-110103807D01*
X84001693Y-110028430D01*
X84001681Y-110028427D01*
X83808495Y-109990000D01*
X83660000Y-109990000D01*
X83660000Y-110690000D01*
X83160000Y-110690000D01*
X83160000Y-109990000D01*
X83011504Y-109990000D01*
X82818318Y-110028427D01*
X82818306Y-110028430D01*
X82636328Y-110103807D01*
X82636315Y-110103814D01*
X82472537Y-110213248D01*
X82472533Y-110213251D01*
X82412181Y-110273604D01*
X82350858Y-110307089D01*
X82281166Y-110302105D01*
X82225233Y-110260233D01*
X82200816Y-110194769D01*
X82200500Y-110185923D01*
X82200500Y-109904066D01*
X82200765Y-109895956D01*
X82209224Y-109766894D01*
X82215364Y-109673207D01*
X82217479Y-109657153D01*
X82260232Y-109442215D01*
X82264425Y-109426568D01*
X82334867Y-109219052D01*
X82341068Y-109204081D01*
X82437996Y-109007530D01*
X82446100Y-108993494D01*
X82567845Y-108811289D01*
X82577711Y-108798430D01*
X82722207Y-108633665D01*
X82733665Y-108622207D01*
X82898430Y-108477711D01*
X82911289Y-108467845D01*
X83093494Y-108346100D01*
X83107530Y-108337996D01*
X83304081Y-108241068D01*
X83319052Y-108234867D01*
X83526568Y-108164425D01*
X83542215Y-108160232D01*
X83757153Y-108117479D01*
X83773209Y-108115364D01*
X83978058Y-108101938D01*
X83995958Y-108100765D01*
X84004067Y-108100500D01*
X84039882Y-108100500D01*
X109562225Y-108100500D01*
X109598213Y-108100500D01*
X109605989Y-108100743D01*
G37*
%TD.AperFunction*%
%TD*%
M02*
