%TF.GenerationSoftware,KiCad,Pcbnew,10.0.1*%
%TF.CreationDate,2026-05-10T15:17:57+10:00*%
%TF.ProjectId,YetAnotherUSBHub,59657441-6e6f-4746-9865-725553424875,rev?*%
%TF.SameCoordinates,Original*%
%TF.FileFunction,Copper,L1,Top*%
%TF.FilePolarity,Positive*%
%FSLAX46Y46*%
G04 Gerber Fmt 4.6, Leading zero omitted, Abs format (unit mm)*
G04 Created by KiCad (PCBNEW 10.0.1) date 2026-05-10 15:17:57*
%MOMM*%
%LPD*%
G01*
G04 APERTURE LIST*
G04 Aperture macros list*
%AMRoundRect*
0 Rectangle with rounded corners*
0 $1 Rounding radius*
0 $2 $3 $4 $5 $6 $7 $8 $9 X,Y pos of 4 corners*
0 Add a 4 corners polygon primitive as box body*
4,1,4,$2,$3,$4,$5,$6,$7,$8,$9,$2,$3,0*
0 Add four circle primitives for the rounded corners*
1,1,$1+$1,$2,$3*
1,1,$1+$1,$4,$5*
1,1,$1+$1,$6,$7*
1,1,$1+$1,$8,$9*
0 Add four rect primitives between the rounded corners*
20,1,$1+$1,$2,$3,$4,$5,0*
20,1,$1+$1,$4,$5,$6,$7,0*
20,1,$1+$1,$6,$7,$8,$9,0*
20,1,$1+$1,$8,$9,$2,$3,0*%
G04 Aperture macros list end*
%TA.AperFunction,ComponentPad*%
%ADD10RoundRect,0.250000X-0.550000X-0.500000X0.550000X-0.500000X0.550000X0.500000X-0.550000X0.500000X0*%
%TD*%
%TA.AperFunction,ComponentPad*%
%ADD11C,1.600000*%
%TD*%
%TA.AperFunction,ComponentPad*%
%ADD12C,3.000000*%
%TD*%
%TA.AperFunction,SMDPad,CuDef*%
%ADD13RoundRect,0.135000X-0.135000X-0.185000X0.135000X-0.185000X0.135000X0.185000X-0.135000X0.185000X0*%
%TD*%
%TA.AperFunction,SMDPad,CuDef*%
%ADD14RoundRect,0.135000X0.185000X-0.135000X0.185000X0.135000X-0.185000X0.135000X-0.185000X-0.135000X0*%
%TD*%
%TA.AperFunction,SMDPad,CuDef*%
%ADD15RoundRect,0.140000X-0.170000X0.140000X-0.170000X-0.140000X0.170000X-0.140000X0.170000X0.140000X0*%
%TD*%
%TA.AperFunction,SMDPad,CuDef*%
%ADD16O,0.560000X1.745000*%
%TD*%
%TA.AperFunction,SMDPad,CuDef*%
%ADD17RoundRect,0.135000X0.135000X0.185000X-0.135000X0.185000X-0.135000X-0.185000X0.135000X-0.185000X0*%
%TD*%
%TA.AperFunction,SMDPad,CuDef*%
%ADD18RoundRect,0.140000X-0.140000X-0.170000X0.140000X-0.170000X0.140000X0.170000X-0.140000X0.170000X0*%
%TD*%
%TA.AperFunction,SMDPad,CuDef*%
%ADD19RoundRect,0.147500X-0.147500X-0.172500X0.147500X-0.172500X0.147500X0.172500X-0.147500X0.172500X0*%
%TD*%
%TA.AperFunction,SMDPad,CuDef*%
%ADD20RoundRect,0.150000X-0.575000X0.150000X-0.575000X-0.150000X0.575000X-0.150000X0.575000X0.150000X0*%
%TD*%
%TA.AperFunction,SMDPad,CuDef*%
%ADD21RoundRect,0.075000X-0.650000X0.075000X-0.650000X-0.075000X0.650000X-0.075000X0.650000X0.075000X0*%
%TD*%
%TA.AperFunction,ComponentPad*%
%ADD22O,2.100000X1.000000*%
%TD*%
%TA.AperFunction,ComponentPad*%
%ADD23O,1.600000X1.000000*%
%TD*%
%TA.AperFunction,SMDPad,CuDef*%
%ADD24RoundRect,0.112500X0.187500X0.112500X-0.187500X0.112500X-0.187500X-0.112500X0.187500X-0.112500X0*%
%TD*%
%TA.AperFunction,SMDPad,CuDef*%
%ADD25O,0.356000X1.815000*%
%TD*%
%TA.AperFunction,SMDPad,CuDef*%
%ADD26RoundRect,0.140000X0.170000X-0.140000X0.170000X0.140000X-0.170000X0.140000X-0.170000X-0.140000X0*%
%TD*%
%TA.AperFunction,SMDPad,CuDef*%
%ADD27RoundRect,0.150000X-0.150000X-0.575000X0.150000X-0.575000X0.150000X0.575000X-0.150000X0.575000X0*%
%TD*%
%TA.AperFunction,SMDPad,CuDef*%
%ADD28RoundRect,0.075000X-0.075000X-0.650000X0.075000X-0.650000X0.075000X0.650000X-0.075000X0.650000X0*%
%TD*%
%TA.AperFunction,ComponentPad*%
%ADD29O,1.000000X2.100000*%
%TD*%
%TA.AperFunction,ComponentPad*%
%ADD30O,1.000000X1.600000*%
%TD*%
%TA.AperFunction,SMDPad,CuDef*%
%ADD31R,1.100000X0.850000*%
%TD*%
%TA.AperFunction,SMDPad,CuDef*%
%ADD32R,1.100000X0.750000*%
%TD*%
%TA.AperFunction,SMDPad,CuDef*%
%ADD33R,1.000000X1.200000*%
%TD*%
%TA.AperFunction,SMDPad,CuDef*%
%ADD34R,1.350000X1.550000*%
%TD*%
%TA.AperFunction,SMDPad,CuDef*%
%ADD35R,1.350000X1.900000*%
%TD*%
%TA.AperFunction,SMDPad,CuDef*%
%ADD36R,1.800000X1.170000*%
%TD*%
%TA.AperFunction,ViaPad*%
%ADD37C,0.600000*%
%TD*%
%TA.AperFunction,ViaPad*%
%ADD38C,0.800000*%
%TD*%
%TA.AperFunction,Conductor*%
%ADD39C,0.600000*%
%TD*%
%TA.AperFunction,Conductor*%
%ADD40C,0.200000*%
%TD*%
%TA.AperFunction,Conductor*%
%ADD41C,0.400000*%
%TD*%
G04 APERTURE END LIST*
D10*
%TO.P,J1,1,VBUS_1*%
%TO.N,/VBUS*%
X146900000Y-128640000D03*
D11*
%TO.P,J1,2,D-_2*%
%TO.N,/USB1_D-*%
X149400000Y-128640000D03*
%TO.P,J1,3,D+_3*%
%TO.N,/USB1_D+*%
X151400000Y-128640000D03*
%TO.P,J1,4,GND_4*%
%TO.N,GND*%
X153900000Y-128640000D03*
D12*
%TO.P,J1,SH,Shield_SH*%
X143830000Y-131350000D03*
X156970000Y-131350000D03*
%TD*%
D13*
%TO.P,R2,1*%
%TO.N,Net-(J4-CC2)*%
X90690000Y-117100000D03*
%TO.P,R2,2*%
%TO.N,GND*%
X91710000Y-117100000D03*
%TD*%
D14*
%TO.P,R4,1*%
%TO.N,Net-(J5-CC2)*%
X119000000Y-132210000D03*
%TO.P,R4,2*%
%TO.N,GND*%
X119000000Y-131190000D03*
%TD*%
D15*
%TO.P,C2,1*%
%TO.N,/VBUS*%
X142800000Y-127020000D03*
%TO.P,C2,2*%
%TO.N,GND*%
X142800000Y-127980000D03*
%TD*%
D16*
%TO.P,U1,1,DM4_1*%
%TO.N,/USB4_D-*%
X104050000Y-123870000D03*
%TO.P,U1,2,DP4_2*%
%TO.N,/USB4_D+*%
X105330000Y-123870000D03*
%TO.P,U1,3,DM3_3*%
%TO.N,/USB3_D-*%
X106600000Y-123870000D03*
%TO.P,U1,4,DP3_4*%
%TO.N,/USB3_D+*%
X107870000Y-123870000D03*
%TO.P,U1,5,DM2_5*%
%TO.N,/USB2_D-*%
X109130000Y-123870000D03*
%TO.P,U1,6,DP2_6*%
%TO.N,/USB2_D+*%
X110400000Y-123870000D03*
%TO.P,U1,7,DM1_7*%
%TO.N,/USB1_D-*%
X111670000Y-123870000D03*
%TO.P,U1,8,DP1_8*%
%TO.N,/USB1_D+*%
X112950000Y-123870000D03*
%TO.P,U1,9,DM_9*%
%TO.N,/USB_D-*%
X112950000Y-118130000D03*
%TO.P,U1,10,DP_10*%
%TO.N,/USB_D+*%
X111670000Y-118130000D03*
%TO.P,U1,11,VDD5_11*%
%TO.N,/VBUS*%
X110400000Y-118130000D03*
%TO.P,U1,12,GND_12*%
%TO.N,GND*%
X109130000Y-118130000D03*
%TO.P,U1,13,VDD33_13*%
%TO.N,+3V3*%
X107870000Y-118130000D03*
%TO.P,U1,14,VDD18_14*%
%TO.N,Net-(U1-VDD18)*%
X106600000Y-118130000D03*
%TO.P,U1,15,XOUT_15*%
%TO.N,unconnected-(U1-XOUT-Pad15)*%
X105330000Y-118130000D03*
%TO.P,U1,16,XIN_16*%
%TO.N,GND*%
X104050000Y-118130000D03*
%TD*%
D17*
%TO.P,R3,1*%
%TO.N,Net-(J5-CC1)*%
X113510000Y-132200000D03*
%TO.P,R3,2*%
%TO.N,GND*%
X112490000Y-132200000D03*
%TD*%
D13*
%TO.P,R1,1*%
%TO.N,Net-(J4-CC1)*%
X90390000Y-113800000D03*
%TO.P,R1,2*%
%TO.N,GND*%
X91410000Y-113800000D03*
%TD*%
D15*
%TO.P,C9,1*%
%TO.N,/PMOS*%
X109000000Y-137020000D03*
%TO.P,C9,2*%
%TO.N,GND*%
X109000000Y-137980000D03*
%TD*%
D18*
%TO.P,C1,1*%
%TO.N,/VBUS*%
X99420000Y-120000000D03*
%TO.P,C1,2*%
%TO.N,GND*%
X100380000Y-120000000D03*
%TD*%
D10*
%TO.P,J2,1,VBUS_1*%
%TO.N,/VBUS*%
X129400000Y-128640000D03*
D11*
%TO.P,J2,2,D-_2*%
%TO.N,/USB2_D-*%
X131900000Y-128640000D03*
%TO.P,J2,3,D+_3*%
%TO.N,/USB2_D+*%
X133900000Y-128640000D03*
%TO.P,J2,4,GND_4*%
%TO.N,GND*%
X136400000Y-128640000D03*
D12*
%TO.P,J2,SH,Shield_SH*%
X126330000Y-131350000D03*
X139470000Y-131350000D03*
%TD*%
D19*
%TO.P,D2,1,K_1*%
%TO.N,Net-(D2-K)*%
X86215000Y-139700000D03*
%TO.P,D2,2,A_2*%
%TO.N,+3V3*%
X87185000Y-139700000D03*
%TD*%
D20*
%TO.P,J4,A1,GND_A1*%
%TO.N,GND*%
X88505000Y-112060000D03*
%TO.P,J4,A4,VBUS_A4*%
%TO.N,Net-(D1-A)*%
X88505000Y-112860000D03*
D21*
%TO.P,J4,A5,CC1_A5*%
%TO.N,Net-(J4-CC1)*%
X88505000Y-114060000D03*
%TO.P,J4,A6,D+_A6*%
%TO.N,/USB_D+*%
X88505000Y-115060000D03*
%TO.P,J4,A7,D-_A7*%
%TO.N,/USB_D-*%
X88505000Y-115560000D03*
%TO.P,J4,A8*%
%TO.N,N/C*%
X88505000Y-116560000D03*
D20*
%TO.P,J4,A9,VBUS_A9*%
%TO.N,Net-(D1-A)*%
X88505000Y-117760000D03*
%TO.P,J4,A12,GND_A12*%
%TO.N,GND*%
X88505000Y-118560000D03*
%TO.P,J4,B1,GND_B1*%
X88505000Y-118560000D03*
%TO.P,J4,B4,VBUS_B4*%
%TO.N,Net-(D1-A)*%
X88505000Y-117760000D03*
D21*
%TO.P,J4,B5,CC2_B5*%
%TO.N,Net-(J4-CC2)*%
X88505000Y-117060000D03*
%TO.P,J4,B6,D+_B6*%
%TO.N,/USB_D+*%
X88505000Y-116060000D03*
%TO.P,J4,B7,D-_B7*%
%TO.N,/USB_D-*%
X88505000Y-114560000D03*
%TO.P,J4,B8*%
%TO.N,N/C*%
X88505000Y-113560000D03*
D20*
%TO.P,J4,B9,VBUS_B9*%
%TO.N,Net-(D1-A)*%
X88505000Y-112860000D03*
%TO.P,J4,B12,GND_B12*%
%TO.N,GND*%
X88505000Y-112060000D03*
D22*
%TO.P,J4,SH,SHIELD_SH*%
X87590000Y-110990000D03*
D23*
X83410000Y-110990000D03*
D22*
X87590000Y-119630000D03*
D23*
X83410000Y-119630000D03*
%TD*%
D24*
%TO.P,D1,1,K_1*%
%TO.N,/VBUS*%
X98300000Y-119200000D03*
%TO.P,D1,2,A_2*%
%TO.N,Net-(D1-A)*%
X96200000Y-119200000D03*
%TD*%
D25*
%TO.P,U2,1,VSS_1*%
%TO.N,GND*%
X104530000Y-135650000D03*
%TO.P,U2,2,D1_2*%
%TO.N,/DAT1*%
X105160000Y-135650000D03*
%TO.P,U2,3,D0_3*%
%TO.N,/DAT0*%
X105800000Y-135650000D03*
%TO.P,U2,4,CLK_4*%
%TO.N,/CLK*%
X106430000Y-135650000D03*
%TO.P,U2,5,CMD_5*%
%TO.N,/CMD*%
X107070000Y-135650000D03*
%TO.P,U2,6,D3_6*%
%TO.N,/DAT3*%
X107700000Y-135650000D03*
%TO.P,U2,7,D2_7*%
%TO.N,/DAT2*%
X108340000Y-135650000D03*
%TO.P,U2,8,PMOS_8*%
%TO.N,/PMOS*%
X108970000Y-135650000D03*
%TO.P,U2,9,VDD_9*%
%TO.N,+3V3*%
X108970000Y-130350000D03*
%TO.P,U2,10,5V_10*%
%TO.N,/VBUS*%
X108340000Y-130350000D03*
%TO.P,U2,11,GPIO_11*%
%TO.N,unconnected-(U2-GPIO-Pad11)*%
X107700000Y-130350000D03*
%TO.P,U2,12,LED_12*%
%TO.N,Net-(U2-LED)*%
X107070000Y-130350000D03*
%TO.P,U2,13,VDDA_13*%
%TO.N,+3V3*%
X106430000Y-130350000D03*
%TO.P,U2,14,VSS_14*%
%TO.N,GND*%
X105800000Y-130350000D03*
%TO.P,U2,15,DP_15*%
%TO.N,/USB4_D+*%
X105160000Y-130350000D03*
%TO.P,U2,16,DM_16*%
%TO.N,/USB4_D-*%
X104530000Y-130350000D03*
%TD*%
D18*
%TO.P,C4,1*%
%TO.N,+3V3*%
X109770000Y-130250000D03*
%TO.P,C4,2*%
%TO.N,GND*%
X110730000Y-130250000D03*
%TD*%
D26*
%TO.P,C3,1*%
%TO.N,/VBUS*%
X125300000Y-127880000D03*
%TO.P,C3,2*%
%TO.N,GND*%
X125300000Y-126920000D03*
%TD*%
D27*
%TO.P,J5,A1,GND_A1*%
%TO.N,GND*%
X114160000Y-133955000D03*
%TO.P,J5,A4,VBUS_A4*%
%TO.N,/VBUS*%
X114960000Y-133955000D03*
D28*
%TO.P,J5,A5,CC1_A5*%
%TO.N,Net-(J5-CC1)*%
X116160000Y-133955000D03*
%TO.P,J5,A6,D+_A6*%
%TO.N,/USB3_D+*%
X117160000Y-133955000D03*
%TO.P,J5,A7,D-_A7*%
%TO.N,/USB3_D-*%
X117660000Y-133955000D03*
%TO.P,J5,A8*%
%TO.N,N/C*%
X118660000Y-133955000D03*
D27*
%TO.P,J5,A9,VBUS_A9*%
%TO.N,/VBUS*%
X119860000Y-133955000D03*
%TO.P,J5,A12,GND_A12*%
%TO.N,GND*%
X120660000Y-133955000D03*
%TO.P,J5,B1,GND_B1*%
X120660000Y-133955000D03*
%TO.P,J5,B4,VBUS_B4*%
%TO.N,/VBUS*%
X119860000Y-133955000D03*
D28*
%TO.P,J5,B5,CC2_B5*%
%TO.N,Net-(J5-CC2)*%
X119160000Y-133955000D03*
%TO.P,J5,B6,D+_B6*%
%TO.N,/USB3_D+*%
X118160000Y-133955000D03*
%TO.P,J5,B7,D-_B7*%
%TO.N,/USB3_D-*%
X116660000Y-133955000D03*
%TO.P,J5,B8*%
%TO.N,N/C*%
X115660000Y-133955000D03*
D27*
%TO.P,J5,B9,VBUS_B9*%
%TO.N,/VBUS*%
X114960000Y-133955000D03*
%TO.P,J5,B12,GND_B12*%
%TO.N,GND*%
X114160000Y-133955000D03*
D29*
%TO.P,J5,SH,SHIELD_SH*%
X113090000Y-134870000D03*
D30*
X113090000Y-139050000D03*
D29*
X121730000Y-134870000D03*
D30*
X121730000Y-139050000D03*
%TD*%
D13*
%TO.P,R5,1*%
%TO.N,Net-(U2-LED)*%
X83990000Y-139700000D03*
%TO.P,R5,2*%
%TO.N,Net-(D2-K)*%
X85010000Y-139700000D03*
%TD*%
D26*
%TO.P,C5,1*%
%TO.N,/VBUS*%
X108250000Y-128730000D03*
%TO.P,C5,2*%
%TO.N,GND*%
X108250000Y-127770000D03*
%TD*%
%TO.P,C10,1*%
%TO.N,/VBUS*%
X120000000Y-132180000D03*
%TO.P,C10,2*%
%TO.N,GND*%
X120000000Y-131220000D03*
%TD*%
%TO.P,C8,1*%
%TO.N,+3V3*%
X106500000Y-128710000D03*
%TO.P,C8,2*%
%TO.N,GND*%
X106500000Y-127750000D03*
%TD*%
D31*
%TO.P,J3,1,DAT2_1*%
%TO.N,/DAT2*%
X83637500Y-134405000D03*
%TO.P,J3,2,DAT3/CD_2*%
%TO.N,/DAT3*%
X83637500Y-133305000D03*
%TO.P,J3,3,CMD_3*%
%TO.N,/CMD*%
X83637500Y-132205000D03*
%TO.P,J3,4,VDD_4*%
%TO.N,/PMOS*%
X83637500Y-131105000D03*
%TO.P,J3,5,CLK_5*%
%TO.N,/CLK*%
X83637500Y-130005000D03*
%TO.P,J3,6,VSS_6*%
%TO.N,GND*%
X83637500Y-128905000D03*
%TO.P,J3,7,DAT0_7*%
%TO.N,/DAT0*%
X83637500Y-127805000D03*
D32*
%TO.P,J3,8,DAT1_8*%
%TO.N,/DAT1*%
X83637500Y-126755000D03*
D33*
%TO.P,J3,9*%
%TO.N,N/C*%
X89787500Y-137040000D03*
%TO.P,J3,10*%
X93487500Y-137040000D03*
D34*
%TO.P,J3,SH,SHIELD_SH*%
%TO.N,GND*%
X83762500Y-136865000D03*
D35*
X94462500Y-133540000D03*
X94462500Y-127570000D03*
D36*
X83987500Y-125545000D03*
%TD*%
D26*
%TO.P,C6,1*%
%TO.N,Net-(U1-VDD18)*%
X102750000Y-119730000D03*
%TO.P,C6,2*%
%TO.N,GND*%
X102750000Y-118770000D03*
%TD*%
D37*
%TO.N,/VBUS*%
X110000000Y-132400000D03*
D38*
X109440000Y-120810000D03*
D37*
X118600000Y-135300000D03*
%TO.N,GND*%
X106500000Y-126500000D03*
X90000000Y-112100000D03*
X84000000Y-135700000D03*
X108800000Y-133300000D03*
X108750000Y-139000000D03*
X92700000Y-117100000D03*
X108750000Y-119750000D03*
X85295000Y-128905000D03*
X121500000Y-133000000D03*
X94400000Y-132000000D03*
X111250000Y-131750000D03*
X92700000Y-113800000D03*
X106200000Y-133700000D03*
X116400000Y-131100000D03*
X104600000Y-117100000D03*
%TO.N,+3V3*%
X107500000Y-119750000D03*
X104975735Y-132675735D03*
X107250000Y-126000000D03*
X88700000Y-140000000D03*
X109250000Y-131500000D03*
%TO.N,/PMOS*%
X93800000Y-131100000D03*
X107700000Y-132000000D03*
%TO.N,Net-(U2-LED)*%
X85700000Y-138900000D03*
X102750000Y-135750000D03*
%TD*%
%TO.N,/VBUS*%
D39*
X110400000Y-119850000D02*
X110400000Y-118130000D01*
X136938478Y-129940000D02*
X139858478Y-127020000D01*
X109440000Y-120810000D02*
X110400000Y-119850000D01*
X129400000Y-128640000D02*
X130700000Y-129940000D01*
D40*
X109282500Y-132400000D02*
X110000000Y-132400000D01*
D39*
X120000000Y-132180000D02*
X119860000Y-132320000D01*
X109440000Y-120810000D02*
X99920001Y-120810000D01*
D41*
X119239999Y-135300000D02*
X118600000Y-135300000D01*
D39*
X124770000Y-127880000D02*
X125300000Y-127880000D01*
X124485000Y-128165000D02*
X124770000Y-127880000D01*
D40*
X108340000Y-130350000D02*
X108340000Y-131457500D01*
D41*
X119900000Y-133995000D02*
X119900000Y-134482410D01*
D39*
X119860000Y-132320000D02*
X119860000Y-133955000D01*
D41*
X119860000Y-134679999D02*
X119239999Y-135300000D01*
D39*
X124485000Y-128165000D02*
X120470000Y-132180000D01*
X139858478Y-127020000D02*
X142800000Y-127020000D01*
X99520000Y-120000000D02*
X99050000Y-120000000D01*
D40*
X108340000Y-130350000D02*
X108340000Y-128820000D01*
D39*
X125300000Y-127880000D02*
X128640000Y-127880000D01*
X128640000Y-127880000D02*
X129400000Y-128640000D01*
D41*
X119860000Y-133955000D02*
X119900000Y-133995000D01*
D40*
X108340000Y-131457500D02*
X109282500Y-132400000D01*
D39*
X99420000Y-120309999D02*
X99420000Y-120000000D01*
X120470000Y-132180000D02*
X120000000Y-132180000D01*
D41*
X115760001Y-135480000D02*
X118420000Y-135480000D01*
D39*
X130700000Y-129940000D02*
X136938478Y-129940000D01*
D41*
X114960000Y-134679999D02*
X115760001Y-135480000D01*
D39*
X99920001Y-120810000D02*
X99420000Y-120309999D01*
D41*
X118420000Y-135480000D02*
X118600000Y-135300000D01*
X114960000Y-133955000D02*
X114960000Y-134679999D01*
D40*
X108340000Y-128820000D02*
X108250000Y-128730000D01*
D39*
X142800000Y-127020000D02*
X145280000Y-127020000D01*
X99050000Y-120000000D02*
X98300000Y-119250000D01*
X145280000Y-127020000D02*
X146900000Y-128640000D01*
X109250000Y-120810000D02*
X109440000Y-120810000D01*
D41*
X119860000Y-133955000D02*
X119860000Y-134679999D01*
%TO.N,/USB1_D-*%
D40*
X111670000Y-123870000D02*
X112120000Y-124320000D01*
X112120000Y-124320000D02*
X112120000Y-124452744D01*
X146443603Y-124320000D02*
X149400000Y-127276397D01*
X113190244Y-125042500D02*
X113912744Y-124320000D01*
X112120000Y-124452744D02*
X112709756Y-125042500D01*
X149400000Y-127276397D02*
X149400000Y-128640000D01*
X113912744Y-124320000D02*
X146443603Y-124320000D01*
X112709756Y-125042500D02*
X113190244Y-125042500D01*
%TO.N,/USB1_D+*%
X131628570Y-123870000D02*
X131828475Y-123870000D01*
X133060000Y-123630000D02*
X133060000Y-123526444D01*
X132460000Y-123526444D02*
X132460000Y-123630000D01*
X132820000Y-123286444D02*
X132700000Y-123286444D01*
X146630000Y-123870000D02*
X133300000Y-123870000D01*
X132220000Y-123870000D02*
X132100000Y-123870000D01*
X112950000Y-123870000D02*
X131628570Y-123870000D01*
X151400000Y-128640000D02*
X146630000Y-123870000D01*
X132100000Y-123870000D02*
X131828475Y-123870000D01*
X133060000Y-123526444D02*
G75*
G03*
X132820000Y-123286400I-240000J44D01*
G01*
X133300000Y-123870000D02*
G75*
G02*
X133060000Y-123630000I0J240000D01*
G01*
X132700000Y-123286444D02*
G75*
G03*
X132460044Y-123526444I0J-239956D01*
G01*
X132460000Y-123630000D02*
G75*
G02*
X132220000Y-123870000I-240000J0D01*
G01*
%TO.N,GND*%
X109000000Y-137980000D02*
X109000000Y-138750000D01*
X113200000Y-133300000D02*
X113200000Y-132910000D01*
X88505000Y-118560000D02*
X88505000Y-118715000D01*
X123320000Y-136050000D02*
X122050000Y-134780000D01*
X83410000Y-119630000D02*
X87590000Y-119630000D01*
X85300000Y-128900000D02*
X85295000Y-128905000D01*
X104530000Y-134470000D02*
X104530000Y-135650000D01*
X120900000Y-134000000D02*
X121270000Y-134000000D01*
X109000000Y-138750000D02*
X108750000Y-139000000D01*
X123320000Y-139100000D02*
X123320000Y-136050000D01*
X105800000Y-130350000D02*
X105800000Y-126800000D01*
X120900000Y-133600000D02*
X120900000Y-134000000D01*
X113200000Y-132910000D02*
X112490000Y-132200000D01*
X106200000Y-133700000D02*
X106200000Y-133800000D01*
X104750000Y-134250000D02*
X104530000Y-134470000D01*
X88505000Y-112060000D02*
X88505000Y-111905000D01*
X106500000Y-127750000D02*
X106500000Y-126500000D01*
X88505000Y-112060000D02*
X89960000Y-112060000D01*
X83937500Y-128905000D02*
X85295000Y-128905000D01*
X105750000Y-134250000D02*
X104750000Y-134250000D01*
X121500000Y-133000000D02*
X120900000Y-133600000D01*
X121270000Y-134000000D02*
X122050000Y-134780000D01*
X89960000Y-112060000D02*
X90000000Y-112100000D01*
X106200000Y-133800000D02*
X105750000Y-134250000D01*
X91410000Y-113800000D02*
X92700000Y-113800000D01*
X88505000Y-111905000D02*
X87590000Y-110990000D01*
X109130000Y-119370000D02*
X108750000Y-119750000D01*
X103410000Y-118770000D02*
X104050000Y-118130000D01*
X88505000Y-118715000D02*
X87590000Y-119630000D01*
X102750000Y-118770000D02*
X103410000Y-118770000D01*
X113530000Y-134000000D02*
X113900000Y-134000000D01*
X104050000Y-118130000D02*
X104050000Y-117650000D01*
X109130000Y-118130000D02*
X109130000Y-119370000D01*
X91710000Y-117100000D02*
X92700000Y-117100000D01*
X83410000Y-110990000D02*
X87590000Y-110990000D01*
X113900000Y-134000000D02*
X113200000Y-133300000D01*
X104050000Y-117650000D02*
X104600000Y-117100000D01*
X112750000Y-134780000D02*
X113530000Y-134000000D01*
%TO.N,Net-(J4-CC2)*%
X88505000Y-117060000D02*
X90650000Y-117060000D01*
X90650000Y-117060000D02*
X90690000Y-117100000D01*
%TO.N,Net-(J5-CC2)*%
X119150000Y-132360000D02*
X119150000Y-134000000D01*
X119000000Y-132210000D02*
X119150000Y-132360000D01*
%TO.N,/USB4_D-*%
X104465000Y-125157500D02*
X104050000Y-124742500D01*
X104465000Y-128095505D02*
X104465000Y-127520046D01*
X104530000Y-130350000D02*
X104530000Y-129287593D01*
X104050000Y-124742500D02*
X104050000Y-123870000D01*
X104530000Y-129287593D02*
X104465020Y-129222613D01*
X104465020Y-129208451D02*
X104465000Y-129208431D01*
X104465000Y-129208431D02*
X104465000Y-128095505D01*
X104465020Y-129222613D02*
X104465020Y-129208451D01*
X104465000Y-127520046D02*
X104465000Y-125157500D01*
%TO.N,/USB4_D+*%
X104980001Y-129101226D02*
X104915000Y-129036225D01*
X104915000Y-129036225D02*
X104915000Y-125157500D01*
X105160000Y-129574506D02*
X104980001Y-129394507D01*
X105330000Y-124742500D02*
X105330000Y-123870000D01*
X104915000Y-125157500D02*
X105330000Y-124742500D01*
X104980001Y-129394507D02*
X104980001Y-129101226D01*
X105160000Y-130350000D02*
X105160000Y-129574506D01*
%TO.N,/USB3_D-*%
X116674999Y-132656221D02*
X116674999Y-133975001D01*
X117660000Y-133955000D02*
X117660000Y-134712410D01*
X107772500Y-125042500D02*
X115030000Y-132300000D01*
X116660000Y-134712410D02*
X116660000Y-133955000D01*
X116318778Y-132300000D02*
X116674999Y-132656221D01*
X107290000Y-124702744D02*
X107629756Y-125042500D01*
X117660000Y-134712410D02*
X117392410Y-134980000D01*
X116927590Y-134980000D02*
X116660000Y-134712410D01*
X106600000Y-123870000D02*
X107290000Y-124560000D01*
X115030000Y-132300000D02*
X116318778Y-132300000D01*
X117392410Y-134980000D02*
X116927590Y-134980000D01*
X107629756Y-125042500D02*
X107772500Y-125042500D01*
X107290000Y-124560000D02*
X107290000Y-124702744D01*
X116674999Y-133975001D02*
X116650000Y-134000000D01*
%TO.N,/USB3_D+*%
X116505166Y-131850020D02*
X117125001Y-132469855D01*
X117125001Y-132469855D02*
X117125001Y-133975001D01*
X117892410Y-132930000D02*
X117427590Y-132930000D01*
X114633198Y-131266801D02*
X115216417Y-131850020D01*
X113693215Y-130326818D02*
X107870000Y-124503603D01*
X117125001Y-133975001D02*
X117150000Y-134000000D01*
X115216417Y-131850020D02*
X116505166Y-131850020D01*
X118160000Y-133197590D02*
X117892410Y-132930000D01*
X113784669Y-130418272D02*
X113693215Y-130326818D01*
X117150000Y-134000000D02*
X117150000Y-133267590D01*
X114633198Y-130675569D02*
X114504549Y-130546920D01*
X117160000Y-133197590D02*
X117160000Y-133955000D01*
X113913317Y-130546920D02*
X113784669Y-130418272D01*
X118160000Y-133955000D02*
X118160000Y-133197590D01*
X107870000Y-124503603D02*
X107870000Y-123870000D01*
X117427590Y-132930000D02*
X117160000Y-133197590D01*
X114208933Y-130546920D02*
G75*
G02*
X113913317Y-130546920I-147808J147808D01*
G01*
X114633198Y-130971185D02*
G75*
G03*
X114633175Y-130675592I-147798J147785D01*
G01*
X114504549Y-130546920D02*
G75*
G03*
X114208933Y-130546920I-147808J-147808D01*
G01*
X114633198Y-131266801D02*
G75*
G02*
X114633205Y-130971192I147802J147801D01*
G01*
%TO.N,/USB2_D-*%
X130507521Y-125892480D02*
X130500000Y-125900001D01*
X109130000Y-123870000D02*
X109580000Y-124320000D01*
X109580000Y-124320000D02*
X109580000Y-124462744D01*
X130500000Y-125900001D02*
X131900000Y-127300000D01*
X111009736Y-125892480D02*
X130507521Y-125892480D01*
X131900000Y-127300000D02*
X131900000Y-128640000D01*
X109580000Y-124462744D02*
X111009736Y-125892480D01*
%TO.N,/USB2_D+*%
X111090000Y-124702744D02*
X111829756Y-125442500D01*
X111829756Y-125442500D02*
X130702500Y-125442500D01*
X130702500Y-125442500D02*
X133900000Y-128640000D01*
X110400000Y-123870000D02*
X111090000Y-124560000D01*
X111090000Y-124560000D02*
X111090000Y-124702744D01*
%TO.N,/USB_D-*%
X87480000Y-114827590D02*
X87480000Y-115292410D01*
X89592501Y-114560000D02*
X89617501Y-114585000D01*
X87480000Y-115292410D02*
X87747590Y-115560000D01*
X88505000Y-114560000D02*
X89592501Y-114560000D01*
X112950000Y-117257500D02*
X112950000Y-118130000D01*
X110803198Y-114585000D02*
X112535000Y-116316802D01*
X112535000Y-116316802D02*
X112535000Y-116842500D01*
X87747590Y-114560000D02*
X87480000Y-114827590D01*
X88505000Y-114560000D02*
X87747590Y-114560000D01*
X87747590Y-115560000D02*
X88505000Y-115560000D01*
X89617501Y-114585000D02*
X110803198Y-114585000D01*
X112535000Y-116842500D02*
X112950000Y-117257500D01*
%TO.N,/USB_D+*%
X89592501Y-115060000D02*
X88505000Y-115060000D01*
X89262410Y-115060000D02*
X89530000Y-115327590D01*
X107077226Y-115613759D02*
X106957226Y-115613759D01*
X107317226Y-115275000D02*
X107317226Y-115373759D01*
X111670000Y-117257500D02*
X112085000Y-116842500D01*
X88505000Y-115060000D02*
X89262410Y-115060000D01*
X89530000Y-115327590D02*
X89530000Y-115792410D01*
X89617501Y-115035000D02*
X89592501Y-115060000D01*
X112085000Y-116842500D02*
X112085000Y-116503198D01*
X89262410Y-116060000D02*
X88505000Y-116060000D01*
X89530000Y-115792410D02*
X89262410Y-116060000D01*
X106717226Y-115373759D02*
X106717226Y-115275000D01*
X105900000Y-115035000D02*
X89617501Y-115035000D01*
X106357226Y-115035000D02*
X105900000Y-115035000D01*
X112085000Y-116503198D02*
X110616802Y-115035000D01*
X110616802Y-115035000D02*
X107557226Y-115035000D01*
X111670000Y-118130000D02*
X111670000Y-117257500D01*
X106477226Y-115035000D02*
X106357226Y-115035000D01*
X107557226Y-115035000D02*
G75*
G03*
X107317200Y-115275000I-26J-240000D01*
G01*
X106717226Y-115275000D02*
G75*
G03*
X106477226Y-115034974I-240026J0D01*
G01*
X107317226Y-115373759D02*
G75*
G02*
X107077226Y-115613826I-240026J-41D01*
G01*
X106957226Y-115613759D02*
G75*
G02*
X106717241Y-115373759I-26J239959D01*
G01*
%TO.N,+3V3*%
X108970000Y-131220000D02*
X109250000Y-131500000D01*
X106430000Y-130350000D02*
X106430000Y-128780000D01*
X108970000Y-130350000D02*
X108970000Y-131220000D01*
X88400000Y-139700000D02*
X87185000Y-139700000D01*
X106500000Y-128710000D02*
X107250000Y-127960000D01*
X108970000Y-130350000D02*
X109670000Y-130350000D01*
X104975735Y-132675735D02*
X106430000Y-131221470D01*
X88700000Y-140000000D02*
X88400000Y-139700000D01*
X106430000Y-128780000D02*
X106500000Y-128710000D01*
X107870000Y-118130000D02*
X107870000Y-119380000D01*
X107870000Y-119380000D02*
X107500000Y-119750000D01*
X109670000Y-130350000D02*
X109770000Y-130250000D01*
X106430000Y-131221470D02*
X106430000Y-130350000D01*
X107250000Y-127960000D02*
X107250000Y-126000000D01*
%TO.N,Net-(U1-VDD18)*%
X106600000Y-118722500D02*
X105592500Y-119730000D01*
X105592500Y-119730000D02*
X102750000Y-119730000D01*
X106600000Y-118130000D02*
X106600000Y-118722500D01*
%TO.N,Net-(J5-CC1)*%
X115800000Y-132700000D02*
X114010000Y-132700000D01*
X114010000Y-132700000D02*
X113510000Y-132200000D01*
X116150000Y-134000000D02*
X116150000Y-133050000D01*
X116150000Y-133050000D02*
X115800000Y-132700000D01*
%TO.N,Net-(J4-CC1)*%
X90130000Y-114060000D02*
X88505000Y-114060000D01*
X90390000Y-113800000D02*
X90130000Y-114060000D01*
%TO.N,/PMOS*%
X92410000Y-131100000D02*
X92405000Y-131105000D01*
X107700000Y-133100000D02*
X108970000Y-134370000D01*
X92405000Y-131105000D02*
X83937500Y-131105000D01*
X109000000Y-135680000D02*
X108970000Y-135650000D01*
X109000000Y-137020000D02*
X109000000Y-135680000D01*
X107700000Y-132000000D02*
X107700000Y-133100000D01*
X93800000Y-131100000D02*
X92410000Y-131100000D01*
X108970000Y-134370000D02*
X108970000Y-135650000D01*
%TO.N,Net-(D2-K)*%
X86215000Y-139700000D02*
X85010000Y-139700000D01*
%TO.N,Net-(D1-A)*%
D41*
X88505000Y-117760000D02*
X87780001Y-117760000D01*
X87780001Y-117760000D02*
X86980000Y-116959999D01*
X86980000Y-113660001D02*
X87780001Y-112860000D01*
X87780001Y-112860000D02*
X88505000Y-112860000D01*
X86980000Y-116959999D02*
X86980000Y-113660001D01*
X89260000Y-117760000D02*
X90700000Y-119200000D01*
X88505000Y-117760000D02*
X89260000Y-117760000D01*
X90700000Y-119200000D02*
X96200000Y-119200000D01*
%TO.N,/DAT1*%
D40*
X105160000Y-136440000D02*
X105160000Y-135650000D01*
X83937500Y-126755000D02*
X91505000Y-126755000D01*
X101607500Y-136857500D02*
X104742500Y-136857500D01*
X104742500Y-136857500D02*
X105160000Y-136440000D01*
X91505000Y-126755000D02*
X101607500Y-136857500D01*
%TO.N,/DAT0*%
X105042500Y-137257500D02*
X105800000Y-136500000D01*
X93789315Y-129605000D02*
X101441814Y-137257500D01*
X91989314Y-127805000D02*
X93789315Y-129605000D01*
X101441814Y-137257500D02*
X105042500Y-137257500D01*
X105800000Y-136500000D02*
X105800000Y-135650000D01*
X83937500Y-127805000D02*
X91989314Y-127805000D01*
%TO.N,/CLK*%
X106430000Y-136435686D02*
X106430000Y-135650000D01*
X101276129Y-137657500D02*
X105208186Y-137657500D01*
X83937500Y-130005000D02*
X93623629Y-130005000D01*
X105208186Y-137657500D02*
X106430000Y-136435686D01*
X93623629Y-130005000D02*
X101276129Y-137657500D01*
%TO.N,/CMD*%
X91005000Y-132205000D02*
X91705000Y-132905000D01*
X96873186Y-138057500D02*
X105770000Y-138057500D01*
X107070000Y-136757500D02*
X107070000Y-135650000D01*
X91705000Y-132905000D02*
X91720686Y-132905000D01*
X105770000Y-138057500D02*
X107070000Y-136757500D01*
X83937500Y-132205000D02*
X91005000Y-132205000D01*
X91720686Y-132905000D02*
X96873186Y-138057500D01*
%TO.N,/DAT3*%
X107700000Y-136693186D02*
X107700000Y-135650000D01*
X83937500Y-133305000D02*
X91555000Y-133305000D01*
X105935686Y-138457500D02*
X107700000Y-136693186D01*
X96707500Y-138457500D02*
X105935686Y-138457500D01*
X91555000Y-133305000D02*
X96707500Y-138457500D01*
%TO.N,/DAT2*%
X83937500Y-134405000D02*
X88390000Y-138857500D01*
X88390000Y-138857500D02*
X106240000Y-138857500D01*
X106240000Y-138857500D02*
X108340000Y-136757500D01*
X108340000Y-136757500D02*
X108340000Y-135650000D01*
%TO.N,Net-(U2-LED)*%
X104650000Y-133850000D02*
X107070000Y-131430000D01*
X85700000Y-138900000D02*
X84790000Y-138900000D01*
X104584315Y-133850000D02*
X104650000Y-133850000D01*
X107070000Y-131430000D02*
X107070000Y-130350000D01*
X104130000Y-134304314D02*
X104584315Y-133850000D01*
X102750000Y-135750000D02*
X104130000Y-134370000D01*
X84790000Y-138900000D02*
X83990000Y-139700000D01*
X104130000Y-134370000D02*
X104130000Y-134304314D01*
%TD*%
%TA.AperFunction,Conductor*%
%TO.N,GND*%
G36*
X109605989Y-108100743D02*
G01*
X109819595Y-108114167D01*
X109835016Y-108116113D01*
X110027443Y-108152775D01*
X110041425Y-108155439D01*
X110056491Y-108159302D01*
X110256358Y-108224158D01*
X110270821Y-108229877D01*
X110460991Y-108319238D01*
X110474624Y-108326722D01*
X110498084Y-108341587D01*
X110652120Y-108439190D01*
X110664694Y-108448310D01*
X110700302Y-108477716D01*
X110826720Y-108582116D01*
X110838067Y-108592752D01*
X110982054Y-108745772D01*
X110991981Y-108757744D01*
X111117981Y-108930742D01*
X111122362Y-108937172D01*
X116839227Y-117920815D01*
X118334795Y-120270993D01*
X118341404Y-120281377D01*
X118341410Y-120281399D01*
X118341416Y-120281396D01*
X118415643Y-120398058D01*
X118415644Y-120398059D01*
X118592152Y-120610947D01*
X118592156Y-120610950D01*
X118793919Y-120800064D01*
X118821801Y-120820288D01*
X118975243Y-120931588D01*
X118988782Y-120941408D01*
X119020589Y-120975211D01*
X119075327Y-121061229D01*
X119100000Y-121100000D01*
X119247913Y-121100000D01*
X119293506Y-121108685D01*
X119517370Y-121197199D01*
X119785248Y-121265891D01*
X120059618Y-121300510D01*
X120197891Y-121300500D01*
X120237773Y-121300500D01*
X157560118Y-121300500D01*
X157595933Y-121300500D01*
X157604043Y-121300765D01*
X157826790Y-121315364D01*
X157842848Y-121317479D01*
X158057781Y-121360231D01*
X158073434Y-121364426D01*
X158280941Y-121434865D01*
X158295925Y-121441071D01*
X158492464Y-121537994D01*
X158506510Y-121546104D01*
X158688705Y-121667842D01*
X158701574Y-121677716D01*
X158866328Y-121822202D01*
X158877797Y-121833671D01*
X159022283Y-121998425D01*
X159032157Y-122011294D01*
X159153895Y-122193489D01*
X159162005Y-122207535D01*
X159258928Y-122404074D01*
X159265135Y-122419060D01*
X159335571Y-122626558D01*
X159339769Y-122642225D01*
X159382518Y-122857140D01*
X159384636Y-122873221D01*
X159399235Y-123095956D01*
X159399500Y-123104066D01*
X159399500Y-138495933D01*
X159399235Y-138504043D01*
X159384636Y-138726778D01*
X159382518Y-138742859D01*
X159339769Y-138957774D01*
X159335571Y-138973441D01*
X159265135Y-139180939D01*
X159258928Y-139195925D01*
X159162005Y-139392464D01*
X159153895Y-139406510D01*
X159032157Y-139588705D01*
X159022283Y-139601574D01*
X158877797Y-139766328D01*
X158866328Y-139777797D01*
X158701574Y-139922283D01*
X158688705Y-139932157D01*
X158506510Y-140053895D01*
X158492464Y-140062005D01*
X158295925Y-140158928D01*
X158280939Y-140165135D01*
X158073441Y-140235571D01*
X158057774Y-140239769D01*
X157842859Y-140282518D01*
X157826778Y-140284636D01*
X157604043Y-140299235D01*
X157595933Y-140299500D01*
X122494077Y-140299500D01*
X122427038Y-140279815D01*
X122381283Y-140227011D01*
X122371339Y-140157853D01*
X122400364Y-140094297D01*
X122406396Y-140087819D01*
X122506748Y-139987466D01*
X122506751Y-139987462D01*
X122616185Y-139823684D01*
X122616192Y-139823671D01*
X122691569Y-139641693D01*
X122691572Y-139641681D01*
X122729999Y-139448495D01*
X122730000Y-139448492D01*
X122730000Y-139300000D01*
X122030000Y-139300000D01*
X122030000Y-138800000D01*
X122730000Y-138800000D01*
X122730000Y-138651508D01*
X122729999Y-138651504D01*
X122691572Y-138458318D01*
X122691569Y-138458306D01*
X122616192Y-138276328D01*
X122616185Y-138276315D01*
X122506751Y-138112537D01*
X122506748Y-138112533D01*
X122367466Y-137973251D01*
X122367462Y-137973248D01*
X122203684Y-137863814D01*
X122203671Y-137863807D01*
X122021691Y-137788429D01*
X122021683Y-137788427D01*
X121980000Y-137780135D01*
X121980000Y-138583011D01*
X121970060Y-138565795D01*
X121914205Y-138509940D01*
X121845796Y-138470444D01*
X121769496Y-138450000D01*
X121690504Y-138450000D01*
X121614204Y-138470444D01*
X121545795Y-138509940D01*
X121489940Y-138565795D01*
X121480000Y-138583011D01*
X121480000Y-137780136D01*
X121479999Y-137780135D01*
X121438316Y-137788427D01*
X121438308Y-137788429D01*
X121256328Y-137863807D01*
X121256315Y-137863814D01*
X121092537Y-137973248D01*
X121092533Y-137973251D01*
X120953251Y-138112533D01*
X120953248Y-138112537D01*
X120843814Y-138276315D01*
X120843807Y-138276328D01*
X120768430Y-138458306D01*
X120768427Y-138458318D01*
X120730000Y-138651504D01*
X120730000Y-138800000D01*
X121430000Y-138800000D01*
X121430000Y-139300000D01*
X120730000Y-139300000D01*
X120730000Y-139448495D01*
X120768427Y-139641681D01*
X120768430Y-139641693D01*
X120843807Y-139823671D01*
X120843814Y-139823684D01*
X120953248Y-139987462D01*
X120953251Y-139987466D01*
X121053604Y-140087819D01*
X121087089Y-140149142D01*
X121082105Y-140218834D01*
X121040233Y-140274767D01*
X120974769Y-140299184D01*
X120965923Y-140299500D01*
X113854077Y-140299500D01*
X113787038Y-140279815D01*
X113741283Y-140227011D01*
X113731339Y-140157853D01*
X113760364Y-140094297D01*
X113766396Y-140087819D01*
X113866748Y-139987466D01*
X113866751Y-139987462D01*
X113976185Y-139823684D01*
X113976192Y-139823671D01*
X114051569Y-139641693D01*
X114051572Y-139641681D01*
X114089999Y-139448495D01*
X114090000Y-139448492D01*
X114090000Y-139300000D01*
X113390000Y-139300000D01*
X113390000Y-138800000D01*
X114090000Y-138800000D01*
X114090000Y-138651508D01*
X114089999Y-138651504D01*
X114051572Y-138458318D01*
X114051569Y-138458306D01*
X113976192Y-138276328D01*
X113976185Y-138276315D01*
X113866751Y-138112537D01*
X113866748Y-138112533D01*
X113727466Y-137973251D01*
X113727462Y-137973248D01*
X113563684Y-137863814D01*
X113563671Y-137863807D01*
X113381691Y-137788429D01*
X113381683Y-137788427D01*
X113340000Y-137780135D01*
X113340000Y-138583011D01*
X113330060Y-138565795D01*
X113274205Y-138509940D01*
X113205796Y-138470444D01*
X113129496Y-138450000D01*
X113050504Y-138450000D01*
X112974204Y-138470444D01*
X112905795Y-138509940D01*
X112849940Y-138565795D01*
X112840000Y-138583011D01*
X112840000Y-137780136D01*
X112839999Y-137780135D01*
X112798316Y-137788427D01*
X112798308Y-137788429D01*
X112616328Y-137863807D01*
X112616315Y-137863814D01*
X112452537Y-137973248D01*
X112452533Y-137973251D01*
X112313251Y-138112533D01*
X112313248Y-138112537D01*
X112203814Y-138276315D01*
X112203807Y-138276328D01*
X112128430Y-138458306D01*
X112128427Y-138458318D01*
X112090000Y-138651504D01*
X112090000Y-138800000D01*
X112790000Y-138800000D01*
X112790000Y-139300000D01*
X112090000Y-139300000D01*
X112090000Y-139448495D01*
X112128427Y-139641681D01*
X112128430Y-139641693D01*
X112203807Y-139823671D01*
X112203814Y-139823684D01*
X112313248Y-139987462D01*
X112313251Y-139987466D01*
X112413604Y-140087819D01*
X112447089Y-140149142D01*
X112442105Y-140218834D01*
X112400233Y-140274767D01*
X112334769Y-140299184D01*
X112325923Y-140299500D01*
X89607703Y-140299500D01*
X89540664Y-140279815D01*
X89494909Y-140227011D01*
X89484965Y-140157853D01*
X89486086Y-140151309D01*
X89500499Y-140078846D01*
X89500500Y-140078844D01*
X89500500Y-139921155D01*
X89500499Y-139921153D01*
X89497506Y-139906107D01*
X89469737Y-139766503D01*
X89469665Y-139766328D01*
X89412970Y-139629452D01*
X89405501Y-139559983D01*
X89436777Y-139497504D01*
X89496866Y-139461852D01*
X89527531Y-139458000D01*
X106153331Y-139458000D01*
X106153347Y-139458001D01*
X106160943Y-139458001D01*
X106319054Y-139458001D01*
X106319057Y-139458001D01*
X106471785Y-139417077D01*
X106535103Y-139380520D01*
X106608716Y-139338020D01*
X106720520Y-139226216D01*
X106720520Y-139226214D01*
X106730724Y-139216011D01*
X106730728Y-139216006D01*
X107716734Y-138230000D01*
X108195496Y-138230000D01*
X108237968Y-138376195D01*
X108320278Y-138515374D01*
X108320285Y-138515383D01*
X108434616Y-138629714D01*
X108434625Y-138629721D01*
X108573804Y-138712031D01*
X108729089Y-138757145D01*
X108750000Y-138758789D01*
X109250000Y-138758789D01*
X109270910Y-138757145D01*
X109426195Y-138712031D01*
X109565374Y-138629721D01*
X109565383Y-138629714D01*
X109637362Y-138557736D01*
X109679714Y-138515383D01*
X109679721Y-138515374D01*
X109762031Y-138376195D01*
X109804504Y-138230000D01*
X109250000Y-138230000D01*
X109250000Y-138758789D01*
X108750000Y-138758789D01*
X108750000Y-138230000D01*
X108195496Y-138230000D01*
X107716734Y-138230000D01*
X108180415Y-137766319D01*
X108241738Y-137732834D01*
X108268096Y-137730000D01*
X108501648Y-137730000D01*
X108564766Y-137747267D01*
X108573605Y-137752494D01*
X108573608Y-137752494D01*
X108573610Y-137752496D01*
X108729002Y-137797642D01*
X108729005Y-137797642D01*
X108729007Y-137797643D01*
X108765310Y-137800500D01*
X108765318Y-137800500D01*
X109234682Y-137800500D01*
X109234690Y-137800500D01*
X109270993Y-137797643D01*
X109270995Y-137797642D01*
X109270997Y-137797642D01*
X109426389Y-137752496D01*
X109426389Y-137752495D01*
X109426395Y-137752494D01*
X109435233Y-137747267D01*
X109498352Y-137730000D01*
X109804504Y-137730000D01*
X109762031Y-137583803D01*
X109750090Y-137563613D01*
X109732906Y-137495889D01*
X109750089Y-137437369D01*
X109762494Y-137416395D01*
X109807643Y-137260993D01*
X109810500Y-137224690D01*
X109810500Y-136815310D01*
X109807643Y-136779007D01*
X109762494Y-136623605D01*
X109680117Y-136484313D01*
X109680114Y-136484310D01*
X109675334Y-136478147D01*
X109677828Y-136476212D01*
X109651334Y-136427691D01*
X109648500Y-136401333D01*
X109648500Y-134853673D01*
X109648499Y-134853669D01*
X109622427Y-134722596D01*
X109622426Y-134722589D01*
X109579938Y-134620015D01*
X109570500Y-134572565D01*
X109570500Y-134290945D01*
X109570498Y-134290936D01*
X109564373Y-134268074D01*
X109562651Y-134261647D01*
X109529577Y-134138215D01*
X109495422Y-134079057D01*
X109450520Y-134001284D01*
X109338716Y-133889480D01*
X109338715Y-133889479D01*
X109334385Y-133885149D01*
X109334374Y-133885139D01*
X108336819Y-132887584D01*
X108322115Y-132860656D01*
X108305523Y-132834838D01*
X108304631Y-132828637D01*
X108303334Y-132826261D01*
X108300500Y-132799903D01*
X108300500Y-132579765D01*
X108320185Y-132512726D01*
X108321394Y-132510880D01*
X108321789Y-132510289D01*
X108326669Y-132502984D01*
X108380278Y-132458178D01*
X108449603Y-132449467D01*
X108512632Y-132479618D01*
X108517455Y-132484190D01*
X108797639Y-132764374D01*
X108797649Y-132764385D01*
X108801979Y-132768715D01*
X108801980Y-132768716D01*
X108913784Y-132880520D01*
X108963516Y-132909232D01*
X109000595Y-132930639D01*
X109000597Y-132930641D01*
X109033672Y-132949737D01*
X109050715Y-132959577D01*
X109203442Y-133000500D01*
X109203443Y-133000500D01*
X109420234Y-133000500D01*
X109487273Y-133020185D01*
X109489125Y-133021398D01*
X109620814Y-133109390D01*
X109620827Y-133109397D01*
X109752981Y-133164136D01*
X109766503Y-133169737D01*
X109921153Y-133200499D01*
X109921156Y-133200500D01*
X109921158Y-133200500D01*
X110078844Y-133200500D01*
X110078845Y-133200499D01*
X110233497Y-133169737D01*
X110379179Y-133109394D01*
X110510289Y-133021789D01*
X110621789Y-132910289D01*
X110709394Y-132779179D01*
X110712154Y-132772517D01*
X110744769Y-132693776D01*
X110769737Y-132633497D01*
X110800500Y-132478842D01*
X110800500Y-132450000D01*
X111720069Y-132450000D01*
X111722832Y-132485122D01*
X111722833Y-132485128D01*
X111767592Y-132639188D01*
X111767593Y-132639191D01*
X111849261Y-132777285D01*
X111849268Y-132777294D01*
X111962705Y-132890731D01*
X111962714Y-132890738D01*
X112100805Y-132972404D01*
X112240000Y-133012844D01*
X112240000Y-132450000D01*
X111720069Y-132450000D01*
X110800500Y-132450000D01*
X110800500Y-132321158D01*
X110800500Y-132321155D01*
X110800499Y-132321153D01*
X110798244Y-132309815D01*
X110769737Y-132166503D01*
X110748785Y-132115920D01*
X110718099Y-132041836D01*
X110718083Y-132041798D01*
X110716726Y-132038523D01*
X110709394Y-132020821D01*
X110709392Y-132020818D01*
X110709390Y-132020814D01*
X110662073Y-131950000D01*
X111720069Y-131950000D01*
X112240000Y-131950000D01*
X112240000Y-131387154D01*
X112239998Y-131387153D01*
X112100811Y-131427591D01*
X112100808Y-131427593D01*
X111962714Y-131509261D01*
X111962705Y-131509268D01*
X111849268Y-131622705D01*
X111849261Y-131622714D01*
X111767593Y-131760808D01*
X111767592Y-131760811D01*
X111722833Y-131914871D01*
X111722832Y-131914877D01*
X111720069Y-131950000D01*
X110662073Y-131950000D01*
X110621789Y-131889711D01*
X110621786Y-131889707D01*
X110510292Y-131778213D01*
X110510288Y-131778210D01*
X110379185Y-131690609D01*
X110379172Y-131690602D01*
X110233501Y-131630264D01*
X110233491Y-131630261D01*
X110150308Y-131613715D01*
X110088397Y-131581330D01*
X110053823Y-131520614D01*
X110050500Y-131492098D01*
X110050500Y-131421155D01*
X110050499Y-131421153D01*
X110041288Y-131374847D01*
X110019737Y-131266503D01*
X109994556Y-131205712D01*
X109993299Y-131194016D01*
X109987744Y-131183646D01*
X109989632Y-131159915D01*
X109987088Y-131136245D01*
X109992354Y-131125723D01*
X109993288Y-131113996D01*
X110007706Y-131095054D01*
X110018363Y-131073765D01*
X110029554Y-131066351D01*
X110035607Y-131058401D01*
X110058989Y-131046854D01*
X110066719Y-131041735D01*
X110070565Y-131040335D01*
X110166395Y-131012494D01*
X110197279Y-130994228D01*
X110208091Y-130990295D01*
X110231931Y-130988782D01*
X110255088Y-130982906D01*
X110267428Y-130986529D01*
X110277820Y-130985870D01*
X110291933Y-130993724D01*
X110313613Y-131000090D01*
X110333803Y-131012031D01*
X110480000Y-131054504D01*
X110480000Y-131054503D01*
X110980000Y-131054503D01*
X111126195Y-131012031D01*
X111265374Y-130929721D01*
X111265383Y-130929714D01*
X111379714Y-130815383D01*
X111379721Y-130815374D01*
X111462031Y-130676195D01*
X111462033Y-130676190D01*
X111507144Y-130520918D01*
X111507145Y-130520912D01*
X111508790Y-130500000D01*
X110980000Y-130500000D01*
X110980000Y-131054503D01*
X110480000Y-131054503D01*
X110480000Y-130748352D01*
X110497267Y-130685233D01*
X110502494Y-130676395D01*
X110503269Y-130673730D01*
X110547642Y-130520997D01*
X110547643Y-130520991D01*
X110549295Y-130500000D01*
X110550500Y-130484690D01*
X110550500Y-130015310D01*
X110547643Y-129979007D01*
X110536310Y-129940000D01*
X110502495Y-129823608D01*
X110502492Y-129823600D01*
X110497266Y-129814763D01*
X110480000Y-129751645D01*
X110480000Y-129445494D01*
X110479998Y-129445493D01*
X110333809Y-129487965D01*
X110333806Y-129487967D01*
X110313608Y-129499912D01*
X110245884Y-129517092D01*
X110187370Y-129499910D01*
X110166397Y-129487507D01*
X110166390Y-129487504D01*
X110010997Y-129442357D01*
X110010991Y-129442356D01*
X109974697Y-129439500D01*
X109974690Y-129439500D01*
X109712285Y-129439500D01*
X109645246Y-129419815D01*
X109599491Y-129367011D01*
X109597724Y-129362953D01*
X109571280Y-129299113D01*
X109571279Y-129299110D01*
X109571277Y-129299107D01*
X109571275Y-129299103D01*
X109497025Y-129187981D01*
X109497022Y-129187977D01*
X109402522Y-129093477D01*
X109402518Y-129093474D01*
X109291396Y-129019224D01*
X109291387Y-129019219D01*
X109167911Y-128968074D01*
X109167907Y-128968073D01*
X109160306Y-128966561D01*
X109098395Y-128934174D01*
X109063823Y-128873457D01*
X109060500Y-128844944D01*
X109060500Y-128525317D01*
X109060499Y-128525302D01*
X109059718Y-128515383D01*
X109057643Y-128489007D01*
X109052798Y-128472331D01*
X109012495Y-128333609D01*
X109012494Y-128333605D01*
X109000089Y-128312630D01*
X108982906Y-128244909D01*
X109000091Y-128186384D01*
X109012032Y-128166194D01*
X109054504Y-128020000D01*
X108748352Y-128020000D01*
X108685233Y-128002732D01*
X108676395Y-127997506D01*
X108676393Y-127997505D01*
X108676389Y-127997503D01*
X108520997Y-127952357D01*
X108520991Y-127952356D01*
X108484697Y-127949500D01*
X108484690Y-127949500D01*
X108015310Y-127949500D01*
X108015302Y-127949500D01*
X107984228Y-127951946D01*
X107970618Y-127949086D01*
X107956853Y-127951066D01*
X107937099Y-127942045D01*
X107915851Y-127937581D01*
X107905947Y-127927818D01*
X107893297Y-127922041D01*
X107881557Y-127903774D01*
X107866094Y-127888530D01*
X107862267Y-127873757D01*
X107855523Y-127863263D01*
X107850500Y-127828328D01*
X107850500Y-127644000D01*
X107870185Y-127576961D01*
X107922989Y-127531206D01*
X107974500Y-127520000D01*
X108000000Y-127520000D01*
X108000000Y-126991210D01*
X107999998Y-126991208D01*
X107984228Y-126992450D01*
X107915851Y-126978085D01*
X107866094Y-126929033D01*
X107850500Y-126868832D01*
X107850500Y-126579765D01*
X107854965Y-126563635D01*
X107854498Y-126548533D01*
X107866637Y-126521482D01*
X107868158Y-126515990D01*
X107871259Y-126510818D01*
X107871789Y-126510289D01*
X107959394Y-126379179D01*
X107979910Y-126329647D01*
X107984624Y-126321788D01*
X108003838Y-126304066D01*
X108020245Y-126283708D01*
X108029114Y-126280755D01*
X108035985Y-126274419D01*
X108061734Y-126269898D01*
X108086539Y-126261642D01*
X108095595Y-126263953D01*
X108104802Y-126262337D01*
X108128910Y-126272456D01*
X108154238Y-126278921D01*
X108165907Y-126287986D01*
X108169226Y-126289379D01*
X108170973Y-126291921D01*
X108178647Y-126297882D01*
X108676556Y-126795791D01*
X108710041Y-126857114D01*
X108705057Y-126926806D01*
X108663185Y-126982739D01*
X108597721Y-127007156D01*
X108554281Y-127002549D01*
X108520912Y-126992854D01*
X108500000Y-126991209D01*
X108500000Y-127520000D01*
X109054504Y-127520000D01*
X109047450Y-127495718D01*
X109047649Y-127425849D01*
X109085591Y-127367179D01*
X109149229Y-127338335D01*
X109218359Y-127348476D01*
X109254207Y-127373442D01*
X111126555Y-129245790D01*
X111160040Y-129307113D01*
X111155056Y-129376805D01*
X111113184Y-129432738D01*
X111047720Y-129457155D01*
X111004279Y-129452547D01*
X110980001Y-129445493D01*
X110980000Y-129445494D01*
X110980000Y-130000000D01*
X111508790Y-130000000D01*
X111507145Y-129979089D01*
X111497450Y-129945718D01*
X111497650Y-129875849D01*
X111535593Y-129817179D01*
X111599231Y-129788336D01*
X111668361Y-129798477D01*
X111704208Y-129823443D01*
X113125257Y-131244492D01*
X113136937Y-131265883D01*
X113152205Y-131284885D01*
X113153384Y-131296002D01*
X113158742Y-131305815D01*
X113157003Y-131330127D01*
X113159574Y-131354365D01*
X113154555Y-131364354D01*
X113153758Y-131375507D01*
X113139151Y-131395018D01*
X113128210Y-131416799D01*
X113114751Y-131427612D01*
X113111886Y-131431440D01*
X113100696Y-131438905D01*
X113062628Y-131461418D01*
X112994904Y-131478601D01*
X112936388Y-131461419D01*
X112879189Y-131427592D01*
X112879188Y-131427591D01*
X112740001Y-131387153D01*
X112740000Y-131387154D01*
X112740000Y-131939591D01*
X112739618Y-131949316D01*
X112739500Y-131950804D01*
X112739500Y-131950819D01*
X112739500Y-132175702D01*
X112739501Y-132200000D01*
X112739501Y-132449181D01*
X112739618Y-132450663D01*
X112740000Y-132460393D01*
X112740000Y-133012844D01*
X112879194Y-132972405D01*
X112879196Y-132972404D01*
X112936386Y-132938582D01*
X113004109Y-132921398D01*
X113062629Y-132938581D01*
X113120607Y-132972869D01*
X113139776Y-132978438D01*
X113274791Y-133017664D01*
X113274794Y-133017664D01*
X113274796Y-133017665D01*
X113282666Y-133018284D01*
X113282890Y-133018302D01*
X113301528Y-133025405D01*
X113321347Y-133027664D01*
X113333508Y-133037592D01*
X113348179Y-133043184D01*
X113360018Y-133059237D01*
X113375470Y-133071852D01*
X113380332Y-133086779D01*
X113389651Y-133099414D01*
X113390932Y-133119319D01*
X113397111Y-133138286D01*
X113393817Y-133164136D01*
X113394140Y-133169140D01*
X113393114Y-133173353D01*
X113358844Y-133304130D01*
X113346292Y-133324980D01*
X113340000Y-133341485D01*
X113340000Y-134153011D01*
X113330060Y-134135795D01*
X113274205Y-134079940D01*
X113205796Y-134040444D01*
X113129496Y-134020000D01*
X113050504Y-134020000D01*
X112974204Y-134040444D01*
X112905795Y-134079940D01*
X112849940Y-134135795D01*
X112840000Y-134153011D01*
X112840000Y-133350136D01*
X112839999Y-133350135D01*
X112798316Y-133358427D01*
X112798308Y-133358429D01*
X112616328Y-133433807D01*
X112616315Y-133433814D01*
X112452537Y-133543248D01*
X112452533Y-133543251D01*
X112313251Y-133682533D01*
X112313248Y-133682537D01*
X112203814Y-133846315D01*
X112203807Y-133846328D01*
X112128430Y-134028306D01*
X112128427Y-134028318D01*
X112090000Y-134221504D01*
X112090000Y-134620000D01*
X112790000Y-134620000D01*
X112790000Y-135120000D01*
X112090000Y-135120000D01*
X112090000Y-135518495D01*
X112128427Y-135711681D01*
X112128430Y-135711693D01*
X112203807Y-135893671D01*
X112203814Y-135893684D01*
X112313248Y-136057462D01*
X112313251Y-136057466D01*
X112452533Y-136196748D01*
X112452537Y-136196751D01*
X112616315Y-136306185D01*
X112616328Y-136306192D01*
X112798308Y-136381569D01*
X112840000Y-136389862D01*
X112840000Y-135586988D01*
X112849940Y-135604205D01*
X112905795Y-135660060D01*
X112974204Y-135699556D01*
X113050504Y-135720000D01*
X113129496Y-135720000D01*
X113205796Y-135699556D01*
X113274205Y-135660060D01*
X113330060Y-135604205D01*
X113340000Y-135586988D01*
X113340000Y-136389862D01*
X113381690Y-136381569D01*
X113381692Y-136381569D01*
X113563671Y-136306192D01*
X113563684Y-136306185D01*
X113727462Y-136196751D01*
X113727466Y-136196748D01*
X113866748Y-136057466D01*
X113866751Y-136057462D01*
X113979574Y-135888613D01*
X113981007Y-135889570D01*
X114024198Y-135845580D01*
X114092332Y-135830103D01*
X114158018Y-135853919D01*
X114160089Y-135855697D01*
X114160189Y-135855568D01*
X114166630Y-135860510D01*
X114166635Y-135860515D01*
X114297865Y-135936281D01*
X114444234Y-135975500D01*
X114444236Y-135975500D01*
X114595764Y-135975500D01*
X114595766Y-135975500D01*
X114742135Y-135936281D01*
X114873365Y-135860515D01*
X114923931Y-135809949D01*
X114985254Y-135776464D01*
X115054946Y-135781448D01*
X115099293Y-135809949D01*
X115313454Y-136024111D01*
X115313455Y-136024112D01*
X115313458Y-136024114D01*
X115428190Y-136100775D01*
X115555672Y-136153580D01*
X115567382Y-136155909D01*
X115572834Y-136156994D01*
X115572847Y-136156996D01*
X115572861Y-136156999D01*
X115620119Y-136166399D01*
X115691005Y-136180500D01*
X115691008Y-136180500D01*
X118488996Y-136180500D01*
X118580040Y-136162389D01*
X118624328Y-136153580D01*
X118751811Y-136100775D01*
X118762816Y-136093421D01*
X118788476Y-136080302D01*
X118797778Y-136076841D01*
X118833497Y-136069737D01*
X118979179Y-136009394D01*
X118979289Y-136009320D01*
X118982083Y-136008281D01*
X118988466Y-136007830D01*
X119025316Y-136000500D01*
X119308995Y-136000500D01*
X119400039Y-135982389D01*
X119444327Y-135973580D01*
X119511133Y-135945908D01*
X119571806Y-135920777D01*
X119571807Y-135920776D01*
X119571810Y-135920775D01*
X119686542Y-135844114D01*
X119720706Y-135809950D01*
X119782028Y-135776464D01*
X119851720Y-135781448D01*
X119896069Y-135809949D01*
X119946635Y-135860515D01*
X120077865Y-135936281D01*
X120224234Y-135975500D01*
X120224236Y-135975500D01*
X120375764Y-135975500D01*
X120375766Y-135975500D01*
X120522135Y-135936281D01*
X120653365Y-135860515D01*
X120653372Y-135860507D01*
X120659811Y-135855568D01*
X120662044Y-135858478D01*
X120708258Y-135832865D01*
X120777980Y-135837411D01*
X120834176Y-135878930D01*
X120840394Y-135888634D01*
X120840426Y-135888613D01*
X120953248Y-136057462D01*
X120953251Y-136057466D01*
X121092533Y-136196748D01*
X121092537Y-136196751D01*
X121256315Y-136306185D01*
X121256328Y-136306192D01*
X121438308Y-136381569D01*
X121480000Y-136389862D01*
X121480000Y-135586988D01*
X121489940Y-135604205D01*
X121545795Y-135660060D01*
X121614204Y-135699556D01*
X121690504Y-135720000D01*
X121769496Y-135720000D01*
X121845796Y-135699556D01*
X121914205Y-135660060D01*
X121970060Y-135604205D01*
X121980000Y-135586988D01*
X121980000Y-136389862D01*
X122021690Y-136381569D01*
X122021692Y-136381569D01*
X122203671Y-136306192D01*
X122203684Y-136306185D01*
X122367462Y-136196751D01*
X122367466Y-136196748D01*
X122506748Y-136057466D01*
X122506751Y-136057462D01*
X122616185Y-135893684D01*
X122616192Y-135893671D01*
X122691569Y-135711693D01*
X122691572Y-135711681D01*
X122729999Y-135518495D01*
X122730000Y-135518492D01*
X122730000Y-135120000D01*
X122030000Y-135120000D01*
X122030000Y-134620000D01*
X122730000Y-134620000D01*
X122730000Y-134221508D01*
X122729999Y-134221504D01*
X122691572Y-134028318D01*
X122691569Y-134028306D01*
X122616192Y-133846328D01*
X122616185Y-133846315D01*
X122506751Y-133682537D01*
X122506748Y-133682533D01*
X122367466Y-133543251D01*
X122367462Y-133543248D01*
X122203684Y-133433814D01*
X122203671Y-133433807D01*
X122021691Y-133358429D01*
X122021683Y-133358427D01*
X121980000Y-133350135D01*
X121980000Y-134153011D01*
X121970060Y-134135795D01*
X121914205Y-134079940D01*
X121845796Y-134040444D01*
X121769496Y-134020000D01*
X121690504Y-134020000D01*
X121614204Y-134040444D01*
X121545795Y-134079940D01*
X121489940Y-134135795D01*
X121480000Y-134153011D01*
X121480000Y-133335606D01*
X121463106Y-133310806D01*
X121463105Y-133310801D01*
X121463104Y-133310800D01*
X121463103Y-133310795D01*
X121457487Y-133282425D01*
X121457100Y-133277510D01*
X121457099Y-133277504D01*
X121411283Y-133119806D01*
X121411282Y-133119803D01*
X121327685Y-132978447D01*
X121327678Y-132978438D01*
X121322093Y-132972853D01*
X121147862Y-132822364D01*
X121134692Y-132801942D01*
X121118112Y-132784185D01*
X121116097Y-132773108D01*
X121109994Y-132763645D01*
X121109955Y-132739345D01*
X121105608Y-132715443D01*
X121109901Y-132705034D01*
X121109884Y-132693776D01*
X121122986Y-132673317D01*
X121132253Y-132650854D01*
X121141217Y-132640860D01*
X122563172Y-131218905D01*
X124330000Y-131218905D01*
X124330000Y-131481094D01*
X124364220Y-131741009D01*
X124364222Y-131741020D01*
X124432075Y-131994255D01*
X124532404Y-132236471D01*
X124532409Y-132236482D01*
X124663488Y-132463516D01*
X124663494Y-132463524D01*
X124750080Y-132576365D01*
X125357912Y-131968532D01*
X125452829Y-132099175D01*
X125580825Y-132227171D01*
X125711465Y-132322086D01*
X125103633Y-132929917D01*
X125103633Y-132929918D01*
X125216475Y-133016505D01*
X125216483Y-133016511D01*
X125443517Y-133147590D01*
X125443528Y-133147595D01*
X125685744Y-133247924D01*
X125938979Y-133315777D01*
X125938990Y-133315779D01*
X126198905Y-133349999D01*
X126198920Y-133350000D01*
X126461080Y-133350000D01*
X126461094Y-133349999D01*
X126721009Y-133315779D01*
X126721020Y-133315777D01*
X126974255Y-133247924D01*
X127216471Y-133147595D01*
X127216482Y-133147590D01*
X127443516Y-133016511D01*
X127443534Y-133016499D01*
X127556365Y-132929919D01*
X127556365Y-132929917D01*
X126948534Y-132322086D01*
X127079175Y-132227171D01*
X127207171Y-132099175D01*
X127302086Y-131968534D01*
X127909917Y-132576365D01*
X127909919Y-132576365D01*
X127996499Y-132463534D01*
X127996511Y-132463516D01*
X128127590Y-132236482D01*
X128127595Y-132236471D01*
X128227924Y-131994255D01*
X128295777Y-131741020D01*
X128295779Y-131741009D01*
X128329999Y-131481094D01*
X128330000Y-131481080D01*
X128330000Y-131218919D01*
X128329999Y-131218905D01*
X128295779Y-130958990D01*
X128295777Y-130958979D01*
X128227924Y-130705744D01*
X128127595Y-130463528D01*
X128127590Y-130463517D01*
X127996511Y-130236483D01*
X127996505Y-130236475D01*
X127909918Y-130123633D01*
X127909917Y-130123633D01*
X127302085Y-130731465D01*
X127207171Y-130600825D01*
X127079175Y-130472829D01*
X126948532Y-130377912D01*
X127556365Y-129770080D01*
X127443524Y-129683494D01*
X127443516Y-129683488D01*
X127216482Y-129552409D01*
X127216471Y-129552404D01*
X126974255Y-129452075D01*
X126721020Y-129384222D01*
X126721009Y-129384220D01*
X126461094Y-129350000D01*
X126198905Y-129350000D01*
X125938990Y-129384220D01*
X125938979Y-129384222D01*
X125685744Y-129452075D01*
X125443528Y-129552404D01*
X125443517Y-129552409D01*
X125216471Y-129683496D01*
X125103633Y-129770079D01*
X125103633Y-129770080D01*
X125711466Y-130377913D01*
X125580825Y-130472829D01*
X125452829Y-130600825D01*
X125357913Y-130731466D01*
X124750080Y-130123633D01*
X124750079Y-130123633D01*
X124663496Y-130236471D01*
X124532409Y-130463517D01*
X124532404Y-130463528D01*
X124432075Y-130705744D01*
X124364222Y-130958979D01*
X124364220Y-130958990D01*
X124330000Y-131218905D01*
X122563172Y-131218905D01*
X125065259Y-128716819D01*
X125126582Y-128683334D01*
X125152940Y-128680500D01*
X125221158Y-128680500D01*
X127975501Y-128680500D01*
X128042540Y-128700185D01*
X128088295Y-128752989D01*
X128099501Y-128804500D01*
X128099501Y-129190018D01*
X128110000Y-129292796D01*
X128110001Y-129292799D01*
X128165185Y-129459331D01*
X128165187Y-129459336D01*
X128200069Y-129515888D01*
X128257288Y-129608656D01*
X128381344Y-129732712D01*
X128530666Y-129824814D01*
X128697203Y-129879999D01*
X128799991Y-129890500D01*
X129467059Y-129890499D01*
X129534098Y-129910183D01*
X129554740Y-129926818D01*
X130189707Y-130561786D01*
X130189711Y-130561789D01*
X130320814Y-130649390D01*
X130320818Y-130649392D01*
X130320821Y-130649394D01*
X130466503Y-130709738D01*
X130621153Y-130740499D01*
X130621157Y-130740500D01*
X130621158Y-130740500D01*
X137017322Y-130740500D01*
X137017323Y-130740499D01*
X137171975Y-130709737D01*
X137317657Y-130649394D01*
X137372016Y-130613072D01*
X137438692Y-130592195D01*
X137506072Y-130610679D01*
X137552762Y-130662657D01*
X137563939Y-130731627D01*
X137560681Y-130748268D01*
X137504222Y-130958979D01*
X137504220Y-130958990D01*
X137470000Y-131218905D01*
X137470000Y-131481094D01*
X137504220Y-131741009D01*
X137504222Y-131741020D01*
X137572075Y-131994255D01*
X137672404Y-132236471D01*
X137672409Y-132236482D01*
X137803488Y-132463516D01*
X137803494Y-132463524D01*
X137890080Y-132576365D01*
X138497912Y-131968532D01*
X138592829Y-132099175D01*
X138720825Y-132227171D01*
X138851465Y-132322086D01*
X138243633Y-132929917D01*
X138243633Y-132929918D01*
X138356475Y-133016505D01*
X138356483Y-133016511D01*
X138583517Y-133147590D01*
X138583528Y-133147595D01*
X138825744Y-133247924D01*
X139078979Y-133315777D01*
X139078990Y-133315779D01*
X139338905Y-133349999D01*
X139338920Y-133350000D01*
X139601080Y-133350000D01*
X139601094Y-133349999D01*
X139861009Y-133315779D01*
X139861020Y-133315777D01*
X140114255Y-133247924D01*
X140356471Y-133147595D01*
X140356482Y-133147590D01*
X140583516Y-133016511D01*
X140583534Y-133016499D01*
X140696365Y-132929919D01*
X140696365Y-132929917D01*
X140088534Y-132322086D01*
X140219175Y-132227171D01*
X140347171Y-132099175D01*
X140442086Y-131968534D01*
X141049917Y-132576365D01*
X141049919Y-132576365D01*
X141136499Y-132463534D01*
X141136511Y-132463516D01*
X141267590Y-132236482D01*
X141267595Y-132236471D01*
X141367924Y-131994255D01*
X141435777Y-131741020D01*
X141435779Y-131741009D01*
X141469999Y-131481094D01*
X141470000Y-131481080D01*
X141470000Y-131218919D01*
X141469999Y-131218905D01*
X141830000Y-131218905D01*
X141830000Y-131481094D01*
X141864220Y-131741009D01*
X141864222Y-131741020D01*
X141932075Y-131994255D01*
X142032404Y-132236471D01*
X142032409Y-132236482D01*
X142163488Y-132463516D01*
X142163494Y-132463524D01*
X142250080Y-132576365D01*
X142857912Y-131968532D01*
X142952829Y-132099175D01*
X143080825Y-132227171D01*
X143211465Y-132322086D01*
X142603633Y-132929917D01*
X142603633Y-132929918D01*
X142716475Y-133016505D01*
X142716483Y-133016511D01*
X142943517Y-133147590D01*
X142943528Y-133147595D01*
X143185744Y-133247924D01*
X143438979Y-133315777D01*
X143438990Y-133315779D01*
X143698905Y-133349999D01*
X143698920Y-133350000D01*
X143961080Y-133350000D01*
X143961094Y-133349999D01*
X144221009Y-133315779D01*
X144221020Y-133315777D01*
X144474255Y-133247924D01*
X144716471Y-133147595D01*
X144716482Y-133147590D01*
X144943516Y-133016511D01*
X144943534Y-133016499D01*
X145056365Y-132929919D01*
X145056365Y-132929917D01*
X144448534Y-132322086D01*
X144579175Y-132227171D01*
X144707171Y-132099175D01*
X144802086Y-131968534D01*
X145409917Y-132576365D01*
X145409919Y-132576365D01*
X145496499Y-132463534D01*
X145496511Y-132463516D01*
X145627590Y-132236482D01*
X145627595Y-132236471D01*
X145727924Y-131994255D01*
X145795777Y-131741020D01*
X145795779Y-131741009D01*
X145829999Y-131481094D01*
X145830000Y-131481080D01*
X145830000Y-131218919D01*
X145829999Y-131218905D01*
X154970000Y-131218905D01*
X154970000Y-131481094D01*
X155004220Y-131741009D01*
X155004222Y-131741020D01*
X155072075Y-131994255D01*
X155172404Y-132236471D01*
X155172409Y-132236482D01*
X155303488Y-132463516D01*
X155303494Y-132463524D01*
X155390080Y-132576365D01*
X155997912Y-131968532D01*
X156092829Y-132099175D01*
X156220825Y-132227171D01*
X156351465Y-132322086D01*
X155743633Y-132929917D01*
X155743633Y-132929918D01*
X155856475Y-133016505D01*
X155856483Y-133016511D01*
X156083517Y-133147590D01*
X156083528Y-133147595D01*
X156325744Y-133247924D01*
X156578979Y-133315777D01*
X156578990Y-133315779D01*
X156838905Y-133349999D01*
X156838920Y-133350000D01*
X157101080Y-133350000D01*
X157101094Y-133349999D01*
X157361009Y-133315779D01*
X157361020Y-133315777D01*
X157614255Y-133247924D01*
X157856471Y-133147595D01*
X157856482Y-133147590D01*
X158083516Y-133016511D01*
X158083534Y-133016499D01*
X158196365Y-132929919D01*
X158196365Y-132929917D01*
X157588534Y-132322086D01*
X157719175Y-132227171D01*
X157847171Y-132099175D01*
X157942086Y-131968534D01*
X158549917Y-132576365D01*
X158549919Y-132576365D01*
X158636499Y-132463534D01*
X158636511Y-132463516D01*
X158767590Y-132236482D01*
X158767595Y-132236471D01*
X158867924Y-131994255D01*
X158935777Y-131741020D01*
X158935779Y-131741009D01*
X158969999Y-131481094D01*
X158970000Y-131481080D01*
X158970000Y-131218919D01*
X158969999Y-131218905D01*
X158935779Y-130958990D01*
X158935777Y-130958979D01*
X158867924Y-130705744D01*
X158767595Y-130463528D01*
X158767590Y-130463517D01*
X158636511Y-130236483D01*
X158636505Y-130236475D01*
X158549918Y-130123633D01*
X158549917Y-130123633D01*
X157942085Y-130731465D01*
X157847171Y-130600825D01*
X157719175Y-130472829D01*
X157588532Y-130377912D01*
X158196365Y-129770080D01*
X158083524Y-129683494D01*
X158083516Y-129683488D01*
X157856482Y-129552409D01*
X157856471Y-129552404D01*
X157614255Y-129452075D01*
X157361020Y-129384222D01*
X157361009Y-129384220D01*
X157101094Y-129350000D01*
X156838905Y-129350000D01*
X156578990Y-129384220D01*
X156578979Y-129384222D01*
X156325744Y-129452075D01*
X156083528Y-129552404D01*
X156083517Y-129552409D01*
X155856471Y-129683496D01*
X155743633Y-129770079D01*
X155743633Y-129770080D01*
X156351466Y-130377913D01*
X156220825Y-130472829D01*
X156092829Y-130600825D01*
X155997913Y-130731466D01*
X155390080Y-130123633D01*
X155390079Y-130123633D01*
X155303496Y-130236471D01*
X155172409Y-130463517D01*
X155172404Y-130463528D01*
X155072075Y-130705744D01*
X155004222Y-130958979D01*
X155004220Y-130958990D01*
X154970000Y-131218905D01*
X145829999Y-131218905D01*
X145795779Y-130958990D01*
X145795777Y-130958979D01*
X145727924Y-130705744D01*
X145627595Y-130463528D01*
X145627590Y-130463517D01*
X145496511Y-130236483D01*
X145496505Y-130236475D01*
X145409918Y-130123633D01*
X145409917Y-130123633D01*
X144802085Y-130731464D01*
X144707171Y-130600825D01*
X144579175Y-130472829D01*
X144448532Y-130377912D01*
X145056365Y-129770080D01*
X144943524Y-129683494D01*
X144943516Y-129683488D01*
X144716482Y-129552409D01*
X144716471Y-129552404D01*
X144474255Y-129452075D01*
X144221020Y-129384222D01*
X144221009Y-129384220D01*
X143961094Y-129350000D01*
X143698905Y-129350000D01*
X143438990Y-129384220D01*
X143438979Y-129384222D01*
X143185744Y-129452075D01*
X142943528Y-129552404D01*
X142943517Y-129552409D01*
X142716471Y-129683496D01*
X142603633Y-129770079D01*
X142603633Y-129770080D01*
X143211466Y-130377913D01*
X143080825Y-130472829D01*
X142952829Y-130600825D01*
X142857913Y-130731466D01*
X142250080Y-130123633D01*
X142250079Y-130123633D01*
X142163496Y-130236471D01*
X142032409Y-130463517D01*
X142032404Y-130463528D01*
X141932075Y-130705744D01*
X141864222Y-130958979D01*
X141864220Y-130958990D01*
X141830000Y-131218905D01*
X141469999Y-131218905D01*
X141435779Y-130958990D01*
X141435777Y-130958979D01*
X141367924Y-130705744D01*
X141267595Y-130463528D01*
X141267590Y-130463517D01*
X141136511Y-130236483D01*
X141136505Y-130236475D01*
X141049918Y-130123633D01*
X141049917Y-130123633D01*
X140442085Y-130731465D01*
X140347171Y-130600825D01*
X140219175Y-130472829D01*
X140088532Y-130377912D01*
X140696365Y-129770080D01*
X140583524Y-129683494D01*
X140583516Y-129683488D01*
X140356482Y-129552409D01*
X140356471Y-129552404D01*
X140114255Y-129452075D01*
X139861020Y-129384222D01*
X139861009Y-129384220D01*
X139601094Y-129350000D01*
X139338905Y-129350000D01*
X139078990Y-129384220D01*
X139078979Y-129384222D01*
X138907658Y-129430127D01*
X138837808Y-129428464D01*
X138779946Y-129389301D01*
X138752442Y-129325073D01*
X138764029Y-129256170D01*
X138787881Y-129222674D01*
X139780556Y-128230000D01*
X141995496Y-128230000D01*
X142037968Y-128376195D01*
X142120278Y-128515374D01*
X142120285Y-128515383D01*
X142234616Y-128629714D01*
X142234625Y-128629721D01*
X142373804Y-128712031D01*
X142529089Y-128757145D01*
X142550000Y-128758789D01*
X143050000Y-128758789D01*
X143070910Y-128757145D01*
X143226195Y-128712031D01*
X143365374Y-128629721D01*
X143365383Y-128629714D01*
X143479714Y-128515383D01*
X143479721Y-128515374D01*
X143562031Y-128376195D01*
X143604504Y-128230000D01*
X143050000Y-128230000D01*
X143050000Y-128758789D01*
X142550000Y-128758789D01*
X142550000Y-128230000D01*
X141995496Y-128230000D01*
X139780556Y-128230000D01*
X140153737Y-127856819D01*
X140215060Y-127823334D01*
X140241418Y-127820500D01*
X142721158Y-127820500D01*
X144897060Y-127820500D01*
X144964099Y-127840185D01*
X144984741Y-127856819D01*
X145563181Y-128435259D01*
X145596666Y-128496582D01*
X145599500Y-128522940D01*
X145599500Y-129190001D01*
X145599501Y-129190019D01*
X145610000Y-129292796D01*
X145610001Y-129292799D01*
X145665185Y-129459331D01*
X145665187Y-129459336D01*
X145700069Y-129515888D01*
X145757288Y-129608656D01*
X145881344Y-129732712D01*
X146030666Y-129824814D01*
X146197203Y-129879999D01*
X146299991Y-129890500D01*
X147500008Y-129890499D01*
X147602797Y-129879999D01*
X147769334Y-129824814D01*
X147918656Y-129732712D01*
X148042712Y-129608656D01*
X148134814Y-129459334D01*
X148138047Y-129449576D01*
X148177817Y-129392135D01*
X148242332Y-129365310D01*
X148311108Y-129377624D01*
X148356070Y-129415696D01*
X148400000Y-129476161D01*
X148408034Y-129487219D01*
X148552786Y-129631971D01*
X148688199Y-129730352D01*
X148718390Y-129752287D01*
X148809043Y-129798477D01*
X148900776Y-129845218D01*
X148900778Y-129845218D01*
X148900781Y-129845220D01*
X148995047Y-129875849D01*
X149095465Y-129908477D01*
X149196557Y-129924488D01*
X149297648Y-129940500D01*
X149297649Y-129940500D01*
X149502351Y-129940500D01*
X149502352Y-129940500D01*
X149704534Y-129908477D01*
X149899219Y-129845220D01*
X150081610Y-129752287D01*
X150176304Y-129683488D01*
X150247213Y-129631971D01*
X150247215Y-129631968D01*
X150247219Y-129631966D01*
X150312319Y-129566866D01*
X150373642Y-129533381D01*
X150443334Y-129538365D01*
X150487681Y-129566866D01*
X150552786Y-129631971D01*
X150688199Y-129730352D01*
X150718390Y-129752287D01*
X150809043Y-129798477D01*
X150900776Y-129845218D01*
X150900778Y-129845218D01*
X150900781Y-129845220D01*
X150995047Y-129875849D01*
X151095465Y-129908477D01*
X151196557Y-129924488D01*
X151297648Y-129940500D01*
X151297649Y-129940500D01*
X151502351Y-129940500D01*
X151502352Y-129940500D01*
X151704534Y-129908477D01*
X151899219Y-129845220D01*
X152081610Y-129752287D01*
X152176304Y-129683488D01*
X152247213Y-129631971D01*
X152247215Y-129631968D01*
X152247219Y-129631966D01*
X152391966Y-129487219D01*
X152391968Y-129487215D01*
X152391971Y-129487213D01*
X152476298Y-129371144D01*
X152512287Y-129321610D01*
X152539795Y-129267621D01*
X152587769Y-129216826D01*
X152655589Y-129200030D01*
X152721725Y-129222567D01*
X152760765Y-129267621D01*
X152788141Y-129321350D01*
X152788147Y-129321359D01*
X152820523Y-129365921D01*
X152820524Y-129365922D01*
X153437449Y-128748997D01*
X153457370Y-128823343D01*
X153519905Y-128931657D01*
X153608343Y-129020095D01*
X153716657Y-129082630D01*
X153791002Y-129102550D01*
X153174076Y-129719474D01*
X153218650Y-129751859D01*
X153400968Y-129844755D01*
X153595582Y-129907990D01*
X153797683Y-129940000D01*
X154002317Y-129940000D01*
X154204417Y-129907990D01*
X154399031Y-129844755D01*
X154581351Y-129751858D01*
X154581353Y-129751857D01*
X154625921Y-129719475D01*
X154625921Y-129719474D01*
X154008997Y-129102550D01*
X154083343Y-129082630D01*
X154191657Y-129020095D01*
X154280095Y-128931657D01*
X154342630Y-128823343D01*
X154362550Y-128748998D01*
X154979474Y-129365922D01*
X154979474Y-129365921D01*
X155011859Y-129321349D01*
X155104755Y-129139031D01*
X155167990Y-128944417D01*
X155200000Y-128742317D01*
X155200000Y-128537682D01*
X155167990Y-128335582D01*
X155104755Y-128140968D01*
X155011859Y-127958650D01*
X154979474Y-127914077D01*
X154979474Y-127914076D01*
X154362550Y-128531001D01*
X154342630Y-128456657D01*
X154280095Y-128348343D01*
X154191657Y-128259905D01*
X154083343Y-128197370D01*
X154008996Y-128177449D01*
X154625922Y-127560524D01*
X154625921Y-127560523D01*
X154581359Y-127528147D01*
X154581350Y-127528141D01*
X154399031Y-127435244D01*
X154204417Y-127372009D01*
X154002317Y-127340000D01*
X153797683Y-127340000D01*
X153595582Y-127372009D01*
X153400968Y-127435244D01*
X153218644Y-127528143D01*
X153174077Y-127560523D01*
X153174077Y-127560524D01*
X153791003Y-128177449D01*
X153716657Y-128197370D01*
X153608343Y-128259905D01*
X153519905Y-128348343D01*
X153457370Y-128456657D01*
X153437449Y-128531002D01*
X152820524Y-127914077D01*
X152820523Y-127914077D01*
X152788143Y-127958644D01*
X152760765Y-128012378D01*
X152712790Y-128063174D01*
X152644969Y-128079969D01*
X152578834Y-128057431D01*
X152539795Y-128012378D01*
X152534880Y-128002732D01*
X152512287Y-127958390D01*
X152512285Y-127958387D01*
X152512284Y-127958385D01*
X152391971Y-127792786D01*
X152247213Y-127648028D01*
X152081613Y-127527715D01*
X152081612Y-127527714D01*
X152081610Y-127527713D01*
X152018816Y-127495718D01*
X151899223Y-127434781D01*
X151704534Y-127371522D01*
X151529995Y-127343878D01*
X151502352Y-127339500D01*
X151297648Y-127339500D01*
X151257211Y-127345904D01*
X151095462Y-127371523D01*
X151095460Y-127371523D01*
X151081149Y-127376173D01*
X151011308Y-127378164D01*
X150955157Y-127345921D01*
X147117590Y-123508355D01*
X147117588Y-123508352D01*
X146998717Y-123389481D01*
X146998716Y-123389480D01*
X146911904Y-123339360D01*
X146911904Y-123339359D01*
X146911900Y-123339358D01*
X146861785Y-123310423D01*
X146709057Y-123269499D01*
X146550943Y-123269499D01*
X146543347Y-123269499D01*
X146543331Y-123269500D01*
X133706175Y-123269500D01*
X133639136Y-123249815D01*
X133593381Y-123197011D01*
X133591632Y-123192995D01*
X133564843Y-123128319D01*
X133512407Y-123049843D01*
X133472863Y-122990660D01*
X133472857Y-122990652D01*
X133355791Y-122873586D01*
X133355783Y-122873580D01*
X133218135Y-122781607D01*
X133218128Y-122781603D01*
X133218125Y-122781601D01*
X133218121Y-122781599D01*
X133218117Y-122781597D01*
X133065164Y-122718243D01*
X133065155Y-122718240D01*
X132902781Y-122685943D01*
X132902779Y-122685943D01*
X132819997Y-122685944D01*
X132700003Y-122685944D01*
X132617221Y-122685943D01*
X132617220Y-122685943D01*
X132617218Y-122685943D01*
X132617217Y-122685943D01*
X132454844Y-122718240D01*
X132454835Y-122718243D01*
X132301882Y-122781597D01*
X132301864Y-122781607D01*
X132164216Y-122873580D01*
X132164208Y-122873586D01*
X132047142Y-122990652D01*
X132047136Y-122990660D01*
X131955163Y-123128308D01*
X131955156Y-123128320D01*
X131944973Y-123152903D01*
X131928385Y-123192953D01*
X131884546Y-123247355D01*
X131818252Y-123269421D01*
X131813825Y-123269500D01*
X113845964Y-123269500D01*
X113778925Y-123249815D01*
X113733170Y-123197011D01*
X113724347Y-123169691D01*
X113700508Y-123049843D01*
X113700505Y-123049834D01*
X113641673Y-122907798D01*
X113641672Y-122907796D01*
X113618813Y-122873586D01*
X113556254Y-122779960D01*
X113556251Y-122779956D01*
X113447543Y-122671248D01*
X113447539Y-122671245D01*
X113319703Y-122585827D01*
X113319701Y-122585826D01*
X113177665Y-122526994D01*
X113177656Y-122526991D01*
X113026877Y-122497000D01*
X113026873Y-122497000D01*
X112873127Y-122497000D01*
X112873122Y-122497000D01*
X112722343Y-122526991D01*
X112722334Y-122526994D01*
X112580298Y-122585826D01*
X112580296Y-122585827D01*
X112452460Y-122671245D01*
X112452456Y-122671248D01*
X112397681Y-122726024D01*
X112336358Y-122759509D01*
X112266666Y-122754525D01*
X112222319Y-122726024D01*
X112167543Y-122671248D01*
X112167539Y-122671245D01*
X112039703Y-122585827D01*
X112039701Y-122585826D01*
X111897665Y-122526994D01*
X111897656Y-122526991D01*
X111746877Y-122497000D01*
X111746873Y-122497000D01*
X111593127Y-122497000D01*
X111593122Y-122497000D01*
X111442343Y-122526991D01*
X111442334Y-122526994D01*
X111300298Y-122585826D01*
X111300296Y-122585827D01*
X111172460Y-122671245D01*
X111172456Y-122671248D01*
X111122681Y-122721024D01*
X111061358Y-122754509D01*
X110991666Y-122749525D01*
X110947319Y-122721024D01*
X110897543Y-122671248D01*
X110897539Y-122671245D01*
X110769703Y-122585827D01*
X110769701Y-122585826D01*
X110627665Y-122526994D01*
X110627656Y-122526991D01*
X110476877Y-122497000D01*
X110476873Y-122497000D01*
X110323127Y-122497000D01*
X110323122Y-122497000D01*
X110172343Y-122526991D01*
X110172334Y-122526994D01*
X110030298Y-122585826D01*
X110030296Y-122585827D01*
X109902460Y-122671245D01*
X109902456Y-122671248D01*
X109852681Y-122721024D01*
X109791358Y-122754509D01*
X109721666Y-122749525D01*
X109677319Y-122721024D01*
X109627543Y-122671248D01*
X109627539Y-122671245D01*
X109499703Y-122585827D01*
X109499701Y-122585826D01*
X109357665Y-122526994D01*
X109357656Y-122526991D01*
X109206877Y-122497000D01*
X109206873Y-122497000D01*
X109053127Y-122497000D01*
X109053122Y-122497000D01*
X108902343Y-122526991D01*
X108902334Y-122526994D01*
X108760298Y-122585826D01*
X108760296Y-122585827D01*
X108632460Y-122671245D01*
X108632456Y-122671248D01*
X108587681Y-122716024D01*
X108526358Y-122749509D01*
X108456666Y-122744525D01*
X108412319Y-122716024D01*
X108367543Y-122671248D01*
X108367539Y-122671245D01*
X108239703Y-122585827D01*
X108239701Y-122585826D01*
X108097665Y-122526994D01*
X108097656Y-122526991D01*
X107946877Y-122497000D01*
X107946873Y-122497000D01*
X107793127Y-122497000D01*
X107793122Y-122497000D01*
X107642343Y-122526991D01*
X107642334Y-122526994D01*
X107500298Y-122585826D01*
X107500296Y-122585827D01*
X107372460Y-122671245D01*
X107372456Y-122671248D01*
X107322681Y-122721024D01*
X107261358Y-122754509D01*
X107191666Y-122749525D01*
X107147319Y-122721024D01*
X107097543Y-122671248D01*
X107097539Y-122671245D01*
X106969703Y-122585827D01*
X106969701Y-122585826D01*
X106827665Y-122526994D01*
X106827656Y-122526991D01*
X106676877Y-122497000D01*
X106676873Y-122497000D01*
X106523127Y-122497000D01*
X106523122Y-122497000D01*
X106372343Y-122526991D01*
X106372334Y-122526994D01*
X106230298Y-122585826D01*
X106230296Y-122585827D01*
X106102460Y-122671245D01*
X106102456Y-122671248D01*
X106052681Y-122721024D01*
X105991358Y-122754509D01*
X105921666Y-122749525D01*
X105877319Y-122721024D01*
X105827543Y-122671248D01*
X105827539Y-122671245D01*
X105699703Y-122585827D01*
X105699701Y-122585826D01*
X105557665Y-122526994D01*
X105557656Y-122526991D01*
X105406877Y-122497000D01*
X105406873Y-122497000D01*
X105253127Y-122497000D01*
X105253122Y-122497000D01*
X105102343Y-122526991D01*
X105102334Y-122526994D01*
X104960298Y-122585826D01*
X104960296Y-122585827D01*
X104832460Y-122671245D01*
X104832456Y-122671248D01*
X104777681Y-122726024D01*
X104716358Y-122759509D01*
X104646666Y-122754525D01*
X104602319Y-122726024D01*
X104547543Y-122671248D01*
X104547539Y-122671245D01*
X104419703Y-122585827D01*
X104419701Y-122585826D01*
X104277665Y-122526994D01*
X104277656Y-122526991D01*
X104126877Y-122497000D01*
X104126873Y-122497000D01*
X103973127Y-122497000D01*
X103973122Y-122497000D01*
X103822343Y-122526991D01*
X103822334Y-122526994D01*
X103680298Y-122585826D01*
X103680296Y-122585827D01*
X103552460Y-122671245D01*
X103552456Y-122671248D01*
X103443748Y-122779956D01*
X103443745Y-122779960D01*
X103358327Y-122907796D01*
X103358326Y-122907798D01*
X103299494Y-123049834D01*
X103299491Y-123049843D01*
X103269500Y-123200622D01*
X103269500Y-124539377D01*
X103299491Y-124690156D01*
X103299494Y-124690165D01*
X103358326Y-124832201D01*
X103358327Y-124832203D01*
X103443745Y-124960039D01*
X103443748Y-124960043D01*
X103523181Y-125039476D01*
X103542887Y-125065156D01*
X103547869Y-125073786D01*
X103569480Y-125111216D01*
X103681284Y-125223020D01*
X103681285Y-125223021D01*
X103828182Y-125369917D01*
X103861666Y-125431238D01*
X103864500Y-125457597D01*
X103864500Y-127440989D01*
X103864500Y-128016448D01*
X103864500Y-129129370D01*
X103864499Y-129129374D01*
X103864499Y-129287488D01*
X103864518Y-129287558D01*
X103864519Y-129295819D01*
X103864518Y-129295821D01*
X103864519Y-129295833D01*
X103864519Y-129301671D01*
X103878681Y-129354525D01*
X103877671Y-129416398D01*
X103878762Y-129416615D01*
X103851500Y-129553669D01*
X103851500Y-131146330D01*
X103877572Y-131277403D01*
X103877574Y-131277411D01*
X103928719Y-131400887D01*
X103928724Y-131400896D01*
X104002974Y-131512018D01*
X104002977Y-131512022D01*
X104097477Y-131606522D01*
X104097481Y-131606525D01*
X104208603Y-131680775D01*
X104208609Y-131680778D01*
X104208610Y-131680779D01*
X104332089Y-131731926D01*
X104463169Y-131757999D01*
X104463173Y-131758000D01*
X104499586Y-131758000D01*
X104566625Y-131777685D01*
X104612380Y-131830489D01*
X104622324Y-131899647D01*
X104593299Y-131963203D01*
X104568477Y-131985102D01*
X104465446Y-132053945D01*
X104465442Y-132053948D01*
X104353948Y-132165442D01*
X104353945Y-132165446D01*
X104266344Y-132296549D01*
X104266337Y-132296562D01*
X104205999Y-132442233D01*
X104205996Y-132442245D01*
X104175235Y-132596888D01*
X104175235Y-132754581D01*
X104205996Y-132909224D01*
X104205999Y-132909236D01*
X104266337Y-133054907D01*
X104266344Y-133054920D01*
X104330335Y-133150689D01*
X104351213Y-133217367D01*
X104332728Y-133284747D01*
X104289233Y-133326967D01*
X104215602Y-133369477D01*
X104110864Y-133474215D01*
X104110863Y-133474214D01*
X103649481Y-133935596D01*
X103649477Y-133935601D01*
X103567915Y-134076872D01*
X103548209Y-134102553D01*
X102735339Y-134915425D01*
X102674016Y-134948910D01*
X102671850Y-134949361D01*
X102516508Y-134980261D01*
X102516498Y-134980264D01*
X102370827Y-135040602D01*
X102370814Y-135040609D01*
X102239711Y-135128210D01*
X102239707Y-135128213D01*
X102128213Y-135239707D01*
X102128210Y-135239711D01*
X102040609Y-135370814D01*
X102040602Y-135370827D01*
X101980264Y-135516498D01*
X101980261Y-135516510D01*
X101949500Y-135671153D01*
X101949500Y-135828846D01*
X101980261Y-135983489D01*
X101980264Y-135983501D01*
X102022533Y-136085548D01*
X102026040Y-136118173D01*
X102030710Y-136150647D01*
X102029756Y-136152734D01*
X102030002Y-136155017D01*
X102015318Y-136184349D01*
X102001685Y-136214203D01*
X101999752Y-136215444D01*
X101998726Y-136217496D01*
X101970523Y-136234229D01*
X101942907Y-136251977D01*
X101939876Y-136252412D01*
X101938637Y-136253148D01*
X101907972Y-136257000D01*
X101907598Y-136257000D01*
X101840559Y-136237315D01*
X101819917Y-136220681D01*
X98336719Y-132737483D01*
X94830915Y-129231680D01*
X94797431Y-129170358D01*
X94802415Y-129100666D01*
X94844287Y-129044733D01*
X94909751Y-129020316D01*
X94918597Y-129020000D01*
X95185328Y-129020000D01*
X95185344Y-129019999D01*
X95244872Y-129013598D01*
X95244879Y-129013596D01*
X95379586Y-128963354D01*
X95379593Y-128963350D01*
X95494687Y-128877190D01*
X95494690Y-128877187D01*
X95580850Y-128762093D01*
X95580854Y-128762086D01*
X95631096Y-128627379D01*
X95631098Y-128627372D01*
X95637499Y-128567844D01*
X95637500Y-128567827D01*
X95637500Y-127820000D01*
X94586500Y-127820000D01*
X94519461Y-127800315D01*
X94473706Y-127747511D01*
X94462500Y-127696000D01*
X94462500Y-127570000D01*
X94336500Y-127570000D01*
X94269461Y-127550315D01*
X94223706Y-127497511D01*
X94212500Y-127446000D01*
X94212500Y-127320000D01*
X94712500Y-127320000D01*
X95637500Y-127320000D01*
X95637500Y-126572172D01*
X95637499Y-126572155D01*
X95631098Y-126512627D01*
X95631096Y-126512620D01*
X95580854Y-126377913D01*
X95580850Y-126377906D01*
X95494690Y-126262812D01*
X95494687Y-126262809D01*
X95379593Y-126176649D01*
X95379586Y-126176645D01*
X95244879Y-126126403D01*
X95244872Y-126126401D01*
X95185344Y-126120000D01*
X94712500Y-126120000D01*
X94712500Y-127320000D01*
X94212500Y-127320000D01*
X94212500Y-126120000D01*
X93739655Y-126120000D01*
X93680127Y-126126401D01*
X93680120Y-126126403D01*
X93545413Y-126176645D01*
X93545406Y-126176649D01*
X93430312Y-126262809D01*
X93430309Y-126262812D01*
X93344149Y-126377906D01*
X93344145Y-126377913D01*
X93293903Y-126512620D01*
X93293901Y-126512627D01*
X93287500Y-126572155D01*
X93287500Y-127388902D01*
X93267815Y-127455941D01*
X93215011Y-127501696D01*
X93145853Y-127511640D01*
X93082297Y-127482615D01*
X93075819Y-127476583D01*
X91992590Y-126393355D01*
X91992588Y-126393352D01*
X91873717Y-126274481D01*
X91873716Y-126274480D01*
X91778487Y-126219500D01*
X91736785Y-126195423D01*
X91584057Y-126154499D01*
X91425943Y-126154499D01*
X91418347Y-126154499D01*
X91418331Y-126154500D01*
X85511500Y-126154500D01*
X85444461Y-126134815D01*
X85398706Y-126082011D01*
X85387500Y-126030500D01*
X85387500Y-125795000D01*
X82587500Y-125795000D01*
X82587500Y-126177844D01*
X82594119Y-126239398D01*
X82594120Y-126265909D01*
X82593409Y-126272514D01*
X82593409Y-126272517D01*
X82587000Y-126332127D01*
X82587000Y-126332134D01*
X82587000Y-126332135D01*
X82587000Y-127177870D01*
X82587001Y-127177879D01*
X82593867Y-127241751D01*
X82593867Y-127268257D01*
X82593409Y-127272516D01*
X82593409Y-127272517D01*
X82587000Y-127332127D01*
X82587000Y-127332131D01*
X82587000Y-127332132D01*
X82587000Y-128277870D01*
X82587001Y-128277876D01*
X82594119Y-128344092D01*
X82594119Y-128370599D01*
X82587500Y-128432169D01*
X82587500Y-128655000D01*
X82779097Y-128655000D01*
X82838525Y-128670168D01*
X82845171Y-128673797D01*
X82890118Y-128690561D01*
X82980017Y-128724091D01*
X83039627Y-128730500D01*
X84235372Y-128730499D01*
X84294983Y-128724091D01*
X84429831Y-128673796D01*
X84429834Y-128673793D01*
X84436475Y-128670168D01*
X84495903Y-128655000D01*
X84687500Y-128655000D01*
X84687500Y-128529500D01*
X84707185Y-128462461D01*
X84759989Y-128416706D01*
X84811500Y-128405500D01*
X91689217Y-128405500D01*
X91756256Y-128425185D01*
X91776898Y-128441819D01*
X92212269Y-128877190D01*
X92527899Y-129192819D01*
X92561384Y-129254142D01*
X92556400Y-129323833D01*
X92514528Y-129379767D01*
X92449064Y-129404184D01*
X92440218Y-129404500D01*
X84811500Y-129404500D01*
X84744461Y-129384815D01*
X84698706Y-129332011D01*
X84687500Y-129280500D01*
X84687500Y-129155000D01*
X84495903Y-129155000D01*
X84436475Y-129139832D01*
X84429828Y-129136202D01*
X84294982Y-129085908D01*
X84294983Y-129085908D01*
X84235383Y-129079501D01*
X84235381Y-129079500D01*
X84235373Y-129079500D01*
X84235365Y-129079500D01*
X83039629Y-129079500D01*
X83039623Y-129079501D01*
X82980016Y-129085908D01*
X82845171Y-129136202D01*
X82838525Y-129139832D01*
X82779097Y-129155000D01*
X82587500Y-129155000D01*
X82587500Y-129377844D01*
X82594119Y-129439398D01*
X82594120Y-129465909D01*
X82593409Y-129472514D01*
X82593409Y-129472517D01*
X82587000Y-129532127D01*
X82587000Y-129532134D01*
X82587000Y-129532135D01*
X82587000Y-130477870D01*
X82587001Y-130477879D01*
X82593867Y-130541751D01*
X82593867Y-130568257D01*
X82593409Y-130572516D01*
X82593409Y-130572517D01*
X82587000Y-130632127D01*
X82587000Y-130632131D01*
X82587000Y-130632132D01*
X82587000Y-131577870D01*
X82587001Y-131577879D01*
X82593867Y-131641751D01*
X82593867Y-131668257D01*
X82593409Y-131672516D01*
X82593409Y-131672517D01*
X82587000Y-131732127D01*
X82587000Y-131732131D01*
X82587000Y-131732132D01*
X82587000Y-132677870D01*
X82587001Y-132677879D01*
X82593867Y-132741751D01*
X82593867Y-132768257D01*
X82593409Y-132772516D01*
X82593409Y-132772517D01*
X82587000Y-132832127D01*
X82587000Y-132832131D01*
X82587000Y-132832132D01*
X82587000Y-133777870D01*
X82587001Y-133777879D01*
X82593867Y-133841751D01*
X82593867Y-133868257D01*
X82593409Y-133872516D01*
X82593409Y-133872517D01*
X82587000Y-133932127D01*
X82587000Y-133932128D01*
X82587000Y-133932132D01*
X82587000Y-134877870D01*
X82587001Y-134877876D01*
X82593408Y-134937483D01*
X82643702Y-135072328D01*
X82643706Y-135072335D01*
X82729952Y-135187544D01*
X82729955Y-135187547D01*
X82845164Y-135273793D01*
X82845171Y-135273797D01*
X82980017Y-135324091D01*
X82980016Y-135324091D01*
X82986944Y-135324835D01*
X83039627Y-135330500D01*
X83962402Y-135330499D01*
X83991848Y-135339145D01*
X84021829Y-135345667D01*
X84026842Y-135349419D01*
X84029441Y-135350183D01*
X84050083Y-135366818D01*
X84061584Y-135378319D01*
X84095069Y-135439642D01*
X84090085Y-135509334D01*
X84048213Y-135565267D01*
X84030701Y-135571798D01*
X84012500Y-135590000D01*
X84012500Y-136615000D01*
X84937500Y-136615000D01*
X84937500Y-136553597D01*
X84957185Y-136486558D01*
X85009989Y-136440803D01*
X85079147Y-136430859D01*
X85142703Y-136459884D01*
X85149181Y-136465916D01*
X87351084Y-138667819D01*
X87384569Y-138729142D01*
X87379585Y-138798834D01*
X87337713Y-138854767D01*
X87272249Y-138879184D01*
X87263403Y-138879500D01*
X86972052Y-138879500D01*
X86935326Y-138882390D01*
X86935320Y-138882391D01*
X86778105Y-138928067D01*
X86763117Y-138936931D01*
X86695392Y-138954110D01*
X86653838Y-138945283D01*
X86645033Y-138941751D01*
X86621897Y-138928069D01*
X86582079Y-138916500D01*
X86576386Y-138914217D01*
X86553557Y-138896240D01*
X86529066Y-138880599D01*
X86526146Y-138874655D01*
X86521493Y-138870991D01*
X86514736Y-138851427D01*
X86500931Y-138823322D01*
X86469738Y-138666508D01*
X86469737Y-138666507D01*
X86469737Y-138666503D01*
X86463524Y-138651504D01*
X86409397Y-138520827D01*
X86409390Y-138520814D01*
X86321789Y-138389711D01*
X86321786Y-138389707D01*
X86210292Y-138278213D01*
X86210288Y-138278210D01*
X86079185Y-138190609D01*
X86079172Y-138190602D01*
X85933501Y-138130264D01*
X85933489Y-138130261D01*
X85778845Y-138099500D01*
X85778842Y-138099500D01*
X85621158Y-138099500D01*
X85621155Y-138099500D01*
X85466510Y-138130261D01*
X85466498Y-138130264D01*
X85320827Y-138190602D01*
X85320814Y-138190609D01*
X85189125Y-138278602D01*
X85171078Y-138284252D01*
X85155169Y-138294477D01*
X85124207Y-138298928D01*
X85122447Y-138299480D01*
X85120234Y-138299500D01*
X84876669Y-138299500D01*
X84876653Y-138299499D01*
X84869057Y-138299499D01*
X84763412Y-138299499D01*
X84696373Y-138279814D01*
X84650618Y-138227010D01*
X84640674Y-138157852D01*
X84669699Y-138094296D01*
X84689101Y-138076233D01*
X84794687Y-137997190D01*
X84794690Y-137997187D01*
X84880850Y-137882093D01*
X84880854Y-137882086D01*
X84931096Y-137747379D01*
X84931098Y-137747372D01*
X84937499Y-137687844D01*
X84937500Y-137687827D01*
X84937500Y-137115000D01*
X84012500Y-137115000D01*
X84012500Y-138140000D01*
X84442584Y-138140000D01*
X84509623Y-138159685D01*
X84555378Y-138212489D01*
X84565322Y-138281647D01*
X84536297Y-138345203D01*
X84504583Y-138371387D01*
X84421290Y-138419475D01*
X84421282Y-138419481D01*
X84309478Y-138531286D01*
X83997582Y-138843181D01*
X83936259Y-138876666D01*
X83909902Y-138879500D01*
X83790831Y-138879500D01*
X83790807Y-138879501D01*
X83754794Y-138882335D01*
X83600611Y-138927129D01*
X83600606Y-138927131D01*
X83462404Y-139008863D01*
X83462396Y-139008869D01*
X83348869Y-139122396D01*
X83348863Y-139122404D01*
X83267131Y-139260606D01*
X83267129Y-139260611D01*
X83222335Y-139414791D01*
X83222334Y-139414797D01*
X83219500Y-139450811D01*
X83219500Y-139906107D01*
X83216636Y-139915858D01*
X83217903Y-139925942D01*
X83206959Y-139948816D01*
X83199815Y-139973146D01*
X83192134Y-139979800D01*
X83187748Y-139988970D01*
X83166171Y-140002297D01*
X83147011Y-140018901D01*
X83136952Y-140020347D01*
X83128305Y-140025689D01*
X83102949Y-140025236D01*
X83077853Y-140028845D01*
X83066749Y-140024590D01*
X83058447Y-140024442D01*
X83026614Y-140009211D01*
X82911291Y-139932155D01*
X82898425Y-139922283D01*
X82733671Y-139777797D01*
X82722202Y-139766328D01*
X82577716Y-139601574D01*
X82567842Y-139588705D01*
X82446104Y-139406510D01*
X82437994Y-139392464D01*
X82356009Y-139226216D01*
X82341070Y-139195924D01*
X82334864Y-139180939D01*
X82314994Y-139122404D01*
X82264426Y-138973434D01*
X82260230Y-138957774D01*
X82217479Y-138742848D01*
X82215364Y-138726790D01*
X82200765Y-138504043D01*
X82200500Y-138495933D01*
X82200500Y-137687844D01*
X82587500Y-137687844D01*
X82593901Y-137747372D01*
X82593903Y-137747379D01*
X82644145Y-137882086D01*
X82644149Y-137882093D01*
X82730309Y-137997187D01*
X82730312Y-137997190D01*
X82845406Y-138083350D01*
X82845413Y-138083354D01*
X82980120Y-138133596D01*
X82980127Y-138133598D01*
X83039655Y-138139999D01*
X83039672Y-138140000D01*
X83512500Y-138140000D01*
X83512500Y-137115000D01*
X82587500Y-137115000D01*
X82587500Y-137687844D01*
X82200500Y-137687844D01*
X82200500Y-136042155D01*
X82587500Y-136042155D01*
X82587500Y-136615000D01*
X83512500Y-136615000D01*
X83512500Y-135590000D01*
X83039655Y-135590000D01*
X82980127Y-135596401D01*
X82980120Y-135596403D01*
X82845413Y-135646645D01*
X82845406Y-135646649D01*
X82730312Y-135732809D01*
X82730309Y-135732812D01*
X82644149Y-135847906D01*
X82644145Y-135847913D01*
X82593903Y-135982620D01*
X82593901Y-135982627D01*
X82587500Y-136042155D01*
X82200500Y-136042155D01*
X82200500Y-124912155D01*
X82587500Y-124912155D01*
X82587500Y-125295000D01*
X83737500Y-125295000D01*
X84237500Y-125295000D01*
X85387500Y-125295000D01*
X85387500Y-124912172D01*
X85387499Y-124912155D01*
X85381098Y-124852627D01*
X85381096Y-124852620D01*
X85330854Y-124717913D01*
X85330850Y-124717906D01*
X85244690Y-124602812D01*
X85244687Y-124602809D01*
X85129593Y-124516649D01*
X85129586Y-124516645D01*
X84994879Y-124466403D01*
X84994872Y-124466401D01*
X84935344Y-124460000D01*
X84237500Y-124460000D01*
X84237500Y-125295000D01*
X83737500Y-125295000D01*
X83737500Y-124460000D01*
X83039655Y-124460000D01*
X82980127Y-124466401D01*
X82980120Y-124466403D01*
X82845413Y-124516645D01*
X82845406Y-124516649D01*
X82730312Y-124602809D01*
X82730309Y-124602812D01*
X82644149Y-124717906D01*
X82644145Y-124717913D01*
X82593903Y-124852620D01*
X82593901Y-124852627D01*
X82587500Y-124912155D01*
X82200500Y-124912155D01*
X82200500Y-120434077D01*
X82220185Y-120367038D01*
X82272989Y-120321283D01*
X82342147Y-120311339D01*
X82405703Y-120340364D01*
X82412181Y-120346396D01*
X82472533Y-120406748D01*
X82472537Y-120406751D01*
X82636315Y-120516185D01*
X82636328Y-120516192D01*
X82818306Y-120591569D01*
X82818318Y-120591572D01*
X83011504Y-120629999D01*
X83011508Y-120630000D01*
X83160000Y-120630000D01*
X83160000Y-119930000D01*
X83660000Y-119930000D01*
X83660000Y-120630000D01*
X83808492Y-120630000D01*
X83808495Y-120629999D01*
X84001681Y-120591572D01*
X84001693Y-120591569D01*
X84183671Y-120516192D01*
X84183684Y-120516185D01*
X84347462Y-120406751D01*
X84347466Y-120406748D01*
X84486748Y-120267466D01*
X84486751Y-120267462D01*
X84596185Y-120103684D01*
X84596192Y-120103671D01*
X84671569Y-119921692D01*
X84671569Y-119921690D01*
X84679862Y-119880000D01*
X83876988Y-119880000D01*
X83894205Y-119870060D01*
X83950060Y-119814205D01*
X83989556Y-119745796D01*
X84010000Y-119669496D01*
X84010000Y-119590504D01*
X83989556Y-119514204D01*
X83950060Y-119445795D01*
X83894205Y-119389940D01*
X83876988Y-119380000D01*
X84679862Y-119380000D01*
X84671569Y-119338309D01*
X84671569Y-119338307D01*
X84596192Y-119156328D01*
X84596185Y-119156315D01*
X84486751Y-118992537D01*
X84486748Y-118992533D01*
X84347466Y-118853251D01*
X84347462Y-118853248D01*
X84183684Y-118743814D01*
X84183671Y-118743807D01*
X84001693Y-118668430D01*
X84001681Y-118668427D01*
X83808495Y-118630000D01*
X83660000Y-118630000D01*
X83660000Y-119330000D01*
X83160000Y-119330000D01*
X83160000Y-118630000D01*
X83011504Y-118630000D01*
X82818318Y-118668427D01*
X82818306Y-118668430D01*
X82636328Y-118743807D01*
X82636315Y-118743814D01*
X82472537Y-118853248D01*
X82472533Y-118853251D01*
X82412181Y-118913604D01*
X82350858Y-118947089D01*
X82281166Y-118942105D01*
X82225233Y-118900233D01*
X82200816Y-118834769D01*
X82200500Y-118825923D01*
X82200500Y-111794077D01*
X82220185Y-111727038D01*
X82272989Y-111681283D01*
X82342147Y-111671339D01*
X82405703Y-111700364D01*
X82412181Y-111706396D01*
X82472533Y-111766748D01*
X82472537Y-111766751D01*
X82636315Y-111876185D01*
X82636328Y-111876192D01*
X82818306Y-111951569D01*
X82818318Y-111951572D01*
X83011504Y-111989999D01*
X83011508Y-111990000D01*
X83160000Y-111990000D01*
X83160000Y-111290000D01*
X83660000Y-111290000D01*
X83660000Y-111990000D01*
X83808492Y-111990000D01*
X83808495Y-111989999D01*
X84001681Y-111951572D01*
X84001693Y-111951569D01*
X84183671Y-111876192D01*
X84183684Y-111876185D01*
X84347462Y-111766751D01*
X84347466Y-111766748D01*
X84486748Y-111627466D01*
X84486751Y-111627462D01*
X84596185Y-111463684D01*
X84596192Y-111463671D01*
X84671569Y-111281692D01*
X84671569Y-111281690D01*
X84679862Y-111240000D01*
X83876988Y-111240000D01*
X83894205Y-111230060D01*
X83950060Y-111174205D01*
X83989556Y-111105796D01*
X84010000Y-111029496D01*
X84010000Y-110950504D01*
X83989556Y-110874204D01*
X83950060Y-110805795D01*
X83894205Y-110749940D01*
X83876988Y-110740000D01*
X84679862Y-110740000D01*
X86070138Y-110740000D01*
X86873012Y-110740000D01*
X86855795Y-110749940D01*
X86799940Y-110805795D01*
X86760444Y-110874204D01*
X86740000Y-110950504D01*
X86740000Y-111029496D01*
X86760444Y-111105796D01*
X86799940Y-111174205D01*
X86855795Y-111230060D01*
X86873012Y-111240000D01*
X86070138Y-111240000D01*
X86078430Y-111281690D01*
X86078430Y-111281692D01*
X86153807Y-111463671D01*
X86153814Y-111463684D01*
X86263248Y-111627462D01*
X86263251Y-111627466D01*
X86402533Y-111766748D01*
X86402537Y-111766751D01*
X86571387Y-111879574D01*
X86570430Y-111881005D01*
X86614425Y-111924211D01*
X86629895Y-111992346D01*
X86606072Y-112058029D01*
X86604309Y-112060094D01*
X86604432Y-112060189D01*
X86599485Y-112066635D01*
X86523719Y-112197863D01*
X86484500Y-112344234D01*
X86484500Y-112495765D01*
X86523719Y-112642136D01*
X86524972Y-112644306D01*
X86599485Y-112773365D01*
X86599487Y-112773367D01*
X86650050Y-112823930D01*
X86683535Y-112885253D01*
X86678551Y-112954945D01*
X86650051Y-112999292D01*
X86435881Y-113213462D01*
X86429913Y-113222397D01*
X86429910Y-113222402D01*
X86359223Y-113328192D01*
X86306421Y-113455668D01*
X86306418Y-113455678D01*
X86279500Y-113591005D01*
X86279500Y-113591008D01*
X86279500Y-116891005D01*
X86279500Y-117028993D01*
X86279500Y-117028995D01*
X86279499Y-117028995D01*
X86306418Y-117164321D01*
X86306421Y-117164331D01*
X86359222Y-117291806D01*
X86435887Y-117406544D01*
X86435888Y-117406545D01*
X86650050Y-117620706D01*
X86683535Y-117682029D01*
X86678551Y-117751720D01*
X86650052Y-117796067D01*
X86599485Y-117846635D01*
X86523719Y-117977863D01*
X86484500Y-118124234D01*
X86484500Y-118275765D01*
X86523719Y-118422136D01*
X86555531Y-118477235D01*
X86599485Y-118553365D01*
X86599488Y-118553368D01*
X86604432Y-118559811D01*
X86601612Y-118561974D01*
X86627302Y-118609020D01*
X86622318Y-118678712D01*
X86580446Y-118734645D01*
X86571379Y-118740416D01*
X86571387Y-118740427D01*
X86402536Y-118853248D01*
X86263251Y-118992533D01*
X86263248Y-118992537D01*
X86153814Y-119156315D01*
X86153807Y-119156328D01*
X86078430Y-119338307D01*
X86078430Y-119338309D01*
X86070138Y-119380000D01*
X86873012Y-119380000D01*
X86855795Y-119389940D01*
X86799940Y-119445795D01*
X86760444Y-119514204D01*
X86740000Y-119590504D01*
X86740000Y-119669496D01*
X86760444Y-119745796D01*
X86799940Y-119814205D01*
X86855795Y-119870060D01*
X86873012Y-119880000D01*
X86070138Y-119880000D01*
X86078430Y-119921690D01*
X86078430Y-119921692D01*
X86153807Y-120103671D01*
X86153814Y-120103684D01*
X86263248Y-120267462D01*
X86263251Y-120267466D01*
X86402533Y-120406748D01*
X86402537Y-120406751D01*
X86566315Y-120516185D01*
X86566328Y-120516192D01*
X86748306Y-120591569D01*
X86748318Y-120591572D01*
X86941504Y-120629999D01*
X86941508Y-120630000D01*
X87340000Y-120630000D01*
X87340000Y-119930000D01*
X87840000Y-119930000D01*
X87840000Y-120630000D01*
X88238492Y-120630000D01*
X88238495Y-120629999D01*
X88431681Y-120591572D01*
X88431693Y-120591569D01*
X88613671Y-120516192D01*
X88613684Y-120516185D01*
X88777462Y-120406751D01*
X88777466Y-120406748D01*
X88916748Y-120267466D01*
X88916751Y-120267462D01*
X89026185Y-120103684D01*
X89026192Y-120103671D01*
X89101569Y-119921692D01*
X89101569Y-119921690D01*
X89109862Y-119880000D01*
X88306988Y-119880000D01*
X88324205Y-119870060D01*
X88380060Y-119814205D01*
X88419556Y-119745796D01*
X88440000Y-119669496D01*
X88440000Y-119590504D01*
X88419556Y-119514204D01*
X88380060Y-119445795D01*
X88324205Y-119389940D01*
X88306988Y-119380000D01*
X89124389Y-119380000D01*
X89149190Y-119363106D01*
X89177574Y-119357487D01*
X89182488Y-119357100D01*
X89182495Y-119357099D01*
X89340193Y-119311283D01*
X89340196Y-119311282D01*
X89481552Y-119227685D01*
X89481561Y-119227678D01*
X89521609Y-119187630D01*
X89582932Y-119154144D01*
X89652623Y-119159128D01*
X89696972Y-119187629D01*
X90253453Y-119744111D01*
X90253461Y-119744117D01*
X90336663Y-119799711D01*
X90336664Y-119799711D01*
X90338167Y-119800715D01*
X90368189Y-119820775D01*
X90368191Y-119820776D01*
X90368195Y-119820778D01*
X90487174Y-119870060D01*
X90495672Y-119873580D01*
X90495676Y-119873580D01*
X90495677Y-119873581D01*
X90631004Y-119900500D01*
X90631007Y-119900500D01*
X95821560Y-119900500D01*
X95856155Y-119905424D01*
X95915839Y-119922764D01*
X95915842Y-119922764D01*
X95915844Y-119922765D01*
X95950595Y-119925500D01*
X96449404Y-119925499D01*
X96484156Y-119922765D01*
X96632887Y-119879555D01*
X96766198Y-119800715D01*
X96875715Y-119691198D01*
X96954555Y-119557887D01*
X96997765Y-119409156D01*
X97000500Y-119374405D01*
X97000499Y-119025596D01*
X96997765Y-118990844D01*
X96954555Y-118842113D01*
X96875715Y-118708802D01*
X96875713Y-118708800D01*
X96875710Y-118708796D01*
X96766203Y-118599289D01*
X96766194Y-118599282D01*
X96685111Y-118551330D01*
X96632887Y-118520445D01*
X96484156Y-118477235D01*
X96484153Y-118477234D01*
X96484151Y-118477234D01*
X96453395Y-118474814D01*
X96449405Y-118474500D01*
X96449404Y-118474500D01*
X95950606Y-118474500D01*
X95950584Y-118474501D01*
X95915842Y-118477235D01*
X95856155Y-118494576D01*
X95821560Y-118499500D01*
X91041519Y-118499500D01*
X90974480Y-118479815D01*
X90953838Y-118463181D01*
X90622837Y-118132180D01*
X90589352Y-118070857D01*
X90594336Y-118001165D01*
X90636208Y-117945232D01*
X90701672Y-117920815D01*
X90710505Y-117920499D01*
X90889180Y-117920499D01*
X90925204Y-117917665D01*
X91079393Y-117872869D01*
X91137369Y-117838581D01*
X91205093Y-117821398D01*
X91263612Y-117838581D01*
X91320805Y-117872404D01*
X91460000Y-117912844D01*
X91460000Y-117912843D01*
X91960000Y-117912843D01*
X92099194Y-117872404D01*
X92237285Y-117790738D01*
X92237294Y-117790731D01*
X92350731Y-117677294D01*
X92350738Y-117677285D01*
X92432406Y-117539191D01*
X92432407Y-117539188D01*
X92477166Y-117385128D01*
X92477167Y-117385122D01*
X92479931Y-117350000D01*
X91960000Y-117350000D01*
X91960000Y-117912843D01*
X91460000Y-117912843D01*
X91460000Y-117360408D01*
X91460004Y-117359404D01*
X91460039Y-117355034D01*
X91460500Y-117349181D01*
X91460499Y-116850820D01*
X91460434Y-116850000D01*
X91460382Y-116849332D01*
X91460000Y-116839607D01*
X91460000Y-116287154D01*
X91960000Y-116287154D01*
X91960000Y-116850000D01*
X92479931Y-116850000D01*
X92477167Y-116814877D01*
X92477166Y-116814871D01*
X92432407Y-116660811D01*
X92432406Y-116660808D01*
X92350738Y-116522714D01*
X92350731Y-116522705D01*
X92237294Y-116409268D01*
X92237285Y-116409261D01*
X92099191Y-116327593D01*
X92099188Y-116327591D01*
X91960001Y-116287153D01*
X91960000Y-116287154D01*
X91460000Y-116287154D01*
X91459998Y-116287153D01*
X91320811Y-116327591D01*
X91320810Y-116327592D01*
X91263611Y-116361419D01*
X91195886Y-116378600D01*
X91137371Y-116361419D01*
X91080174Y-116327593D01*
X91079393Y-116327131D01*
X91079392Y-116327130D01*
X91079391Y-116327130D01*
X91079388Y-116327129D01*
X90925208Y-116282335D01*
X90925202Y-116282334D01*
X90889181Y-116279500D01*
X90490830Y-116279500D01*
X90490808Y-116279501D01*
X90454794Y-116282335D01*
X90300611Y-116327129D01*
X90300606Y-116327131D01*
X90162404Y-116408863D01*
X90162396Y-116408869D01*
X90148085Y-116423181D01*
X90121157Y-116437884D01*
X90095339Y-116454477D01*
X90089138Y-116455368D01*
X90086762Y-116456666D01*
X90060404Y-116459500D01*
X90011508Y-116459500D01*
X89944469Y-116439815D01*
X89898714Y-116387011D01*
X89888770Y-116317853D01*
X89917795Y-116254297D01*
X89923827Y-116247819D01*
X89957387Y-116214259D01*
X90010520Y-116161126D01*
X90089577Y-116024194D01*
X90124229Y-115894872D01*
X90130500Y-115871468D01*
X90130500Y-115759500D01*
X90150185Y-115692461D01*
X90202989Y-115646706D01*
X90254500Y-115635500D01*
X105820943Y-115635500D01*
X106073038Y-115635500D01*
X106140077Y-115655185D01*
X106185832Y-115707989D01*
X106187579Y-115712002D01*
X106208704Y-115763003D01*
X106212382Y-115771882D01*
X106212389Y-115771894D01*
X106304362Y-115909542D01*
X106304368Y-115909550D01*
X106421434Y-116026616D01*
X106421442Y-116026622D01*
X106559090Y-116118595D01*
X106559093Y-116118596D01*
X106559101Y-116118602D01*
X106712063Y-116181960D01*
X106712065Y-116181960D01*
X106712070Y-116181962D01*
X106809669Y-116201374D01*
X106874447Y-116214260D01*
X106957229Y-116214259D01*
X107077223Y-116214259D01*
X107160005Y-116214260D01*
X107240650Y-116198218D01*
X107322381Y-116181962D01*
X107322384Y-116181960D01*
X107322389Y-116181960D01*
X107475351Y-116118602D01*
X107613014Y-116026619D01*
X107730086Y-115909547D01*
X107822069Y-115771884D01*
X107846854Y-115712046D01*
X107890693Y-115657645D01*
X107956986Y-115635579D01*
X107961414Y-115635500D01*
X110316705Y-115635500D01*
X110383744Y-115655185D01*
X110404386Y-115671819D01*
X111317733Y-116585167D01*
X111322069Y-116593109D01*
X111329318Y-116598535D01*
X111338555Y-116623300D01*
X111351218Y-116646490D01*
X111350572Y-116655517D01*
X111353736Y-116663999D01*
X111348119Y-116689820D01*
X111346234Y-116716182D01*
X111340415Y-116725235D01*
X111338885Y-116732273D01*
X111317735Y-116760527D01*
X111294219Y-116784044D01*
X111294217Y-116784046D01*
X111294214Y-116784048D01*
X111294215Y-116784049D01*
X111189477Y-116888787D01*
X111162887Y-116934842D01*
X111143182Y-116960521D01*
X111122680Y-116981023D01*
X111061357Y-117014508D01*
X110991665Y-117009524D01*
X110947318Y-116981023D01*
X110897543Y-116931248D01*
X110897539Y-116931245D01*
X110769703Y-116845827D01*
X110769701Y-116845826D01*
X110627665Y-116786994D01*
X110627656Y-116786991D01*
X110476877Y-116757000D01*
X110476873Y-116757000D01*
X110323127Y-116757000D01*
X110323122Y-116757000D01*
X110172343Y-116786991D01*
X110172334Y-116786994D01*
X110030298Y-116845826D01*
X110030296Y-116845827D01*
X109902460Y-116931245D01*
X109902456Y-116931248D01*
X109852327Y-116981378D01*
X109791004Y-117014863D01*
X109721312Y-117009879D01*
X109676965Y-116981378D01*
X109627224Y-116931637D01*
X109627220Y-116931634D01*
X109499466Y-116846271D01*
X109380000Y-116796787D01*
X109380000Y-119463212D01*
X109419046Y-119489302D01*
X109463851Y-119542915D01*
X109472558Y-119612240D01*
X109442403Y-119675267D01*
X109437836Y-119680085D01*
X109188769Y-119929151D01*
X109181837Y-119933782D01*
X109178895Y-119938021D01*
X109148541Y-119956031D01*
X109042245Y-120000061D01*
X108994792Y-120009500D01*
X108415660Y-120009500D01*
X108348621Y-119989815D01*
X108302866Y-119937011D01*
X108292922Y-119867853D01*
X108294042Y-119861314D01*
X108300636Y-119828157D01*
X108333018Y-119766244D01*
X108334517Y-119764718D01*
X108350520Y-119748716D01*
X108426853Y-119616503D01*
X108429577Y-119611785D01*
X108470501Y-119459057D01*
X108470501Y-119451922D01*
X108490186Y-119384883D01*
X108542990Y-119339128D01*
X108612148Y-119329184D01*
X108663392Y-119348820D01*
X108760529Y-119413725D01*
X108760536Y-119413729D01*
X108879999Y-119463212D01*
X108880000Y-119463212D01*
X108880000Y-116796787D01*
X108760533Y-116846271D01*
X108632779Y-116931634D01*
X108632774Y-116931638D01*
X108588033Y-116976379D01*
X108526710Y-117009863D01*
X108457018Y-117004878D01*
X108412671Y-116976377D01*
X108367543Y-116931248D01*
X108367539Y-116931245D01*
X108239703Y-116845827D01*
X108239701Y-116845826D01*
X108097665Y-116786994D01*
X108097656Y-116786991D01*
X107946877Y-116757000D01*
X107946873Y-116757000D01*
X107793127Y-116757000D01*
X107793122Y-116757000D01*
X107642343Y-116786991D01*
X107642334Y-116786994D01*
X107500298Y-116845826D01*
X107500296Y-116845827D01*
X107372460Y-116931245D01*
X107372456Y-116931248D01*
X107322681Y-116981024D01*
X107261358Y-117014509D01*
X107191666Y-117009525D01*
X107147319Y-116981024D01*
X107097543Y-116931248D01*
X107097539Y-116931245D01*
X106969703Y-116845827D01*
X106969701Y-116845826D01*
X106827665Y-116786994D01*
X106827656Y-116786991D01*
X106676877Y-116757000D01*
X106676873Y-116757000D01*
X106523127Y-116757000D01*
X106523122Y-116757000D01*
X106372343Y-116786991D01*
X106372334Y-116786994D01*
X106230298Y-116845826D01*
X106230296Y-116845827D01*
X106102460Y-116931245D01*
X106102456Y-116931248D01*
X106052681Y-116981024D01*
X105991358Y-117014509D01*
X105921666Y-117009525D01*
X105877319Y-116981024D01*
X105827543Y-116931248D01*
X105827539Y-116931245D01*
X105699703Y-116845827D01*
X105699701Y-116845826D01*
X105557665Y-116786994D01*
X105557656Y-116786991D01*
X105406877Y-116757000D01*
X105406873Y-116757000D01*
X105253127Y-116757000D01*
X105253122Y-116757000D01*
X105102343Y-116786991D01*
X105102334Y-116786994D01*
X104960298Y-116845826D01*
X104960296Y-116845827D01*
X104832460Y-116931245D01*
X104832456Y-116931248D01*
X104777327Y-116986378D01*
X104716004Y-117019863D01*
X104646312Y-117014879D01*
X104601965Y-116986378D01*
X104547224Y-116931637D01*
X104547220Y-116931634D01*
X104419466Y-116846271D01*
X104300000Y-116796787D01*
X104300000Y-118006000D01*
X104280315Y-118073039D01*
X104227511Y-118118794D01*
X104176000Y-118130000D01*
X103924000Y-118130000D01*
X103856961Y-118110315D01*
X103811206Y-118057511D01*
X103800000Y-118006000D01*
X103800000Y-116796787D01*
X103799999Y-116796787D01*
X103680533Y-116846271D01*
X103552779Y-116931634D01*
X103552775Y-116931637D01*
X103444137Y-117040275D01*
X103444134Y-117040279D01*
X103358771Y-117168033D01*
X103358770Y-117168035D01*
X103299976Y-117309977D01*
X103299973Y-117309989D01*
X103270000Y-117460672D01*
X103270000Y-117900068D01*
X103250315Y-117967107D01*
X103197511Y-118012862D01*
X103128353Y-118022806D01*
X103111406Y-118019145D01*
X103020912Y-117992854D01*
X103000000Y-117991209D01*
X103000000Y-118646000D01*
X102980315Y-118713039D01*
X102927511Y-118758794D01*
X102876000Y-118770000D01*
X102750000Y-118770000D01*
X102750000Y-118825500D01*
X102730315Y-118892539D01*
X102677511Y-118938294D01*
X102626000Y-118949500D01*
X102515302Y-118949500D01*
X102479008Y-118952356D01*
X102479002Y-118952357D01*
X102323610Y-118997503D01*
X102323605Y-118997506D01*
X102314766Y-119002732D01*
X102251648Y-119020000D01*
X101945496Y-119020000D01*
X101987968Y-119166194D01*
X101999911Y-119186389D01*
X102017092Y-119254113D01*
X101999911Y-119312628D01*
X101987506Y-119333604D01*
X101987504Y-119333609D01*
X101942357Y-119489002D01*
X101942356Y-119489008D01*
X101939500Y-119525302D01*
X101939500Y-119885500D01*
X101919815Y-119952539D01*
X101867011Y-119998294D01*
X101815500Y-120009500D01*
X100440862Y-120009500D01*
X100411421Y-120000855D01*
X100381435Y-119994332D01*
X100376419Y-119990577D01*
X100373823Y-119989815D01*
X100353181Y-119973181D01*
X100351901Y-119971901D01*
X100318416Y-119910578D01*
X100317965Y-119908411D01*
X100299226Y-119814205D01*
X100289737Y-119766503D01*
X100282901Y-119750000D01*
X100229397Y-119620827D01*
X100229390Y-119620814D01*
X100150898Y-119503343D01*
X100130020Y-119436666D01*
X100130000Y-119434452D01*
X100130000Y-119195494D01*
X100630000Y-119195494D01*
X100630000Y-119750000D01*
X101158790Y-119750000D01*
X101157145Y-119729089D01*
X101112031Y-119573804D01*
X101029721Y-119434625D01*
X101029714Y-119434616D01*
X100915383Y-119320285D01*
X100915374Y-119320278D01*
X100776193Y-119237967D01*
X100776190Y-119237965D01*
X100630001Y-119195493D01*
X100630000Y-119195494D01*
X100130000Y-119195494D01*
X100129998Y-119195493D01*
X99983809Y-119237965D01*
X99983806Y-119237967D01*
X99963608Y-119249912D01*
X99895884Y-119267092D01*
X99837370Y-119249910D01*
X99816397Y-119237507D01*
X99816390Y-119237504D01*
X99660997Y-119192357D01*
X99660991Y-119192356D01*
X99624697Y-119189500D01*
X99624690Y-119189500D01*
X99422940Y-119189500D01*
X99355901Y-119169815D01*
X99335259Y-119153181D01*
X99089501Y-118907423D01*
X99058105Y-118854334D01*
X99054555Y-118842113D01*
X98994418Y-118740427D01*
X98975717Y-118708805D01*
X98975710Y-118708796D01*
X98866203Y-118599289D01*
X98866194Y-118599282D01*
X98785111Y-118551330D01*
X98732887Y-118520445D01*
X98731355Y-118520000D01*
X101945496Y-118520000D01*
X102500000Y-118520000D01*
X102500000Y-117991210D01*
X102499999Y-117991209D01*
X102479087Y-117992854D01*
X102479081Y-117992855D01*
X102323809Y-118037966D01*
X102323804Y-118037968D01*
X102184625Y-118120278D01*
X102184616Y-118120285D01*
X102070285Y-118234616D01*
X102070278Y-118234625D01*
X101987968Y-118373804D01*
X101945496Y-118520000D01*
X98731355Y-118520000D01*
X98584156Y-118477235D01*
X98584153Y-118477234D01*
X98584151Y-118477234D01*
X98549410Y-118474500D01*
X98549405Y-118474500D01*
X98516736Y-118474500D01*
X98492545Y-118472117D01*
X98447621Y-118463181D01*
X98378844Y-118449500D01*
X98378842Y-118449500D01*
X98221158Y-118449500D01*
X98176611Y-118458360D01*
X98107444Y-118472118D01*
X98083258Y-118474500D01*
X98050596Y-118474500D01*
X98015847Y-118477234D01*
X97980950Y-118487372D01*
X97867113Y-118520445D01*
X97867111Y-118520445D01*
X97867111Y-118520446D01*
X97733805Y-118599282D01*
X97733796Y-118599289D01*
X97624289Y-118708796D01*
X97624282Y-118708805D01*
X97549788Y-118834769D01*
X97545445Y-118842113D01*
X97530795Y-118892539D01*
X97502234Y-118990847D01*
X97502234Y-118990849D01*
X97499500Y-119025589D01*
X97499500Y-119374404D01*
X97502234Y-119409152D01*
X97502234Y-119409155D01*
X97502235Y-119409156D01*
X97545445Y-119557887D01*
X97564735Y-119590504D01*
X97624282Y-119691194D01*
X97624289Y-119691202D01*
X97639034Y-119705947D01*
X97654457Y-119724739D01*
X97678210Y-119760289D01*
X97678213Y-119760292D01*
X98428211Y-120510289D01*
X98509491Y-120591569D01*
X98539712Y-120621790D01*
X98623012Y-120677449D01*
X98670821Y-120709394D01*
X98670827Y-120709396D01*
X98670828Y-120709397D01*
X98709755Y-120725521D01*
X98764159Y-120769362D01*
X98765405Y-120771190D01*
X98798211Y-120820288D01*
X98798212Y-120820289D01*
X98798215Y-120820293D01*
X99298212Y-121320289D01*
X99361957Y-121384034D01*
X99409713Y-121431790D01*
X99540815Y-121519390D01*
X99540828Y-121519397D01*
X99686499Y-121579735D01*
X99686504Y-121579737D01*
X99686508Y-121579737D01*
X99686509Y-121579738D01*
X99841155Y-121610500D01*
X99841158Y-121610500D01*
X99841159Y-121610500D01*
X108994793Y-121610500D01*
X109042245Y-121619939D01*
X109177334Y-121675894D01*
X109177336Y-121675894D01*
X109177341Y-121675896D01*
X109351304Y-121710499D01*
X109351307Y-121710500D01*
X109351309Y-121710500D01*
X109528693Y-121710500D01*
X109528694Y-121710499D01*
X109586682Y-121698964D01*
X109702658Y-121675896D01*
X109702661Y-121675894D01*
X109702666Y-121675894D01*
X109866547Y-121608013D01*
X110014035Y-121509464D01*
X110139464Y-121384035D01*
X110238013Y-121236547D01*
X110293968Y-121101454D01*
X110320844Y-121061232D01*
X111021789Y-120360289D01*
X111109394Y-120229179D01*
X111169737Y-120083497D01*
X111200500Y-119928842D01*
X111200500Y-119771158D01*
X111200500Y-119558413D01*
X111220185Y-119491374D01*
X111272989Y-119445619D01*
X111342147Y-119435675D01*
X111371949Y-119443851D01*
X111442336Y-119473006D01*
X111442338Y-119473006D01*
X111442343Y-119473008D01*
X111593122Y-119502999D01*
X111593126Y-119503000D01*
X111593127Y-119503000D01*
X111746874Y-119503000D01*
X111746875Y-119502999D01*
X111817221Y-119489007D01*
X111897656Y-119473008D01*
X111897659Y-119473006D01*
X111897664Y-119473006D01*
X112039706Y-119414171D01*
X112167540Y-119328754D01*
X112185012Y-119311282D01*
X112222319Y-119273976D01*
X112283642Y-119240491D01*
X112353334Y-119245475D01*
X112397681Y-119273976D01*
X112452456Y-119328751D01*
X112452460Y-119328754D01*
X112580294Y-119414171D01*
X112580295Y-119414171D01*
X112580296Y-119414172D01*
X112580298Y-119414173D01*
X112629257Y-119434452D01*
X112722336Y-119473006D01*
X112722338Y-119473006D01*
X112722343Y-119473008D01*
X112873122Y-119502999D01*
X112873126Y-119503000D01*
X112873127Y-119503000D01*
X113026874Y-119503000D01*
X113026875Y-119502999D01*
X113097221Y-119489007D01*
X113177656Y-119473008D01*
X113177659Y-119473006D01*
X113177664Y-119473006D01*
X113319706Y-119414171D01*
X113447540Y-119328754D01*
X113556254Y-119220040D01*
X113641671Y-119092206D01*
X113700506Y-118950164D01*
X113730500Y-118799373D01*
X113730500Y-117460627D01*
X113730232Y-117459282D01*
X113700508Y-117309843D01*
X113700505Y-117309834D01*
X113641673Y-117167798D01*
X113641672Y-117167796D01*
X113556254Y-117039960D01*
X113556251Y-117039956D01*
X113476818Y-116960523D01*
X113457112Y-116934842D01*
X113430522Y-116888787D01*
X113430518Y-116888782D01*
X113171819Y-116630083D01*
X113157115Y-116603155D01*
X113140523Y-116577337D01*
X113139631Y-116571136D01*
X113138334Y-116568760D01*
X113135500Y-116542402D01*
X113135500Y-116405861D01*
X113135501Y-116405848D01*
X113135501Y-116237747D01*
X113135501Y-116237745D01*
X113094577Y-116085017D01*
X113059461Y-116024195D01*
X113015520Y-115948086D01*
X112903716Y-115836282D01*
X112903715Y-115836281D01*
X112899385Y-115831951D01*
X112899374Y-115831941D01*
X111290788Y-114223355D01*
X111290786Y-114223352D01*
X111171915Y-114104481D01*
X111171914Y-114104480D01*
X111085102Y-114054360D01*
X111085102Y-114054359D01*
X111085098Y-114054358D01*
X111034983Y-114025423D01*
X110882255Y-113984499D01*
X110724141Y-113984499D01*
X110716545Y-113984499D01*
X110716529Y-113984500D01*
X91534000Y-113984500D01*
X91466961Y-113964815D01*
X91421206Y-113912011D01*
X91410000Y-113860500D01*
X91410000Y-113800000D01*
X91284500Y-113800000D01*
X91276033Y-113797514D01*
X91267303Y-113798802D01*
X91243022Y-113787820D01*
X91217461Y-113780315D01*
X91211683Y-113773647D01*
X91203641Y-113770010D01*
X91189151Y-113747643D01*
X91171706Y-113727511D01*
X91169450Y-113717234D01*
X91165652Y-113711371D01*
X91160694Y-113677337D01*
X91160501Y-113676455D01*
X91160499Y-113675988D01*
X91160499Y-113550820D01*
X91160018Y-113544706D01*
X91160001Y-113540061D01*
X91160015Y-113540009D01*
X91160000Y-113539606D01*
X91160000Y-112987154D01*
X91660000Y-112987154D01*
X91660000Y-113550000D01*
X92179931Y-113550000D01*
X92177167Y-113514877D01*
X92177166Y-113514871D01*
X92132407Y-113360811D01*
X92132406Y-113360808D01*
X92050738Y-113222714D01*
X92050731Y-113222705D01*
X91937294Y-113109268D01*
X91937285Y-113109261D01*
X91799191Y-113027593D01*
X91799188Y-113027591D01*
X91660001Y-112987153D01*
X91660000Y-112987154D01*
X91160000Y-112987154D01*
X91159998Y-112987153D01*
X91020811Y-113027591D01*
X91020810Y-113027592D01*
X90963611Y-113061419D01*
X90895886Y-113078600D01*
X90837371Y-113061419D01*
X90780174Y-113027593D01*
X90779393Y-113027131D01*
X90779392Y-113027130D01*
X90779391Y-113027130D01*
X90779388Y-113027129D01*
X90625208Y-112982335D01*
X90625202Y-112982334D01*
X90589181Y-112979500D01*
X90190830Y-112979500D01*
X90190808Y-112979501D01*
X90154794Y-112982335D01*
X90000611Y-113027129D01*
X90000608Y-113027130D01*
X89917620Y-113076209D01*
X89849896Y-113093391D01*
X89783634Y-113071230D01*
X89739871Y-113016764D01*
X89730500Y-112969476D01*
X89730500Y-112644313D01*
X89730499Y-112644298D01*
X89727598Y-112607432D01*
X89727597Y-112607429D01*
X89695156Y-112495766D01*
X89694555Y-112493697D01*
X89694555Y-112424507D01*
X89727100Y-112312490D01*
X89727295Y-112310001D01*
X89727295Y-112310000D01*
X89651308Y-112310000D01*
X89584269Y-112290315D01*
X89563631Y-112273685D01*
X89481865Y-112191919D01*
X89340398Y-112108256D01*
X89340397Y-112108255D01*
X89340396Y-112108255D01*
X89340393Y-112108254D01*
X89182573Y-112062402D01*
X89182567Y-112062401D01*
X89145701Y-112059500D01*
X89145694Y-112059500D01*
X88629000Y-112059500D01*
X88620314Y-112056949D01*
X88611353Y-112058238D01*
X88587312Y-112047259D01*
X88561961Y-112039815D01*
X88556033Y-112032974D01*
X88547797Y-112029213D01*
X88533507Y-112006978D01*
X88516206Y-111987011D01*
X88513918Y-111976496D01*
X88510023Y-111970435D01*
X88505000Y-111935500D01*
X88505000Y-111934000D01*
X88524685Y-111866961D01*
X88577489Y-111821206D01*
X88629000Y-111810000D01*
X89727295Y-111810000D01*
X89727295Y-111809998D01*
X89727100Y-111807513D01*
X89681281Y-111649801D01*
X89597685Y-111508447D01*
X89597678Y-111508438D01*
X89481561Y-111392321D01*
X89481552Y-111392314D01*
X89340196Y-111308717D01*
X89340193Y-111308716D01*
X89182495Y-111262900D01*
X89182482Y-111262898D01*
X89177563Y-111262511D01*
X89118509Y-111240000D01*
X88306988Y-111240000D01*
X88324205Y-111230060D01*
X88380060Y-111174205D01*
X88419556Y-111105796D01*
X88440000Y-111029496D01*
X88440000Y-110950504D01*
X88419556Y-110874204D01*
X88380060Y-110805795D01*
X88324205Y-110749940D01*
X88306988Y-110740000D01*
X89109862Y-110740000D01*
X89101569Y-110698309D01*
X89101569Y-110698307D01*
X89026192Y-110516328D01*
X89026185Y-110516315D01*
X88916751Y-110352537D01*
X88916748Y-110352533D01*
X88777466Y-110213251D01*
X88777462Y-110213248D01*
X88613684Y-110103814D01*
X88613671Y-110103807D01*
X88431693Y-110028430D01*
X88431681Y-110028427D01*
X88238495Y-109990000D01*
X87840000Y-109990000D01*
X87840000Y-110690000D01*
X87340000Y-110690000D01*
X87340000Y-109990000D01*
X86941504Y-109990000D01*
X86748318Y-110028427D01*
X86748306Y-110028430D01*
X86566328Y-110103807D01*
X86566315Y-110103814D01*
X86402537Y-110213248D01*
X86402533Y-110213251D01*
X86263251Y-110352533D01*
X86263248Y-110352537D01*
X86153814Y-110516315D01*
X86153807Y-110516328D01*
X86078430Y-110698307D01*
X86078430Y-110698309D01*
X86070138Y-110740000D01*
X84679862Y-110740000D01*
X84671569Y-110698309D01*
X84671569Y-110698307D01*
X84596192Y-110516328D01*
X84596185Y-110516315D01*
X84486751Y-110352537D01*
X84486748Y-110352533D01*
X84347466Y-110213251D01*
X84347462Y-110213248D01*
X84183684Y-110103814D01*
X84183671Y-110103807D01*
X84001693Y-110028430D01*
X84001681Y-110028427D01*
X83808495Y-109990000D01*
X83660000Y-109990000D01*
X83660000Y-110690000D01*
X83160000Y-110690000D01*
X83160000Y-109990000D01*
X83011504Y-109990000D01*
X82818318Y-110028427D01*
X82818306Y-110028430D01*
X82636328Y-110103807D01*
X82636315Y-110103814D01*
X82472537Y-110213248D01*
X82472533Y-110213251D01*
X82412181Y-110273604D01*
X82350858Y-110307089D01*
X82281166Y-110302105D01*
X82225233Y-110260233D01*
X82200816Y-110194769D01*
X82200500Y-110185923D01*
X82200500Y-109904066D01*
X82200765Y-109895956D01*
X82209224Y-109766894D01*
X82215364Y-109673207D01*
X82217479Y-109657153D01*
X82260232Y-109442215D01*
X82264425Y-109426568D01*
X82334867Y-109219052D01*
X82341068Y-109204081D01*
X82437996Y-109007530D01*
X82446100Y-108993494D01*
X82567845Y-108811289D01*
X82577711Y-108798430D01*
X82722207Y-108633665D01*
X82733665Y-108622207D01*
X82898430Y-108477711D01*
X82911289Y-108467845D01*
X83093494Y-108346100D01*
X83107530Y-108337996D01*
X83304081Y-108241068D01*
X83319052Y-108234867D01*
X83526568Y-108164425D01*
X83542215Y-108160232D01*
X83757153Y-108117479D01*
X83773209Y-108115364D01*
X83978058Y-108101938D01*
X83995958Y-108100765D01*
X84004067Y-108100500D01*
X84039882Y-108100500D01*
X109562225Y-108100500D01*
X109598213Y-108100500D01*
X109605989Y-108100743D01*
G37*
%TD.AperFunction*%
%TA.AperFunction,Conductor*%
G36*
X94444061Y-131690519D02*
G01*
X94488417Y-131719023D01*
X94698266Y-131928872D01*
X94731751Y-131990195D01*
X94726767Y-132059887D01*
X94712500Y-132082086D01*
X94712500Y-133290000D01*
X95637500Y-133290000D01*
X95637500Y-133167468D01*
X95657185Y-133100429D01*
X95709989Y-133054674D01*
X95779147Y-133044730D01*
X95842703Y-133073755D01*
X95849181Y-133079787D01*
X100014713Y-137245319D01*
X100048198Y-137306642D01*
X100043214Y-137376334D01*
X100001342Y-137432267D01*
X99935878Y-137456684D01*
X99927032Y-137457000D01*
X97173283Y-137457000D01*
X97106244Y-137437315D01*
X97085602Y-137420681D01*
X94866602Y-135201681D01*
X94833117Y-135140358D01*
X94838101Y-135070666D01*
X94879973Y-135014733D01*
X94945437Y-134990316D01*
X94954283Y-134990000D01*
X95185328Y-134990000D01*
X95185344Y-134989999D01*
X95244872Y-134983598D01*
X95244879Y-134983596D01*
X95379586Y-134933354D01*
X95379593Y-134933350D01*
X95494687Y-134847190D01*
X95494690Y-134847187D01*
X95580850Y-134732093D01*
X95580854Y-134732086D01*
X95631096Y-134597379D01*
X95631098Y-134597372D01*
X95637499Y-134537844D01*
X95637500Y-134537827D01*
X95637500Y-133790000D01*
X94586500Y-133790000D01*
X94519461Y-133770315D01*
X94473706Y-133717511D01*
X94462500Y-133666000D01*
X94462500Y-133540000D01*
X94336500Y-133540000D01*
X94269461Y-133520315D01*
X94223706Y-133467511D01*
X94212500Y-133416000D01*
X94212500Y-132090000D01*
X94125125Y-132090000D01*
X94058086Y-132070315D01*
X94012331Y-132017511D01*
X94002387Y-131948353D01*
X94031412Y-131884797D01*
X94077673Y-131851439D01*
X94179172Y-131809397D01*
X94179172Y-131809396D01*
X94179179Y-131809394D01*
X94310289Y-131721789D01*
X94313049Y-131719029D01*
X94314853Y-131718043D01*
X94314999Y-131717924D01*
X94315021Y-131717951D01*
X94374369Y-131685540D01*
X94444061Y-131690519D01*
G37*
%TD.AperFunction*%
%TA.AperFunction,Conductor*%
G36*
X107006549Y-132445198D02*
G01*
X107062482Y-132487070D01*
X107066316Y-132492487D01*
X107073331Y-132502986D01*
X107078601Y-132510872D01*
X107099480Y-132577549D01*
X107099500Y-132579765D01*
X107099500Y-133013330D01*
X107099499Y-133013348D01*
X107099499Y-133179054D01*
X107099498Y-133179054D01*
X107140424Y-133331789D01*
X107140425Y-133331790D01*
X107162186Y-133369480D01*
X107162187Y-133369482D01*
X107219475Y-133468709D01*
X107219481Y-133468717D01*
X107338349Y-133587585D01*
X107338355Y-133587590D01*
X107781084Y-134030319D01*
X107814569Y-134091642D01*
X107809585Y-134161334D01*
X107767713Y-134217267D01*
X107702249Y-134241684D01*
X107693403Y-134242000D01*
X107633169Y-134242000D01*
X107502096Y-134268072D01*
X107502084Y-134268075D01*
X107432452Y-134296918D01*
X107362983Y-134304387D01*
X107337548Y-134296918D01*
X107267915Y-134268075D01*
X107267903Y-134268072D01*
X107136830Y-134242000D01*
X107136826Y-134242000D01*
X107003174Y-134242000D01*
X107003169Y-134242000D01*
X106872096Y-134268072D01*
X106872084Y-134268075D01*
X106797452Y-134298989D01*
X106727983Y-134306458D01*
X106702548Y-134298989D01*
X106627915Y-134268075D01*
X106627903Y-134268072D01*
X106496830Y-134242000D01*
X106496826Y-134242000D01*
X106363174Y-134242000D01*
X106363169Y-134242000D01*
X106232096Y-134268072D01*
X106232084Y-134268075D01*
X106162452Y-134296918D01*
X106092983Y-134304387D01*
X106067548Y-134296918D01*
X105997915Y-134268075D01*
X105997903Y-134268072D01*
X105866830Y-134242000D01*
X105866826Y-134242000D01*
X105733174Y-134242000D01*
X105733169Y-134242000D01*
X105602096Y-134268072D01*
X105602084Y-134268075D01*
X105527452Y-134298989D01*
X105498605Y-134302090D01*
X105470211Y-134308041D01*
X105461880Y-134306038D01*
X105457983Y-134306458D01*
X105435782Y-134300276D01*
X105434143Y-134299650D01*
X105357911Y-134268074D01*
X105344348Y-134265376D01*
X105334578Y-134261647D01*
X105314758Y-134246573D01*
X105292695Y-134235032D01*
X105287431Y-134225789D01*
X105278965Y-134219350D01*
X105270441Y-134195953D01*
X105258120Y-134174317D01*
X105258689Y-134163695D01*
X105255048Y-134153701D01*
X105260526Y-134129409D01*
X105261859Y-134104547D01*
X105268517Y-134093980D01*
X105270420Y-134085544D01*
X105279415Y-134076684D01*
X105291113Y-134058120D01*
X106875536Y-132473697D01*
X106936857Y-132440214D01*
X107006549Y-132445198D01*
G37*
%TD.AperFunction*%
%TA.AperFunction,Conductor*%
G36*
X124406961Y-126500376D02*
G01*
X124432961Y-126504039D01*
X124439955Y-126510064D01*
X124448811Y-126512665D01*
X124466002Y-126532505D01*
X124485895Y-126549643D01*
X124488521Y-126558492D01*
X124494566Y-126565469D01*
X124498302Y-126591456D01*
X124505771Y-126616625D01*
X124503866Y-126630149D01*
X124504510Y-126634627D01*
X124500849Y-126651574D01*
X124495496Y-126670000D01*
X126104504Y-126670000D01*
X126099151Y-126651574D01*
X126099351Y-126581705D01*
X126137294Y-126523035D01*
X126200932Y-126494192D01*
X126218228Y-126492980D01*
X130192382Y-126492980D01*
X130259421Y-126512665D01*
X130280063Y-126529299D01*
X130743618Y-126992854D01*
X131150530Y-127399765D01*
X131184015Y-127461088D01*
X131179031Y-127530779D01*
X131137159Y-127586713D01*
X131135734Y-127587764D01*
X131052787Y-127648028D01*
X131052782Y-127648032D01*
X130908032Y-127792782D01*
X130908028Y-127792787D01*
X130856070Y-127864302D01*
X130800740Y-127906968D01*
X130731127Y-127912947D01*
X130669332Y-127880341D01*
X130638046Y-127830421D01*
X130634814Y-127820666D01*
X130542712Y-127671344D01*
X130418656Y-127547288D01*
X130269334Y-127455186D01*
X130102797Y-127400001D01*
X130102795Y-127400000D01*
X130000016Y-127389500D01*
X130000009Y-127389500D01*
X129332940Y-127389500D01*
X129265901Y-127369815D01*
X129245263Y-127353185D01*
X129150289Y-127258211D01*
X129150288Y-127258210D01*
X129150287Y-127258209D01*
X129019185Y-127170609D01*
X129019172Y-127170602D01*
X128873501Y-127110264D01*
X128873489Y-127110261D01*
X128718845Y-127079500D01*
X128718842Y-127079500D01*
X125378842Y-127079500D01*
X124848843Y-127079500D01*
X124691158Y-127079500D01*
X124691155Y-127079500D01*
X124536510Y-127110261D01*
X124536498Y-127110264D01*
X124390827Y-127170602D01*
X124390814Y-127170609D01*
X124259711Y-127258210D01*
X124259707Y-127258213D01*
X123974710Y-127543212D01*
X120844190Y-130673730D01*
X120782867Y-130707215D01*
X120713175Y-130702231D01*
X120668828Y-130673730D01*
X120565383Y-130570285D01*
X120565374Y-130570278D01*
X120426195Y-130487968D01*
X120426190Y-130487966D01*
X120270918Y-130442855D01*
X120270912Y-130442854D01*
X120250000Y-130441209D01*
X120250000Y-131096000D01*
X120230315Y-131163039D01*
X120177511Y-131208794D01*
X120126000Y-131220000D01*
X120000000Y-131220000D01*
X120000000Y-131262053D01*
X119991057Y-131292508D01*
X119983755Y-131323412D01*
X119981282Y-131325798D01*
X119980315Y-131329092D01*
X119956332Y-131349873D01*
X119933476Y-131371928D01*
X119929096Y-131373472D01*
X119927511Y-131374847D01*
X119900192Y-131383670D01*
X119853159Y-131393025D01*
X119832591Y-131397117D01*
X119808401Y-131399500D01*
X119765302Y-131399500D01*
X119729008Y-131402356D01*
X119729002Y-131402357D01*
X119573608Y-131447504D01*
X119573600Y-131447507D01*
X119564767Y-131452732D01*
X119548865Y-131457082D01*
X119536581Y-131464977D01*
X119501646Y-131470000D01*
X119398074Y-131470000D01*
X119363479Y-131465076D01*
X119285209Y-131442336D01*
X119285205Y-131442335D01*
X119285204Y-131442335D01*
X119285202Y-131442334D01*
X119285197Y-131442334D01*
X119249188Y-131439500D01*
X118750830Y-131439500D01*
X118750813Y-131439501D01*
X118749692Y-131439589D01*
X118749330Y-131439618D01*
X118739607Y-131440000D01*
X118187156Y-131440000D01*
X118227594Y-131579193D01*
X118261419Y-131636388D01*
X118278601Y-131704112D01*
X118261419Y-131762628D01*
X118227130Y-131820607D01*
X118227129Y-131820611D01*
X118182335Y-131974791D01*
X118182334Y-131974797D01*
X118179500Y-132010811D01*
X118179500Y-132223641D01*
X118159815Y-132290680D01*
X118107011Y-132336435D01*
X118037853Y-132346379D01*
X118023408Y-132343416D01*
X117971469Y-132329499D01*
X117971467Y-132329499D01*
X117813353Y-132329499D01*
X117805757Y-132329499D01*
X117805741Y-132329500D01*
X117804225Y-132329500D01*
X117737186Y-132309815D01*
X117691431Y-132257011D01*
X117684906Y-132238862D01*
X117684578Y-132238070D01*
X117681542Y-132232812D01*
X117648569Y-132175701D01*
X117605521Y-132101139D01*
X117493717Y-131989335D01*
X117493716Y-131989334D01*
X117489386Y-131985004D01*
X117489375Y-131984994D01*
X116992756Y-131488375D01*
X116992754Y-131488372D01*
X116873883Y-131369501D01*
X116873882Y-131369500D01*
X116787070Y-131319380D01*
X116787070Y-131319379D01*
X116787066Y-131319378D01*
X116736951Y-131290443D01*
X116584223Y-131249519D01*
X116426109Y-131249519D01*
X116418513Y-131249519D01*
X116418497Y-131249520D01*
X115516514Y-131249520D01*
X115487073Y-131240875D01*
X115457087Y-131234352D01*
X115452071Y-131230597D01*
X115449475Y-131229835D01*
X115428833Y-131213201D01*
X115312558Y-131096926D01*
X115279073Y-131035603D01*
X115278622Y-130985054D01*
X115287442Y-130940713D01*
X115287442Y-130940711D01*
X115287584Y-130940000D01*
X118187156Y-130940000D01*
X118750000Y-130940000D01*
X119250000Y-130940000D01*
X119750000Y-130940000D01*
X119750000Y-130441210D01*
X119749999Y-130441209D01*
X119729087Y-130442854D01*
X119729081Y-130442855D01*
X119566314Y-130490144D01*
X119565950Y-130488893D01*
X119504597Y-130496462D01*
X119461585Y-130480836D01*
X119439195Y-130467595D01*
X119439187Y-130467592D01*
X119285130Y-130422834D01*
X119250000Y-130420068D01*
X119250000Y-130940000D01*
X118750000Y-130940000D01*
X118750000Y-130420068D01*
X118749999Y-130420068D01*
X118714869Y-130422834D01*
X118714868Y-130422834D01*
X118560811Y-130467592D01*
X118560808Y-130467593D01*
X118422714Y-130549261D01*
X118422705Y-130549268D01*
X118309268Y-130662705D01*
X118309261Y-130662714D01*
X118227595Y-130800805D01*
X118187156Y-130940000D01*
X115287584Y-130940000D01*
X115294922Y-130903109D01*
X115294922Y-130743645D01*
X115294922Y-130743642D01*
X115294921Y-130743640D01*
X115276173Y-130649390D01*
X115263812Y-130587245D01*
X115263810Y-130587240D01*
X115202791Y-130439926D01*
X115202784Y-130439913D01*
X115114196Y-130307332D01*
X115091117Y-130284253D01*
X115057816Y-130250952D01*
X115006258Y-130199394D01*
X114873265Y-130066401D01*
X114872787Y-130065923D01*
X114872786Y-130065922D01*
X114740204Y-129977333D01*
X114740191Y-129977326D01*
X114592877Y-129916307D01*
X114592865Y-129916304D01*
X114436476Y-129885196D01*
X114436473Y-129885196D01*
X114277009Y-129885196D01*
X114277004Y-129885196D01*
X114195064Y-129901495D01*
X114125472Y-129895268D01*
X114083192Y-129867559D01*
X112502079Y-128286446D01*
X110920293Y-126704661D01*
X110886809Y-126643339D01*
X110891793Y-126573647D01*
X110933665Y-126517714D01*
X110999129Y-126493297D01*
X111007975Y-126492981D01*
X111096389Y-126492981D01*
X111096405Y-126492980D01*
X124381772Y-126492980D01*
X124406961Y-126500376D01*
G37*
%TD.AperFunction*%
%TA.AperFunction,Conductor*%
G36*
X146210545Y-124940185D02*
G01*
X146231187Y-124956819D01*
X148664200Y-127389833D01*
X148697685Y-127451156D01*
X148692701Y-127520848D01*
X148650829Y-127576781D01*
X148649405Y-127577832D01*
X148552782Y-127648032D01*
X148408032Y-127792782D01*
X148408028Y-127792787D01*
X148356070Y-127864302D01*
X148300740Y-127906968D01*
X148231127Y-127912947D01*
X148169332Y-127880341D01*
X148138046Y-127830421D01*
X148134814Y-127820666D01*
X148042712Y-127671344D01*
X147918656Y-127547288D01*
X147769334Y-127455186D01*
X147602797Y-127400001D01*
X147602795Y-127400000D01*
X147500016Y-127389500D01*
X147500009Y-127389500D01*
X146832940Y-127389500D01*
X146765901Y-127369815D01*
X146745259Y-127353181D01*
X145790292Y-126398213D01*
X145790288Y-126398210D01*
X145659185Y-126310609D01*
X145659172Y-126310602D01*
X145513501Y-126250264D01*
X145513489Y-126250261D01*
X145358845Y-126219500D01*
X145358842Y-126219500D01*
X142878842Y-126219500D01*
X139937321Y-126219500D01*
X139779636Y-126219500D01*
X139779631Y-126219500D01*
X139624988Y-126250260D01*
X139624980Y-126250262D01*
X139479302Y-126310604D01*
X139479292Y-126310609D01*
X139348189Y-126398210D01*
X139348185Y-126398213D01*
X137725666Y-128020732D01*
X137664343Y-128054217D01*
X137594651Y-128049233D01*
X137538718Y-128007361D01*
X137527501Y-127989346D01*
X137511863Y-127958655D01*
X137479474Y-127914077D01*
X137479474Y-127914076D01*
X136862550Y-128531001D01*
X136842630Y-128456657D01*
X136780095Y-128348343D01*
X136691657Y-128259905D01*
X136583343Y-128197370D01*
X136508996Y-128177449D01*
X137125922Y-127560524D01*
X137125921Y-127560523D01*
X137081359Y-127528147D01*
X137081350Y-127528141D01*
X136899031Y-127435244D01*
X136704417Y-127372009D01*
X136502317Y-127340000D01*
X136297683Y-127340000D01*
X136095582Y-127372009D01*
X135900968Y-127435244D01*
X135718644Y-127528143D01*
X135674077Y-127560523D01*
X135674077Y-127560524D01*
X136291003Y-128177449D01*
X136216657Y-128197370D01*
X136108343Y-128259905D01*
X136019905Y-128348343D01*
X135957370Y-128456657D01*
X135937449Y-128531002D01*
X135320524Y-127914077D01*
X135320523Y-127914077D01*
X135288143Y-127958644D01*
X135260765Y-128012378D01*
X135212790Y-128063174D01*
X135144969Y-128079969D01*
X135078834Y-128057431D01*
X135039795Y-128012378D01*
X135034880Y-128002732D01*
X135012287Y-127958390D01*
X135012285Y-127958387D01*
X135012284Y-127958385D01*
X134891971Y-127792786D01*
X134747213Y-127648028D01*
X134581613Y-127527715D01*
X134581612Y-127527714D01*
X134581610Y-127527713D01*
X134518816Y-127495718D01*
X134399223Y-127434781D01*
X134204534Y-127371522D01*
X134029995Y-127343878D01*
X134002352Y-127339500D01*
X133797648Y-127339500D01*
X133759599Y-127345526D01*
X133595468Y-127371522D01*
X133586717Y-127374365D01*
X133581154Y-127376173D01*
X133511313Y-127378167D01*
X133455157Y-127345922D01*
X131241416Y-125132181D01*
X131207931Y-125070858D01*
X131212915Y-125001166D01*
X131254787Y-124945233D01*
X131320251Y-124920816D01*
X131329097Y-124920500D01*
X146143506Y-124920500D01*
X146210545Y-124940185D01*
G37*
%TD.AperFunction*%
%TA.AperFunction,Conductor*%
G36*
X106008333Y-124990474D02*
G01*
X106052680Y-125018975D01*
X106102456Y-125068751D01*
X106102460Y-125068754D01*
X106230294Y-125154171D01*
X106230295Y-125154171D01*
X106230296Y-125154172D01*
X106230298Y-125154173D01*
X106300534Y-125183265D01*
X106372336Y-125213006D01*
X106372338Y-125213006D01*
X106372343Y-125213008D01*
X106523122Y-125242999D01*
X106523126Y-125243000D01*
X106575559Y-125243000D01*
X106642598Y-125262685D01*
X106688353Y-125315489D01*
X106698297Y-125384647D01*
X106669272Y-125448203D01*
X106663240Y-125454681D01*
X106628213Y-125489707D01*
X106628210Y-125489711D01*
X106540609Y-125620814D01*
X106540602Y-125620827D01*
X106480264Y-125766498D01*
X106480261Y-125766510D01*
X106449500Y-125921153D01*
X106449500Y-126078846D01*
X106480261Y-126233489D01*
X106480264Y-126233501D01*
X106540602Y-126379172D01*
X106540609Y-126379185D01*
X106628602Y-126510874D01*
X106649480Y-126577551D01*
X106649500Y-126579765D01*
X106649500Y-127626000D01*
X106646949Y-127634685D01*
X106648238Y-127643647D01*
X106637259Y-127667687D01*
X106629815Y-127693039D01*
X106622974Y-127698966D01*
X106619213Y-127707203D01*
X106596978Y-127721492D01*
X106577011Y-127738794D01*
X106566496Y-127741081D01*
X106560435Y-127744977D01*
X106525500Y-127750000D01*
X106374000Y-127750000D01*
X106306961Y-127730315D01*
X106261206Y-127677511D01*
X106250000Y-127626000D01*
X106250000Y-126971210D01*
X106249999Y-126971209D01*
X106229087Y-126972854D01*
X106229081Y-126972855D01*
X106073809Y-127017966D01*
X106073804Y-127017968D01*
X105934625Y-127100278D01*
X105934616Y-127100285D01*
X105820285Y-127214616D01*
X105820278Y-127214625D01*
X105746232Y-127339831D01*
X105695163Y-127387515D01*
X105626421Y-127400018D01*
X105561832Y-127373372D01*
X105521902Y-127316037D01*
X105515500Y-127276710D01*
X105515500Y-125457597D01*
X105535185Y-125390558D01*
X105551819Y-125369916D01*
X105659050Y-125262685D01*
X105810520Y-125111216D01*
X105837112Y-125065154D01*
X105856815Y-125039478D01*
X105877318Y-125018975D01*
X105938641Y-124985490D01*
X106008333Y-124990474D01*
G37*
%TD.AperFunction*%
%TD*%
M02*
