%TF.GenerationSoftware,KiCad,Pcbnew,10.0.1*%
%TF.CreationDate,2026-05-10T15:17:57+10:00*%
%TF.ProjectId,YetAnotherUSBHub,59657441-6e6f-4746-9865-725553424875,rev?*%
%TF.SameCoordinates,Original*%
%TF.FileFunction,Legend,Top*%
%TF.FilePolarity,Positive*%
%FSLAX46Y46*%
G04 Gerber Fmt 4.6, Leading zero omitted, Abs format (unit mm)*
G04 Created by KiCad (PCBNEW 10.0.1) date 2026-05-10 15:17:57*
%MOMM*%
%LPD*%
G01*
G04 APERTURE LIST*
%ADD10C,0.100000*%
%ADD11C,0.150000*%
%ADD12C,0.120000*%
%ADD13C,0.300000*%
%ADD14C,0.060000*%
%ADD15C,0.000000*%
G04 APERTURE END LIST*
D10*
X90594360Y-109796228D02*
X90594360Y-110272419D01*
X90261027Y-109272419D02*
X90594360Y-109796228D01*
X90594360Y-109796228D02*
X90927693Y-109272419D01*
X91641979Y-110224800D02*
X91546741Y-110272419D01*
X91546741Y-110272419D02*
X91356265Y-110272419D01*
X91356265Y-110272419D02*
X91261027Y-110224800D01*
X91261027Y-110224800D02*
X91213408Y-110129561D01*
X91213408Y-110129561D02*
X91213408Y-109748609D01*
X91213408Y-109748609D02*
X91261027Y-109653371D01*
X91261027Y-109653371D02*
X91356265Y-109605752D01*
X91356265Y-109605752D02*
X91546741Y-109605752D01*
X91546741Y-109605752D02*
X91641979Y-109653371D01*
X91641979Y-109653371D02*
X91689598Y-109748609D01*
X91689598Y-109748609D02*
X91689598Y-109843847D01*
X91689598Y-109843847D02*
X91213408Y-109939085D01*
X91975313Y-109605752D02*
X92356265Y-109605752D01*
X92118170Y-109272419D02*
X92118170Y-110129561D01*
X92118170Y-110129561D02*
X92165789Y-110224800D01*
X92165789Y-110224800D02*
X92261027Y-110272419D01*
X92261027Y-110272419D02*
X92356265Y-110272419D01*
X92641980Y-109986704D02*
X93118170Y-109986704D01*
X92546742Y-110272419D02*
X92880075Y-109272419D01*
X92880075Y-109272419D02*
X93213408Y-110272419D01*
X93546742Y-109605752D02*
X93546742Y-110272419D01*
X93546742Y-109700990D02*
X93594361Y-109653371D01*
X93594361Y-109653371D02*
X93689599Y-109605752D01*
X93689599Y-109605752D02*
X93832456Y-109605752D01*
X93832456Y-109605752D02*
X93927694Y-109653371D01*
X93927694Y-109653371D02*
X93975313Y-109748609D01*
X93975313Y-109748609D02*
X93975313Y-110272419D01*
X94594361Y-110272419D02*
X94499123Y-110224800D01*
X94499123Y-110224800D02*
X94451504Y-110177180D01*
X94451504Y-110177180D02*
X94403885Y-110081942D01*
X94403885Y-110081942D02*
X94403885Y-109796228D01*
X94403885Y-109796228D02*
X94451504Y-109700990D01*
X94451504Y-109700990D02*
X94499123Y-109653371D01*
X94499123Y-109653371D02*
X94594361Y-109605752D01*
X94594361Y-109605752D02*
X94737218Y-109605752D01*
X94737218Y-109605752D02*
X94832456Y-109653371D01*
X94832456Y-109653371D02*
X94880075Y-109700990D01*
X94880075Y-109700990D02*
X94927694Y-109796228D01*
X94927694Y-109796228D02*
X94927694Y-110081942D01*
X94927694Y-110081942D02*
X94880075Y-110177180D01*
X94880075Y-110177180D02*
X94832456Y-110224800D01*
X94832456Y-110224800D02*
X94737218Y-110272419D01*
X94737218Y-110272419D02*
X94594361Y-110272419D01*
X95213409Y-109605752D02*
X95594361Y-109605752D01*
X95356266Y-109272419D02*
X95356266Y-110129561D01*
X95356266Y-110129561D02*
X95403885Y-110224800D01*
X95403885Y-110224800D02*
X95499123Y-110272419D01*
X95499123Y-110272419D02*
X95594361Y-110272419D01*
X95927695Y-110272419D02*
X95927695Y-109272419D01*
X96356266Y-110272419D02*
X96356266Y-109748609D01*
X96356266Y-109748609D02*
X96308647Y-109653371D01*
X96308647Y-109653371D02*
X96213409Y-109605752D01*
X96213409Y-109605752D02*
X96070552Y-109605752D01*
X96070552Y-109605752D02*
X95975314Y-109653371D01*
X95975314Y-109653371D02*
X95927695Y-109700990D01*
X97213409Y-110224800D02*
X97118171Y-110272419D01*
X97118171Y-110272419D02*
X96927695Y-110272419D01*
X96927695Y-110272419D02*
X96832457Y-110224800D01*
X96832457Y-110224800D02*
X96784838Y-110129561D01*
X96784838Y-110129561D02*
X96784838Y-109748609D01*
X96784838Y-109748609D02*
X96832457Y-109653371D01*
X96832457Y-109653371D02*
X96927695Y-109605752D01*
X96927695Y-109605752D02*
X97118171Y-109605752D01*
X97118171Y-109605752D02*
X97213409Y-109653371D01*
X97213409Y-109653371D02*
X97261028Y-109748609D01*
X97261028Y-109748609D02*
X97261028Y-109843847D01*
X97261028Y-109843847D02*
X96784838Y-109939085D01*
X97689600Y-110272419D02*
X97689600Y-109605752D01*
X97689600Y-109796228D02*
X97737219Y-109700990D01*
X97737219Y-109700990D02*
X97784838Y-109653371D01*
X97784838Y-109653371D02*
X97880076Y-109605752D01*
X97880076Y-109605752D02*
X97975314Y-109605752D01*
X98308648Y-109272419D02*
X98308648Y-110081942D01*
X98308648Y-110081942D02*
X98356267Y-110177180D01*
X98356267Y-110177180D02*
X98403886Y-110224800D01*
X98403886Y-110224800D02*
X98499124Y-110272419D01*
X98499124Y-110272419D02*
X98689600Y-110272419D01*
X98689600Y-110272419D02*
X98784838Y-110224800D01*
X98784838Y-110224800D02*
X98832457Y-110177180D01*
X98832457Y-110177180D02*
X98880076Y-110081942D01*
X98880076Y-110081942D02*
X98880076Y-109272419D01*
X99308648Y-110224800D02*
X99451505Y-110272419D01*
X99451505Y-110272419D02*
X99689600Y-110272419D01*
X99689600Y-110272419D02*
X99784838Y-110224800D01*
X99784838Y-110224800D02*
X99832457Y-110177180D01*
X99832457Y-110177180D02*
X99880076Y-110081942D01*
X99880076Y-110081942D02*
X99880076Y-109986704D01*
X99880076Y-109986704D02*
X99832457Y-109891466D01*
X99832457Y-109891466D02*
X99784838Y-109843847D01*
X99784838Y-109843847D02*
X99689600Y-109796228D01*
X99689600Y-109796228D02*
X99499124Y-109748609D01*
X99499124Y-109748609D02*
X99403886Y-109700990D01*
X99403886Y-109700990D02*
X99356267Y-109653371D01*
X99356267Y-109653371D02*
X99308648Y-109558133D01*
X99308648Y-109558133D02*
X99308648Y-109462895D01*
X99308648Y-109462895D02*
X99356267Y-109367657D01*
X99356267Y-109367657D02*
X99403886Y-109320038D01*
X99403886Y-109320038D02*
X99499124Y-109272419D01*
X99499124Y-109272419D02*
X99737219Y-109272419D01*
X99737219Y-109272419D02*
X99880076Y-109320038D01*
X100641981Y-109748609D02*
X100784838Y-109796228D01*
X100784838Y-109796228D02*
X100832457Y-109843847D01*
X100832457Y-109843847D02*
X100880076Y-109939085D01*
X100880076Y-109939085D02*
X100880076Y-110081942D01*
X100880076Y-110081942D02*
X100832457Y-110177180D01*
X100832457Y-110177180D02*
X100784838Y-110224800D01*
X100784838Y-110224800D02*
X100689600Y-110272419D01*
X100689600Y-110272419D02*
X100308648Y-110272419D01*
X100308648Y-110272419D02*
X100308648Y-109272419D01*
X100308648Y-109272419D02*
X100641981Y-109272419D01*
X100641981Y-109272419D02*
X100737219Y-109320038D01*
X100737219Y-109320038D02*
X100784838Y-109367657D01*
X100784838Y-109367657D02*
X100832457Y-109462895D01*
X100832457Y-109462895D02*
X100832457Y-109558133D01*
X100832457Y-109558133D02*
X100784838Y-109653371D01*
X100784838Y-109653371D02*
X100737219Y-109700990D01*
X100737219Y-109700990D02*
X100641981Y-109748609D01*
X100641981Y-109748609D02*
X100308648Y-109748609D01*
X101308648Y-110272419D02*
X101308648Y-109272419D01*
X101308648Y-109748609D02*
X101880076Y-109748609D01*
X101880076Y-110272419D02*
X101880076Y-109272419D01*
X102784838Y-109605752D02*
X102784838Y-110272419D01*
X102356267Y-109605752D02*
X102356267Y-110129561D01*
X102356267Y-110129561D02*
X102403886Y-110224800D01*
X102403886Y-110224800D02*
X102499124Y-110272419D01*
X102499124Y-110272419D02*
X102641981Y-110272419D01*
X102641981Y-110272419D02*
X102737219Y-110224800D01*
X102737219Y-110224800D02*
X102784838Y-110177180D01*
X103261029Y-110272419D02*
X103261029Y-109272419D01*
X103261029Y-109653371D02*
X103356267Y-109605752D01*
X103356267Y-109605752D02*
X103546743Y-109605752D01*
X103546743Y-109605752D02*
X103641981Y-109653371D01*
X103641981Y-109653371D02*
X103689600Y-109700990D01*
X103689600Y-109700990D02*
X103737219Y-109796228D01*
X103737219Y-109796228D02*
X103737219Y-110081942D01*
X103737219Y-110081942D02*
X103689600Y-110177180D01*
X103689600Y-110177180D02*
X103641981Y-110224800D01*
X103641981Y-110224800D02*
X103546743Y-110272419D01*
X103546743Y-110272419D02*
X103356267Y-110272419D01*
X103356267Y-110272419D02*
X103261029Y-110224800D01*
X104927696Y-110272419D02*
X104927696Y-109605752D01*
X104927696Y-109796228D02*
X104975315Y-109700990D01*
X104975315Y-109700990D02*
X105022934Y-109653371D01*
X105022934Y-109653371D02*
X105118172Y-109605752D01*
X105118172Y-109605752D02*
X105213410Y-109605752D01*
X105927696Y-110224800D02*
X105832458Y-110272419D01*
X105832458Y-110272419D02*
X105641982Y-110272419D01*
X105641982Y-110272419D02*
X105546744Y-110224800D01*
X105546744Y-110224800D02*
X105499125Y-110129561D01*
X105499125Y-110129561D02*
X105499125Y-109748609D01*
X105499125Y-109748609D02*
X105546744Y-109653371D01*
X105546744Y-109653371D02*
X105641982Y-109605752D01*
X105641982Y-109605752D02*
X105832458Y-109605752D01*
X105832458Y-109605752D02*
X105927696Y-109653371D01*
X105927696Y-109653371D02*
X105975315Y-109748609D01*
X105975315Y-109748609D02*
X105975315Y-109843847D01*
X105975315Y-109843847D02*
X105499125Y-109939085D01*
X106308649Y-109605752D02*
X106546744Y-110272419D01*
X106546744Y-110272419D02*
X106784839Y-109605752D01*
X108451506Y-110272419D02*
X107880078Y-110272419D01*
X108165792Y-110272419D02*
X108165792Y-109272419D01*
X108165792Y-109272419D02*
X108070554Y-109415276D01*
X108070554Y-109415276D02*
X107975316Y-109510514D01*
X107975316Y-109510514D02*
X107880078Y-109558133D01*
X123603884Y-123272419D02*
X123603884Y-122272419D01*
X124032455Y-123272419D02*
X124032455Y-122748609D01*
X124032455Y-122748609D02*
X123984836Y-122653371D01*
X123984836Y-122653371D02*
X123889598Y-122605752D01*
X123889598Y-122605752D02*
X123746741Y-122605752D01*
X123746741Y-122605752D02*
X123651503Y-122653371D01*
X123651503Y-122653371D02*
X123603884Y-122700990D01*
X124365789Y-122605752D02*
X124746741Y-122605752D01*
X124508646Y-122272419D02*
X124508646Y-123129561D01*
X124508646Y-123129561D02*
X124556265Y-123224800D01*
X124556265Y-123224800D02*
X124651503Y-123272419D01*
X124651503Y-123272419D02*
X124746741Y-123272419D01*
X124937218Y-122605752D02*
X125318170Y-122605752D01*
X125080075Y-122272419D02*
X125080075Y-123129561D01*
X125080075Y-123129561D02*
X125127694Y-123224800D01*
X125127694Y-123224800D02*
X125222932Y-123272419D01*
X125222932Y-123272419D02*
X125318170Y-123272419D01*
X125651504Y-122605752D02*
X125651504Y-123605752D01*
X125651504Y-122653371D02*
X125746742Y-122605752D01*
X125746742Y-122605752D02*
X125937218Y-122605752D01*
X125937218Y-122605752D02*
X126032456Y-122653371D01*
X126032456Y-122653371D02*
X126080075Y-122700990D01*
X126080075Y-122700990D02*
X126127694Y-122796228D01*
X126127694Y-122796228D02*
X126127694Y-123081942D01*
X126127694Y-123081942D02*
X126080075Y-123177180D01*
X126080075Y-123177180D02*
X126032456Y-123224800D01*
X126032456Y-123224800D02*
X125937218Y-123272419D01*
X125937218Y-123272419D02*
X125746742Y-123272419D01*
X125746742Y-123272419D02*
X125651504Y-123224800D01*
X126508647Y-123224800D02*
X126603885Y-123272419D01*
X126603885Y-123272419D02*
X126794361Y-123272419D01*
X126794361Y-123272419D02*
X126889599Y-123224800D01*
X126889599Y-123224800D02*
X126937218Y-123129561D01*
X126937218Y-123129561D02*
X126937218Y-123081942D01*
X126937218Y-123081942D02*
X126889599Y-122986704D01*
X126889599Y-122986704D02*
X126794361Y-122939085D01*
X126794361Y-122939085D02*
X126651504Y-122939085D01*
X126651504Y-122939085D02*
X126556266Y-122891466D01*
X126556266Y-122891466D02*
X126508647Y-122796228D01*
X126508647Y-122796228D02*
X126508647Y-122748609D01*
X126508647Y-122748609D02*
X126556266Y-122653371D01*
X126556266Y-122653371D02*
X126651504Y-122605752D01*
X126651504Y-122605752D02*
X126794361Y-122605752D01*
X126794361Y-122605752D02*
X126889599Y-122653371D01*
X127365790Y-123177180D02*
X127413409Y-123224800D01*
X127413409Y-123224800D02*
X127365790Y-123272419D01*
X127365790Y-123272419D02*
X127318171Y-123224800D01*
X127318171Y-123224800D02*
X127365790Y-123177180D01*
X127365790Y-123177180D02*
X127365790Y-123272419D01*
X127365790Y-122653371D02*
X127413409Y-122700990D01*
X127413409Y-122700990D02*
X127365790Y-122748609D01*
X127365790Y-122748609D02*
X127318171Y-122700990D01*
X127318171Y-122700990D02*
X127365790Y-122653371D01*
X127365790Y-122653371D02*
X127365790Y-122748609D01*
X128556265Y-122224800D02*
X127699123Y-123510514D01*
X129603884Y-122224800D02*
X128746742Y-123510514D01*
X130365789Y-122605752D02*
X130365789Y-123415276D01*
X130365789Y-123415276D02*
X130318170Y-123510514D01*
X130318170Y-123510514D02*
X130270551Y-123558133D01*
X130270551Y-123558133D02*
X130175313Y-123605752D01*
X130175313Y-123605752D02*
X130032456Y-123605752D01*
X130032456Y-123605752D02*
X129937218Y-123558133D01*
X130365789Y-123224800D02*
X130270551Y-123272419D01*
X130270551Y-123272419D02*
X130080075Y-123272419D01*
X130080075Y-123272419D02*
X129984837Y-123224800D01*
X129984837Y-123224800D02*
X129937218Y-123177180D01*
X129937218Y-123177180D02*
X129889599Y-123081942D01*
X129889599Y-123081942D02*
X129889599Y-122796228D01*
X129889599Y-122796228D02*
X129937218Y-122700990D01*
X129937218Y-122700990D02*
X129984837Y-122653371D01*
X129984837Y-122653371D02*
X130080075Y-122605752D01*
X130080075Y-122605752D02*
X130270551Y-122605752D01*
X130270551Y-122605752D02*
X130365789Y-122653371D01*
X130841980Y-123272419D02*
X130841980Y-122605752D01*
X130841980Y-122272419D02*
X130794361Y-122320038D01*
X130794361Y-122320038D02*
X130841980Y-122367657D01*
X130841980Y-122367657D02*
X130889599Y-122320038D01*
X130889599Y-122320038D02*
X130841980Y-122272419D01*
X130841980Y-122272419D02*
X130841980Y-122367657D01*
X131175313Y-122605752D02*
X131556265Y-122605752D01*
X131318170Y-122272419D02*
X131318170Y-123129561D01*
X131318170Y-123129561D02*
X131365789Y-123224800D01*
X131365789Y-123224800D02*
X131461027Y-123272419D01*
X131461027Y-123272419D02*
X131556265Y-123272419D01*
X131889599Y-123272419D02*
X131889599Y-122272419D01*
X132318170Y-123272419D02*
X132318170Y-122748609D01*
X132318170Y-122748609D02*
X132270551Y-122653371D01*
X132270551Y-122653371D02*
X132175313Y-122605752D01*
X132175313Y-122605752D02*
X132032456Y-122605752D01*
X132032456Y-122605752D02*
X131937218Y-122653371D01*
X131937218Y-122653371D02*
X131889599Y-122700990D01*
X133222932Y-122605752D02*
X133222932Y-123272419D01*
X132794361Y-122605752D02*
X132794361Y-123129561D01*
X132794361Y-123129561D02*
X132841980Y-123224800D01*
X132841980Y-123224800D02*
X132937218Y-123272419D01*
X132937218Y-123272419D02*
X133080075Y-123272419D01*
X133080075Y-123272419D02*
X133175313Y-123224800D01*
X133175313Y-123224800D02*
X133222932Y-123177180D01*
X133699123Y-123272419D02*
X133699123Y-122272419D01*
X133699123Y-122653371D02*
X133794361Y-122605752D01*
X133794361Y-122605752D02*
X133984837Y-122605752D01*
X133984837Y-122605752D02*
X134080075Y-122653371D01*
X134080075Y-122653371D02*
X134127694Y-122700990D01*
X134127694Y-122700990D02*
X134175313Y-122796228D01*
X134175313Y-122796228D02*
X134175313Y-123081942D01*
X134175313Y-123081942D02*
X134127694Y-123177180D01*
X134127694Y-123177180D02*
X134080075Y-123224800D01*
X134080075Y-123224800D02*
X133984837Y-123272419D01*
X133984837Y-123272419D02*
X133794361Y-123272419D01*
X133794361Y-123272419D02*
X133699123Y-123224800D01*
X134603885Y-123177180D02*
X134651504Y-123224800D01*
X134651504Y-123224800D02*
X134603885Y-123272419D01*
X134603885Y-123272419D02*
X134556266Y-123224800D01*
X134556266Y-123224800D02*
X134603885Y-123177180D01*
X134603885Y-123177180D02*
X134603885Y-123272419D01*
X135508646Y-123224800D02*
X135413408Y-123272419D01*
X135413408Y-123272419D02*
X135222932Y-123272419D01*
X135222932Y-123272419D02*
X135127694Y-123224800D01*
X135127694Y-123224800D02*
X135080075Y-123177180D01*
X135080075Y-123177180D02*
X135032456Y-123081942D01*
X135032456Y-123081942D02*
X135032456Y-122796228D01*
X135032456Y-122796228D02*
X135080075Y-122700990D01*
X135080075Y-122700990D02*
X135127694Y-122653371D01*
X135127694Y-122653371D02*
X135222932Y-122605752D01*
X135222932Y-122605752D02*
X135413408Y-122605752D01*
X135413408Y-122605752D02*
X135508646Y-122653371D01*
X136080075Y-123272419D02*
X135984837Y-123224800D01*
X135984837Y-123224800D02*
X135937218Y-123177180D01*
X135937218Y-123177180D02*
X135889599Y-123081942D01*
X135889599Y-123081942D02*
X135889599Y-122796228D01*
X135889599Y-122796228D02*
X135937218Y-122700990D01*
X135937218Y-122700990D02*
X135984837Y-122653371D01*
X135984837Y-122653371D02*
X136080075Y-122605752D01*
X136080075Y-122605752D02*
X136222932Y-122605752D01*
X136222932Y-122605752D02*
X136318170Y-122653371D01*
X136318170Y-122653371D02*
X136365789Y-122700990D01*
X136365789Y-122700990D02*
X136413408Y-122796228D01*
X136413408Y-122796228D02*
X136413408Y-123081942D01*
X136413408Y-123081942D02*
X136365789Y-123177180D01*
X136365789Y-123177180D02*
X136318170Y-123224800D01*
X136318170Y-123224800D02*
X136222932Y-123272419D01*
X136222932Y-123272419D02*
X136080075Y-123272419D01*
X136841980Y-123272419D02*
X136841980Y-122605752D01*
X136841980Y-122700990D02*
X136889599Y-122653371D01*
X136889599Y-122653371D02*
X136984837Y-122605752D01*
X136984837Y-122605752D02*
X137127694Y-122605752D01*
X137127694Y-122605752D02*
X137222932Y-122653371D01*
X137222932Y-122653371D02*
X137270551Y-122748609D01*
X137270551Y-122748609D02*
X137270551Y-123272419D01*
X137270551Y-122748609D02*
X137318170Y-122653371D01*
X137318170Y-122653371D02*
X137413408Y-122605752D01*
X137413408Y-122605752D02*
X137556265Y-122605752D01*
X137556265Y-122605752D02*
X137651504Y-122653371D01*
X137651504Y-122653371D02*
X137699123Y-122748609D01*
X137699123Y-122748609D02*
X137699123Y-123272419D01*
X138889598Y-122224800D02*
X138032456Y-123510514D01*
X139413408Y-122272419D02*
X139508646Y-122272419D01*
X139508646Y-122272419D02*
X139603884Y-122320038D01*
X139603884Y-122320038D02*
X139651503Y-122367657D01*
X139651503Y-122367657D02*
X139699122Y-122462895D01*
X139699122Y-122462895D02*
X139746741Y-122653371D01*
X139746741Y-122653371D02*
X139746741Y-122891466D01*
X139746741Y-122891466D02*
X139699122Y-123081942D01*
X139699122Y-123081942D02*
X139651503Y-123177180D01*
X139651503Y-123177180D02*
X139603884Y-123224800D01*
X139603884Y-123224800D02*
X139508646Y-123272419D01*
X139508646Y-123272419D02*
X139413408Y-123272419D01*
X139413408Y-123272419D02*
X139318170Y-123224800D01*
X139318170Y-123224800D02*
X139270551Y-123177180D01*
X139270551Y-123177180D02*
X139222932Y-123081942D01*
X139222932Y-123081942D02*
X139175313Y-122891466D01*
X139175313Y-122891466D02*
X139175313Y-122653371D01*
X139175313Y-122653371D02*
X139222932Y-122462895D01*
X139222932Y-122462895D02*
X139270551Y-122367657D01*
X139270551Y-122367657D02*
X139318170Y-122320038D01*
X139318170Y-122320038D02*
X139413408Y-122272419D01*
X140080075Y-123272419D02*
X140603884Y-122605752D01*
X140080075Y-122605752D02*
X140603884Y-123272419D01*
X141413408Y-122272419D02*
X141222932Y-122272419D01*
X141222932Y-122272419D02*
X141127694Y-122320038D01*
X141127694Y-122320038D02*
X141080075Y-122367657D01*
X141080075Y-122367657D02*
X140984837Y-122510514D01*
X140984837Y-122510514D02*
X140937218Y-122700990D01*
X140937218Y-122700990D02*
X140937218Y-123081942D01*
X140937218Y-123081942D02*
X140984837Y-123177180D01*
X140984837Y-123177180D02*
X141032456Y-123224800D01*
X141032456Y-123224800D02*
X141127694Y-123272419D01*
X141127694Y-123272419D02*
X141318170Y-123272419D01*
X141318170Y-123272419D02*
X141413408Y-123224800D01*
X141413408Y-123224800D02*
X141461027Y-123177180D01*
X141461027Y-123177180D02*
X141508646Y-123081942D01*
X141508646Y-123081942D02*
X141508646Y-122843847D01*
X141508646Y-122843847D02*
X141461027Y-122748609D01*
X141461027Y-122748609D02*
X141413408Y-122700990D01*
X141413408Y-122700990D02*
X141318170Y-122653371D01*
X141318170Y-122653371D02*
X141127694Y-122653371D01*
X141127694Y-122653371D02*
X141032456Y-122700990D01*
X141032456Y-122700990D02*
X140984837Y-122748609D01*
X140984837Y-122748609D02*
X140937218Y-122843847D01*
X141889599Y-122367657D02*
X141937218Y-122320038D01*
X141937218Y-122320038D02*
X142032456Y-122272419D01*
X142032456Y-122272419D02*
X142270551Y-122272419D01*
X142270551Y-122272419D02*
X142365789Y-122320038D01*
X142365789Y-122320038D02*
X142413408Y-122367657D01*
X142413408Y-122367657D02*
X142461027Y-122462895D01*
X142461027Y-122462895D02*
X142461027Y-122558133D01*
X142461027Y-122558133D02*
X142413408Y-122700990D01*
X142413408Y-122700990D02*
X141841980Y-123272419D01*
X141841980Y-123272419D02*
X142461027Y-123272419D01*
X142889599Y-123272419D02*
X142889599Y-122272419D01*
X142889599Y-122653371D02*
X142984837Y-122605752D01*
X142984837Y-122605752D02*
X143175313Y-122605752D01*
X143175313Y-122605752D02*
X143270551Y-122653371D01*
X143270551Y-122653371D02*
X143318170Y-122700990D01*
X143318170Y-122700990D02*
X143365789Y-122796228D01*
X143365789Y-122796228D02*
X143365789Y-123081942D01*
X143365789Y-123081942D02*
X143318170Y-123177180D01*
X143318170Y-123177180D02*
X143270551Y-123224800D01*
X143270551Y-123224800D02*
X143175313Y-123272419D01*
X143175313Y-123272419D02*
X142984837Y-123272419D01*
X142984837Y-123272419D02*
X142889599Y-123224800D01*
X144508646Y-122224800D02*
X143651504Y-123510514D01*
X145032456Y-122796228D02*
X145032456Y-123272419D01*
X144699123Y-122272419D02*
X145032456Y-122796228D01*
X145032456Y-122796228D02*
X145365789Y-122272419D01*
X146080075Y-123224800D02*
X145984837Y-123272419D01*
X145984837Y-123272419D02*
X145794361Y-123272419D01*
X145794361Y-123272419D02*
X145699123Y-123224800D01*
X145699123Y-123224800D02*
X145651504Y-123129561D01*
X145651504Y-123129561D02*
X145651504Y-122748609D01*
X145651504Y-122748609D02*
X145699123Y-122653371D01*
X145699123Y-122653371D02*
X145794361Y-122605752D01*
X145794361Y-122605752D02*
X145984837Y-122605752D01*
X145984837Y-122605752D02*
X146080075Y-122653371D01*
X146080075Y-122653371D02*
X146127694Y-122748609D01*
X146127694Y-122748609D02*
X146127694Y-122843847D01*
X146127694Y-122843847D02*
X145651504Y-122939085D01*
X146413409Y-122605752D02*
X146794361Y-122605752D01*
X146556266Y-122272419D02*
X146556266Y-123129561D01*
X146556266Y-123129561D02*
X146603885Y-123224800D01*
X146603885Y-123224800D02*
X146699123Y-123272419D01*
X146699123Y-123272419D02*
X146794361Y-123272419D01*
X147080076Y-122986704D02*
X147556266Y-122986704D01*
X146984838Y-123272419D02*
X147318171Y-122272419D01*
X147318171Y-122272419D02*
X147651504Y-123272419D01*
X147984838Y-122605752D02*
X147984838Y-123272419D01*
X147984838Y-122700990D02*
X148032457Y-122653371D01*
X148032457Y-122653371D02*
X148127695Y-122605752D01*
X148127695Y-122605752D02*
X148270552Y-122605752D01*
X148270552Y-122605752D02*
X148365790Y-122653371D01*
X148365790Y-122653371D02*
X148413409Y-122748609D01*
X148413409Y-122748609D02*
X148413409Y-123272419D01*
X149032457Y-123272419D02*
X148937219Y-123224800D01*
X148937219Y-123224800D02*
X148889600Y-123177180D01*
X148889600Y-123177180D02*
X148841981Y-123081942D01*
X148841981Y-123081942D02*
X148841981Y-122796228D01*
X148841981Y-122796228D02*
X148889600Y-122700990D01*
X148889600Y-122700990D02*
X148937219Y-122653371D01*
X148937219Y-122653371D02*
X149032457Y-122605752D01*
X149032457Y-122605752D02*
X149175314Y-122605752D01*
X149175314Y-122605752D02*
X149270552Y-122653371D01*
X149270552Y-122653371D02*
X149318171Y-122700990D01*
X149318171Y-122700990D02*
X149365790Y-122796228D01*
X149365790Y-122796228D02*
X149365790Y-123081942D01*
X149365790Y-123081942D02*
X149318171Y-123177180D01*
X149318171Y-123177180D02*
X149270552Y-123224800D01*
X149270552Y-123224800D02*
X149175314Y-123272419D01*
X149175314Y-123272419D02*
X149032457Y-123272419D01*
X149651505Y-122605752D02*
X150032457Y-122605752D01*
X149794362Y-122272419D02*
X149794362Y-123129561D01*
X149794362Y-123129561D02*
X149841981Y-123224800D01*
X149841981Y-123224800D02*
X149937219Y-123272419D01*
X149937219Y-123272419D02*
X150032457Y-123272419D01*
X150365791Y-123272419D02*
X150365791Y-122272419D01*
X150794362Y-123272419D02*
X150794362Y-122748609D01*
X150794362Y-122748609D02*
X150746743Y-122653371D01*
X150746743Y-122653371D02*
X150651505Y-122605752D01*
X150651505Y-122605752D02*
X150508648Y-122605752D01*
X150508648Y-122605752D02*
X150413410Y-122653371D01*
X150413410Y-122653371D02*
X150365791Y-122700990D01*
X151651505Y-123224800D02*
X151556267Y-123272419D01*
X151556267Y-123272419D02*
X151365791Y-123272419D01*
X151365791Y-123272419D02*
X151270553Y-123224800D01*
X151270553Y-123224800D02*
X151222934Y-123129561D01*
X151222934Y-123129561D02*
X151222934Y-122748609D01*
X151222934Y-122748609D02*
X151270553Y-122653371D01*
X151270553Y-122653371D02*
X151365791Y-122605752D01*
X151365791Y-122605752D02*
X151556267Y-122605752D01*
X151556267Y-122605752D02*
X151651505Y-122653371D01*
X151651505Y-122653371D02*
X151699124Y-122748609D01*
X151699124Y-122748609D02*
X151699124Y-122843847D01*
X151699124Y-122843847D02*
X151222934Y-122939085D01*
X152127696Y-123272419D02*
X152127696Y-122605752D01*
X152127696Y-122796228D02*
X152175315Y-122700990D01*
X152175315Y-122700990D02*
X152222934Y-122653371D01*
X152222934Y-122653371D02*
X152318172Y-122605752D01*
X152318172Y-122605752D02*
X152413410Y-122605752D01*
X152746744Y-122272419D02*
X152746744Y-123081942D01*
X152746744Y-123081942D02*
X152794363Y-123177180D01*
X152794363Y-123177180D02*
X152841982Y-123224800D01*
X152841982Y-123224800D02*
X152937220Y-123272419D01*
X152937220Y-123272419D02*
X153127696Y-123272419D01*
X153127696Y-123272419D02*
X153222934Y-123224800D01*
X153222934Y-123224800D02*
X153270553Y-123177180D01*
X153270553Y-123177180D02*
X153318172Y-123081942D01*
X153318172Y-123081942D02*
X153318172Y-122272419D01*
X153746744Y-123224800D02*
X153889601Y-123272419D01*
X153889601Y-123272419D02*
X154127696Y-123272419D01*
X154127696Y-123272419D02*
X154222934Y-123224800D01*
X154222934Y-123224800D02*
X154270553Y-123177180D01*
X154270553Y-123177180D02*
X154318172Y-123081942D01*
X154318172Y-123081942D02*
X154318172Y-122986704D01*
X154318172Y-122986704D02*
X154270553Y-122891466D01*
X154270553Y-122891466D02*
X154222934Y-122843847D01*
X154222934Y-122843847D02*
X154127696Y-122796228D01*
X154127696Y-122796228D02*
X153937220Y-122748609D01*
X153937220Y-122748609D02*
X153841982Y-122700990D01*
X153841982Y-122700990D02*
X153794363Y-122653371D01*
X153794363Y-122653371D02*
X153746744Y-122558133D01*
X153746744Y-122558133D02*
X153746744Y-122462895D01*
X153746744Y-122462895D02*
X153794363Y-122367657D01*
X153794363Y-122367657D02*
X153841982Y-122320038D01*
X153841982Y-122320038D02*
X153937220Y-122272419D01*
X153937220Y-122272419D02*
X154175315Y-122272419D01*
X154175315Y-122272419D02*
X154318172Y-122320038D01*
X155080077Y-122748609D02*
X155222934Y-122796228D01*
X155222934Y-122796228D02*
X155270553Y-122843847D01*
X155270553Y-122843847D02*
X155318172Y-122939085D01*
X155318172Y-122939085D02*
X155318172Y-123081942D01*
X155318172Y-123081942D02*
X155270553Y-123177180D01*
X155270553Y-123177180D02*
X155222934Y-123224800D01*
X155222934Y-123224800D02*
X155127696Y-123272419D01*
X155127696Y-123272419D02*
X154746744Y-123272419D01*
X154746744Y-123272419D02*
X154746744Y-122272419D01*
X154746744Y-122272419D02*
X155080077Y-122272419D01*
X155080077Y-122272419D02*
X155175315Y-122320038D01*
X155175315Y-122320038D02*
X155222934Y-122367657D01*
X155222934Y-122367657D02*
X155270553Y-122462895D01*
X155270553Y-122462895D02*
X155270553Y-122558133D01*
X155270553Y-122558133D02*
X155222934Y-122653371D01*
X155222934Y-122653371D02*
X155175315Y-122700990D01*
X155175315Y-122700990D02*
X155080077Y-122748609D01*
X155080077Y-122748609D02*
X154746744Y-122748609D01*
X155746744Y-123272419D02*
X155746744Y-122272419D01*
X155746744Y-122748609D02*
X156318172Y-122748609D01*
X156318172Y-123272419D02*
X156318172Y-122272419D01*
X157222934Y-122605752D02*
X157222934Y-123272419D01*
X156794363Y-122605752D02*
X156794363Y-123129561D01*
X156794363Y-123129561D02*
X156841982Y-123224800D01*
X156841982Y-123224800D02*
X156937220Y-123272419D01*
X156937220Y-123272419D02*
X157080077Y-123272419D01*
X157080077Y-123272419D02*
X157175315Y-123224800D01*
X157175315Y-123224800D02*
X157222934Y-123177180D01*
X157699125Y-123272419D02*
X157699125Y-122272419D01*
X157699125Y-122653371D02*
X157794363Y-122605752D01*
X157794363Y-122605752D02*
X157984839Y-122605752D01*
X157984839Y-122605752D02*
X158080077Y-122653371D01*
X158080077Y-122653371D02*
X158127696Y-122700990D01*
X158127696Y-122700990D02*
X158175315Y-122796228D01*
X158175315Y-122796228D02*
X158175315Y-123081942D01*
X158175315Y-123081942D02*
X158127696Y-123177180D01*
X158127696Y-123177180D02*
X158080077Y-123224800D01*
X158080077Y-123224800D02*
X157984839Y-123272419D01*
X157984839Y-123272419D02*
X157794363Y-123272419D01*
X157794363Y-123272419D02*
X157699125Y-123224800D01*
D11*
X93733333Y-117654819D02*
X93400000Y-117178628D01*
X93161905Y-117654819D02*
X93161905Y-116654819D01*
X93161905Y-116654819D02*
X93542857Y-116654819D01*
X93542857Y-116654819D02*
X93638095Y-116702438D01*
X93638095Y-116702438D02*
X93685714Y-116750057D01*
X93685714Y-116750057D02*
X93733333Y-116845295D01*
X93733333Y-116845295D02*
X93733333Y-116988152D01*
X93733333Y-116988152D02*
X93685714Y-117083390D01*
X93685714Y-117083390D02*
X93638095Y-117131009D01*
X93638095Y-117131009D02*
X93542857Y-117178628D01*
X93542857Y-117178628D02*
X93161905Y-117178628D01*
X94114286Y-116750057D02*
X94161905Y-116702438D01*
X94161905Y-116702438D02*
X94257143Y-116654819D01*
X94257143Y-116654819D02*
X94495238Y-116654819D01*
X94495238Y-116654819D02*
X94590476Y-116702438D01*
X94590476Y-116702438D02*
X94638095Y-116750057D01*
X94638095Y-116750057D02*
X94685714Y-116845295D01*
X94685714Y-116845295D02*
X94685714Y-116940533D01*
X94685714Y-116940533D02*
X94638095Y-117083390D01*
X94638095Y-117083390D02*
X94066667Y-117654819D01*
X94066667Y-117654819D02*
X94685714Y-117654819D01*
X119354819Y-129866666D02*
X118878628Y-130199999D01*
X119354819Y-130438094D02*
X118354819Y-130438094D01*
X118354819Y-130438094D02*
X118354819Y-130057142D01*
X118354819Y-130057142D02*
X118402438Y-129961904D01*
X118402438Y-129961904D02*
X118450057Y-129914285D01*
X118450057Y-129914285D02*
X118545295Y-129866666D01*
X118545295Y-129866666D02*
X118688152Y-129866666D01*
X118688152Y-129866666D02*
X118783390Y-129914285D01*
X118783390Y-129914285D02*
X118831009Y-129961904D01*
X118831009Y-129961904D02*
X118878628Y-130057142D01*
X118878628Y-130057142D02*
X118878628Y-130438094D01*
X118688152Y-129009523D02*
X119354819Y-129009523D01*
X118307200Y-129247618D02*
X119021485Y-129485713D01*
X119021485Y-129485713D02*
X119021485Y-128866666D01*
X142159580Y-127666666D02*
X142207200Y-127714285D01*
X142207200Y-127714285D02*
X142254819Y-127857142D01*
X142254819Y-127857142D02*
X142254819Y-127952380D01*
X142254819Y-127952380D02*
X142207200Y-128095237D01*
X142207200Y-128095237D02*
X142111961Y-128190475D01*
X142111961Y-128190475D02*
X142016723Y-128238094D01*
X142016723Y-128238094D02*
X141826247Y-128285713D01*
X141826247Y-128285713D02*
X141683390Y-128285713D01*
X141683390Y-128285713D02*
X141492914Y-128238094D01*
X141492914Y-128238094D02*
X141397676Y-128190475D01*
X141397676Y-128190475D02*
X141302438Y-128095237D01*
X141302438Y-128095237D02*
X141254819Y-127952380D01*
X141254819Y-127952380D02*
X141254819Y-127857142D01*
X141254819Y-127857142D02*
X141302438Y-127714285D01*
X141302438Y-127714285D02*
X141350057Y-127666666D01*
X141350057Y-127285713D02*
X141302438Y-127238094D01*
X141302438Y-127238094D02*
X141254819Y-127142856D01*
X141254819Y-127142856D02*
X141254819Y-126904761D01*
X141254819Y-126904761D02*
X141302438Y-126809523D01*
X141302438Y-126809523D02*
X141350057Y-126761904D01*
X141350057Y-126761904D02*
X141445295Y-126714285D01*
X141445295Y-126714285D02*
X141540533Y-126714285D01*
X141540533Y-126714285D02*
X141683390Y-126761904D01*
X141683390Y-126761904D02*
X142254819Y-127333332D01*
X142254819Y-127333332D02*
X142254819Y-126714285D01*
X112833333Y-131554819D02*
X112500000Y-131078628D01*
X112261905Y-131554819D02*
X112261905Y-130554819D01*
X112261905Y-130554819D02*
X112642857Y-130554819D01*
X112642857Y-130554819D02*
X112738095Y-130602438D01*
X112738095Y-130602438D02*
X112785714Y-130650057D01*
X112785714Y-130650057D02*
X112833333Y-130745295D01*
X112833333Y-130745295D02*
X112833333Y-130888152D01*
X112833333Y-130888152D02*
X112785714Y-130983390D01*
X112785714Y-130983390D02*
X112738095Y-131031009D01*
X112738095Y-131031009D02*
X112642857Y-131078628D01*
X112642857Y-131078628D02*
X112261905Y-131078628D01*
X113166667Y-130554819D02*
X113785714Y-130554819D01*
X113785714Y-130554819D02*
X113452381Y-130935771D01*
X113452381Y-130935771D02*
X113595238Y-130935771D01*
X113595238Y-130935771D02*
X113690476Y-130983390D01*
X113690476Y-130983390D02*
X113738095Y-131031009D01*
X113738095Y-131031009D02*
X113785714Y-131126247D01*
X113785714Y-131126247D02*
X113785714Y-131364342D01*
X113785714Y-131364342D02*
X113738095Y-131459580D01*
X113738095Y-131459580D02*
X113690476Y-131507200D01*
X113690476Y-131507200D02*
X113595238Y-131554819D01*
X113595238Y-131554819D02*
X113309524Y-131554819D01*
X113309524Y-131554819D02*
X113214286Y-131507200D01*
X113214286Y-131507200D02*
X113166667Y-131459580D01*
X93633333Y-114254819D02*
X93300000Y-113778628D01*
X93061905Y-114254819D02*
X93061905Y-113254819D01*
X93061905Y-113254819D02*
X93442857Y-113254819D01*
X93442857Y-113254819D02*
X93538095Y-113302438D01*
X93538095Y-113302438D02*
X93585714Y-113350057D01*
X93585714Y-113350057D02*
X93633333Y-113445295D01*
X93633333Y-113445295D02*
X93633333Y-113588152D01*
X93633333Y-113588152D02*
X93585714Y-113683390D01*
X93585714Y-113683390D02*
X93538095Y-113731009D01*
X93538095Y-113731009D02*
X93442857Y-113778628D01*
X93442857Y-113778628D02*
X93061905Y-113778628D01*
X94585714Y-114254819D02*
X94014286Y-114254819D01*
X94300000Y-114254819D02*
X94300000Y-113254819D01*
X94300000Y-113254819D02*
X94204762Y-113397676D01*
X94204762Y-113397676D02*
X94109524Y-113492914D01*
X94109524Y-113492914D02*
X94014286Y-113540533D01*
X109359580Y-139666666D02*
X109407200Y-139714285D01*
X109407200Y-139714285D02*
X109454819Y-139857142D01*
X109454819Y-139857142D02*
X109454819Y-139952380D01*
X109454819Y-139952380D02*
X109407200Y-140095237D01*
X109407200Y-140095237D02*
X109311961Y-140190475D01*
X109311961Y-140190475D02*
X109216723Y-140238094D01*
X109216723Y-140238094D02*
X109026247Y-140285713D01*
X109026247Y-140285713D02*
X108883390Y-140285713D01*
X108883390Y-140285713D02*
X108692914Y-140238094D01*
X108692914Y-140238094D02*
X108597676Y-140190475D01*
X108597676Y-140190475D02*
X108502438Y-140095237D01*
X108502438Y-140095237D02*
X108454819Y-139952380D01*
X108454819Y-139952380D02*
X108454819Y-139857142D01*
X108454819Y-139857142D02*
X108502438Y-139714285D01*
X108502438Y-139714285D02*
X108550057Y-139666666D01*
X109454819Y-139190475D02*
X109454819Y-138999999D01*
X109454819Y-138999999D02*
X109407200Y-138904761D01*
X109407200Y-138904761D02*
X109359580Y-138857142D01*
X109359580Y-138857142D02*
X109216723Y-138761904D01*
X109216723Y-138761904D02*
X109026247Y-138714285D01*
X109026247Y-138714285D02*
X108645295Y-138714285D01*
X108645295Y-138714285D02*
X108550057Y-138761904D01*
X108550057Y-138761904D02*
X108502438Y-138809523D01*
X108502438Y-138809523D02*
X108454819Y-138904761D01*
X108454819Y-138904761D02*
X108454819Y-139095237D01*
X108454819Y-139095237D02*
X108502438Y-139190475D01*
X108502438Y-139190475D02*
X108550057Y-139238094D01*
X108550057Y-139238094D02*
X108645295Y-139285713D01*
X108645295Y-139285713D02*
X108883390Y-139285713D01*
X108883390Y-139285713D02*
X108978628Y-139238094D01*
X108978628Y-139238094D02*
X109026247Y-139190475D01*
X109026247Y-139190475D02*
X109073866Y-139095237D01*
X109073866Y-139095237D02*
X109073866Y-138904761D01*
X109073866Y-138904761D02*
X109026247Y-138809523D01*
X109026247Y-138809523D02*
X108978628Y-138761904D01*
X108978628Y-138761904D02*
X108883390Y-138714285D01*
X99733333Y-119199580D02*
X99685714Y-119247200D01*
X99685714Y-119247200D02*
X99542857Y-119294819D01*
X99542857Y-119294819D02*
X99447619Y-119294819D01*
X99447619Y-119294819D02*
X99304762Y-119247200D01*
X99304762Y-119247200D02*
X99209524Y-119151961D01*
X99209524Y-119151961D02*
X99161905Y-119056723D01*
X99161905Y-119056723D02*
X99114286Y-118866247D01*
X99114286Y-118866247D02*
X99114286Y-118723390D01*
X99114286Y-118723390D02*
X99161905Y-118532914D01*
X99161905Y-118532914D02*
X99209524Y-118437676D01*
X99209524Y-118437676D02*
X99304762Y-118342438D01*
X99304762Y-118342438D02*
X99447619Y-118294819D01*
X99447619Y-118294819D02*
X99542857Y-118294819D01*
X99542857Y-118294819D02*
X99685714Y-118342438D01*
X99685714Y-118342438D02*
X99733333Y-118390057D01*
X100685714Y-119294819D02*
X100114286Y-119294819D01*
X100400000Y-119294819D02*
X100400000Y-118294819D01*
X100400000Y-118294819D02*
X100304762Y-118437676D01*
X100304762Y-118437676D02*
X100209524Y-118532914D01*
X100209524Y-118532914D02*
X100114286Y-118580533D01*
X85961905Y-138984819D02*
X85961905Y-137984819D01*
X85961905Y-137984819D02*
X86200000Y-137984819D01*
X86200000Y-137984819D02*
X86342857Y-138032438D01*
X86342857Y-138032438D02*
X86438095Y-138127676D01*
X86438095Y-138127676D02*
X86485714Y-138222914D01*
X86485714Y-138222914D02*
X86533333Y-138413390D01*
X86533333Y-138413390D02*
X86533333Y-138556247D01*
X86533333Y-138556247D02*
X86485714Y-138746723D01*
X86485714Y-138746723D02*
X86438095Y-138841961D01*
X86438095Y-138841961D02*
X86342857Y-138937200D01*
X86342857Y-138937200D02*
X86200000Y-138984819D01*
X86200000Y-138984819D02*
X85961905Y-138984819D01*
X86914286Y-138080057D02*
X86961905Y-138032438D01*
X86961905Y-138032438D02*
X87057143Y-137984819D01*
X87057143Y-137984819D02*
X87295238Y-137984819D01*
X87295238Y-137984819D02*
X87390476Y-138032438D01*
X87390476Y-138032438D02*
X87438095Y-138080057D01*
X87438095Y-138080057D02*
X87485714Y-138175295D01*
X87485714Y-138175295D02*
X87485714Y-138270533D01*
X87485714Y-138270533D02*
X87438095Y-138413390D01*
X87438095Y-138413390D02*
X86866667Y-138984819D01*
X86866667Y-138984819D02*
X87485714Y-138984819D01*
X96511905Y-121504819D02*
X96511905Y-120504819D01*
X96511905Y-120504819D02*
X96750000Y-120504819D01*
X96750000Y-120504819D02*
X96892857Y-120552438D01*
X96892857Y-120552438D02*
X96988095Y-120647676D01*
X96988095Y-120647676D02*
X97035714Y-120742914D01*
X97035714Y-120742914D02*
X97083333Y-120933390D01*
X97083333Y-120933390D02*
X97083333Y-121076247D01*
X97083333Y-121076247D02*
X97035714Y-121266723D01*
X97035714Y-121266723D02*
X96988095Y-121361961D01*
X96988095Y-121361961D02*
X96892857Y-121457200D01*
X96892857Y-121457200D02*
X96750000Y-121504819D01*
X96750000Y-121504819D02*
X96511905Y-121504819D01*
X98035714Y-121504819D02*
X97464286Y-121504819D01*
X97750000Y-121504819D02*
X97750000Y-120504819D01*
X97750000Y-120504819D02*
X97654762Y-120647676D01*
X97654762Y-120647676D02*
X97559524Y-120742914D01*
X97559524Y-120742914D02*
X97464286Y-120790533D01*
X110083333Y-129449580D02*
X110035714Y-129497200D01*
X110035714Y-129497200D02*
X109892857Y-129544819D01*
X109892857Y-129544819D02*
X109797619Y-129544819D01*
X109797619Y-129544819D02*
X109654762Y-129497200D01*
X109654762Y-129497200D02*
X109559524Y-129401961D01*
X109559524Y-129401961D02*
X109511905Y-129306723D01*
X109511905Y-129306723D02*
X109464286Y-129116247D01*
X109464286Y-129116247D02*
X109464286Y-128973390D01*
X109464286Y-128973390D02*
X109511905Y-128782914D01*
X109511905Y-128782914D02*
X109559524Y-128687676D01*
X109559524Y-128687676D02*
X109654762Y-128592438D01*
X109654762Y-128592438D02*
X109797619Y-128544819D01*
X109797619Y-128544819D02*
X109892857Y-128544819D01*
X109892857Y-128544819D02*
X110035714Y-128592438D01*
X110035714Y-128592438D02*
X110083333Y-128640057D01*
X110940476Y-128878152D02*
X110940476Y-129544819D01*
X110702381Y-128497200D02*
X110464286Y-129211485D01*
X110464286Y-129211485D02*
X111083333Y-129211485D01*
X124499580Y-127566666D02*
X124547200Y-127614285D01*
X124547200Y-127614285D02*
X124594819Y-127757142D01*
X124594819Y-127757142D02*
X124594819Y-127852380D01*
X124594819Y-127852380D02*
X124547200Y-127995237D01*
X124547200Y-127995237D02*
X124451961Y-128090475D01*
X124451961Y-128090475D02*
X124356723Y-128138094D01*
X124356723Y-128138094D02*
X124166247Y-128185713D01*
X124166247Y-128185713D02*
X124023390Y-128185713D01*
X124023390Y-128185713D02*
X123832914Y-128138094D01*
X123832914Y-128138094D02*
X123737676Y-128090475D01*
X123737676Y-128090475D02*
X123642438Y-127995237D01*
X123642438Y-127995237D02*
X123594819Y-127852380D01*
X123594819Y-127852380D02*
X123594819Y-127757142D01*
X123594819Y-127757142D02*
X123642438Y-127614285D01*
X123642438Y-127614285D02*
X123690057Y-127566666D01*
X123594819Y-127233332D02*
X123594819Y-126614285D01*
X123594819Y-126614285D02*
X123975771Y-126947618D01*
X123975771Y-126947618D02*
X123975771Y-126804761D01*
X123975771Y-126804761D02*
X124023390Y-126709523D01*
X124023390Y-126709523D02*
X124071009Y-126661904D01*
X124071009Y-126661904D02*
X124166247Y-126614285D01*
X124166247Y-126614285D02*
X124404342Y-126614285D01*
X124404342Y-126614285D02*
X124499580Y-126661904D01*
X124499580Y-126661904D02*
X124547200Y-126709523D01*
X124547200Y-126709523D02*
X124594819Y-126804761D01*
X124594819Y-126804761D02*
X124594819Y-127090475D01*
X124594819Y-127090475D02*
X124547200Y-127185713D01*
X124547200Y-127185713D02*
X124499580Y-127233332D01*
X84333333Y-138984819D02*
X84000000Y-138508628D01*
X83761905Y-138984819D02*
X83761905Y-137984819D01*
X83761905Y-137984819D02*
X84142857Y-137984819D01*
X84142857Y-137984819D02*
X84238095Y-138032438D01*
X84238095Y-138032438D02*
X84285714Y-138080057D01*
X84285714Y-138080057D02*
X84333333Y-138175295D01*
X84333333Y-138175295D02*
X84333333Y-138318152D01*
X84333333Y-138318152D02*
X84285714Y-138413390D01*
X84285714Y-138413390D02*
X84238095Y-138461009D01*
X84238095Y-138461009D02*
X84142857Y-138508628D01*
X84142857Y-138508628D02*
X83761905Y-138508628D01*
X85238095Y-137984819D02*
X84761905Y-137984819D01*
X84761905Y-137984819D02*
X84714286Y-138461009D01*
X84714286Y-138461009D02*
X84761905Y-138413390D01*
X84761905Y-138413390D02*
X84857143Y-138365771D01*
X84857143Y-138365771D02*
X85095238Y-138365771D01*
X85095238Y-138365771D02*
X85190476Y-138413390D01*
X85190476Y-138413390D02*
X85238095Y-138461009D01*
X85238095Y-138461009D02*
X85285714Y-138556247D01*
X85285714Y-138556247D02*
X85285714Y-138794342D01*
X85285714Y-138794342D02*
X85238095Y-138889580D01*
X85238095Y-138889580D02*
X85190476Y-138937200D01*
X85190476Y-138937200D02*
X85095238Y-138984819D01*
X85095238Y-138984819D02*
X84857143Y-138984819D01*
X84857143Y-138984819D02*
X84761905Y-138937200D01*
X84761905Y-138937200D02*
X84714286Y-138889580D01*
X108609580Y-126416666D02*
X108657200Y-126464285D01*
X108657200Y-126464285D02*
X108704819Y-126607142D01*
X108704819Y-126607142D02*
X108704819Y-126702380D01*
X108704819Y-126702380D02*
X108657200Y-126845237D01*
X108657200Y-126845237D02*
X108561961Y-126940475D01*
X108561961Y-126940475D02*
X108466723Y-126988094D01*
X108466723Y-126988094D02*
X108276247Y-127035713D01*
X108276247Y-127035713D02*
X108133390Y-127035713D01*
X108133390Y-127035713D02*
X107942914Y-126988094D01*
X107942914Y-126988094D02*
X107847676Y-126940475D01*
X107847676Y-126940475D02*
X107752438Y-126845237D01*
X107752438Y-126845237D02*
X107704819Y-126702380D01*
X107704819Y-126702380D02*
X107704819Y-126607142D01*
X107704819Y-126607142D02*
X107752438Y-126464285D01*
X107752438Y-126464285D02*
X107800057Y-126416666D01*
X107704819Y-125511904D02*
X107704819Y-125988094D01*
X107704819Y-125988094D02*
X108181009Y-126035713D01*
X108181009Y-126035713D02*
X108133390Y-125988094D01*
X108133390Y-125988094D02*
X108085771Y-125892856D01*
X108085771Y-125892856D02*
X108085771Y-125654761D01*
X108085771Y-125654761D02*
X108133390Y-125559523D01*
X108133390Y-125559523D02*
X108181009Y-125511904D01*
X108181009Y-125511904D02*
X108276247Y-125464285D01*
X108276247Y-125464285D02*
X108514342Y-125464285D01*
X108514342Y-125464285D02*
X108609580Y-125511904D01*
X108609580Y-125511904D02*
X108657200Y-125559523D01*
X108657200Y-125559523D02*
X108704819Y-125654761D01*
X108704819Y-125654761D02*
X108704819Y-125892856D01*
X108704819Y-125892856D02*
X108657200Y-125988094D01*
X108657200Y-125988094D02*
X108609580Y-126035713D01*
X120459580Y-129942857D02*
X120507200Y-129990476D01*
X120507200Y-129990476D02*
X120554819Y-130133333D01*
X120554819Y-130133333D02*
X120554819Y-130228571D01*
X120554819Y-130228571D02*
X120507200Y-130371428D01*
X120507200Y-130371428D02*
X120411961Y-130466666D01*
X120411961Y-130466666D02*
X120316723Y-130514285D01*
X120316723Y-130514285D02*
X120126247Y-130561904D01*
X120126247Y-130561904D02*
X119983390Y-130561904D01*
X119983390Y-130561904D02*
X119792914Y-130514285D01*
X119792914Y-130514285D02*
X119697676Y-130466666D01*
X119697676Y-130466666D02*
X119602438Y-130371428D01*
X119602438Y-130371428D02*
X119554819Y-130228571D01*
X119554819Y-130228571D02*
X119554819Y-130133333D01*
X119554819Y-130133333D02*
X119602438Y-129990476D01*
X119602438Y-129990476D02*
X119650057Y-129942857D01*
X120554819Y-128990476D02*
X120554819Y-129561904D01*
X120554819Y-129276190D02*
X119554819Y-129276190D01*
X119554819Y-129276190D02*
X119697676Y-129371428D01*
X119697676Y-129371428D02*
X119792914Y-129466666D01*
X119792914Y-129466666D02*
X119840533Y-129561904D01*
X119554819Y-128371428D02*
X119554819Y-128276190D01*
X119554819Y-128276190D02*
X119602438Y-128180952D01*
X119602438Y-128180952D02*
X119650057Y-128133333D01*
X119650057Y-128133333D02*
X119745295Y-128085714D01*
X119745295Y-128085714D02*
X119935771Y-128038095D01*
X119935771Y-128038095D02*
X120173866Y-128038095D01*
X120173866Y-128038095D02*
X120364342Y-128085714D01*
X120364342Y-128085714D02*
X120459580Y-128133333D01*
X120459580Y-128133333D02*
X120507200Y-128180952D01*
X120507200Y-128180952D02*
X120554819Y-128276190D01*
X120554819Y-128276190D02*
X120554819Y-128371428D01*
X120554819Y-128371428D02*
X120507200Y-128466666D01*
X120507200Y-128466666D02*
X120459580Y-128514285D01*
X120459580Y-128514285D02*
X120364342Y-128561904D01*
X120364342Y-128561904D02*
X120173866Y-128609523D01*
X120173866Y-128609523D02*
X119935771Y-128609523D01*
X119935771Y-128609523D02*
X119745295Y-128561904D01*
X119745295Y-128561904D02*
X119650057Y-128514285D01*
X119650057Y-128514285D02*
X119602438Y-128466666D01*
X119602438Y-128466666D02*
X119554819Y-128371428D01*
X106859580Y-126416666D02*
X106907200Y-126464285D01*
X106907200Y-126464285D02*
X106954819Y-126607142D01*
X106954819Y-126607142D02*
X106954819Y-126702380D01*
X106954819Y-126702380D02*
X106907200Y-126845237D01*
X106907200Y-126845237D02*
X106811961Y-126940475D01*
X106811961Y-126940475D02*
X106716723Y-126988094D01*
X106716723Y-126988094D02*
X106526247Y-127035713D01*
X106526247Y-127035713D02*
X106383390Y-127035713D01*
X106383390Y-127035713D02*
X106192914Y-126988094D01*
X106192914Y-126988094D02*
X106097676Y-126940475D01*
X106097676Y-126940475D02*
X106002438Y-126845237D01*
X106002438Y-126845237D02*
X105954819Y-126702380D01*
X105954819Y-126702380D02*
X105954819Y-126607142D01*
X105954819Y-126607142D02*
X106002438Y-126464285D01*
X106002438Y-126464285D02*
X106050057Y-126416666D01*
X106383390Y-125845237D02*
X106335771Y-125940475D01*
X106335771Y-125940475D02*
X106288152Y-125988094D01*
X106288152Y-125988094D02*
X106192914Y-126035713D01*
X106192914Y-126035713D02*
X106145295Y-126035713D01*
X106145295Y-126035713D02*
X106050057Y-125988094D01*
X106050057Y-125988094D02*
X106002438Y-125940475D01*
X106002438Y-125940475D02*
X105954819Y-125845237D01*
X105954819Y-125845237D02*
X105954819Y-125654761D01*
X105954819Y-125654761D02*
X106002438Y-125559523D01*
X106002438Y-125559523D02*
X106050057Y-125511904D01*
X106050057Y-125511904D02*
X106145295Y-125464285D01*
X106145295Y-125464285D02*
X106192914Y-125464285D01*
X106192914Y-125464285D02*
X106288152Y-125511904D01*
X106288152Y-125511904D02*
X106335771Y-125559523D01*
X106335771Y-125559523D02*
X106383390Y-125654761D01*
X106383390Y-125654761D02*
X106383390Y-125845237D01*
X106383390Y-125845237D02*
X106431009Y-125940475D01*
X106431009Y-125940475D02*
X106478628Y-125988094D01*
X106478628Y-125988094D02*
X106573866Y-126035713D01*
X106573866Y-126035713D02*
X106764342Y-126035713D01*
X106764342Y-126035713D02*
X106859580Y-125988094D01*
X106859580Y-125988094D02*
X106907200Y-125940475D01*
X106907200Y-125940475D02*
X106954819Y-125845237D01*
X106954819Y-125845237D02*
X106954819Y-125654761D01*
X106954819Y-125654761D02*
X106907200Y-125559523D01*
X106907200Y-125559523D02*
X106859580Y-125511904D01*
X106859580Y-125511904D02*
X106764342Y-125464285D01*
X106764342Y-125464285D02*
X106573866Y-125464285D01*
X106573866Y-125464285D02*
X106478628Y-125511904D01*
X106478628Y-125511904D02*
X106431009Y-125559523D01*
X106431009Y-125559523D02*
X106383390Y-125654761D01*
X101949580Y-119416666D02*
X101997200Y-119464285D01*
X101997200Y-119464285D02*
X102044819Y-119607142D01*
X102044819Y-119607142D02*
X102044819Y-119702380D01*
X102044819Y-119702380D02*
X101997200Y-119845237D01*
X101997200Y-119845237D02*
X101901961Y-119940475D01*
X101901961Y-119940475D02*
X101806723Y-119988094D01*
X101806723Y-119988094D02*
X101616247Y-120035713D01*
X101616247Y-120035713D02*
X101473390Y-120035713D01*
X101473390Y-120035713D02*
X101282914Y-119988094D01*
X101282914Y-119988094D02*
X101187676Y-119940475D01*
X101187676Y-119940475D02*
X101092438Y-119845237D01*
X101092438Y-119845237D02*
X101044819Y-119702380D01*
X101044819Y-119702380D02*
X101044819Y-119607142D01*
X101044819Y-119607142D02*
X101092438Y-119464285D01*
X101092438Y-119464285D02*
X101140057Y-119416666D01*
X101044819Y-118559523D02*
X101044819Y-118749999D01*
X101044819Y-118749999D02*
X101092438Y-118845237D01*
X101092438Y-118845237D02*
X101140057Y-118892856D01*
X101140057Y-118892856D02*
X101282914Y-118988094D01*
X101282914Y-118988094D02*
X101473390Y-119035713D01*
X101473390Y-119035713D02*
X101854342Y-119035713D01*
X101854342Y-119035713D02*
X101949580Y-118988094D01*
X101949580Y-118988094D02*
X101997200Y-118940475D01*
X101997200Y-118940475D02*
X102044819Y-118845237D01*
X102044819Y-118845237D02*
X102044819Y-118654761D01*
X102044819Y-118654761D02*
X101997200Y-118559523D01*
X101997200Y-118559523D02*
X101949580Y-118511904D01*
X101949580Y-118511904D02*
X101854342Y-118464285D01*
X101854342Y-118464285D02*
X101616247Y-118464285D01*
X101616247Y-118464285D02*
X101521009Y-118511904D01*
X101521009Y-118511904D02*
X101473390Y-118559523D01*
X101473390Y-118559523D02*
X101425771Y-118654761D01*
X101425771Y-118654761D02*
X101425771Y-118845237D01*
X101425771Y-118845237D02*
X101473390Y-118940475D01*
X101473390Y-118940475D02*
X101521009Y-118988094D01*
X101521009Y-118988094D02*
X101616247Y-119035713D01*
%TO.C,J1*%
D12*
X143090000Y-141220000D02*
X143090000Y-141740000D01*
X143090000Y-141740000D02*
X157710000Y-141740000D01*
X143740000Y-126260000D02*
X143740000Y-129590000D01*
X143740000Y-126260000D02*
X157060000Y-126260000D01*
X143740000Y-141220000D02*
X143090000Y-141220000D01*
X143740000Y-141220000D02*
X143740000Y-133110000D01*
X146000000Y-126040000D02*
X147800000Y-126040000D01*
X157060000Y-126260000D02*
X157060000Y-129590000D01*
X157060000Y-133110000D02*
X157060000Y-141220000D01*
X157710000Y-141220000D02*
X157060000Y-141220000D01*
X157710000Y-141740000D02*
X157710000Y-141220000D01*
%TO.C,R2*%
X91046359Y-116720000D02*
X91353641Y-116720000D01*
X91046359Y-117480000D02*
X91353641Y-117480000D01*
%TO.C,R4*%
X118620000Y-131853641D02*
X118620000Y-131546359D01*
X119380000Y-131853641D02*
X119380000Y-131546359D01*
%TO.C,C2*%
X142440000Y-127392164D02*
X142440000Y-127607836D01*
X143160000Y-127392164D02*
X143160000Y-127607836D01*
%TO.C,U1*%
D11*
X103420000Y-119230000D02*
X113580000Y-119230000D01*
X103420000Y-122770000D02*
X103420000Y-119230000D01*
X113580000Y-119230000D02*
X113580000Y-122770000D01*
X113580000Y-122770000D02*
X103420000Y-122770000D01*
D13*
X103470000Y-123870000D02*
G75*
G02*
X103170000Y-123870000I-150000J0D01*
G01*
X103170000Y-123870000D02*
G75*
G02*
X103470000Y-123870000I150000J0D01*
G01*
D14*
X103530000Y-124150000D02*
G75*
G02*
X103470000Y-124150000I-30000J0D01*
G01*
X103470000Y-124150000D02*
G75*
G02*
X103530000Y-124150000I30000J0D01*
G01*
D13*
X104210000Y-122020000D02*
G75*
G02*
X103890000Y-122020000I-160000J0D01*
G01*
X103890000Y-122020000D02*
G75*
G02*
X104210000Y-122020000I160000J0D01*
G01*
%TO.C,R3*%
D12*
X113153641Y-131820000D02*
X112846359Y-131820000D01*
X113153641Y-132580000D02*
X112846359Y-132580000D01*
D15*
%TO.C,G\u002A\u002A\u002A*%
G36*
X95962148Y-130782673D02*
G01*
X95954028Y-130790793D01*
X95945907Y-130782673D01*
X95954028Y-130774552D01*
X95962148Y-130782673D01*
G37*
G36*
X100330818Y-124595077D02*
G01*
X100322698Y-124603197D01*
X100314578Y-124595077D01*
X100322698Y-124586957D01*
X100330818Y-124595077D01*
G37*
G36*
X95972975Y-130731245D02*
G01*
X95974918Y-130750518D01*
X95972975Y-130752899D01*
X95963320Y-130750669D01*
X95962148Y-130742072D01*
X95968090Y-130728704D01*
X95972975Y-130731245D01*
G37*
G36*
X96265302Y-128490068D02*
G01*
X96263073Y-128499723D01*
X96254475Y-128500895D01*
X96241108Y-128494953D01*
X96243648Y-128490068D01*
X96262922Y-128488125D01*
X96265302Y-128490068D01*
G37*
G36*
X96314023Y-128473828D02*
G01*
X96311794Y-128483483D01*
X96303196Y-128484655D01*
X96289829Y-128478713D01*
X96292370Y-128473828D01*
X96311643Y-128471884D01*
X96314023Y-128473828D01*
G37*
G36*
X97126044Y-128213981D02*
G01*
X97123815Y-128223636D01*
X97115217Y-128224808D01*
X97101849Y-128218866D01*
X97104390Y-128213981D01*
X97123664Y-128212038D01*
X97126044Y-128213981D01*
G37*
G36*
X98345090Y-127873948D02*
G01*
X98340246Y-127881329D01*
X98323774Y-127882477D01*
X98306445Y-127878511D01*
X98313962Y-127872666D01*
X98339344Y-127870729D01*
X98345090Y-127873948D01*
G37*
G36*
X98490238Y-131283419D02*
G01*
X98492182Y-131302692D01*
X98490238Y-131305072D01*
X98480583Y-131302843D01*
X98479411Y-131294246D01*
X98485353Y-131280878D01*
X98490238Y-131283419D01*
G37*
G36*
X98775799Y-123877863D02*
G01*
X98777839Y-123883791D01*
X98755498Y-123886055D01*
X98732443Y-123883502D01*
X98735198Y-123877863D01*
X98768447Y-123875718D01*
X98775799Y-123877863D01*
G37*
G36*
X98857001Y-123861623D02*
G01*
X98859041Y-123867550D01*
X98836700Y-123869814D01*
X98813645Y-123867262D01*
X98816400Y-123861623D01*
X98849650Y-123859478D01*
X98857001Y-123861623D01*
G37*
G36*
X99409175Y-123877863D02*
G01*
X99411215Y-123883791D01*
X99388874Y-123886055D01*
X99365819Y-123883502D01*
X99368574Y-123877863D01*
X99401823Y-123875718D01*
X99409175Y-123877863D01*
G37*
G36*
X102323242Y-126971252D02*
G01*
X102325178Y-126996633D01*
X102321960Y-127002379D01*
X102314578Y-126997536D01*
X102313430Y-126981063D01*
X102317396Y-126963734D01*
X102323242Y-126971252D01*
G37*
G36*
X102339144Y-126889035D02*
G01*
X102341289Y-126922284D01*
X102339144Y-126929636D01*
X102333216Y-126931676D01*
X102330953Y-126909335D01*
X102333505Y-126886280D01*
X102339144Y-126889035D01*
G37*
G36*
X104272091Y-129050024D02*
G01*
X104274027Y-129075406D01*
X104270809Y-129081151D01*
X104263427Y-129076308D01*
X104262279Y-129059836D01*
X104266245Y-129042507D01*
X104272091Y-129050024D01*
G37*
G36*
X104288331Y-128985062D02*
G01*
X104290268Y-129010444D01*
X104287049Y-129016190D01*
X104279668Y-129011346D01*
X104278520Y-128994874D01*
X104282486Y-128977545D01*
X104288331Y-128985062D01*
G37*
G36*
X95029247Y-129161361D02*
G01*
X95026401Y-129174029D01*
X95013295Y-129196888D01*
X95004821Y-129193059D01*
X95003964Y-129183951D01*
X95015759Y-129161928D01*
X95020018Y-129158747D01*
X95029247Y-129161361D01*
G37*
G36*
X97848018Y-125436736D02*
G01*
X97858777Y-125463647D01*
X97857651Y-125473977D01*
X97846573Y-125468187D01*
X97839921Y-125455191D01*
X97830720Y-125424353D01*
X97834498Y-125418200D01*
X97848018Y-125436736D01*
G37*
G36*
X100349041Y-124640956D02*
G01*
X100359800Y-124667867D01*
X100358674Y-124678197D01*
X100347596Y-124672407D01*
X100340944Y-124659411D01*
X100331743Y-124628573D01*
X100335521Y-124622420D01*
X100349041Y-124640956D01*
G37*
G36*
X104256039Y-129126661D02*
G01*
X104246772Y-129138602D01*
X104233117Y-129148865D01*
X104236524Y-129132592D01*
X104237681Y-129129511D01*
X104250546Y-129109624D01*
X104257860Y-129109481D01*
X104256039Y-129126661D01*
G37*
G36*
X95003466Y-129223593D02*
G01*
X94995380Y-129250282D01*
X94987723Y-129264194D01*
X94974855Y-129277194D01*
X94971980Y-129272315D01*
X94980067Y-129245625D01*
X94987723Y-129231714D01*
X95000592Y-129218714D01*
X95003466Y-129223593D01*
G37*
G36*
X95746414Y-131330786D02*
G01*
X95749133Y-131383245D01*
X95746414Y-131420109D01*
X95742874Y-131430184D01*
X95740425Y-131411740D01*
X95739649Y-131375448D01*
X95740656Y-131335353D01*
X95743277Y-131320327D01*
X95746414Y-131330786D01*
G37*
G36*
X96119337Y-128540575D02*
G01*
X96108312Y-128549616D01*
X96078705Y-128563359D01*
X96067711Y-128565359D01*
X96064805Y-128558658D01*
X96075831Y-128549616D01*
X96105437Y-128535874D01*
X96116432Y-128533873D01*
X96119337Y-128540575D01*
G37*
G36*
X96212323Y-128512523D02*
G01*
X96205754Y-128517136D01*
X96171085Y-128530601D01*
X96157033Y-128531986D01*
X96147321Y-128527349D01*
X96165153Y-128517136D01*
X96199585Y-128504957D01*
X96217350Y-128503419D01*
X96212323Y-128512523D01*
G37*
G36*
X96602093Y-128382599D02*
G01*
X96595524Y-128387212D01*
X96560855Y-128400678D01*
X96546803Y-128402063D01*
X96537091Y-128397425D01*
X96554923Y-128387212D01*
X96589355Y-128375033D01*
X96607120Y-128373496D01*
X96602093Y-128382599D01*
G37*
G36*
X96699535Y-128350118D02*
G01*
X96692966Y-128354731D01*
X96658297Y-128368197D01*
X96644245Y-128369582D01*
X96634533Y-128364945D01*
X96652365Y-128354731D01*
X96686797Y-128342553D01*
X96704562Y-128341015D01*
X96699535Y-128350118D01*
G37*
G36*
X96817100Y-126261296D02*
G01*
X96817904Y-126264088D01*
X96820281Y-126299464D01*
X96817302Y-126312809D01*
X96811970Y-126313349D01*
X96809793Y-126287925D01*
X96809815Y-126284079D01*
X96812157Y-126258891D01*
X96817100Y-126261296D01*
G37*
G36*
X96853087Y-126146036D02*
G01*
X96846857Y-126180794D01*
X96839130Y-126202877D01*
X96828396Y-126220589D01*
X96825172Y-126210997D01*
X96831403Y-126176240D01*
X96839130Y-126154156D01*
X96849864Y-126136444D01*
X96853087Y-126146036D01*
G37*
G36*
X96887354Y-126056714D02*
G01*
X96879268Y-126083403D01*
X96871611Y-126097315D01*
X96858742Y-126110314D01*
X96855868Y-126105435D01*
X96863954Y-126078746D01*
X96871611Y-126064834D01*
X96884479Y-126051835D01*
X96887354Y-126056714D01*
G37*
G36*
X97063595Y-131919555D02*
G01*
X97107097Y-131927621D01*
X97155818Y-131940019D01*
X97107097Y-131940019D01*
X97053156Y-131935688D01*
X97009654Y-131927621D01*
X96960933Y-131915224D01*
X97009654Y-131915224D01*
X97063595Y-131919555D01*
G37*
G36*
X97222371Y-125778534D02*
G01*
X97204539Y-125788747D01*
X97170107Y-125800926D01*
X97152342Y-125802463D01*
X97157369Y-125793360D01*
X97163938Y-125788747D01*
X97198607Y-125775281D01*
X97212659Y-125773897D01*
X97222371Y-125778534D01*
G37*
G36*
X97237944Y-128182534D02*
G01*
X97220780Y-128192327D01*
X97182893Y-128203935D01*
X97163938Y-128206285D01*
X97154894Y-128202120D01*
X97172058Y-128192327D01*
X97209945Y-128180720D01*
X97228900Y-128178370D01*
X97237944Y-128182534D01*
G37*
G36*
X97314471Y-125761854D02*
G01*
X97315011Y-125767185D01*
X97289587Y-125769363D01*
X97285741Y-125769340D01*
X97260553Y-125766999D01*
X97262957Y-125762056D01*
X97265750Y-125761252D01*
X97301126Y-125758874D01*
X97314471Y-125761854D01*
G37*
G36*
X97436154Y-125745108D02*
G01*
X97439951Y-125749497D01*
X97416629Y-125751961D01*
X97399424Y-125752170D01*
X97367973Y-125750571D01*
X97363202Y-125746903D01*
X97371193Y-125744780D01*
X97413509Y-125742165D01*
X97436154Y-125745108D01*
G37*
G36*
X97476566Y-127173961D02*
G01*
X97484262Y-127177977D01*
X97463858Y-127180525D01*
X97440025Y-127180999D01*
X97404900Y-127179732D01*
X97395257Y-127176493D01*
X97403484Y-127173961D01*
X97450808Y-127171274D01*
X97476566Y-127173961D01*
G37*
G36*
X97685010Y-125121188D02*
G01*
X97694473Y-125152524D01*
X97694107Y-125166549D01*
X97683954Y-125159747D01*
X97677517Y-125146623D01*
X97669076Y-125112867D01*
X97668420Y-125101261D01*
X97673950Y-125099572D01*
X97685010Y-125121188D01*
G37*
G36*
X98033724Y-127955169D02*
G01*
X98016560Y-127964962D01*
X97978673Y-127976569D01*
X97959718Y-127978919D01*
X97950674Y-127974755D01*
X97967838Y-127964962D01*
X98005725Y-127953354D01*
X98024680Y-127951004D01*
X98033724Y-127955169D01*
G37*
G36*
X99328282Y-123861726D02*
G01*
X99328822Y-123867057D01*
X99303398Y-123869235D01*
X99299552Y-123869212D01*
X99274364Y-123866871D01*
X99276768Y-123861928D01*
X99279561Y-123861124D01*
X99314937Y-123858747D01*
X99328282Y-123861726D01*
G37*
G36*
X99504834Y-123897132D02*
G01*
X99526918Y-123904859D01*
X99544629Y-123915594D01*
X99535038Y-123918817D01*
X99500280Y-123912586D01*
X99478196Y-123904859D01*
X99460485Y-123894125D01*
X99470076Y-123890902D01*
X99504834Y-123897132D01*
G37*
G36*
X100380917Y-124731418D02*
G01*
X100390381Y-124762754D01*
X100390015Y-124776779D01*
X100379862Y-124769977D01*
X100373425Y-124756853D01*
X100364984Y-124723097D01*
X100364328Y-124711491D01*
X100369858Y-124709802D01*
X100380917Y-124731418D01*
G37*
G36*
X100664670Y-130261307D02*
G01*
X100647506Y-130271100D01*
X100609620Y-130282707D01*
X100590664Y-130285057D01*
X100581621Y-130280893D01*
X100598785Y-130271100D01*
X100636671Y-130259492D01*
X100655626Y-130257142D01*
X100664670Y-130261307D01*
G37*
G36*
X100845296Y-124870242D02*
G01*
X100834271Y-124879284D01*
X100804664Y-124893026D01*
X100793670Y-124895027D01*
X100790765Y-124888325D01*
X100801790Y-124879284D01*
X100831396Y-124865541D01*
X100842391Y-124863541D01*
X100845296Y-124870242D01*
G37*
G36*
X100892036Y-130196345D02*
G01*
X100874872Y-130206138D01*
X100836985Y-130217746D01*
X100818030Y-130220096D01*
X100808986Y-130215931D01*
X100826150Y-130206138D01*
X100864037Y-130194531D01*
X100882992Y-130192181D01*
X100892036Y-130196345D01*
G37*
G36*
X101267547Y-124707838D02*
G01*
X101256521Y-124716880D01*
X101226915Y-124730622D01*
X101215920Y-124732623D01*
X101213015Y-124725921D01*
X101224040Y-124716880D01*
X101253647Y-124703137D01*
X101264641Y-124701137D01*
X101267547Y-124707838D01*
G37*
G36*
X101947662Y-124479721D02*
G01*
X101930498Y-124489514D01*
X101892612Y-124501122D01*
X101873657Y-124503472D01*
X101864613Y-124499307D01*
X101881777Y-124489514D01*
X101919663Y-124477907D01*
X101938618Y-124475557D01*
X101947662Y-124479721D01*
G37*
G36*
X102249375Y-124482333D02*
G01*
X102263427Y-124489514D01*
X102276182Y-124501693D01*
X102264374Y-124503231D01*
X102234130Y-124494127D01*
X102222826Y-124489514D01*
X102204522Y-124478438D01*
X102214705Y-124474664D01*
X102249375Y-124482333D01*
G37*
G36*
X102648151Y-125435518D02*
G01*
X102650677Y-125476707D01*
X102648151Y-125492359D01*
X102643444Y-125497414D01*
X102640881Y-125474957D01*
X102640724Y-125463939D01*
X102642417Y-125434392D01*
X102646633Y-125430910D01*
X102648151Y-125435518D01*
G37*
G36*
X102664658Y-125297474D02*
G01*
X102667345Y-125344799D01*
X102664658Y-125370556D01*
X102660642Y-125378252D01*
X102658094Y-125357848D01*
X102657620Y-125334015D01*
X102658887Y-125298890D01*
X102662126Y-125289247D01*
X102664658Y-125297474D01*
G37*
G36*
X103278452Y-129589003D02*
G01*
X103235755Y-129600811D01*
X103213491Y-129602960D01*
X103181010Y-129602960D01*
X103213491Y-129589003D01*
X103256188Y-129577194D01*
X103278452Y-129575045D01*
X103310933Y-129575045D01*
X103278452Y-129589003D01*
G37*
G36*
X104272483Y-128870554D02*
G01*
X104275098Y-128912870D01*
X104272155Y-128935515D01*
X104267766Y-128939312D01*
X104265302Y-128915990D01*
X104265093Y-128898785D01*
X104266692Y-128867334D01*
X104270360Y-128862563D01*
X104272483Y-128870554D01*
G37*
G36*
X96906148Y-131887786D02*
G01*
X96928452Y-131895141D01*
X96944849Y-131905170D01*
X96936227Y-131908478D01*
X96909344Y-131905065D01*
X96871611Y-131895141D01*
X96846863Y-131885821D01*
X96852220Y-131882110D01*
X96863491Y-131881661D01*
X96906148Y-131887786D01*
G37*
G36*
X98276517Y-127890076D02*
G01*
X98260166Y-127900000D01*
X98217508Y-127911578D01*
X98195204Y-127913480D01*
X98177279Y-127911474D01*
X98188856Y-127904861D01*
X98203324Y-127900000D01*
X98241583Y-127889971D01*
X98268233Y-127886663D01*
X98276517Y-127890076D01*
G37*
G36*
X100566304Y-130289623D02*
G01*
X100533823Y-130303581D01*
X100495882Y-130315599D01*
X100476982Y-130318431D01*
X100460816Y-130316946D01*
X100472869Y-130306264D01*
X100476982Y-130303581D01*
X100513855Y-130290486D01*
X100533823Y-130288730D01*
X100566304Y-130289623D01*
G37*
G36*
X100793670Y-130224661D02*
G01*
X100761189Y-130238619D01*
X100723247Y-130250637D01*
X100704347Y-130253469D01*
X100688182Y-130251984D01*
X100700234Y-130241303D01*
X100704347Y-130238619D01*
X100741220Y-130225525D01*
X100761189Y-130223769D01*
X100793670Y-130224661D01*
G37*
G36*
X101997145Y-129902336D02*
G01*
X101985568Y-129908950D01*
X101971099Y-129913811D01*
X101932841Y-129923840D01*
X101906191Y-129927148D01*
X101897907Y-129923735D01*
X101914258Y-129913811D01*
X101956915Y-129902232D01*
X101979219Y-129900331D01*
X101997145Y-129902336D01*
G37*
G36*
X102127068Y-129869856D02*
G01*
X102115491Y-129876469D01*
X102101023Y-129881330D01*
X102062764Y-129891359D01*
X102036114Y-129894667D01*
X102027830Y-129891254D01*
X102044181Y-129881330D01*
X102086838Y-129869751D01*
X102109143Y-129867850D01*
X102127068Y-129869856D01*
G37*
G36*
X102287743Y-126349379D02*
G01*
X102295831Y-126361833D01*
X102307653Y-126393994D01*
X102306459Y-126410554D01*
X102299090Y-126420913D01*
X102297190Y-126411271D01*
X102291449Y-126380151D01*
X102286561Y-126362549D01*
X102280888Y-126342005D01*
X102287743Y-126349379D01*
G37*
G36*
X102654164Y-125006875D02*
G01*
X102664269Y-125057694D01*
X102664721Y-125103929D01*
X102664662Y-125104317D01*
X102658063Y-125147251D01*
X102655630Y-125104620D01*
X102651409Y-125057177D01*
X102645131Y-125007177D01*
X102637066Y-124952366D01*
X102654164Y-125006875D01*
G37*
G36*
X102906608Y-129674971D02*
G01*
X102895031Y-129681584D01*
X102880562Y-129686445D01*
X102842304Y-129696474D01*
X102815654Y-129699782D01*
X102807370Y-129696369D01*
X102823721Y-129686445D01*
X102866378Y-129674867D01*
X102888682Y-129672965D01*
X102906608Y-129674971D01*
G37*
G36*
X103036531Y-129642490D02*
G01*
X103024954Y-129649104D01*
X103010485Y-129653964D01*
X102972227Y-129663993D01*
X102945577Y-129667302D01*
X102937293Y-129663889D01*
X102953644Y-129653964D01*
X102996301Y-129642386D01*
X103018606Y-129640484D01*
X103036531Y-129642490D01*
G37*
G36*
X103166455Y-129610009D02*
G01*
X103154877Y-129616623D01*
X103140409Y-129621483D01*
X103102150Y-129631513D01*
X103075500Y-129634821D01*
X103067216Y-129631408D01*
X103083567Y-129621483D01*
X103126225Y-129609905D01*
X103148529Y-129608003D01*
X103166455Y-129610009D01*
G37*
G36*
X94952766Y-129594812D02*
G01*
X94957129Y-129611754D01*
X94964729Y-129653107D01*
X94965767Y-129678283D01*
X94961236Y-129682298D01*
X94952128Y-129660171D01*
X94949407Y-129650548D01*
X94941836Y-129606030D01*
X94940855Y-129580882D01*
X94944697Y-129574153D01*
X94952766Y-129594812D01*
G37*
G36*
X94967799Y-129310734D02*
G01*
X94967943Y-129321036D01*
X94963705Y-129360691D01*
X94955243Y-129402238D01*
X94946780Y-129432676D01*
X94943295Y-129432913D01*
X94942542Y-129410358D01*
X94947529Y-129361542D01*
X94955243Y-129329156D01*
X94964446Y-129304805D01*
X94967799Y-129310734D01*
G37*
G36*
X95847314Y-131026279D02*
G01*
X95839857Y-131051224D01*
X95824104Y-131083120D01*
X95807945Y-131106778D01*
X95800905Y-131107952D01*
X95800895Y-131107481D01*
X95808352Y-131082536D01*
X95824104Y-131050639D01*
X95840263Y-131026982D01*
X95847304Y-131025808D01*
X95847314Y-131026279D01*
G37*
G36*
X96319577Y-131723053D02*
G01*
X96359111Y-131732348D01*
X96360038Y-131732737D01*
X96392519Y-131746694D01*
X96360038Y-131745698D01*
X96321786Y-131741679D01*
X96273418Y-131733299D01*
X96270716Y-131732737D01*
X96213874Y-131720772D01*
X96270716Y-131719776D01*
X96319577Y-131723053D01*
G37*
G36*
X97346643Y-131948354D02*
G01*
X97358900Y-131951538D01*
X97342319Y-131953868D01*
X97300541Y-131954891D01*
X97293861Y-131954904D01*
X97249244Y-131954073D01*
X97229378Y-131951879D01*
X97237903Y-131948775D01*
X97241080Y-131948354D01*
X97298027Y-131945666D01*
X97346643Y-131948354D01*
G37*
G36*
X97579275Y-131916515D02*
G01*
X97566932Y-131923195D01*
X97553708Y-131927621D01*
X97504892Y-131937905D01*
X97472506Y-131940322D01*
X97448145Y-131939279D01*
X97452742Y-131935204D01*
X97480626Y-131927621D01*
X97526961Y-131918410D01*
X97561828Y-131914921D01*
X97579275Y-131916515D01*
G37*
G36*
X97707850Y-127141407D02*
G01*
X97703047Y-127145461D01*
X97675511Y-127152941D01*
X97625512Y-127162192D01*
X97586189Y-127165339D01*
X97561970Y-127164475D01*
X97566773Y-127160422D01*
X97594309Y-127152941D01*
X97644308Y-127143690D01*
X97683631Y-127140544D01*
X97707850Y-127141407D01*
G37*
G36*
X98571358Y-127197123D02*
G01*
X98572444Y-127205722D01*
X98575072Y-127266704D01*
X98572444Y-127327526D01*
X98569539Y-127341810D01*
X98567329Y-127327004D01*
X98566167Y-127286497D01*
X98566073Y-127266624D01*
X98566779Y-127217827D01*
X98568658Y-127193530D01*
X98571358Y-127197123D01*
G37*
G36*
X102355956Y-126674732D02*
G01*
X102356377Y-126677909D01*
X102359065Y-126734856D01*
X102356377Y-126783472D01*
X102353193Y-126795729D01*
X102350863Y-126779149D01*
X102349840Y-126737370D01*
X102349827Y-126730691D01*
X102350658Y-126686073D01*
X102352852Y-126666207D01*
X102355956Y-126674732D01*
G37*
G36*
X95792866Y-131161268D02*
G01*
X95779518Y-131202078D01*
X95775383Y-131213043D01*
X95761642Y-131243104D01*
X95753713Y-131249634D01*
X95752991Y-131245524D01*
X95759110Y-131214272D01*
X95774552Y-131172979D01*
X95774797Y-131172442D01*
X95790452Y-131142690D01*
X95796493Y-131140219D01*
X95792866Y-131161268D01*
G37*
G36*
X98144942Y-127926826D02*
G01*
X98138363Y-127931739D01*
X98115477Y-127941385D01*
X98086365Y-127947819D01*
X98062915Y-127949381D01*
X98057018Y-127944412D01*
X98058514Y-127942886D01*
X98077585Y-127935569D01*
X98113949Y-127926164D01*
X98114002Y-127926152D01*
X98143869Y-127921213D01*
X98144942Y-127926826D01*
G37*
G36*
X98506192Y-131067421D02*
G01*
X98507564Y-131079489D01*
X98510094Y-131140826D01*
X98508205Y-131201258D01*
X98507457Y-131209413D01*
X98504649Y-131222667D01*
X98502504Y-131206987D01*
X98501339Y-131165918D01*
X98501219Y-131139962D01*
X98501911Y-131089780D01*
X98503675Y-131064592D01*
X98506192Y-131067421D01*
G37*
G36*
X99133482Y-123843585D02*
G01*
X99141637Y-123844333D01*
X99154892Y-123847141D01*
X99139212Y-123849286D01*
X99098143Y-123850451D01*
X99072186Y-123850571D01*
X99022005Y-123849878D01*
X98996817Y-123848115D01*
X98999645Y-123845597D01*
X99011714Y-123844226D01*
X99073051Y-123841695D01*
X99133482Y-123843585D01*
G37*
G36*
X102126911Y-124461202D02*
G01*
X102129081Y-124461421D01*
X102144449Y-124464433D01*
X102130535Y-124466717D01*
X102090537Y-124467877D01*
X102076662Y-124467945D01*
X102029253Y-124467229D01*
X102005800Y-124465215D01*
X102010128Y-124462301D01*
X102015398Y-124461552D01*
X102069103Y-124458826D01*
X102126911Y-124461202D01*
G37*
G36*
X95937255Y-130837183D02*
G01*
X95918741Y-130878110D01*
X95897186Y-130920716D01*
X95873015Y-130964161D01*
X95855998Y-130990340D01*
X95849997Y-130993798D01*
X95857118Y-130971768D01*
X95875631Y-130930841D01*
X95897186Y-130888235D01*
X95921357Y-130844791D01*
X95938374Y-130818611D01*
X95944375Y-130815153D01*
X95937255Y-130837183D01*
G37*
G36*
X96905689Y-128287282D02*
G01*
X96873825Y-128299469D01*
X96830330Y-128313528D01*
X96785131Y-128326409D01*
X96748157Y-128335059D01*
X96731068Y-128336869D01*
X96737721Y-128331610D01*
X96768576Y-128319461D01*
X96813288Y-128304261D01*
X96864363Y-128289089D01*
X96901683Y-128280476D01*
X96915995Y-128280019D01*
X96905689Y-128287282D01*
G37*
G36*
X97069221Y-128232070D02*
G01*
X97046614Y-128244057D01*
X97034015Y-128249169D01*
X96989933Y-128263747D01*
X96956063Y-128270907D01*
X96952813Y-128271058D01*
X96950087Y-128266268D01*
X96972694Y-128254281D01*
X96985294Y-128249169D01*
X97029375Y-128234591D01*
X97063246Y-128227430D01*
X97066496Y-128227279D01*
X97069221Y-128232070D01*
G37*
G36*
X98691697Y-123896547D02*
G01*
X98660250Y-123909554D01*
X98658056Y-123910415D01*
X98607923Y-123928522D01*
X98563142Y-123942319D01*
X98560613Y-123942973D01*
X98540296Y-123946864D01*
X98548764Y-123940397D01*
X98570527Y-123929931D01*
X98621566Y-123910225D01*
X98667970Y-123897373D01*
X98693873Y-123893010D01*
X98691697Y-123896547D01*
G37*
G36*
X102324489Y-126453277D02*
G01*
X102333399Y-126485148D01*
X102335606Y-126496107D01*
X102341096Y-126536466D01*
X102340502Y-126560711D01*
X102339505Y-126562583D01*
X102332288Y-126553372D01*
X102323378Y-126521502D01*
X102321170Y-126510543D01*
X102315681Y-126470184D01*
X102316275Y-126445939D01*
X102317271Y-126444067D01*
X102324489Y-126453277D01*
G37*
G36*
X102587119Y-124796250D02*
G01*
X102602770Y-124827958D01*
X102611242Y-124848156D01*
X102626224Y-124890015D01*
X102632697Y-124917349D01*
X102632048Y-124922087D01*
X102623067Y-124912423D01*
X102607503Y-124880765D01*
X102599062Y-124860337D01*
X102584239Y-124818395D01*
X102577699Y-124791109D01*
X102578256Y-124786406D01*
X102587119Y-124796250D01*
G37*
G36*
X104240857Y-128694454D02*
G01*
X104249767Y-128726324D01*
X104251975Y-128737283D01*
X104257464Y-128777642D01*
X104256870Y-128801888D01*
X104255873Y-128803759D01*
X104248656Y-128794549D01*
X104239746Y-128762678D01*
X104237539Y-128751719D01*
X104232049Y-128711361D01*
X104232643Y-128687115D01*
X104233640Y-128685243D01*
X104240857Y-128694454D01*
G37*
G36*
X96053057Y-131695039D02*
G01*
X96059590Y-131695584D01*
X96114596Y-131701027D01*
X96155170Y-131706478D01*
X96171920Y-131710528D01*
X96164576Y-131714757D01*
X96134792Y-131715293D01*
X96092321Y-131712763D01*
X96046916Y-131707797D01*
X96008329Y-131701023D01*
X96002749Y-131699630D01*
X95988976Y-131693803D01*
X96006163Y-131692243D01*
X96053057Y-131695039D01*
G37*
G36*
X98477782Y-126945626D02*
G01*
X98507345Y-126958053D01*
X98539041Y-126983736D01*
X98564647Y-127013822D01*
X98575940Y-127039458D01*
X98573189Y-127048337D01*
X98561766Y-127043002D01*
X98552426Y-127022806D01*
X98530502Y-126992126D01*
X98492556Y-126965664D01*
X98490042Y-126964491D01*
X98459695Y-126949683D01*
X98457870Y-126944429D01*
X98477782Y-126945626D01*
G37*
G36*
X101486524Y-130033742D02*
G01*
X101465197Y-130043426D01*
X101427495Y-130055924D01*
X101381006Y-130068789D01*
X101333320Y-130079571D01*
X101321134Y-130081823D01*
X101306035Y-130082520D01*
X101319062Y-130075178D01*
X101357309Y-130061360D01*
X101362084Y-130059789D01*
X101417166Y-130043198D01*
X101462063Y-130032201D01*
X101483887Y-130029320D01*
X101486524Y-130033742D01*
G37*
G36*
X96510603Y-128410561D02*
G01*
X96501036Y-128418496D01*
X96468742Y-128430354D01*
X96449984Y-128435766D01*
X96402271Y-128449211D01*
X96365755Y-128460534D01*
X96359022Y-128462931D01*
X96338589Y-128465993D01*
X96335677Y-128462661D01*
X96349686Y-128453229D01*
X96384382Y-128439922D01*
X96428766Y-128426014D01*
X96471842Y-128414782D01*
X96502613Y-128409501D01*
X96510603Y-128410561D01*
G37*
G36*
X99995563Y-130456266D02*
G01*
X99969033Y-130468123D01*
X99930002Y-130483173D01*
X99887672Y-130498016D01*
X99851245Y-130509250D01*
X99831425Y-130513447D01*
X99812533Y-130510194D01*
X99811125Y-130507738D01*
X99825134Y-130500030D01*
X99860204Y-130487511D01*
X99905902Y-130473309D01*
X99951792Y-130460553D01*
X99987441Y-130452371D01*
X100000389Y-130451003D01*
X99995563Y-130456266D01*
G37*
G36*
X95771787Y-131510437D02*
G01*
X95782215Y-131531890D01*
X95830747Y-131601222D01*
X95883360Y-131641359D01*
X95920026Y-131665017D01*
X95938522Y-131680430D01*
X95937787Y-131683801D01*
X95914327Y-131676012D01*
X95877082Y-131656661D01*
X95868617Y-131651622D01*
X95824610Y-131615592D01*
X95785307Y-131568096D01*
X95758551Y-131520014D01*
X95751440Y-131489130D01*
X95757266Y-131487492D01*
X95771787Y-131510437D01*
G37*
G36*
X97656428Y-124795336D02*
G01*
X97658726Y-124845135D01*
X97659468Y-124902790D01*
X97659361Y-124972984D01*
X97658916Y-125029268D01*
X97658211Y-125064947D01*
X97657533Y-125074169D01*
X97653820Y-125059963D01*
X97647261Y-125024696D01*
X97645334Y-125013267D01*
X97638225Y-124943065D01*
X97637393Y-124866951D01*
X97642638Y-124799450D01*
X97648709Y-124768806D01*
X97652959Y-124768269D01*
X97656428Y-124795336D01*
G37*
G36*
X97961796Y-127077348D02*
G01*
X97935360Y-127087369D01*
X97894091Y-127100585D01*
X97846299Y-127114535D01*
X97800293Y-127126763D01*
X97764382Y-127134809D01*
X97749946Y-127136637D01*
X97733181Y-127133251D01*
X97733706Y-127130342D01*
X97752905Y-127122688D01*
X97793590Y-127110871D01*
X97845468Y-127097441D01*
X97898246Y-127084952D01*
X97941631Y-127075954D01*
X97965090Y-127072980D01*
X97961796Y-127077348D01*
G37*
G36*
X101532363Y-124616506D02*
G01*
X101497395Y-124631918D01*
X101445357Y-124651886D01*
X101428993Y-124657775D01*
X101354268Y-124683509D01*
X101307892Y-124697486D01*
X101288122Y-124700166D01*
X101290355Y-124694427D01*
X101309814Y-124684738D01*
X101349692Y-124669208D01*
X101401057Y-124650868D01*
X101454978Y-124632747D01*
X101502523Y-124617873D01*
X101534762Y-124609277D01*
X101543418Y-124608593D01*
X101532363Y-124616506D01*
G37*
G36*
X96799790Y-126408345D02*
G01*
X96803728Y-126465461D01*
X96807179Y-126519565D01*
X96812602Y-126612807D01*
X96815062Y-126674298D01*
X96814531Y-126704631D01*
X96810981Y-126704405D01*
X96804384Y-126674214D01*
X96800914Y-126654049D01*
X96796259Y-126607472D01*
X96793427Y-126541794D01*
X96792965Y-126470370D01*
X96793082Y-126462724D01*
X96794176Y-126409823D01*
X96795401Y-126382086D01*
X96797143Y-126381073D01*
X96799790Y-126408345D01*
G37*
G36*
X97568996Y-128084946D02*
G01*
X97568349Y-128085657D01*
X97548971Y-128094497D01*
X97507036Y-128108970D01*
X97451402Y-128126457D01*
X97390927Y-128144333D01*
X97334466Y-128159978D01*
X97290879Y-128170768D01*
X97269501Y-128174136D01*
X97275589Y-128169120D01*
X97306446Y-128156997D01*
X97355790Y-128140187D01*
X97366943Y-128136597D01*
X97458400Y-128108264D01*
X97523453Y-128089985D01*
X97560764Y-128082100D01*
X97568996Y-128084946D01*
G37*
G36*
X97908730Y-127991672D02*
G01*
X97876584Y-128003339D01*
X97827882Y-128018763D01*
X97770079Y-128035802D01*
X97710631Y-128052310D01*
X97656995Y-128066144D01*
X97616626Y-128075161D01*
X97598482Y-128077448D01*
X97604332Y-128072819D01*
X97635993Y-128061217D01*
X97688020Y-128044508D01*
X97740473Y-128028769D01*
X97809143Y-128009482D01*
X97866309Y-127994902D01*
X97904778Y-127986777D01*
X97916864Y-127985907D01*
X97908730Y-127991672D01*
G37*
G36*
X101826659Y-124512318D02*
G01*
X101796868Y-124525336D01*
X101748652Y-124543356D01*
X101741042Y-124546035D01*
X101660734Y-124573809D01*
X101607137Y-124591466D01*
X101576477Y-124600108D01*
X101564985Y-124600836D01*
X101566513Y-124597023D01*
X101586342Y-124586695D01*
X101627909Y-124570302D01*
X101681820Y-124551033D01*
X101738680Y-124532076D01*
X101789093Y-124516622D01*
X101823663Y-124507859D01*
X101831840Y-124506963D01*
X101826659Y-124512318D01*
G37*
G36*
X97117357Y-125812868D02*
G01*
X97092494Y-125833321D01*
X97059767Y-125856162D01*
X97007048Y-125897678D01*
X96959405Y-125946027D01*
X96941142Y-125969844D01*
X96915984Y-126005344D01*
X96896834Y-126028233D01*
X96887868Y-126034458D01*
X96893262Y-126019963D01*
X96897676Y-126012052D01*
X96936490Y-125955612D01*
X96984867Y-125900331D01*
X97035965Y-125852567D01*
X97082945Y-125818679D01*
X97118966Y-125805025D01*
X97120438Y-125804987D01*
X97117357Y-125812868D01*
G37*
G36*
X97719855Y-125200842D02*
G01*
X97744201Y-125233801D01*
X97772314Y-125277714D01*
X97798747Y-125323565D01*
X97818055Y-125362336D01*
X97824793Y-125385014D01*
X97824514Y-125386186D01*
X97817179Y-125394066D01*
X97814837Y-125379923D01*
X97804070Y-125349800D01*
X97779400Y-125311832D01*
X97775366Y-125306841D01*
X97747114Y-125269564D01*
X97722384Y-125231549D01*
X97706321Y-125201458D01*
X97704067Y-125187957D01*
X97704721Y-125187852D01*
X97719855Y-125200842D01*
G37*
G36*
X101244319Y-130096508D02*
G01*
X101236862Y-130102644D01*
X101203595Y-130114886D01*
X101150183Y-130131324D01*
X101097507Y-130146011D01*
X101014832Y-130167893D01*
X100959446Y-130181727D01*
X100927394Y-130188338D01*
X100914718Y-130188553D01*
X100916826Y-130183763D01*
X100937043Y-130175048D01*
X100980017Y-130161315D01*
X101037283Y-130144821D01*
X101100377Y-130127820D01*
X101160835Y-130112568D01*
X101210192Y-130101319D01*
X101239986Y-130096329D01*
X101244319Y-130096508D01*
G37*
G36*
X95555470Y-128767490D02*
G01*
X95539733Y-128778892D01*
X95501952Y-128798888D01*
X95469012Y-128814489D01*
X95325769Y-128891277D01*
X95195829Y-128982769D01*
X95111852Y-129058383D01*
X95073271Y-129096499D01*
X95055755Y-129110644D01*
X95058816Y-129101147D01*
X95067321Y-129088474D01*
X95115508Y-129034244D01*
X95185904Y-128973226D01*
X95270647Y-128910909D01*
X95361875Y-128852781D01*
X95451726Y-128804332D01*
X95511477Y-128778400D01*
X95546829Y-128766666D01*
X95555470Y-128767490D01*
G37*
G36*
X99781369Y-130521086D02*
G01*
X99750498Y-130533612D01*
X99704299Y-130550776D01*
X99650545Y-130569844D01*
X99597007Y-130588085D01*
X99551455Y-130602766D01*
X99521662Y-130611154D01*
X99515472Y-130612148D01*
X99502581Y-130606324D01*
X99502557Y-130605942D01*
X99516774Y-130598707D01*
X99553821Y-130585200D01*
X99605295Y-130568058D01*
X99662793Y-130549923D01*
X99717912Y-130533434D01*
X99762247Y-130521229D01*
X99787395Y-130515949D01*
X99789142Y-130515928D01*
X99781369Y-130521086D01*
G37*
G36*
X101174373Y-124745889D02*
G01*
X101140018Y-124761879D01*
X101090288Y-124783146D01*
X101032712Y-124806656D01*
X100974820Y-124829377D01*
X100924143Y-124848275D01*
X100888211Y-124860317D01*
X100875909Y-124863043D01*
X100866977Y-124857982D01*
X100868105Y-124856563D01*
X100886668Y-124847021D01*
X100926827Y-124830226D01*
X100980784Y-124809082D01*
X101040740Y-124786496D01*
X101098896Y-124765371D01*
X101147453Y-124748612D01*
X101178614Y-124739126D01*
X101185821Y-124738209D01*
X101174373Y-124745889D01*
G37*
G36*
X101855580Y-129941040D02*
G01*
X101818573Y-129953463D01*
X101762074Y-129969656D01*
X101704188Y-129984747D01*
X101621001Y-130005380D01*
X101564930Y-130018631D01*
X101531664Y-130025341D01*
X101516897Y-130026346D01*
X101516319Y-130022484D01*
X101517721Y-130021014D01*
X101536869Y-130013103D01*
X101578843Y-130000446D01*
X101635732Y-129985007D01*
X101699629Y-129968751D01*
X101762624Y-129953641D01*
X101816808Y-129941641D01*
X101854272Y-129934715D01*
X101867043Y-129934265D01*
X101855580Y-129941040D01*
G37*
G36*
X96433574Y-131755434D02*
G01*
X96476870Y-131765862D01*
X96536317Y-131781826D01*
X96604515Y-131801165D01*
X96674064Y-131821720D01*
X96737566Y-131841330D01*
X96787620Y-131857835D01*
X96816827Y-131869076D01*
X96820950Y-131871547D01*
X96820373Y-131877468D01*
X96797157Y-131874816D01*
X96749186Y-131863086D01*
X96674346Y-131841773D01*
X96590451Y-131816487D01*
X96519001Y-131793891D01*
X96462112Y-131774493D01*
X96425113Y-131760218D01*
X96413335Y-131752990D01*
X96413828Y-131752701D01*
X96433574Y-131755434D01*
G37*
G36*
X96845209Y-126774458D02*
G01*
X96865615Y-126814505D01*
X96869315Y-126822239D01*
X96942544Y-126940932D01*
X97038099Y-127036096D01*
X97155535Y-127107363D01*
X97261381Y-127145942D01*
X97297001Y-127157582D01*
X97308786Y-127165288D01*
X97301982Y-127167017D01*
X97265364Y-127162128D01*
X97217712Y-127149162D01*
X97210129Y-127146548D01*
X97088550Y-127088528D01*
X96984503Y-127009452D01*
X96902228Y-126913624D01*
X96845963Y-126805350D01*
X96832632Y-126763171D01*
X96833395Y-126756026D01*
X96845209Y-126774458D01*
G37*
G36*
X98557570Y-127570875D02*
G01*
X98558570Y-127650398D01*
X98557560Y-127704564D01*
X98553251Y-127740490D01*
X98544359Y-127765290D01*
X98529597Y-127786082D01*
X98515952Y-127801132D01*
X98465519Y-127839480D01*
X98414450Y-127858184D01*
X98357608Y-127867428D01*
X98422532Y-127842570D01*
X98467749Y-127823619D01*
X98499236Y-127803283D01*
X98519853Y-127775421D01*
X98532459Y-127733895D01*
X98539912Y-127672565D01*
X98545073Y-127585291D01*
X98545389Y-127578744D01*
X98554526Y-127388427D01*
X98557570Y-127570875D01*
G37*
G36*
X98394812Y-126947368D02*
G01*
X98362985Y-126959347D01*
X98313137Y-126976538D01*
X98251802Y-126996840D01*
X98185513Y-127018151D01*
X98120803Y-127038370D01*
X98064206Y-127055397D01*
X98022255Y-127067131D01*
X98001673Y-127071469D01*
X97992815Y-127066134D01*
X97994139Y-127064386D01*
X98012631Y-127056356D01*
X98055038Y-127041879D01*
X98113968Y-127023159D01*
X98182027Y-127002401D01*
X98251823Y-126981812D01*
X98315965Y-126963595D01*
X98367058Y-126949955D01*
X98397712Y-126943099D01*
X98402087Y-126942701D01*
X98394812Y-126947368D01*
G37*
G36*
X100426452Y-130331327D02*
G01*
X100389019Y-130344874D01*
X100331989Y-130363265D01*
X100261989Y-130384295D01*
X100168706Y-130411398D01*
X100102354Y-130430416D01*
X100058694Y-130442404D01*
X100033489Y-130448422D01*
X100022503Y-130449525D01*
X100021496Y-130446772D01*
X100023943Y-130443682D01*
X100042574Y-130435056D01*
X100084673Y-130420546D01*
X100143107Y-130402201D01*
X100210745Y-130382068D01*
X100280455Y-130362198D01*
X100345105Y-130344640D01*
X100397563Y-130331441D01*
X100430697Y-130324651D01*
X100438453Y-130324600D01*
X100426452Y-130331327D01*
G37*
G36*
X102027378Y-126072874D02*
G01*
X102043339Y-126097706D01*
X102045243Y-126101171D01*
X102076937Y-126139666D01*
X102120218Y-126171312D01*
X102121735Y-126172092D01*
X102170078Y-126201083D01*
X102212137Y-126233198D01*
X102241338Y-126263942D01*
X102264485Y-126295155D01*
X102275802Y-126318114D01*
X102272690Y-126324680D01*
X102259694Y-126312209D01*
X102246725Y-126291337D01*
X102223932Y-126265167D01*
X102182753Y-126230877D01*
X102141053Y-126201812D01*
X102071770Y-126150747D01*
X102031230Y-126105006D01*
X102020471Y-126069962D01*
X102027378Y-126072874D01*
G37*
G36*
X102319321Y-124513789D02*
G01*
X102352741Y-124533160D01*
X102394996Y-124562263D01*
X102438106Y-124595471D01*
X102474092Y-124627159D01*
X102484583Y-124638013D01*
X102512525Y-124672113D01*
X102539848Y-124710037D01*
X102560912Y-124743248D01*
X102570079Y-124763212D01*
X102568868Y-124765601D01*
X102556564Y-124753471D01*
X102532013Y-124722177D01*
X102509913Y-124691696D01*
X102464298Y-124639158D01*
X102406638Y-124588346D01*
X102376691Y-124567358D01*
X102334725Y-124539489D01*
X102308157Y-124518351D01*
X102302714Y-124509775D01*
X102319321Y-124513789D01*
G37*
G36*
X96025026Y-128578145D02*
G01*
X95988007Y-128595521D01*
X95931055Y-128620130D01*
X95859336Y-128649698D01*
X95828097Y-128662234D01*
X95729423Y-128701394D01*
X95658132Y-128729265D01*
X95611519Y-128746781D01*
X95586873Y-128754878D01*
X95581489Y-128754491D01*
X95592656Y-128746554D01*
X95604859Y-128739318D01*
X95636736Y-128723533D01*
X95687900Y-128701088D01*
X95751782Y-128674551D01*
X95821815Y-128646492D01*
X95891429Y-128619481D01*
X95954057Y-128596087D01*
X96003131Y-128578881D01*
X96032081Y-128570431D01*
X96036944Y-128570278D01*
X96025026Y-128578145D01*
G37*
G36*
X97878728Y-125512660D02*
G01*
X97894758Y-125564694D01*
X97883882Y-125619250D01*
X97850201Y-125669164D01*
X97797810Y-125707272D01*
X97759308Y-125721438D01*
X97720304Y-125729315D01*
X97677277Y-125735260D01*
X97638036Y-125738725D01*
X97610385Y-125739160D01*
X97602130Y-125736016D01*
X97610549Y-125731901D01*
X97635186Y-125726603D01*
X97679543Y-125719393D01*
X97706572Y-125715551D01*
X97783713Y-125694140D01*
X97839289Y-125655724D01*
X97869784Y-125603840D01*
X97872859Y-125548447D01*
X97868991Y-125512359D01*
X97874061Y-125506562D01*
X97878728Y-125512660D01*
G37*
G36*
X99590654Y-123928253D02*
G01*
X99629289Y-123940587D01*
X99679794Y-123959860D01*
X99830044Y-124036203D01*
X99974752Y-124138655D01*
X100106561Y-124260892D01*
X100218115Y-124396593D01*
X100257166Y-124456095D01*
X100286083Y-124505650D01*
X100305806Y-124543266D01*
X100312515Y-124561594D01*
X100312272Y-124562141D01*
X100301915Y-124552137D01*
X100279901Y-124520417D01*
X100250685Y-124473470D01*
X100245918Y-124465452D01*
X100135952Y-124310714D01*
X100001539Y-124175093D01*
X99846582Y-124061855D01*
X99674985Y-123974266D01*
X99644299Y-123962108D01*
X99601820Y-123944358D01*
X99576689Y-123930694D01*
X99573445Y-123926000D01*
X99590654Y-123928253D01*
G37*
G36*
X102757493Y-129708270D02*
G01*
X102723241Y-129718860D01*
X102668549Y-129734470D01*
X102598942Y-129753639D01*
X102519948Y-129774902D01*
X102437093Y-129796800D01*
X102355904Y-129817869D01*
X102281908Y-129836647D01*
X102220632Y-129851672D01*
X102177601Y-129861481D01*
X102159217Y-129864638D01*
X102151180Y-129858702D01*
X102152836Y-129856584D01*
X102171245Y-129849566D01*
X102215240Y-129836711D01*
X102278770Y-129819524D01*
X102355782Y-129799509D01*
X102440222Y-129778173D01*
X102526039Y-129757020D01*
X102607178Y-129737556D01*
X102677588Y-129721285D01*
X102731216Y-129709713D01*
X102762008Y-129704345D01*
X102765777Y-129704162D01*
X102757493Y-129708270D01*
G37*
G36*
X100415498Y-124848891D02*
G01*
X100419116Y-124856900D01*
X100456069Y-124912442D01*
X100506295Y-124949286D01*
X100553076Y-124960486D01*
X100588521Y-124954635D01*
X100639729Y-124939649D01*
X100673377Y-124927410D01*
X100720366Y-124910340D01*
X100753533Y-124901012D01*
X100763628Y-124900670D01*
X100754711Y-124909762D01*
X100723493Y-124924470D01*
X100678941Y-124941605D01*
X100630017Y-124957979D01*
X100585688Y-124970403D01*
X100554918Y-124975690D01*
X100552678Y-124975697D01*
X100508189Y-124968584D01*
X100481892Y-124960294D01*
X100449090Y-124934544D01*
X100418308Y-124891726D01*
X100398914Y-124846414D01*
X100396415Y-124827309D01*
X100402143Y-124825819D01*
X100415498Y-124848891D01*
G37*
G36*
X104203098Y-129197023D02*
G01*
X104187915Y-129214420D01*
X104099526Y-129293266D01*
X103981498Y-129365881D01*
X103833166Y-129432576D01*
X103653867Y-129493667D01*
X103514834Y-129531934D01*
X103451310Y-129547285D01*
X103395282Y-129559516D01*
X103351007Y-129567976D01*
X103322741Y-129572013D01*
X103314740Y-129570972D01*
X103331259Y-129564204D01*
X103359654Y-129555718D01*
X103393589Y-129546242D01*
X103451103Y-129530268D01*
X103524465Y-129509942D01*
X103605942Y-129487408D01*
X103614913Y-129484929D01*
X103805341Y-129424053D01*
X103965844Y-129354997D01*
X104095753Y-129278077D01*
X104153938Y-129232515D01*
X104192796Y-129199271D01*
X104208853Y-129187616D01*
X104203098Y-129197023D01*
G37*
G36*
X102636943Y-125546764D02*
G01*
X102627888Y-125574328D01*
X102604805Y-125615580D01*
X102588281Y-125639942D01*
X102537966Y-125690609D01*
X102458805Y-125745168D01*
X102353922Y-125801783D01*
X102226442Y-125858619D01*
X102193892Y-125871671D01*
X102115519Y-125908291D01*
X102064320Y-125947102D01*
X102035173Y-125991752D01*
X102024617Y-126010275D01*
X102020850Y-125999426D01*
X102034915Y-125953925D01*
X102080001Y-125911022D01*
X102154671Y-125872048D01*
X102161365Y-125869344D01*
X102237745Y-125837090D01*
X102320616Y-125798993D01*
X102401178Y-125759400D01*
X102470630Y-125722659D01*
X102520171Y-125693119D01*
X102525558Y-125689424D01*
X102559435Y-125655815D01*
X102592986Y-125607837D01*
X102602687Y-125589960D01*
X102622109Y-125555341D01*
X102634525Y-125542083D01*
X102636943Y-125546764D01*
G37*
G36*
X98469957Y-131338018D02*
G01*
X98455503Y-131366048D01*
X98451698Y-131373188D01*
X98412328Y-131426900D01*
X98348332Y-131490386D01*
X98264661Y-131559998D01*
X98166268Y-131632089D01*
X98058105Y-131703009D01*
X97945122Y-131769111D01*
X97842930Y-131821697D01*
X97774227Y-131853128D01*
X97711713Y-131879235D01*
X97659910Y-131898505D01*
X97623343Y-131909425D01*
X97606534Y-131910482D01*
X97614006Y-131900163D01*
X97618670Y-131896703D01*
X97651236Y-131881464D01*
X97664998Y-131879149D01*
X97698132Y-131870775D01*
X97752805Y-131848164D01*
X97823069Y-131814388D01*
X97902980Y-131772522D01*
X97986592Y-131725638D01*
X98067959Y-131676811D01*
X98116064Y-131645990D01*
X98242768Y-131557002D01*
X98345660Y-131473455D01*
X98422124Y-131397578D01*
X98452468Y-131359207D01*
X98468912Y-131336346D01*
X98469957Y-131338018D01*
G37*
G36*
X99466679Y-130618254D02*
G01*
X99429778Y-130632645D01*
X99369602Y-130654822D01*
X99289885Y-130683430D01*
X99194356Y-130717117D01*
X99086751Y-130754527D01*
X99078561Y-130757355D01*
X98945220Y-130803475D01*
X98838983Y-130840622D01*
X98756204Y-130870285D01*
X98693239Y-130893956D01*
X98646443Y-130913127D01*
X98612172Y-130929290D01*
X98586779Y-130943937D01*
X98566621Y-130958557D01*
X98548433Y-130974298D01*
X98523430Y-130992177D01*
X98511970Y-130990717D01*
X98511892Y-130989615D01*
X98527429Y-130963385D01*
X98572601Y-130931755D01*
X98645247Y-130895968D01*
X98739258Y-130858701D01*
X98820397Y-130829642D01*
X98913050Y-130797220D01*
X99012275Y-130763081D01*
X99113135Y-130728870D01*
X99210688Y-130696234D01*
X99299995Y-130666819D01*
X99376116Y-130642272D01*
X99434112Y-130624237D01*
X99469042Y-130614362D01*
X99476572Y-130613001D01*
X99466679Y-130618254D01*
G37*
G36*
X94993161Y-129742567D02*
G01*
X95010952Y-129775767D01*
X95041703Y-129832890D01*
X95075538Y-129885625D01*
X95115530Y-129936848D01*
X95164750Y-129989434D01*
X95226270Y-130046260D01*
X95303162Y-130110200D01*
X95398500Y-130184130D01*
X95515355Y-130270925D01*
X95625279Y-130350752D01*
X95740245Y-130434577D01*
X95830061Y-130502217D01*
X95896682Y-130555386D01*
X95942064Y-130595796D01*
X95968161Y-130625159D01*
X95976930Y-130645188D01*
X95973067Y-130655364D01*
X95962706Y-130649071D01*
X95955069Y-130631670D01*
X95939145Y-130612445D01*
X95900976Y-130578203D01*
X95844947Y-130532523D01*
X95775442Y-130478984D01*
X95699921Y-130423381D01*
X95610905Y-130359101D01*
X95520526Y-130293611D01*
X95436258Y-130232344D01*
X95365578Y-130180733D01*
X95327689Y-130152889D01*
X95227514Y-130070834D01*
X95137947Y-129981851D01*
X95063637Y-129891536D01*
X95009232Y-129805489D01*
X94980824Y-129735166D01*
X94981314Y-129725991D01*
X94993161Y-129742567D01*
G37*
G36*
X98505286Y-123957802D02*
G01*
X98496571Y-123968810D01*
X98465410Y-123989184D01*
X98421934Y-124012753D01*
X98331167Y-124067057D01*
X98234792Y-124138785D01*
X98144139Y-124218631D01*
X98070538Y-124297287D01*
X98061125Y-124309110D01*
X98014745Y-124360005D01*
X97954314Y-124414545D01*
X97899927Y-124455909D01*
X97810932Y-124524828D01*
X97744054Y-124598165D01*
X97694880Y-124676279D01*
X97677645Y-124703539D01*
X97668461Y-124708763D01*
X97668041Y-124706473D01*
X97678367Y-124675013D01*
X97706868Y-124629421D01*
X97747522Y-124577238D01*
X97794307Y-124526000D01*
X97841203Y-124483248D01*
X97854297Y-124473274D01*
X97895565Y-124440204D01*
X97952399Y-124390085D01*
X98017838Y-124329266D01*
X98084917Y-124264093D01*
X98096717Y-124252300D01*
X98162690Y-124189613D01*
X98233651Y-124128168D01*
X98304991Y-124071288D01*
X98372097Y-124022298D01*
X98430358Y-123984520D01*
X98475163Y-123961280D01*
X98501900Y-123955902D01*
X98505286Y-123957802D01*
G37*
G36*
X96408878Y-131010738D02*
G01*
X96425131Y-131042616D01*
X96426047Y-131046579D01*
X96438798Y-131098831D01*
X96449483Y-131121563D01*
X96461351Y-131117299D01*
X96477652Y-131088563D01*
X96478326Y-131087180D01*
X96507125Y-131046664D01*
X96541629Y-131034399D01*
X96567765Y-131039543D01*
X96577557Y-131061308D01*
X96578318Y-131087180D01*
X96572147Y-131131105D01*
X96557173Y-131190312D01*
X96541769Y-131237404D01*
X96517514Y-131295570D01*
X96495458Y-131327737D01*
X96471551Y-131339782D01*
X96471185Y-131339835D01*
X96438973Y-131337182D01*
X96426035Y-131328402D01*
X96421802Y-131301214D01*
X96425711Y-131272833D01*
X96425388Y-131237077D01*
X96408314Y-131222908D01*
X96384561Y-131233591D01*
X96370527Y-131254930D01*
X96345262Y-131285599D01*
X96313313Y-131296626D01*
X96285082Y-131288065D01*
X96270972Y-131259972D01*
X96270716Y-131254409D01*
X96277319Y-131206273D01*
X96286402Y-131177267D01*
X96300423Y-131137548D01*
X96315810Y-131085114D01*
X96319508Y-131070940D01*
X96333757Y-131026716D01*
X96351304Y-131006480D01*
X96376595Y-131001918D01*
X96408878Y-131010738D01*
G37*
G36*
X97561008Y-130256469D02*
G01*
X97599110Y-130263520D01*
X97628940Y-130280558D01*
X97660895Y-130310077D01*
X97702189Y-130365984D01*
X97716301Y-130420840D01*
X97702444Y-130469210D01*
X97686689Y-130487578D01*
X97656416Y-130504243D01*
X97603573Y-130523832D01*
X97537595Y-130543743D01*
X97467920Y-130561376D01*
X97403983Y-130574128D01*
X97355222Y-130579398D01*
X97353514Y-130579418D01*
X97302262Y-130564620D01*
X97260131Y-130532196D01*
X97223196Y-130483035D01*
X97216455Y-130441998D01*
X97310102Y-130441998D01*
X97315579Y-130471027D01*
X97335028Y-130480190D01*
X97372976Y-130469819D01*
X97415664Y-130449744D01*
X97483310Y-130426344D01*
X97557142Y-130417263D01*
X97610172Y-130413344D01*
X97631896Y-130401321D01*
X97622561Y-130380802D01*
X97593799Y-130358595D01*
X97554774Y-130341670D01*
X97503783Y-130338457D01*
X97469942Y-130341458D01*
X97388761Y-130358857D01*
X97335480Y-130388070D01*
X97311423Y-130428265D01*
X97310102Y-130441998D01*
X97216455Y-130441998D01*
X97215000Y-130433140D01*
X97234388Y-130373821D01*
X97238097Y-130366459D01*
X97281891Y-130315769D01*
X97351043Y-130279233D01*
X97440787Y-130258854D01*
X97502551Y-130255216D01*
X97561008Y-130256469D01*
G37*
G36*
X97735530Y-129239398D02*
G01*
X97781274Y-129260229D01*
X97841197Y-129290874D01*
X97897783Y-129321954D01*
X97977148Y-129368872D01*
X98028352Y-129405353D01*
X98052760Y-129434494D01*
X98051741Y-129459391D01*
X98026658Y-129483139D01*
X97980019Y-129508298D01*
X97875138Y-129557813D01*
X97795515Y-129594864D01*
X97737174Y-129621143D01*
X97696141Y-129638342D01*
X97668440Y-129648152D01*
X97650095Y-129652267D01*
X97640843Y-129652671D01*
X97614971Y-129642440D01*
X97571838Y-129616230D01*
X97519115Y-129578883D01*
X97496867Y-129561760D01*
X97445310Y-129518500D01*
X97404752Y-129479536D01*
X97381454Y-129451096D01*
X97379620Y-129446852D01*
X97517124Y-129446852D01*
X97523769Y-129465725D01*
X97548371Y-129489633D01*
X97564050Y-129502953D01*
X97604507Y-129533740D01*
X97637665Y-129553018D01*
X97648964Y-129556280D01*
X97673235Y-129549831D01*
X97718228Y-129532471D01*
X97775477Y-129507544D01*
X97793741Y-129499106D01*
X97848584Y-129471194D01*
X97886632Y-129447394D01*
X97902307Y-129431369D01*
X97901490Y-129428288D01*
X97879993Y-129413643D01*
X97839651Y-129389542D01*
X97801374Y-129367961D01*
X97716112Y-129321036D01*
X97630850Y-129368111D01*
X97568072Y-129403277D01*
X97531027Y-129427780D01*
X97517124Y-129446852D01*
X97379620Y-129446852D01*
X97378340Y-129443890D01*
X97385207Y-129424864D01*
X97413256Y-129398451D01*
X97465380Y-129362335D01*
X97528416Y-129323676D01*
X97593659Y-129286361D01*
X97650712Y-129256324D01*
X97692664Y-129237048D01*
X97710870Y-129231714D01*
X97735530Y-129239398D01*
G37*
G36*
X95998518Y-129184411D02*
G01*
X96037477Y-129191037D01*
X96066539Y-129206422D01*
X96095323Y-129232467D01*
X96127083Y-129269359D01*
X96138221Y-129302179D01*
X96135417Y-129339747D01*
X96107731Y-129423413D01*
X96056295Y-129485561D01*
X95982785Y-129524885D01*
X95888880Y-129540078D01*
X95878132Y-129540221D01*
X95817154Y-129537025D01*
X95774783Y-129524755D01*
X95737853Y-129499772D01*
X95704889Y-129457168D01*
X95892886Y-129457168D01*
X95913580Y-129455475D01*
X95954513Y-129442654D01*
X95955223Y-129442384D01*
X95983740Y-129428103D01*
X95990652Y-129417208D01*
X95990650Y-129417206D01*
X95971767Y-129417490D01*
X95935984Y-129429017D01*
X95927496Y-129432576D01*
X95896251Y-129449085D01*
X95892886Y-129457168D01*
X95704889Y-129457168D01*
X95693791Y-129442825D01*
X95676539Y-129372874D01*
X95681264Y-129341533D01*
X95755658Y-129341533D01*
X95756509Y-129380911D01*
X95757923Y-129386920D01*
X95771142Y-129415010D01*
X95787717Y-129427450D01*
X95798799Y-129419193D01*
X95799744Y-129410775D01*
X95814375Y-129389398D01*
X95852043Y-129369015D01*
X95903408Y-129353222D01*
X95959129Y-129345618D01*
X95969462Y-129345396D01*
X96015697Y-129343179D01*
X96037649Y-129334299D01*
X96043346Y-129315417D01*
X96043350Y-129314653D01*
X96029175Y-129285988D01*
X95991613Y-129268488D01*
X95938112Y-129263102D01*
X95876116Y-129270779D01*
X95825565Y-129286898D01*
X95777011Y-129312658D01*
X95755658Y-129341533D01*
X95681264Y-129341533D01*
X95687670Y-129299039D01*
X95723290Y-129244774D01*
X95785540Y-129207004D01*
X95872585Y-129186576D01*
X95938390Y-129182992D01*
X95998518Y-129184411D01*
G37*
G36*
X102329698Y-127108296D02*
G01*
X102347674Y-127126984D01*
X102387246Y-127161160D01*
X102443831Y-127207089D01*
X102512842Y-127261034D01*
X102576871Y-127309669D01*
X102664941Y-127376499D01*
X102756109Y-127447035D01*
X102842115Y-127514796D01*
X102914698Y-127573302D01*
X102945524Y-127598867D01*
X103008908Y-127651599D01*
X103072773Y-127703203D01*
X103140861Y-127756483D01*
X103216913Y-127814244D01*
X103304669Y-127879291D01*
X103407871Y-127954428D01*
X103530258Y-128042459D01*
X103675573Y-128146188D01*
X103676342Y-128146736D01*
X103772720Y-128215887D01*
X103864670Y-128282849D01*
X103947443Y-128344086D01*
X104016289Y-128396063D01*
X104066457Y-128435245D01*
X104087092Y-128452433D01*
X104127930Y-128493594D01*
X104167044Y-128541531D01*
X104199608Y-128589041D01*
X104220795Y-128628917D01*
X104225780Y-128653957D01*
X104224070Y-128656918D01*
X104214112Y-128647904D01*
X104196861Y-128617326D01*
X104188627Y-128599916D01*
X104156532Y-128545258D01*
X104115249Y-128494242D01*
X104108944Y-128488017D01*
X104073502Y-128457736D01*
X104015972Y-128412408D01*
X103940980Y-128355457D01*
X103853151Y-128290313D01*
X103757113Y-128220400D01*
X103657490Y-128149147D01*
X103558911Y-128079980D01*
X103546419Y-128071324D01*
X103410044Y-127975433D01*
X103284174Y-127883301D01*
X103158971Y-127787485D01*
X103024599Y-127680541D01*
X102953644Y-127622816D01*
X102862863Y-127549626D01*
X102761115Y-127469351D01*
X102659372Y-127390548D01*
X102568611Y-127321776D01*
X102547634Y-127306202D01*
X102461486Y-127241968D01*
X102398632Y-127193314D01*
X102355723Y-127157239D01*
X102329413Y-127130742D01*
X102316352Y-127110824D01*
X102313158Y-127096100D01*
X102319480Y-127094230D01*
X102329698Y-127108296D01*
G37*
G36*
X96732373Y-131074744D02*
G01*
X96749796Y-131101777D01*
X96757248Y-131153133D01*
X96757989Y-131185951D01*
X96758049Y-131253644D01*
X96789349Y-131202313D01*
X96826311Y-131159727D01*
X96868393Y-131137019D01*
X96908321Y-131134435D01*
X96938823Y-131152218D01*
X96952624Y-131190613D01*
X96952813Y-131196819D01*
X96947151Y-131231641D01*
X96923961Y-131246123D01*
X96909404Y-131248506D01*
X96870493Y-131264999D01*
X96850969Y-131299026D01*
X96844515Y-131334657D01*
X96857846Y-131362913D01*
X96876946Y-131382409D01*
X96917949Y-131420409D01*
X96934993Y-131377628D01*
X96949423Y-131333927D01*
X96964032Y-131278675D01*
X96967223Y-131264560D01*
X96978317Y-131219908D01*
X96988343Y-131190358D01*
X96991271Y-131185412D01*
X97013844Y-131181823D01*
X97041161Y-131197666D01*
X97060460Y-131225012D01*
X97061771Y-131229210D01*
X97076188Y-131252307D01*
X97107090Y-131252184D01*
X97108950Y-131251728D01*
X97137786Y-131249343D01*
X97147193Y-131268300D01*
X97147698Y-131282376D01*
X97139406Y-131320791D01*
X97125722Y-131340987D01*
X97111803Y-131368776D01*
X97110037Y-131421501D01*
X97111548Y-131440418D01*
X97115157Y-131488391D01*
X97111578Y-131512383D01*
X97097281Y-131520688D01*
X97076992Y-131521611D01*
X97042171Y-131512999D01*
X97024601Y-131481514D01*
X97023800Y-131478447D01*
X97014368Y-131449867D01*
X97003605Y-131449672D01*
X96993280Y-131462207D01*
X96967162Y-131481919D01*
X96935315Y-131488564D01*
X96910480Y-131481372D01*
X96904092Y-131467583D01*
X96891330Y-131452803D01*
X96855222Y-131453207D01*
X96804668Y-131451401D01*
X96773220Y-131426348D01*
X96758478Y-131375414D01*
X96756680Y-131345038D01*
X96755432Y-131269885D01*
X96735949Y-131334847D01*
X96718897Y-131378281D01*
X96696635Y-131398880D01*
X96670096Y-131405153D01*
X96637778Y-131405790D01*
X96628757Y-131391541D01*
X96631734Y-131368612D01*
X96632124Y-131336071D01*
X96620559Y-131326659D01*
X96603644Y-131342967D01*
X96580675Y-131357963D01*
X96551678Y-131356614D01*
X96532230Y-131341068D01*
X96530562Y-131332899D01*
X96538248Y-131307293D01*
X96558705Y-131262177D01*
X96588030Y-131205913D01*
X96598755Y-131186736D01*
X96636595Y-131124044D01*
X96665421Y-131086448D01*
X96689264Y-131069295D01*
X96702580Y-131066880D01*
X96732373Y-131074744D01*
G37*
G36*
X96206415Y-129503052D02*
G01*
X96250492Y-129531301D01*
X96310607Y-129565423D01*
X96364094Y-129572762D01*
X96392254Y-129575440D01*
X96424560Y-129585064D01*
X96465693Y-129604017D01*
X96520334Y-129634683D01*
X96593163Y-129679446D01*
X96670317Y-129728716D01*
X96784773Y-129803156D01*
X96874314Y-129863190D01*
X96941823Y-129911215D01*
X96990182Y-129949630D01*
X97022272Y-129980833D01*
X97040976Y-130007221D01*
X97049177Y-130031191D01*
X97050255Y-130044821D01*
X97056411Y-130081022D01*
X97077169Y-130092488D01*
X97078676Y-130092516D01*
X97123358Y-130104748D01*
X97172876Y-130135379D01*
X97214397Y-130175551D01*
X97227510Y-130195230D01*
X97241834Y-130236668D01*
X97233222Y-130276161D01*
X97231918Y-130279081D01*
X97201462Y-130311206D01*
X97151549Y-130318012D01*
X97083191Y-130299401D01*
X97072238Y-130294775D01*
X97026595Y-130267513D01*
X96991036Y-130235199D01*
X96960539Y-130209533D01*
X96916761Y-130198584D01*
X96887533Y-130197232D01*
X96877578Y-130196487D01*
X97087554Y-130196487D01*
X97098977Y-130206138D01*
X97124890Y-130220745D01*
X97128343Y-130215244D01*
X97123337Y-130206138D01*
X97099619Y-130190697D01*
X97093958Y-130190146D01*
X97087554Y-130196487D01*
X96877578Y-130196487D01*
X96857722Y-130195001D01*
X96826388Y-130187389D01*
X96812596Y-130181777D01*
X97050255Y-130181777D01*
X97058375Y-130189898D01*
X97066496Y-130181777D01*
X97058375Y-130173657D01*
X97050255Y-130181777D01*
X96812596Y-130181777D01*
X96788645Y-130172031D01*
X96739605Y-130146565D01*
X96674383Y-130108626D01*
X96631793Y-130082578D01*
X96815699Y-130082578D01*
X96836223Y-130108412D01*
X96874001Y-130122721D01*
X96921513Y-130121496D01*
X96943364Y-130115078D01*
X96965678Y-130092526D01*
X96966571Y-130057806D01*
X96947597Y-130021712D01*
X96927365Y-130003914D01*
X96888023Y-129988290D01*
X96854995Y-130000594D01*
X96823425Y-130042877D01*
X96819947Y-130049233D01*
X96815699Y-130082578D01*
X96631793Y-130082578D01*
X96588090Y-130055849D01*
X96562725Y-130040104D01*
X96453625Y-129971154D01*
X96369642Y-129915100D01*
X96360074Y-129908024D01*
X96519362Y-129908024D01*
X96537346Y-129921033D01*
X96573160Y-129944269D01*
X96617599Y-129972050D01*
X96661457Y-129998695D01*
X96695530Y-130018522D01*
X96710228Y-130025841D01*
X96726077Y-130016263D01*
X96754707Y-129990296D01*
X96765886Y-129978942D01*
X96793103Y-129947740D01*
X96805731Y-129927557D01*
X96805465Y-129924615D01*
X96789557Y-129913406D01*
X96753802Y-129889024D01*
X96705356Y-129856341D01*
X96695805Y-129849929D01*
X96643399Y-129815513D01*
X96610753Y-129797497D01*
X96590954Y-129793740D01*
X96577093Y-129802103D01*
X96569668Y-129810874D01*
X96537108Y-129857134D01*
X96519596Y-129892130D01*
X96519362Y-129908024D01*
X96360074Y-129908024D01*
X96307469Y-129869122D01*
X96270868Y-129836669D01*
X96417539Y-129836669D01*
X96424007Y-129849383D01*
X96443490Y-129837349D01*
X96471873Y-129803417D01*
X96477781Y-129794952D01*
X96501077Y-129757353D01*
X96513623Y-129730527D01*
X96514322Y-129726655D01*
X96505695Y-129728758D01*
X96484640Y-129748485D01*
X96458395Y-129777608D01*
X96434198Y-129807900D01*
X96419287Y-129831132D01*
X96417539Y-129836669D01*
X96270868Y-129836669D01*
X96263796Y-129830399D01*
X96235318Y-129796110D01*
X96218726Y-129763433D01*
X96212715Y-129741553D01*
X96191440Y-129698115D01*
X96286956Y-129698115D01*
X96294381Y-129731377D01*
X96311483Y-129764384D01*
X96330504Y-129783087D01*
X96334321Y-129783887D01*
X96351913Y-129772095D01*
X96379178Y-129742627D01*
X96388704Y-129730604D01*
X96429346Y-129677320D01*
X96393573Y-129660438D01*
X96353620Y-129653056D01*
X96315110Y-129662532D01*
X96290347Y-129684519D01*
X96286956Y-129698115D01*
X96191440Y-129698115D01*
X96189504Y-129694163D01*
X96147081Y-129662234D01*
X96101124Y-129625770D01*
X96078945Y-129583573D01*
X96080320Y-129542856D01*
X96105020Y-129510832D01*
X96152343Y-129494760D01*
X96206415Y-129503052D01*
G37*
G36*
X96457480Y-130865708D02*
G01*
X96557633Y-130870468D01*
X96650186Y-130883834D01*
X96743686Y-130908056D01*
X96846683Y-130945381D01*
X96967722Y-130998060D01*
X96977173Y-131002418D01*
X97068085Y-131043523D01*
X97139611Y-131072251D01*
X97201400Y-131090781D01*
X97263104Y-131101295D01*
X97334372Y-131105970D01*
X97424854Y-131106987D01*
X97440025Y-131106961D01*
X97582453Y-131101347D01*
X97706026Y-131083426D01*
X97822952Y-131050380D01*
X97945440Y-130999393D01*
X97981333Y-130982044D01*
X98036801Y-130956683D01*
X98071957Y-130946826D01*
X98094039Y-130950769D01*
X98099076Y-130954288D01*
X98119605Y-130986419D01*
X98114371Y-131030219D01*
X98090342Y-131078201D01*
X98058683Y-131130124D01*
X98133400Y-131135043D01*
X98195125Y-131145858D01*
X98227098Y-131167729D01*
X98228803Y-131199885D01*
X98202781Y-131238335D01*
X98155491Y-131282370D01*
X98087438Y-131337037D01*
X98006127Y-131396963D01*
X97919059Y-131456775D01*
X97833737Y-131511101D01*
X97771608Y-131547095D01*
X97686418Y-131588110D01*
X97591561Y-131624924D01*
X97496252Y-131654698D01*
X97409709Y-131674595D01*
X97341149Y-131681779D01*
X97334462Y-131681648D01*
X97296913Y-131678694D01*
X97237399Y-131672358D01*
X97166124Y-131663765D01*
X97131457Y-131659266D01*
X97061203Y-131649570D01*
X97002079Y-131640132D01*
X96947078Y-131629258D01*
X96889189Y-131615251D01*
X96821403Y-131596415D01*
X96736713Y-131571053D01*
X96628108Y-131537471D01*
X96628005Y-131537439D01*
X96496687Y-131497532D01*
X96390396Y-131467684D01*
X96303696Y-131446689D01*
X96231147Y-131433340D01*
X96167314Y-131426433D01*
X96119982Y-131424739D01*
X96059608Y-131421342D01*
X96026396Y-131411301D01*
X96016921Y-131400274D01*
X96017005Y-131369241D01*
X96026609Y-131326726D01*
X96126523Y-131326726D01*
X96186439Y-131327297D01*
X96243686Y-131331745D01*
X96317125Y-131344696D01*
X96410326Y-131366999D01*
X96526857Y-131399501D01*
X96660485Y-131439997D01*
X96769457Y-131473715D01*
X96854347Y-131499168D01*
X96922023Y-131517952D01*
X96979353Y-131531663D01*
X97033202Y-131541898D01*
X97090438Y-131550253D01*
X97157927Y-131558324D01*
X97180179Y-131560815D01*
X97291018Y-131570167D01*
X97381108Y-131569755D01*
X97461003Y-131558469D01*
X97541260Y-131535202D01*
X97586189Y-131518181D01*
X97649424Y-131490800D01*
X97712060Y-131460555D01*
X97740473Y-131445325D01*
X97776996Y-131423007D01*
X97786770Y-131411695D01*
X97772246Y-131408176D01*
X97768893Y-131408124D01*
X97741141Y-131400401D01*
X97731019Y-131371810D01*
X97730469Y-131363267D01*
X97727959Y-131337539D01*
X97723518Y-131343352D01*
X97721716Y-131351087D01*
X97712446Y-131394775D01*
X97707050Y-131420109D01*
X97694756Y-131445710D01*
X97666101Y-131455690D01*
X97642721Y-131456650D01*
X97605269Y-131460432D01*
X97586646Y-131469728D01*
X97586189Y-131471631D01*
X97571913Y-131487551D01*
X97536764Y-131502624D01*
X97492260Y-131513597D01*
X97449920Y-131517216D01*
X97432386Y-131515063D01*
X97401232Y-131512700D01*
X97388588Y-131519492D01*
X97365528Y-131540335D01*
X97327400Y-131544692D01*
X97287529Y-131531850D01*
X97278275Y-131525406D01*
X97250438Y-131485153D01*
X97235024Y-131427295D01*
X97234012Y-131374874D01*
X97312251Y-131374874D01*
X97313436Y-131399170D01*
X97325594Y-131438166D01*
X97356689Y-131456439D01*
X97358823Y-131456970D01*
X97393436Y-131456531D01*
X97407194Y-131432603D01*
X97401572Y-131386343D01*
X97382328Y-131357785D01*
X97350686Y-131351087D01*
X97321309Y-131355358D01*
X97312251Y-131374874D01*
X97234012Y-131374874D01*
X97233820Y-131364917D01*
X97248613Y-131311102D01*
X97248934Y-131310486D01*
X97280221Y-131276483D01*
X97320195Y-131264009D01*
X97357632Y-131275175D01*
X97370093Y-131287687D01*
X97386303Y-131307550D01*
X97391046Y-131300828D01*
X97391304Y-131288100D01*
X97401221Y-131266564D01*
X97427845Y-131264695D01*
X97449548Y-131271838D01*
X97461528Y-131290959D01*
X97467577Y-131330455D01*
X97469343Y-131356540D01*
X97474014Y-131407096D01*
X97482042Y-131431181D01*
X97495738Y-131434787D01*
X97499092Y-131433682D01*
X97536067Y-131424955D01*
X97547487Y-131424169D01*
X97562628Y-131417264D01*
X97555370Y-131394793D01*
X97543736Y-131359517D01*
X97535360Y-131310538D01*
X97534498Y-131301410D01*
X97533546Y-131259686D01*
X97542136Y-131241243D01*
X97561051Y-131237404D01*
X97584498Y-131246637D01*
X97602854Y-131278455D01*
X97613123Y-131310486D01*
X97633491Y-131383568D01*
X97630811Y-131318606D01*
X97797314Y-131318606D01*
X97805434Y-131326726D01*
X97813555Y-131318606D01*
X97805434Y-131310486D01*
X97797314Y-131318606D01*
X97630811Y-131318606D01*
X97630141Y-131302366D01*
X97629911Y-131286125D01*
X97699872Y-131286125D01*
X97707992Y-131294246D01*
X97716112Y-131286125D01*
X97707992Y-131278005D01*
X97699872Y-131286125D01*
X97629911Y-131286125D01*
X97629460Y-131254222D01*
X97634857Y-131230359D01*
X97649688Y-131222690D01*
X97663331Y-131222453D01*
X97691832Y-131218395D01*
X97699872Y-131210273D01*
X97694136Y-131201304D01*
X97673531Y-131197965D01*
X97632953Y-131200332D01*
X97567304Y-131208480D01*
X97537712Y-131212676D01*
X97382598Y-131219383D01*
X97216579Y-131196713D01*
X97189395Y-131188683D01*
X97716112Y-131188683D01*
X97724232Y-131196803D01*
X97732352Y-131188683D01*
X97724232Y-131180563D01*
X97716112Y-131188683D01*
X97189395Y-131188683D01*
X97064581Y-131151814D01*
X97835389Y-131151814D01*
X97865044Y-131241702D01*
X97881151Y-131296509D01*
X97884964Y-131330493D01*
X97877214Y-131352585D01*
X97874427Y-131356258D01*
X97875692Y-131360389D01*
X97898225Y-131347870D01*
X97937206Y-131321404D01*
X97939387Y-131319844D01*
X97984920Y-131286014D01*
X98019194Y-131258325D01*
X98033728Y-131244023D01*
X98026490Y-131233772D01*
X97996443Y-131229292D01*
X97994895Y-131229284D01*
X97951181Y-131217641D01*
X97931614Y-131185535D01*
X97935667Y-131147106D01*
X97938335Y-131128964D01*
X97924779Y-131125829D01*
X97890112Y-131135020D01*
X97835389Y-131151814D01*
X97064581Y-131151814D01*
X97041730Y-131145064D01*
X96920332Y-131094285D01*
X96767195Y-131029577D01*
X96630737Y-130986578D01*
X96505188Y-130963525D01*
X96486349Y-130961625D01*
X96402221Y-130956632D01*
X96342298Y-130961742D01*
X96298967Y-130980527D01*
X96264615Y-131016561D01*
X96231630Y-131073415D01*
X96226536Y-131083543D01*
X96195936Y-131148132D01*
X96167955Y-131212398D01*
X96150380Y-131257705D01*
X96126523Y-131326726D01*
X96026609Y-131326726D01*
X96029347Y-131314607D01*
X96052113Y-131242037D01*
X96083466Y-131157194D01*
X96121574Y-131065742D01*
X96134947Y-131035893D01*
X96167829Y-130968634D01*
X96199258Y-130921554D01*
X96235818Y-130891181D01*
X96284091Y-130874039D01*
X96350662Y-130866655D01*
X96442114Y-130865556D01*
X96457480Y-130865708D01*
G37*
G36*
X99155027Y-124124602D02*
G01*
X99329767Y-124147460D01*
X99499591Y-124192860D01*
X99656841Y-124259756D01*
X99758675Y-124324401D01*
X99859298Y-124409356D01*
X99949480Y-124505597D01*
X100019992Y-124604099D01*
X100033452Y-124627994D01*
X100089698Y-124755059D01*
X100133597Y-124895952D01*
X100161635Y-125037404D01*
X100170335Y-125145007D01*
X100172826Y-125236739D01*
X100178158Y-125300686D01*
X100187793Y-125341514D01*
X100203196Y-125363889D01*
X100225830Y-125372478D01*
X100241838Y-125373017D01*
X100279443Y-125366509D01*
X100336391Y-125350639D01*
X100402020Y-125328479D01*
X100420140Y-125321702D01*
X100503383Y-125289992D01*
X100596730Y-125254647D01*
X100679976Y-125223318D01*
X100679987Y-125223314D01*
X100734753Y-125202580D01*
X100813014Y-125172655D01*
X100908002Y-125136140D01*
X101012949Y-125095641D01*
X101121087Y-125053759D01*
X101148799Y-125043001D01*
X101304665Y-124983423D01*
X101455729Y-124927521D01*
X101598538Y-124876446D01*
X101729636Y-124831350D01*
X101845571Y-124793385D01*
X101942888Y-124763702D01*
X102018134Y-124743453D01*
X102067854Y-124733790D01*
X102078179Y-124733120D01*
X102149400Y-124746004D01*
X102221521Y-124779760D01*
X102280195Y-124827041D01*
X102293421Y-124843312D01*
X102333017Y-124906925D01*
X102359896Y-124972304D01*
X102376039Y-125047657D01*
X102383428Y-125141188D01*
X102384459Y-125220332D01*
X102383299Y-125318630D01*
X102379732Y-125389931D01*
X102372224Y-125439709D01*
X102359238Y-125473436D01*
X102339241Y-125496586D01*
X102310696Y-125514632D01*
X102300474Y-125519754D01*
X102243255Y-125545904D01*
X102168455Y-125577832D01*
X102085510Y-125611753D01*
X102003853Y-125643882D01*
X101932919Y-125670433D01*
X101882143Y-125687622D01*
X101881777Y-125687731D01*
X101660566Y-125751063D01*
X101431471Y-125811168D01*
X101187617Y-125869730D01*
X100922131Y-125928430D01*
X100761189Y-125962043D01*
X100691204Y-125975772D01*
X100625727Y-125987561D01*
X100577424Y-125995147D01*
X100572390Y-125995788D01*
X100513514Y-126002897D01*
X100591780Y-126151609D01*
X100635468Y-126240492D01*
X100686493Y-126354152D01*
X100742331Y-126486421D01*
X100800456Y-126631128D01*
X100858341Y-126782105D01*
X100913460Y-126933182D01*
X100923929Y-126962863D01*
X100985389Y-127138193D01*
X101035693Y-127127441D01*
X101191958Y-127079403D01*
X101349918Y-127003568D01*
X101504197Y-126903841D01*
X101649420Y-126784127D01*
X101780211Y-126648332D01*
X101884199Y-126511011D01*
X101923019Y-126458105D01*
X101954102Y-126430093D01*
X101981921Y-126422123D01*
X102005978Y-126426326D01*
X102024284Y-126442354D01*
X102039160Y-126475337D01*
X102052928Y-126530401D01*
X102067752Y-126611744D01*
X102075627Y-126744163D01*
X102058480Y-126885290D01*
X102017986Y-127025333D01*
X101983454Y-127104220D01*
X101957064Y-127156833D01*
X101936821Y-127197204D01*
X101926722Y-127217362D01*
X101926410Y-127217986D01*
X101936835Y-127229036D01*
X101967769Y-127245689D01*
X101975132Y-127248962D01*
X102038557Y-127281509D01*
X102122402Y-127332484D01*
X102222599Y-127398979D01*
X102335079Y-127478082D01*
X102455773Y-127566884D01*
X102580613Y-127662475D01*
X102705530Y-127761945D01*
X102791240Y-127832659D01*
X102848306Y-127878795D01*
X102927208Y-127940118D01*
X103023238Y-128013097D01*
X103131687Y-128094202D01*
X103247847Y-128179900D01*
X103367009Y-128266661D01*
X103439423Y-128318787D01*
X103549572Y-128398410D01*
X103652106Y-128473884D01*
X103743794Y-128542727D01*
X103821405Y-128602457D01*
X103881709Y-128650594D01*
X103921476Y-128684655D01*
X103936808Y-128700835D01*
X103960062Y-128753502D01*
X103980367Y-128824339D01*
X103994570Y-128899056D01*
X103999512Y-128963365D01*
X103998526Y-128980296D01*
X103981380Y-129020624D01*
X103938405Y-129061904D01*
X103868647Y-129104533D01*
X103771150Y-129148910D01*
X103644958Y-129195434D01*
X103489118Y-129244503D01*
X103302673Y-129296516D01*
X103142038Y-129337734D01*
X102857089Y-129408654D01*
X102601686Y-129472264D01*
X102373851Y-129529065D01*
X102171603Y-129579555D01*
X101992960Y-129624236D01*
X101835943Y-129663607D01*
X101698572Y-129698169D01*
X101578865Y-129728420D01*
X101474843Y-129754861D01*
X101384524Y-129777992D01*
X101305929Y-129798314D01*
X101237077Y-129816325D01*
X101175988Y-129832526D01*
X101120681Y-129847417D01*
X101090057Y-129855764D01*
X101016994Y-129875694D01*
X100937644Y-129897234D01*
X100903292Y-129906520D01*
X100848544Y-129921582D01*
X100772875Y-129942794D01*
X100683758Y-129968019D01*
X100588663Y-129995122D01*
X100495062Y-130021968D01*
X100410424Y-130046419D01*
X100342221Y-130066341D01*
X100298337Y-130079470D01*
X100247279Y-130095322D01*
X100202197Y-130109498D01*
X100200895Y-130109912D01*
X100168853Y-130119847D01*
X100114149Y-130136541D01*
X100045233Y-130157426D01*
X99989769Y-130174151D01*
X99803908Y-130230946D01*
X99623546Y-130287971D01*
X99444253Y-130346787D01*
X99261595Y-130408956D01*
X99071142Y-130476037D01*
X98868460Y-130549592D01*
X98649119Y-130631181D01*
X98408685Y-130722366D01*
X98146483Y-130823252D01*
X97970085Y-130891229D01*
X97821110Y-130947888D01*
X97696855Y-130994050D01*
X97594618Y-131030539D01*
X97511695Y-131058178D01*
X97445385Y-131077792D01*
X97392984Y-131090202D01*
X97351790Y-131096233D01*
X97319100Y-131096707D01*
X97292211Y-131092448D01*
X97277621Y-131087920D01*
X97186582Y-131048864D01*
X97070929Y-130989123D01*
X96930943Y-130908871D01*
X96766903Y-130808287D01*
X96579092Y-130687547D01*
X96367789Y-130546829D01*
X96133275Y-130386308D01*
X95875830Y-130206162D01*
X95848465Y-130186814D01*
X95739748Y-130108720D01*
X95634245Y-130030791D01*
X95535423Y-129955773D01*
X95446747Y-129886411D01*
X95371686Y-129825451D01*
X95313705Y-129775640D01*
X95276271Y-129739724D01*
X95263841Y-129723713D01*
X95253294Y-129686357D01*
X95244101Y-129624181D01*
X95237242Y-129544843D01*
X95234970Y-129499757D01*
X95351514Y-129499757D01*
X95355026Y-129556447D01*
X95355033Y-129556522D01*
X95358902Y-129594924D01*
X95365108Y-129626953D01*
X95376744Y-129655925D01*
X95396902Y-129685153D01*
X95428674Y-129717952D01*
X95475151Y-129757638D01*
X95539426Y-129807525D01*
X95624592Y-129870928D01*
X95700112Y-129926464D01*
X95901695Y-130072950D01*
X96098068Y-130212620D01*
X96287323Y-130344268D01*
X96467549Y-130466684D01*
X96636838Y-130578660D01*
X96793279Y-130678987D01*
X96934963Y-130766457D01*
X97059980Y-130839862D01*
X97166421Y-130897993D01*
X97252377Y-130939642D01*
X97315937Y-130963599D01*
X97347839Y-130969231D01*
X97385740Y-130964162D01*
X97442313Y-130950629D01*
X97505784Y-130931478D01*
X97510243Y-130929980D01*
X97588487Y-130902939D01*
X97672438Y-130873025D01*
X97753727Y-130843311D01*
X97823986Y-130816870D01*
X97874845Y-130796776D01*
X97886636Y-130791757D01*
X97911588Y-130781497D01*
X97960109Y-130762391D01*
X98033470Y-130733951D01*
X98132943Y-130695686D01*
X98259798Y-130647107D01*
X98415306Y-130587723D01*
X98479411Y-130563276D01*
X98546188Y-130538154D01*
X98631307Y-130506611D01*
X98722528Y-130473164D01*
X98787979Y-130449403D01*
X98869758Y-130419826D01*
X98948950Y-130391099D01*
X99015779Y-130366775D01*
X99055946Y-130352071D01*
X99139827Y-130321362D01*
X99217121Y-130293533D01*
X99292504Y-130267026D01*
X99370654Y-130240281D01*
X99456248Y-130211739D01*
X99553964Y-130179841D01*
X99668479Y-130143029D01*
X99804471Y-130099743D01*
X99966616Y-130048424D01*
X99973529Y-130046240D01*
X100053149Y-130021705D01*
X100156498Y-129990773D01*
X100275982Y-129955639D01*
X100404007Y-129918495D01*
X100532978Y-129881536D01*
X100655301Y-129846957D01*
X100763381Y-129816950D01*
X100826150Y-129799933D01*
X100901798Y-129779684D01*
X100978881Y-129758994D01*
X101041601Y-129742105D01*
X101045396Y-129741080D01*
X101195263Y-129701049D01*
X101360973Y-129657689D01*
X101544482Y-129610511D01*
X101747747Y-129559027D01*
X101972726Y-129502746D01*
X102221375Y-129441180D01*
X102495651Y-129373839D01*
X102797511Y-129300233D01*
X103128912Y-129219874D01*
X103156649Y-129213165D01*
X103226153Y-129196083D01*
X103289195Y-129180110D01*
X103334830Y-129168033D01*
X103343414Y-129165608D01*
X103476006Y-129125521D01*
X103585376Y-129088823D01*
X103680140Y-129052486D01*
X103745364Y-129024303D01*
X103807392Y-128995102D01*
X103845046Y-128973351D01*
X103864120Y-128954457D01*
X103870406Y-128933826D01*
X103870652Y-128924946D01*
X103862318Y-128877019D01*
X103850229Y-128846843D01*
X103830382Y-128811142D01*
X103759576Y-128842843D01*
X103682960Y-128872904D01*
X103576876Y-128907915D01*
X103443829Y-128947114D01*
X103286325Y-128989735D01*
X103229731Y-129004339D01*
X103132318Y-129029988D01*
X103025778Y-129059347D01*
X102918203Y-129090066D01*
X102817684Y-129119794D01*
X102732314Y-129146180D01*
X102670185Y-129166873D01*
X102669437Y-129167140D01*
X102623739Y-129181988D01*
X102551796Y-129203496D01*
X102458815Y-129230221D01*
X102350006Y-129260718D01*
X102230576Y-129293546D01*
X102105734Y-129327261D01*
X101980688Y-129360420D01*
X101860647Y-129391578D01*
X101845549Y-129395440D01*
X101726935Y-129426337D01*
X101588379Y-129463418D01*
X101441078Y-129503624D01*
X101296228Y-129543898D01*
X101165025Y-129581183D01*
X101159079Y-129582898D01*
X101047506Y-129615072D01*
X100939255Y-129646225D01*
X100840625Y-129674551D01*
X100757916Y-129698240D01*
X100697431Y-129715483D01*
X100679987Y-129720420D01*
X100601286Y-129742682D01*
X100514915Y-129767237D01*
X100456549Y-129783909D01*
X100380567Y-129805603D01*
X100294225Y-129830140D01*
X100229183Y-129848545D01*
X100168721Y-129865084D01*
X100084843Y-129887317D01*
X99984756Y-129913402D01*
X99875670Y-129941499D01*
X99764790Y-129969765D01*
X99659326Y-129996361D01*
X99566483Y-130019444D01*
X99493471Y-130037174D01*
X99461956Y-130044527D01*
X99411736Y-130057813D01*
X99336959Y-130080048D01*
X99243648Y-130109226D01*
X99137822Y-130143345D01*
X99025505Y-130180401D01*
X98912719Y-130218389D01*
X98805484Y-130255306D01*
X98709823Y-130289149D01*
X98631758Y-130317913D01*
X98584974Y-130336355D01*
X98557263Y-130347277D01*
X98506596Y-130366709D01*
X98440448Y-130391799D01*
X98373849Y-130416866D01*
X98286994Y-130449480D01*
X98223718Y-130473438D01*
X98177179Y-130491467D01*
X98140535Y-130506290D01*
X98106943Y-130520635D01*
X98069561Y-130537227D01*
X98052666Y-130544810D01*
X98005833Y-130564625D01*
X97970730Y-130577252D01*
X97959765Y-130579668D01*
X97937600Y-130585970D01*
X97896267Y-130602256D01*
X97858697Y-130618709D01*
X97725192Y-130677082D01*
X97609510Y-130722714D01*
X97514509Y-130754604D01*
X97443045Y-130771753D01*
X97413118Y-130774552D01*
X97340710Y-130764391D01*
X97244815Y-130734464D01*
X97127055Y-130685609D01*
X96989054Y-130618663D01*
X96832434Y-130534463D01*
X96658820Y-130433847D01*
X96469833Y-130317652D01*
X96267097Y-130186715D01*
X96244458Y-130171734D01*
X96138803Y-130099930D01*
X96027520Y-130021227D01*
X95914176Y-129938427D01*
X95802336Y-129854332D01*
X95695568Y-129771746D01*
X95597437Y-129693470D01*
X95511509Y-129622308D01*
X95441352Y-129561061D01*
X95390531Y-129512534D01*
X95362614Y-129479527D01*
X95361695Y-129478018D01*
X95353707Y-129473975D01*
X95351514Y-129499757D01*
X95234970Y-129499757D01*
X95234836Y-129497108D01*
X95228189Y-129323001D01*
X95375073Y-129323001D01*
X95527063Y-129468182D01*
X95661148Y-129588281D01*
X95819950Y-129717099D01*
X95998103Y-129851110D01*
X96190239Y-129986791D01*
X96390990Y-130120615D01*
X96594989Y-130249058D01*
X96796870Y-130368595D01*
X96991264Y-130475701D01*
X97172805Y-130566850D01*
X97261381Y-130607225D01*
X97333558Y-130637342D01*
X97386061Y-130653711D01*
X97428306Y-130657037D01*
X97469707Y-130648024D01*
X97519679Y-130627377D01*
X97521227Y-130626669D01*
X97566996Y-130606726D01*
X97638043Y-130577063D01*
X97729356Y-130539682D01*
X97835924Y-130496589D01*
X97952735Y-130449786D01*
X98074775Y-130401279D01*
X98197032Y-130353069D01*
X98314496Y-130307162D01*
X98422152Y-130265561D01*
X98473924Y-130245791D01*
X98590182Y-130202580D01*
X98717909Y-130156750D01*
X98851546Y-130110151D01*
X98985534Y-130064634D01*
X99114311Y-130022049D01*
X99232320Y-129984247D01*
X99333998Y-129953079D01*
X99413788Y-129930394D01*
X99445716Y-129922346D01*
X99534875Y-129900873D01*
X99644456Y-129873396D01*
X99770761Y-129840926D01*
X99910092Y-129804476D01*
X100058752Y-129765058D01*
X100213043Y-129723682D01*
X100369269Y-129681360D01*
X100523731Y-129639104D01*
X100672732Y-129597926D01*
X100812575Y-129558837D01*
X100939562Y-129522849D01*
X101049996Y-129490973D01*
X101140179Y-129464222D01*
X101206414Y-129443605D01*
X101245004Y-129430137D01*
X101245569Y-129429906D01*
X101259605Y-129420645D01*
X101258621Y-129405676D01*
X101239996Y-129378735D01*
X101209028Y-129342525D01*
X101162345Y-129280929D01*
X101154277Y-129260000D01*
X101306353Y-129260000D01*
X101311204Y-129273248D01*
X101333034Y-129299280D01*
X101363770Y-129330204D01*
X101395341Y-129358127D01*
X101419675Y-129375156D01*
X101426171Y-129377160D01*
X101451075Y-129372837D01*
X101494640Y-129362699D01*
X101518804Y-129356506D01*
X101594323Y-129336568D01*
X101535045Y-129267134D01*
X101475767Y-129197700D01*
X101394565Y-129226510D01*
X101347753Y-129243500D01*
X101315168Y-129256038D01*
X101306353Y-129260000D01*
X101154277Y-129260000D01*
X101143929Y-129233155D01*
X101153630Y-129197290D01*
X101191300Y-129171419D01*
X101195620Y-129169684D01*
X101229486Y-129155038D01*
X101236472Y-129143685D01*
X101220329Y-129128121D01*
X101217481Y-129125965D01*
X101191437Y-129104123D01*
X101149827Y-129066877D01*
X101100525Y-129021309D01*
X101087289Y-129008850D01*
X101022993Y-128948243D01*
X100970337Y-128898785D01*
X101157571Y-128898785D01*
X101263894Y-129002023D01*
X101320732Y-129054593D01*
X101360765Y-129084854D01*
X101387926Y-129095493D01*
X101398632Y-129094023D01*
X101450480Y-129076315D01*
X101490716Y-129072763D01*
X101526882Y-129086342D01*
X101566525Y-129120023D01*
X101617188Y-129176782D01*
X101621468Y-129181845D01*
X101667654Y-129235727D01*
X101699594Y-129268836D01*
X101723664Y-129285490D01*
X101746243Y-129290010D01*
X101773707Y-129286714D01*
X101775752Y-129286343D01*
X101826116Y-129275190D01*
X101868587Y-129262694D01*
X101869597Y-129262323D01*
X101897719Y-129247920D01*
X101906138Y-129237848D01*
X101896635Y-129220231D01*
X101872160Y-129186401D01*
X101849296Y-129157571D01*
X101810576Y-129105143D01*
X101806539Y-129095027D01*
X101955550Y-129095027D01*
X101998399Y-129155250D01*
X102025017Y-129191376D01*
X102046244Y-129209289D01*
X102072864Y-129212054D01*
X102115666Y-129202734D01*
X102141391Y-129195864D01*
X102184574Y-129182443D01*
X102210917Y-129170649D01*
X102214705Y-129166569D01*
X102204020Y-129150483D01*
X102177043Y-129121123D01*
X102161924Y-129106197D01*
X102128609Y-129076272D01*
X102102441Y-129064108D01*
X102069364Y-129066351D01*
X102032346Y-129075269D01*
X101955550Y-129095027D01*
X101806539Y-129095027D01*
X101795506Y-129067377D01*
X101803299Y-129037540D01*
X101832014Y-129009762D01*
X101871574Y-128979987D01*
X101807993Y-128909260D01*
X101744413Y-128838532D01*
X101618210Y-128868005D01*
X101517384Y-128885473D01*
X101400628Y-128895908D01*
X101324789Y-128898132D01*
X101157571Y-128898785D01*
X100970337Y-128898785D01*
X100950806Y-128880440D01*
X100887989Y-128821643D01*
X100866244Y-128801343D01*
X101876580Y-128801343D01*
X101944140Y-128878439D01*
X101981599Y-128920079D01*
X102007090Y-128941495D01*
X102030038Y-128946903D01*
X102059868Y-128940523D01*
X102073508Y-128936337D01*
X102135317Y-128917140D01*
X102243345Y-129025168D01*
X102299813Y-129079381D01*
X102342131Y-129111673D01*
X102377632Y-129124483D01*
X102413646Y-129120251D01*
X102457508Y-129101420D01*
X102463420Y-129098411D01*
X102478348Y-129089556D01*
X102483052Y-129078890D01*
X102474890Y-129060757D01*
X102451220Y-129029503D01*
X102409399Y-128979471D01*
X102405929Y-128975362D01*
X102372065Y-128928683D01*
X102371499Y-128926329D01*
X102524111Y-128926329D01*
X102576474Y-128989499D01*
X102609941Y-129024385D01*
X102637819Y-129043993D01*
X102648121Y-129045648D01*
X102675033Y-129037264D01*
X102719073Y-129024766D01*
X102735509Y-129020289D01*
X102803612Y-129001951D01*
X102740584Y-128934377D01*
X102706000Y-128896848D01*
X102682162Y-128870126D01*
X102675282Y-128861572D01*
X102660757Y-128864824D01*
X102626056Y-128878852D01*
X102598559Y-128891334D01*
X102524111Y-128926329D01*
X102371499Y-128926329D01*
X102363803Y-128894291D01*
X102380968Y-128864707D01*
X102402937Y-128846489D01*
X102445004Y-128815845D01*
X102374516Y-128739917D01*
X102304028Y-128663989D01*
X102149744Y-128713870D01*
X102076211Y-128737601D01*
X102007539Y-128759688D01*
X101954097Y-128776800D01*
X101936020Y-128782547D01*
X101876580Y-128801343D01*
X100866244Y-128801343D01*
X100787961Y-128728261D01*
X100657612Y-128728261D01*
X100527263Y-128728261D01*
X100507353Y-128698820D01*
X100983959Y-128698820D01*
X101011909Y-128716172D01*
X101069830Y-128738488D01*
X101090057Y-128745025D01*
X101173178Y-128769201D01*
X101244327Y-128784241D01*
X101311534Y-128790096D01*
X101382831Y-128786715D01*
X101466250Y-128774050D01*
X101569822Y-128752050D01*
X101613810Y-128741783D01*
X101754897Y-128705579D01*
X101920104Y-128657972D01*
X102112181Y-128598168D01*
X102122321Y-128594914D01*
X102330385Y-128528052D01*
X102450467Y-128647333D01*
X102504778Y-128700571D01*
X102541991Y-128734008D01*
X102567690Y-128751088D01*
X102587459Y-128755260D01*
X102606883Y-128749970D01*
X102612637Y-128747437D01*
X102656761Y-128731949D01*
X102694571Y-128732466D01*
X102732443Y-128751928D01*
X102776755Y-128793274D01*
X102820393Y-128843207D01*
X102863874Y-128893021D01*
X102900863Y-128931519D01*
X102925734Y-128953015D01*
X102931576Y-128955627D01*
X102955599Y-128951357D01*
X102999692Y-128940341D01*
X103038206Y-128929590D01*
X103127767Y-128903554D01*
X103051484Y-128826107D01*
X103003520Y-128773048D01*
X102989414Y-128748407D01*
X103137631Y-128748407D01*
X103198751Y-128811000D01*
X103232824Y-128843773D01*
X103261409Y-128861087D01*
X103293791Y-128864055D01*
X103339256Y-128853790D01*
X103397208Y-128834780D01*
X103451003Y-128816424D01*
X103376270Y-128762755D01*
X103332353Y-128732626D01*
X103300916Y-128718835D01*
X103268318Y-128718423D01*
X103220913Y-128728428D01*
X103219584Y-128728747D01*
X103137631Y-128748407D01*
X102989414Y-128748407D01*
X102980428Y-128732711D01*
X102983739Y-128700953D01*
X103014988Y-128673631D01*
X103075707Y-128646599D01*
X103124168Y-128629708D01*
X103190572Y-128608900D01*
X103248852Y-128592805D01*
X103289558Y-128583954D01*
X103298517Y-128583015D01*
X103326714Y-128591771D01*
X103373191Y-128616079D01*
X103430436Y-128651744D01*
X103467958Y-128677659D01*
X103601093Y-128773221D01*
X103668528Y-128748227D01*
X103735963Y-128723234D01*
X103393525Y-128495629D01*
X103245402Y-128396546D01*
X103119888Y-128311000D01*
X103012019Y-128235358D01*
X102916835Y-128165984D01*
X102829373Y-128099243D01*
X102744672Y-128031503D01*
X102657768Y-127959126D01*
X102636956Y-127941449D01*
X102506129Y-127831192D01*
X102378775Y-127726151D01*
X102258060Y-127628797D01*
X102147154Y-127541599D01*
X102049225Y-127467027D01*
X101967442Y-127407551D01*
X101904972Y-127365641D01*
X101878445Y-127350148D01*
X101858507Y-127342595D01*
X101840725Y-127347293D01*
X101819190Y-127368829D01*
X101787990Y-127411793D01*
X101775521Y-127430050D01*
X101678009Y-127556784D01*
X101562548Y-127679495D01*
X101439730Y-127787474D01*
X101374110Y-127835865D01*
X101318935Y-127873595D01*
X101274784Y-127903863D01*
X101247883Y-127922397D01*
X101242722Y-127926021D01*
X101243249Y-127942633D01*
X101251957Y-127977793D01*
X101253906Y-127984174D01*
X101266947Y-128026998D01*
X101285094Y-128088013D01*
X101304472Y-128154198D01*
X101304933Y-128155786D01*
X101339099Y-128273529D01*
X101423673Y-128273527D01*
X101499278Y-128269390D01*
X101584969Y-128257991D01*
X101675484Y-128240837D01*
X101765558Y-128219436D01*
X101849930Y-128195298D01*
X101923335Y-128169931D01*
X101980511Y-128144842D01*
X102016195Y-128121540D01*
X102025123Y-128101534D01*
X102024999Y-128101194D01*
X102023834Y-128067818D01*
X102149744Y-128067818D01*
X102156855Y-128095329D01*
X102160430Y-128100157D01*
X102179177Y-128101270D01*
X102199303Y-128085616D01*
X102207140Y-128065213D01*
X102205448Y-128060564D01*
X102184096Y-128046976D01*
X102159900Y-128050890D01*
X102149744Y-128067818D01*
X102023834Y-128067818D01*
X102023477Y-128057597D01*
X102042911Y-128007929D01*
X102077125Y-127963981D01*
X102108306Y-127942086D01*
X102161764Y-127921183D01*
X102201707Y-127920510D01*
X102240973Y-127941309D01*
X102260408Y-127956794D01*
X102306260Y-128010545D01*
X102320534Y-128069806D01*
X102305088Y-128135452D01*
X102267523Y-128188166D01*
X102212951Y-128217698D01*
X102153274Y-128219956D01*
X102118977Y-128223147D01*
X102068056Y-128238882D01*
X102022707Y-128258424D01*
X101881828Y-128314117D01*
X101720658Y-128355208D01*
X101549021Y-128379272D01*
X101526551Y-128381016D01*
X101453914Y-128386762D01*
X101407850Y-128392701D01*
X101382481Y-128400417D01*
X101371930Y-128411495D01*
X101370204Y-128423158D01*
X101357134Y-128476838D01*
X101316098Y-128527116D01*
X101276706Y-128557427D01*
X101245023Y-128581400D01*
X101232495Y-128596123D01*
X101235336Y-128598338D01*
X101269821Y-128595759D01*
X101326722Y-128588951D01*
X101396462Y-128579310D01*
X101469466Y-128568228D01*
X101536158Y-128557101D01*
X101586963Y-128547323D01*
X101589450Y-128546776D01*
X101669950Y-128527390D01*
X101760887Y-128503092D01*
X101856484Y-128475697D01*
X101950965Y-128447020D01*
X102038555Y-128418877D01*
X102113476Y-128393083D01*
X102169954Y-128371453D01*
X102202211Y-128355803D01*
X102205773Y-128353076D01*
X102234283Y-128340339D01*
X102250434Y-128338491D01*
X102274941Y-128325685D01*
X102279163Y-128306722D01*
X102401030Y-128306722D01*
X102401343Y-128331639D01*
X102410857Y-128348138D01*
X102430209Y-128364200D01*
X102449963Y-128353670D01*
X102454778Y-128348985D01*
X102469362Y-128322329D01*
X102467395Y-128307569D01*
X102441923Y-128291119D01*
X102411797Y-128296156D01*
X102401030Y-128306722D01*
X102279163Y-128306722D01*
X102279667Y-128304457D01*
X102288860Y-128268211D01*
X102311197Y-128226207D01*
X102313254Y-128223255D01*
X102336999Y-128195259D01*
X102364133Y-128181189D01*
X102406470Y-128176425D01*
X102433878Y-128176087D01*
X102488235Y-128178494D01*
X102522187Y-128188527D01*
X102547630Y-128210405D01*
X102554575Y-128218878D01*
X102583428Y-128279717D01*
X102586336Y-128347818D01*
X102563543Y-128411386D01*
X102550204Y-128429614D01*
X102518832Y-128458414D01*
X102481623Y-128471286D01*
X102435980Y-128473828D01*
X102386812Y-128470303D01*
X102350695Y-128461395D01*
X102342218Y-128456259D01*
X102319107Y-128449008D01*
X102277565Y-128459451D01*
X102255255Y-128468436D01*
X102127737Y-128518212D01*
X101980198Y-128567878D01*
X101824905Y-128613789D01*
X101674124Y-128652302D01*
X101548849Y-128678260D01*
X101429130Y-128693347D01*
X101297488Y-128700070D01*
X101169392Y-128698036D01*
X101081937Y-128690125D01*
X101018772Y-128684440D01*
X100986179Y-128687791D01*
X100983959Y-128698820D01*
X100507353Y-128698820D01*
X100480585Y-128659239D01*
X100452716Y-128611368D01*
X100419879Y-128545104D01*
X100388014Y-128472652D01*
X100379783Y-128452174D01*
X100348498Y-128371989D01*
X100326202Y-128317684D01*
X100309136Y-128285266D01*
X100293537Y-128270739D01*
X100275647Y-128270112D01*
X100251704Y-128279389D01*
X100227502Y-128290449D01*
X100149293Y-128318292D01*
X100052918Y-128342898D01*
X99952688Y-128361281D01*
X99862918Y-128370458D01*
X99841338Y-128370972D01*
X99759992Y-128370972D01*
X99771603Y-128614918D01*
X99783215Y-128858865D01*
X99718143Y-128920767D01*
X99645922Y-128973959D01*
X99573754Y-129005133D01*
X99503931Y-129017872D01*
X99412639Y-129024698D01*
X99310314Y-129025775D01*
X99207396Y-129021269D01*
X99114322Y-129011344D01*
X99043555Y-128996765D01*
X98980411Y-128972998D01*
X98938919Y-128940954D01*
X98912962Y-128892938D01*
X98896421Y-128821258D01*
X98894593Y-128809463D01*
X98885916Y-128753928D01*
X98877611Y-128704764D01*
X98875608Y-128693843D01*
X98867533Y-128651305D01*
X98761480Y-128693843D01*
X98655428Y-128736381D01*
X98558982Y-128927589D01*
X98494015Y-129047082D01*
X98432666Y-129141411D01*
X98385054Y-129199184D01*
X98349149Y-129239756D01*
X98327614Y-129270837D01*
X98324778Y-129286097D01*
X98325391Y-129286409D01*
X98346482Y-129281170D01*
X98386213Y-129261112D01*
X98436784Y-129230278D01*
X98447852Y-129222946D01*
X98531845Y-129172482D01*
X98600463Y-129145606D01*
X98658931Y-129140795D01*
X98697731Y-129150159D01*
X98729571Y-129169374D01*
X98737194Y-129200222D01*
X98736276Y-129211325D01*
X98724892Y-129242524D01*
X98694854Y-129278074D01*
X98641723Y-129322949D01*
X98625575Y-129335258D01*
X98561457Y-129385639D01*
X98523321Y-129422932D01*
X98509694Y-129451410D01*
X98519105Y-129475345D01*
X98550084Y-129499009D01*
X98566023Y-129508169D01*
X98617191Y-129541162D01*
X98674812Y-129585175D01*
X98706948Y-129612978D01*
X98760863Y-129658369D01*
X98825807Y-129706832D01*
X98892481Y-129752010D01*
X98951582Y-129787545D01*
X98988096Y-129805115D01*
X99021583Y-129804765D01*
X99074100Y-129789202D01*
X99106701Y-129775533D01*
X99155192Y-129755302D01*
X99215974Y-129733798D01*
X99293532Y-129709649D01*
X99392349Y-129681482D01*
X99516908Y-129647923D01*
X99563292Y-129635729D01*
X99632148Y-129617711D01*
X99511008Y-129554636D01*
X99449576Y-129525186D01*
X99394186Y-129503080D01*
X99354652Y-129492117D01*
X99348032Y-129491560D01*
X99304136Y-129478542D01*
X99262213Y-129446348D01*
X99233216Y-129405267D01*
X99226470Y-129377366D01*
X99229033Y-129369757D01*
X99340153Y-129369757D01*
X99348273Y-129377877D01*
X99356393Y-129369757D01*
X99348273Y-129361637D01*
X99340153Y-129369757D01*
X99229033Y-129369757D01*
X99237489Y-129344658D01*
X99264977Y-129305208D01*
X99275600Y-129293768D01*
X99313332Y-129261875D01*
X99345434Y-129252062D01*
X99368982Y-129255109D01*
X99420196Y-129280229D01*
X99456942Y-129322486D01*
X99470076Y-129368812D01*
X99485466Y-129405974D01*
X99514737Y-129427910D01*
X99551096Y-129447410D01*
X99604422Y-129476875D01*
X99663510Y-129510109D01*
X99666579Y-129511852D01*
X99722082Y-129542553D01*
X99759144Y-129558966D01*
X99787302Y-129563301D01*
X99816093Y-129557771D01*
X99836102Y-129551169D01*
X99898445Y-129529586D01*
X99810124Y-129464388D01*
X99754319Y-129428283D01*
X99698312Y-129400168D01*
X99660778Y-129387775D01*
X99601410Y-129363687D01*
X99565911Y-129322388D01*
X99556586Y-129272315D01*
X99664961Y-129272315D01*
X99673081Y-129280435D01*
X99681202Y-129272315D01*
X99673081Y-129264194D01*
X99664961Y-129272315D01*
X99556586Y-129272315D01*
X99556282Y-129270684D01*
X99574527Y-129215384D01*
X99600413Y-129182579D01*
X99639421Y-129158172D01*
X99673820Y-129150511D01*
X99720970Y-129164806D01*
X99763225Y-129200749D01*
X99790468Y-129247932D01*
X99795400Y-129275636D01*
X99800123Y-129301638D01*
X99817124Y-129327089D01*
X99851614Y-129357633D01*
X99908803Y-129398911D01*
X99909961Y-129399711D01*
X100024006Y-129478386D01*
X100096210Y-129457067D01*
X100138765Y-129442796D01*
X100164449Y-129430886D01*
X100167935Y-129427113D01*
X100155567Y-129413871D01*
X100123754Y-129387816D01*
X100083448Y-129357577D01*
X100009800Y-129313062D01*
X99950772Y-129296752D01*
X99947043Y-129296675D01*
X99890746Y-129285038D01*
X99856472Y-129249758D01*
X99843896Y-129191113D01*
X99941048Y-129191113D01*
X99949168Y-129199233D01*
X99957289Y-129191113D01*
X99949168Y-129182992D01*
X99941048Y-129191113D01*
X99843896Y-129191113D01*
X99843717Y-129190279D01*
X99843606Y-129182753D01*
X99856641Y-129123090D01*
X99893630Y-129084223D01*
X99951392Y-129069367D01*
X99955795Y-129069309D01*
X100001435Y-129082500D01*
X100042409Y-129115191D01*
X100067670Y-129157065D01*
X100070971Y-129176880D01*
X100078900Y-129201193D01*
X100105131Y-129231787D01*
X100153329Y-129272356D01*
X100201048Y-129307905D01*
X100276776Y-129365277D01*
X100324085Y-129409867D01*
X100342608Y-129445268D01*
X100331979Y-129475068D01*
X100291832Y-129502858D01*
X100221801Y-129532229D01*
X100176534Y-129548262D01*
X100104381Y-129573073D01*
X100015083Y-129603831D01*
X99922193Y-129635865D01*
X99867966Y-129654587D01*
X99773976Y-129685539D01*
X99664639Y-129719225D01*
X99556178Y-129750738D01*
X99494437Y-129767572D01*
X99407775Y-129791650D01*
X99322010Y-129817676D01*
X99247900Y-129842268D01*
X99202110Y-129859514D01*
X99122121Y-129892359D01*
X99065097Y-129913441D01*
X99024216Y-129923947D01*
X98992655Y-129925067D01*
X98963593Y-129917991D01*
X98934986Y-129906071D01*
X98890110Y-129882161D01*
X98831055Y-129845825D01*
X98769493Y-129804302D01*
X98760507Y-129797888D01*
X98705076Y-129761049D01*
X98655332Y-129733384D01*
X98620066Y-129719636D01*
X98614170Y-129718926D01*
X98566398Y-129710702D01*
X98502466Y-129688868D01*
X98433336Y-129657675D01*
X98381198Y-129628555D01*
X98341916Y-129606876D01*
X98316500Y-129603018D01*
X98293171Y-129614988D01*
X98278806Y-129628187D01*
X98277595Y-129642894D01*
X98292572Y-129665491D01*
X98326775Y-129702358D01*
X98342293Y-129718229D01*
X98402145Y-129785391D01*
X98433948Y-129836577D01*
X98437750Y-129872098D01*
X98413602Y-129892266D01*
X98371464Y-129897570D01*
X98317318Y-129889403D01*
X98252437Y-129863463D01*
X98172040Y-129817596D01*
X98123318Y-129785698D01*
X98076696Y-129757260D01*
X98045347Y-129747555D01*
X98020214Y-129753797D01*
X98019967Y-129753929D01*
X98004262Y-129765031D01*
X98003543Y-129778961D01*
X98020638Y-129802384D01*
X98056506Y-129840062D01*
X98095956Y-129883678D01*
X98115425Y-129917119D01*
X98120129Y-129950714D01*
X98119257Y-129964364D01*
X98111811Y-130002450D01*
X98092296Y-130019132D01*
X98060442Y-130024521D01*
X98002340Y-130016569D01*
X97933021Y-129985547D01*
X97859673Y-129935147D01*
X97821675Y-129901888D01*
X97793917Y-129878065D01*
X97766823Y-129864453D01*
X97730426Y-129858485D01*
X97674760Y-129857594D01*
X97651150Y-129857963D01*
X97582655Y-129861023D01*
X97533685Y-129869371D01*
X97491342Y-129886384D01*
X97450454Y-129910478D01*
X97371407Y-129953666D01*
X97308022Y-129973124D01*
X97262484Y-129968284D01*
X97252595Y-129961980D01*
X97231208Y-129928501D01*
X97238310Y-129885679D01*
X97261670Y-129850621D01*
X97365848Y-129850621D01*
X97369488Y-129855341D01*
X97392894Y-129843453D01*
X97397425Y-129840546D01*
X97427042Y-129819209D01*
X97440002Y-129806050D01*
X97440025Y-129805809D01*
X97429299Y-129805501D01*
X97405142Y-129818087D01*
X97379589Y-129836295D01*
X97365848Y-129850621D01*
X97261670Y-129850621D01*
X97274350Y-129831592D01*
X97286398Y-129817780D01*
X97296615Y-129804720D01*
X97864041Y-129804720D01*
X97866046Y-129819560D01*
X97881630Y-129837566D01*
X97915052Y-129865709D01*
X97956987Y-129897176D01*
X97998109Y-129925151D01*
X98029091Y-129942820D01*
X98038633Y-129945668D01*
X98032897Y-129935642D01*
X98007916Y-129909916D01*
X97969048Y-129873995D01*
X97967838Y-129872920D01*
X97912493Y-129826352D01*
X97878104Y-129803728D01*
X97864041Y-129804720D01*
X97296615Y-129804720D01*
X97320294Y-129774454D01*
X97328104Y-129749593D01*
X97310894Y-129743827D01*
X97269725Y-129757789D01*
X97224644Y-129781089D01*
X97140882Y-129822119D01*
X97073130Y-129842107D01*
X97024309Y-129840364D01*
X97008989Y-129832057D01*
X96986971Y-129795456D01*
X96993312Y-129749098D01*
X97002952Y-129734293D01*
X97121946Y-129734293D01*
X97123337Y-129734444D01*
X97146532Y-129725227D01*
X97179740Y-129703027D01*
X97180179Y-129702685D01*
X97203249Y-129681312D01*
X97205930Y-129671078D01*
X97204539Y-129670927D01*
X97181345Y-129680143D01*
X97148136Y-129702343D01*
X97147698Y-129702685D01*
X97124628Y-129724059D01*
X97121946Y-129734293D01*
X97002952Y-129734293D01*
X97027072Y-129697251D01*
X97042135Y-129681526D01*
X97080585Y-129641226D01*
X97097203Y-129616949D01*
X97091083Y-129610683D01*
X97070556Y-129619246D01*
X97022838Y-129639968D01*
X96958566Y-129661984D01*
X96889269Y-129681982D01*
X96826476Y-129696649D01*
X96781718Y-129702671D01*
X96780178Y-129702685D01*
X96732981Y-129691434D01*
X96704138Y-129662511D01*
X96700096Y-129623167D01*
X96702556Y-129615391D01*
X96715812Y-129597874D01*
X96872637Y-129597874D01*
X96879731Y-129596031D01*
X96923464Y-129583074D01*
X96948993Y-129576855D01*
X96981609Y-129564931D01*
X96994612Y-129554583D01*
X96994099Y-129541949D01*
X96971475Y-129543924D01*
X96932917Y-129559152D01*
X96904092Y-129574439D01*
X96876640Y-129591776D01*
X96872637Y-129597874D01*
X96715812Y-129597874D01*
X96725473Y-129585108D01*
X96768522Y-129549193D01*
X96821999Y-129514859D01*
X96867814Y-129492545D01*
X96901817Y-129475458D01*
X96908869Y-129459779D01*
X96902333Y-129448840D01*
X96893620Y-129423018D01*
X97044226Y-129423018D01*
X97121235Y-129477590D01*
X97196075Y-129528207D01*
X97271199Y-129573212D01*
X97356013Y-129617801D01*
X97459923Y-129667169D01*
X97485713Y-129678930D01*
X97554313Y-129709473D01*
X97605909Y-129728540D01*
X97649622Y-129736320D01*
X97694574Y-129733005D01*
X97749887Y-129718786D01*
X97824682Y-129693854D01*
X97830825Y-129691731D01*
X98160144Y-129691731D01*
X98167177Y-129704689D01*
X98194758Y-129727827D01*
X98213992Y-129741137D01*
X98255178Y-129767851D01*
X98276099Y-129780215D01*
X98283596Y-129781774D01*
X98284526Y-129777695D01*
X98272726Y-129763121D01*
X98244168Y-129740110D01*
X98209120Y-129715757D01*
X98177849Y-129697158D01*
X98160623Y-129691409D01*
X98160144Y-129691731D01*
X97830825Y-129691731D01*
X97846035Y-129686474D01*
X97913777Y-129660343D01*
X97995597Y-129624738D01*
X98082719Y-129583912D01*
X98161367Y-129544615D01*
X98420943Y-129544615D01*
X98430277Y-129554382D01*
X98460177Y-129572570D01*
X98501478Y-129594515D01*
X98545016Y-129615555D01*
X98581627Y-129631028D01*
X98601214Y-129636338D01*
X98596522Y-129629639D01*
X98568713Y-129612222D01*
X98523761Y-129587818D01*
X98522448Y-129587139D01*
X98473299Y-129563153D01*
X98436730Y-129547880D01*
X98420943Y-129544615D01*
X98161367Y-129544615D01*
X98166366Y-129542117D01*
X98237761Y-129503606D01*
X98288128Y-129472631D01*
X98289728Y-129471505D01*
X98335531Y-129439001D01*
X98289728Y-129411277D01*
X98254525Y-129390914D01*
X98200403Y-129360677D01*
X98171347Y-129344752D01*
X98433259Y-129344752D01*
X98447334Y-129341356D01*
X98478108Y-129326329D01*
X98521559Y-129300825D01*
X98530771Y-129294982D01*
X98573157Y-129266694D01*
X98601682Y-129245572D01*
X98609335Y-129237724D01*
X98597053Y-129239430D01*
X98565420Y-129254731D01*
X98522249Y-129279419D01*
X98475357Y-129309288D01*
X98471291Y-129312039D01*
X98439905Y-129335364D01*
X98433259Y-129344752D01*
X98171347Y-129344752D01*
X98137101Y-129325982D01*
X98114002Y-129313479D01*
X98054549Y-129281112D01*
X98005433Y-129253817D01*
X97974127Y-129235771D01*
X97967838Y-129231778D01*
X97938486Y-129213515D01*
X97937787Y-129213125D01*
X98195014Y-129213125D01*
X98196302Y-129217250D01*
X98208242Y-129228840D01*
X98225958Y-129225706D01*
X98255688Y-129205023D01*
X98292647Y-129173654D01*
X98328480Y-129141694D01*
X98341027Y-129127581D01*
X98331720Y-129128094D01*
X98308887Y-129137126D01*
X98247776Y-129166176D01*
X98208446Y-129192486D01*
X98195014Y-129213125D01*
X97937787Y-129213125D01*
X97893985Y-129188701D01*
X97844944Y-129162842D01*
X98096359Y-129162842D01*
X98096382Y-129166752D01*
X98115661Y-129156883D01*
X98148771Y-129131980D01*
X98164937Y-129118265D01*
X98209424Y-129085760D01*
X98253279Y-129063622D01*
X98264524Y-129060300D01*
X98307127Y-129049379D01*
X98340620Y-129034066D01*
X98369681Y-129009306D01*
X98398987Y-128970044D01*
X98433216Y-128911226D01*
X98473715Y-128834261D01*
X98571670Y-128644407D01*
X98716366Y-128581974D01*
X98782958Y-128552714D01*
X98825042Y-128531642D01*
X98848071Y-128514402D01*
X98857501Y-128496640D01*
X98858783Y-128474002D01*
X98858539Y-128468448D01*
X98854741Y-128430725D01*
X98849063Y-128410415D01*
X98848896Y-128410234D01*
X98831978Y-128413205D01*
X98791514Y-128426691D01*
X98733822Y-128448442D01*
X98674613Y-128472304D01*
X98507452Y-128541496D01*
X98373850Y-128774651D01*
X98328323Y-128853275D01*
X98287675Y-128921923D01*
X98254911Y-128975642D01*
X98233038Y-129009476D01*
X98225846Y-129018651D01*
X98201283Y-129040705D01*
X98169573Y-129073562D01*
X98137197Y-129109812D01*
X98110632Y-129142042D01*
X98096359Y-129162842D01*
X97844944Y-129162842D01*
X97843470Y-129162065D01*
X97796078Y-129138336D01*
X97760945Y-129122244D01*
X97748094Y-129118031D01*
X97728096Y-129124496D01*
X97681952Y-129142908D01*
X97613088Y-129171785D01*
X97524935Y-129209650D01*
X97420920Y-129255022D01*
X97304475Y-129306424D01*
X97179026Y-129362376D01*
X97116263Y-129390575D01*
X97044226Y-129423018D01*
X96893620Y-129423018D01*
X96891787Y-129417586D01*
X96893179Y-129379657D01*
X96892242Y-129333479D01*
X96873090Y-129306134D01*
X96848159Y-129274837D01*
X96821166Y-129228535D01*
X96812983Y-129211512D01*
X96791399Y-129174872D01*
X96879731Y-129174872D01*
X96933877Y-129243894D01*
X96967593Y-129286079D01*
X96987286Y-129306685D01*
X96998726Y-129309885D01*
X97007679Y-129299854D01*
X97008773Y-129298101D01*
X97002239Y-129280816D01*
X96975713Y-129252017D01*
X96948830Y-129229079D01*
X96879731Y-129174872D01*
X96791399Y-129174872D01*
X96779943Y-129155425D01*
X96736892Y-129102477D01*
X96727136Y-129092963D01*
X96671935Y-129042375D01*
X96569016Y-129084263D01*
X96510653Y-129111587D01*
X96474883Y-129136066D01*
X96465849Y-129150958D01*
X96456783Y-129182471D01*
X96440319Y-129211860D01*
X96405646Y-129239137D01*
X96360155Y-129249151D01*
X96316457Y-129241514D01*
X96287527Y-129216541D01*
X96270628Y-129160714D01*
X96272094Y-129146724D01*
X96342484Y-129146724D01*
X96344655Y-129151899D01*
X96364371Y-129159945D01*
X96369545Y-129157774D01*
X96377591Y-129138058D01*
X96375421Y-129132884D01*
X96355705Y-129124838D01*
X96350531Y-129127008D01*
X96342484Y-129146724D01*
X96272094Y-129146724D01*
X96276148Y-129108046D01*
X96300257Y-129066034D01*
X96339125Y-129042173D01*
X96377232Y-129040986D01*
X96410516Y-129038024D01*
X96468487Y-129022818D01*
X96521298Y-129005335D01*
X96756609Y-129005335D01*
X96801930Y-129042972D01*
X96845748Y-129072137D01*
X96889329Y-129090857D01*
X96890816Y-129091235D01*
X96924552Y-129107428D01*
X96971114Y-129139668D01*
X97020422Y-129180973D01*
X97067132Y-129222171D01*
X97098484Y-129243759D01*
X97121739Y-129249437D01*
X97142991Y-129243444D01*
X97179519Y-129226800D01*
X97123007Y-129164248D01*
X97090432Y-129122472D01*
X97070011Y-129085278D01*
X97067083Y-129073073D01*
X97162285Y-129073073D01*
X97169083Y-129087194D01*
X97193941Y-129114976D01*
X97227718Y-129146371D01*
X97261244Y-129171870D01*
X97284269Y-129182755D01*
X97290676Y-129176780D01*
X97286474Y-129167938D01*
X97269175Y-129150050D01*
X97234898Y-129120489D01*
X97208374Y-129099228D01*
X97174924Y-129075967D01*
X97162285Y-129073073D01*
X97067083Y-129073073D01*
X97066496Y-129070627D01*
X97054459Y-129043103D01*
X97023790Y-129007596D01*
X97001778Y-128988300D01*
X96964896Y-128961082D01*
X96934801Y-128948248D01*
X96901591Y-128949491D01*
X96855361Y-128964507D01*
X96811464Y-128982415D01*
X96756609Y-129005335D01*
X96521298Y-129005335D01*
X96546467Y-128997003D01*
X96639779Y-128962215D01*
X96743744Y-128920088D01*
X96831010Y-128882393D01*
X96890179Y-128858257D01*
X96932563Y-128850245D01*
X96970254Y-128859615D01*
X97015344Y-128887625D01*
X97037545Y-128903872D01*
X97090355Y-128939332D01*
X97140742Y-128966918D01*
X97172058Y-128978935D01*
X97209613Y-128996272D01*
X97257301Y-129029723D01*
X97295381Y-129063192D01*
X97339511Y-129103675D01*
X97370883Y-129123830D01*
X97397802Y-129128057D01*
X97412813Y-129125415D01*
X97455643Y-129114666D01*
X97447079Y-129102707D01*
X97984645Y-129102707D01*
X98001873Y-129104019D01*
X98032912Y-129090084D01*
X98067222Y-129067155D01*
X98094269Y-129041483D01*
X98098968Y-129034876D01*
X98092525Y-129031577D01*
X98064653Y-129041670D01*
X98042044Y-129052496D01*
X98004454Y-129075687D01*
X97985063Y-129095775D01*
X97984645Y-129102707D01*
X97447079Y-129102707D01*
X97390993Y-129024382D01*
X97355564Y-128967414D01*
X97453955Y-128967414D01*
X97466279Y-128986428D01*
X97487636Y-129010188D01*
X97521742Y-129042307D01*
X97545531Y-129058467D01*
X97554634Y-129057693D01*
X97544677Y-129039015D01*
X97528076Y-129019184D01*
X97492594Y-128986953D01*
X97464567Y-128968326D01*
X97453955Y-128967414D01*
X97355564Y-128967414D01*
X97347661Y-128954706D01*
X97328445Y-128901134D01*
X97333735Y-128865336D01*
X97350880Y-128852243D01*
X97404160Y-128849025D01*
X97471708Y-128874512D01*
X97552999Y-128928492D01*
X97566849Y-128939439D01*
X97624778Y-128982659D01*
X97663688Y-129003148D01*
X97685559Y-129002813D01*
X97734663Y-128989149D01*
X97794365Y-128997932D01*
X97837539Y-129017638D01*
X97867834Y-129034340D01*
X97890759Y-129037117D01*
X97918675Y-129024393D01*
X97951222Y-129003124D01*
X98008963Y-128969805D01*
X98071870Y-128941134D01*
X98087424Y-128935467D01*
X98114363Y-128925373D01*
X98136940Y-128912462D01*
X98158692Y-128892285D01*
X98183157Y-128860391D01*
X98213871Y-128812332D01*
X98254372Y-128743657D01*
X98292196Y-128677868D01*
X98426105Y-128444054D01*
X98634277Y-128358624D01*
X98709996Y-128327359D01*
X98774107Y-128300525D01*
X98821033Y-128280484D01*
X98845195Y-128269598D01*
X98847194Y-128268449D01*
X98847994Y-128250983D01*
X98843840Y-128214114D01*
X98842607Y-128206194D01*
X98833274Y-128148684D01*
X98717244Y-128178669D01*
X98607547Y-128207193D01*
X98498896Y-128235844D01*
X98384846Y-128266358D01*
X98258955Y-128300471D01*
X98114777Y-128339918D01*
X97945869Y-128386435D01*
X97943478Y-128387095D01*
X97855948Y-128411299D01*
X97781139Y-128432134D01*
X97713533Y-128451213D01*
X97647611Y-128470151D01*
X97577853Y-128490561D01*
X97498742Y-128514057D01*
X97404758Y-128542253D01*
X97290381Y-128576763D01*
X97159878Y-128616239D01*
X96887150Y-128700037D01*
X96643283Y-128777723D01*
X96425453Y-128850333D01*
X96230834Y-128918898D01*
X96056602Y-128984453D01*
X95899932Y-129048030D01*
X95758001Y-129110664D01*
X95627983Y-129173388D01*
X95604859Y-129185162D01*
X95536705Y-129221076D01*
X95475945Y-129254753D01*
X95430665Y-129281624D01*
X95412824Y-129293691D01*
X95375073Y-129323001D01*
X95228189Y-129323001D01*
X95227918Y-129315890D01*
X95293116Y-129245160D01*
X95350407Y-129192790D01*
X95428323Y-129138250D01*
X95528385Y-129080848D01*
X95652112Y-129019890D01*
X95801024Y-128954684D01*
X95976641Y-128884537D01*
X96180483Y-128808758D01*
X96414071Y-128726652D01*
X96481841Y-128703511D01*
X96589593Y-128667285D01*
X96700563Y-128630608D01*
X96805837Y-128596385D01*
X96896500Y-128567517D01*
X96952813Y-128550143D01*
X97026842Y-128527638D01*
X97092935Y-128507159D01*
X97142637Y-128491346D01*
X97163938Y-128484185D01*
X97190246Y-128475923D01*
X97243161Y-128460273D01*
X97318008Y-128438585D01*
X97410109Y-128412205D01*
X97514788Y-128382480D01*
X97610549Y-128355483D01*
X97722799Y-128323911D01*
X97826972Y-128294556D01*
X97918278Y-128268772D01*
X97991923Y-128247914D01*
X98043118Y-128233335D01*
X98065281Y-128226929D01*
X98103503Y-128216103D01*
X98162299Y-128200035D01*
X98230813Y-128181680D01*
X98252046Y-128176063D01*
X98332150Y-128154768D01*
X98416232Y-128132141D01*
X98487726Y-128112643D01*
X98495652Y-128110455D01*
X98569502Y-128090743D01*
X98654445Y-128069111D01*
X98718957Y-128053390D01*
X98836700Y-128025532D01*
X98836831Y-127642018D01*
X98838240Y-127463876D01*
X98842898Y-127310026D01*
X98851656Y-127172369D01*
X98865362Y-127042805D01*
X98884864Y-126913233D01*
X98911012Y-126775555D01*
X98942975Y-126629023D01*
X98955547Y-126569248D01*
X98963342Y-126522777D01*
X98965065Y-126497677D01*
X98964350Y-126495637D01*
X98945990Y-126495368D01*
X98900699Y-126504935D01*
X98827789Y-126524536D01*
X98726576Y-126554368D01*
X98596373Y-126594630D01*
X98436495Y-126645518D01*
X98373849Y-126665731D01*
X98185855Y-126725118D01*
X97999381Y-126781311D01*
X97825507Y-126831021D01*
X97732352Y-126856231D01*
X97634582Y-126874054D01*
X97511648Y-126883306D01*
X97446911Y-126884516D01*
X97367276Y-126884255D01*
X97312511Y-126882063D01*
X97275013Y-126876550D01*
X97247175Y-126866328D01*
X97221392Y-126850006D01*
X97209548Y-126841151D01*
X97167668Y-126799293D01*
X97128266Y-126744150D01*
X97114803Y-126719348D01*
X97088974Y-126637769D01*
X97076605Y-126536392D01*
X97076924Y-126473953D01*
X97212659Y-126473953D01*
X97215221Y-126555379D01*
X97224842Y-126614364D01*
X97244427Y-126660684D01*
X97276881Y-126704111D01*
X97283116Y-126711065D01*
X97323043Y-126742289D01*
X97356173Y-126742066D01*
X97381369Y-126710932D01*
X97396212Y-126657609D01*
X97400443Y-126602896D01*
X97398642Y-126533510D01*
X97391875Y-126456058D01*
X97381210Y-126377146D01*
X97367712Y-126303380D01*
X97352449Y-126241365D01*
X97336485Y-126197709D01*
X97320889Y-126179017D01*
X97318914Y-126178765D01*
X97281650Y-126194760D01*
X97251128Y-126239134D01*
X97228660Y-126308241D01*
X97215557Y-126398438D01*
X97212659Y-126473953D01*
X97076924Y-126473953D01*
X97077176Y-126424736D01*
X97090165Y-126312322D01*
X97115052Y-126208669D01*
X97132934Y-126165247D01*
X97464121Y-126165247D01*
X97464363Y-126183108D01*
X97471324Y-126223556D01*
X97483219Y-126276657D01*
X97495202Y-126343734D01*
X97504495Y-126430976D01*
X97509923Y-126526101D01*
X97510755Y-126564226D01*
X97511748Y-126647061D01*
X97515212Y-126701981D01*
X97524931Y-126733524D01*
X97544690Y-126746231D01*
X97578274Y-126744639D01*
X97629468Y-126733289D01*
X97648019Y-126728851D01*
X97732917Y-126707331D01*
X97837889Y-126678659D01*
X97952192Y-126645938D01*
X98065079Y-126612272D01*
X98165806Y-126580765D01*
X98203324Y-126568447D01*
X98273268Y-126545498D01*
X98362981Y-126516747D01*
X98461140Y-126485789D01*
X98556422Y-126456222D01*
X98560613Y-126454935D01*
X98642775Y-126429491D01*
X98716037Y-126406380D01*
X98773654Y-126387761D01*
X98808880Y-126375792D01*
X98813919Y-126373883D01*
X98848905Y-126364181D01*
X98902051Y-126354090D01*
X98939778Y-126348649D01*
X99016263Y-126345392D01*
X99069984Y-126359285D01*
X99102407Y-126392704D01*
X99114998Y-126448028D01*
X99109221Y-126527632D01*
X99094797Y-126600094D01*
X99055909Y-126787060D01*
X99021679Y-126990544D01*
X98994621Y-127194654D01*
X98983528Y-127303420D01*
X98978735Y-127384976D01*
X98976114Y-127493283D01*
X98975522Y-127622694D01*
X98976816Y-127767562D01*
X98979855Y-127922239D01*
X98984496Y-128081077D01*
X98990598Y-128238429D01*
X98998017Y-128388649D01*
X99006611Y-128526089D01*
X99016239Y-128645101D01*
X99017706Y-128660427D01*
X99025883Y-128740045D01*
X99033065Y-128793386D01*
X99041087Y-128826532D01*
X99051780Y-128845563D01*
X99066977Y-128856562D01*
X99078313Y-128861549D01*
X99143567Y-128879262D01*
X99229609Y-128890735D01*
X99325848Y-128895762D01*
X99421694Y-128894140D01*
X99506557Y-128885662D01*
X99567489Y-128871024D01*
X99600647Y-128857683D01*
X99624724Y-128842752D01*
X99640986Y-128821305D01*
X99650700Y-128788415D01*
X99655131Y-128739155D01*
X99655545Y-128668598D01*
X99653209Y-128571818D01*
X99652285Y-128541043D01*
X99650170Y-128442350D01*
X99650252Y-128362924D01*
X99652433Y-128306558D01*
X99656615Y-128277046D01*
X99659243Y-128273529D01*
X99693123Y-128271071D01*
X99750336Y-128264516D01*
X99822336Y-128255092D01*
X99900580Y-128244028D01*
X99976524Y-128232552D01*
X100041622Y-128221894D01*
X100087330Y-128213282D01*
X100100328Y-128210102D01*
X100147208Y-128192251D01*
X100203819Y-128165608D01*
X100228237Y-128152591D01*
X100293010Y-128121509D01*
X100338626Y-128112507D01*
X100369188Y-128124994D01*
X100374974Y-128131426D01*
X100386605Y-128153644D01*
X100407101Y-128199710D01*
X100433689Y-128263150D01*
X100463594Y-128337488D01*
X100467186Y-128346611D01*
X100505232Y-128443342D01*
X100534574Y-128513938D01*
X100558941Y-128562268D01*
X100582063Y-128592205D01*
X100607670Y-128607619D01*
X100639489Y-128612381D01*
X100681251Y-128610363D01*
X100718058Y-128607019D01*
X100837791Y-128591032D01*
X100953321Y-128565824D01*
X101058279Y-128533499D01*
X101146298Y-128496158D01*
X101211010Y-128455907D01*
X101230472Y-128437799D01*
X101243338Y-128419741D01*
X101247083Y-128397868D01*
X101241355Y-128363253D01*
X101225802Y-128306969D01*
X101225231Y-128305026D01*
X101126000Y-127973033D01*
X101030318Y-127663782D01*
X100938522Y-127378169D01*
X100895426Y-127249694D01*
X101037702Y-127249694D01*
X101038611Y-127270420D01*
X101048448Y-127314642D01*
X101065163Y-127376002D01*
X101086701Y-127448145D01*
X101111010Y-127524715D01*
X101136039Y-127599354D01*
X101159735Y-127665707D01*
X101180045Y-127717417D01*
X101194917Y-127748129D01*
X101200489Y-127753836D01*
X101220895Y-127744853D01*
X101259742Y-127721027D01*
X101309513Y-127687046D01*
X101322294Y-127677867D01*
X101460411Y-127564287D01*
X101600548Y-127423208D01*
X101726039Y-127274744D01*
X101818021Y-127147991D01*
X101884475Y-127032368D01*
X101927739Y-126922318D01*
X101950149Y-126812282D01*
X101954683Y-126731050D01*
X101954859Y-126625848D01*
X101903475Y-126690449D01*
X101820043Y-126784505D01*
X101717297Y-126883674D01*
X101604540Y-126980022D01*
X101491074Y-127065617D01*
X101386203Y-127132527D01*
X101382860Y-127134401D01*
X101328410Y-127160545D01*
X101260907Y-127187107D01*
X101190875Y-127210570D01*
X101128840Y-127227418D01*
X101085330Y-127234135D01*
X101084273Y-127234143D01*
X101051154Y-127240263D01*
X101037702Y-127249694D01*
X100895426Y-127249694D01*
X100850946Y-127117093D01*
X100767927Y-126881452D01*
X100689799Y-126672143D01*
X100616897Y-126490064D01*
X100549558Y-126336113D01*
X100488116Y-126211188D01*
X100432907Y-126116186D01*
X100384266Y-126052005D01*
X100383346Y-126051025D01*
X100345979Y-126000026D01*
X100335411Y-125956761D01*
X100352200Y-125924931D01*
X100363299Y-125917836D01*
X100390918Y-125909086D01*
X100440094Y-125897859D01*
X100500274Y-125886560D01*
X100501342Y-125886380D01*
X100600814Y-125868561D01*
X100716734Y-125846191D01*
X100833955Y-125822259D01*
X100915473Y-125804669D01*
X100965096Y-125793953D01*
X101028053Y-125780773D01*
X101061636Y-125773890D01*
X101155978Y-125753482D01*
X101262344Y-125728354D01*
X101376527Y-125699711D01*
X101494321Y-125668758D01*
X101611517Y-125636699D01*
X101723910Y-125604739D01*
X101827293Y-125574083D01*
X101917458Y-125545936D01*
X101990199Y-125521502D01*
X102041308Y-125501987D01*
X102066579Y-125488594D01*
X102068542Y-125485536D01*
X102059879Y-125469329D01*
X102038699Y-125438532D01*
X102035470Y-125434132D01*
X101994870Y-125356563D01*
X101968566Y-125257388D01*
X101957692Y-125144698D01*
X101958657Y-125124683D01*
X102084461Y-125124683D01*
X102087532Y-125198692D01*
X102094475Y-125263941D01*
X102105455Y-125313577D01*
X102110557Y-125326582D01*
X102137024Y-125368427D01*
X102172432Y-125389577D01*
X102224761Y-125397093D01*
X102249130Y-125391783D01*
X102263097Y-125367045D01*
X102269243Y-125338075D01*
X102279279Y-125220076D01*
X102270843Y-125108999D01*
X102245226Y-125011624D01*
X102203720Y-124934733D01*
X102189148Y-124917500D01*
X102155126Y-124884883D01*
X102128544Y-124865436D01*
X102121530Y-124863043D01*
X102107668Y-124878077D01*
X102096867Y-124918610D01*
X102089291Y-124977790D01*
X102085102Y-125048765D01*
X102084461Y-125124683D01*
X101958657Y-125124683D01*
X101963386Y-125026582D01*
X101971177Y-124976314D01*
X101979256Y-124927553D01*
X101982654Y-124893782D01*
X101981698Y-124884470D01*
X101961620Y-124885453D01*
X101912118Y-124898582D01*
X101833804Y-124923639D01*
X101727291Y-124960404D01*
X101593189Y-125008656D01*
X101432110Y-125068178D01*
X101244667Y-125138749D01*
X101031469Y-125220150D01*
X100835491Y-125295743D01*
X100711413Y-125343251D01*
X100592858Y-125387622D01*
X100484165Y-125427312D01*
X100389673Y-125460774D01*
X100313723Y-125486464D01*
X100260654Y-125502837D01*
X100239663Y-125507891D01*
X100187004Y-125509950D01*
X100145423Y-125494908D01*
X100113307Y-125459849D01*
X100089041Y-125401858D01*
X100071015Y-125318019D01*
X100057614Y-125205417D01*
X100054921Y-125173964D01*
X100035074Y-125006099D01*
X100003468Y-124863826D01*
X99957785Y-124741660D01*
X99895709Y-124634115D01*
X99814924Y-124535707D01*
X99764296Y-124485902D01*
X99635116Y-124388485D01*
X99485896Y-124315936D01*
X99318064Y-124268754D01*
X99133049Y-124247435D01*
X99074530Y-124246157D01*
X98927940Y-124253323D01*
X98799399Y-124277056D01*
X98677625Y-124319965D01*
X98605924Y-124354524D01*
X98553064Y-124386435D01*
X98494926Y-124428119D01*
X98437720Y-124474228D01*
X98387656Y-124519419D01*
X98350941Y-124558344D01*
X98333785Y-124585660D01*
X98333248Y-124589277D01*
X98347782Y-124597521D01*
X98384620Y-124602513D01*
X98407579Y-124603197D01*
X98461743Y-124607829D01*
X98501543Y-124626402D01*
X98532285Y-124653572D01*
X98569296Y-124685676D01*
X98601720Y-124697267D01*
X98640531Y-124694556D01*
X98680358Y-124683757D01*
X98703203Y-124669392D01*
X98704467Y-124666968D01*
X98728155Y-124628103D01*
X98771098Y-124582776D01*
X98823841Y-124539711D01*
X98876929Y-124507635D01*
X98877315Y-124507453D01*
X98948779Y-124484048D01*
X99032437Y-124472391D01*
X99120615Y-124471753D01*
X99205634Y-124481405D01*
X99279818Y-124500618D01*
X99335492Y-124528662D01*
X99359402Y-124553258D01*
X99371006Y-124568869D01*
X99385795Y-124574894D01*
X99411692Y-124570901D01*
X99456620Y-124556456D01*
X99485267Y-124546394D01*
X99582195Y-124514443D01*
X99654735Y-124496961D01*
X99707645Y-124494080D01*
X99745683Y-124505934D01*
X99773608Y-124532655D01*
X99786942Y-124554820D01*
X99804338Y-124607525D01*
X99810609Y-124668626D01*
X99805829Y-124725938D01*
X99790074Y-124767275D01*
X99785604Y-124772561D01*
X99747433Y-124796835D01*
X99715157Y-124791405D01*
X99692084Y-124758943D01*
X99681522Y-124702122D01*
X99681202Y-124688177D01*
X99680906Y-124654362D01*
X99676459Y-124633831D01*
X99662522Y-124626112D01*
X99633758Y-124630732D01*
X99584829Y-124647221D01*
X99514737Y-124673475D01*
X99458678Y-124697659D01*
X99429291Y-124719179D01*
X99421355Y-124740090D01*
X99406756Y-124806074D01*
X99366605Y-124875438D01*
X99306367Y-124941928D01*
X99231511Y-124999293D01*
X99163585Y-125034915D01*
X99096096Y-125052271D01*
X99012694Y-125058271D01*
X98926642Y-125053286D01*
X98851205Y-125037688D01*
X98820148Y-125025288D01*
X98761804Y-124981963D01*
X98721740Y-124924997D01*
X98719695Y-124916676D01*
X99064066Y-124916676D01*
X99066139Y-124925659D01*
X99074042Y-124921474D01*
X99090298Y-124900755D01*
X99117431Y-124860141D01*
X99157966Y-124796267D01*
X99175714Y-124767911D01*
X99211258Y-124708495D01*
X99238237Y-124658550D01*
X99253147Y-124624848D01*
X99254796Y-124615093D01*
X99245075Y-124621179D01*
X99223232Y-124649037D01*
X99193312Y-124692268D01*
X99159364Y-124744474D01*
X99125433Y-124799256D01*
X99095566Y-124850216D01*
X99073809Y-124890955D01*
X99064210Y-124915075D01*
X99064066Y-124916676D01*
X98719695Y-124916676D01*
X98706777Y-124864106D01*
X98706777Y-124863850D01*
X98697204Y-124838172D01*
X98666285Y-124831017D01*
X98614922Y-124840399D01*
X98583716Y-124864166D01*
X98569876Y-124903269D01*
X98548136Y-124964109D01*
X98508424Y-125031534D01*
X98458974Y-125092942D01*
X98426195Y-125123129D01*
X98385035Y-125145706D01*
X98326810Y-125166473D01*
X98284092Y-125176848D01*
X98227809Y-125189722D01*
X98197093Y-125206082D01*
X98189508Y-125232368D01*
X98202617Y-125275024D01*
X98227271Y-125327080D01*
X98272487Y-125395755D01*
X98334539Y-125448115D01*
X98421117Y-125490624D01*
X98422395Y-125491124D01*
X98472741Y-125502635D01*
X98544963Y-125509138D01*
X98628856Y-125510702D01*
X98714213Y-125507398D01*
X98790830Y-125499295D01*
X98842979Y-125488233D01*
X98988789Y-125430888D01*
X99117446Y-125353825D01*
X99224439Y-125260359D01*
X99305257Y-125153808D01*
X99310665Y-125144449D01*
X99343065Y-125092900D01*
X99369898Y-125065988D01*
X99397010Y-125057940D01*
X99398235Y-125057928D01*
X99434487Y-125068777D01*
X99449025Y-125098924D01*
X99443179Y-125144777D01*
X99418274Y-125202738D01*
X99375638Y-125269214D01*
X99316599Y-125340608D01*
X99279923Y-125378418D01*
X99193066Y-125463422D01*
X99227396Y-125530714D01*
X99250097Y-125589249D01*
X99266840Y-125657405D01*
X99270469Y-125682719D01*
X99274182Y-125733548D01*
X99269416Y-125763840D01*
X99252422Y-125785193D01*
X99232540Y-125800125D01*
X99175622Y-125830114D01*
X99088696Y-125862034D01*
X98974135Y-125895236D01*
X98834311Y-125929074D01*
X98671595Y-125962900D01*
X98560613Y-125983518D01*
X98491314Y-125995990D01*
X98422366Y-126008595D01*
X98381969Y-126016113D01*
X98325072Y-126026647D01*
X98254309Y-126039485D01*
X98203324Y-126048593D01*
X98134017Y-126061005D01*
X98065063Y-126073570D01*
X98024680Y-126081074D01*
X97913037Y-126101706D01*
X97823616Y-126117077D01*
X97746861Y-126128656D01*
X97673218Y-126137914D01*
X97613689Y-126144276D01*
X97549213Y-126151401D01*
X97498234Y-126158205D01*
X97468486Y-126163604D01*
X97464121Y-126165247D01*
X97132934Y-126165247D01*
X97146986Y-126131124D01*
X97174969Y-126096140D01*
X97219630Y-126068491D01*
X97284728Y-126047002D01*
X97374023Y-126030497D01*
X97491274Y-126017802D01*
X97515608Y-126015832D01*
X97599569Y-126008917D01*
X97673262Y-126002104D01*
X97729924Y-125996071D01*
X97762793Y-125991500D01*
X97766736Y-125990597D01*
X97792483Y-125984969D01*
X97844137Y-125975176D01*
X97915552Y-125962293D01*
X98000580Y-125947399D01*
X98093074Y-125931573D01*
X98186886Y-125915891D01*
X98268286Y-125902646D01*
X98444145Y-125873235D01*
X98609181Y-125843200D01*
X98759539Y-125813363D01*
X98891369Y-125784548D01*
X99000818Y-125757578D01*
X99084034Y-125733275D01*
X99117694Y-125721156D01*
X99141051Y-125710963D01*
X99152590Y-125699062D01*
X99152274Y-125678267D01*
X99140066Y-125641393D01*
X99116981Y-125583847D01*
X99089823Y-125516991D01*
X99040404Y-125543580D01*
X98908780Y-125597790D01*
X98762041Y-125629712D01*
X98609401Y-125638581D01*
X98460071Y-125623630D01*
X98365728Y-125599666D01*
X98263789Y-125549782D01*
X98179767Y-125474294D01*
X98116824Y-125376535D01*
X98090931Y-125310007D01*
X98074054Y-125252683D01*
X98061946Y-125206441D01*
X98057164Y-125181067D01*
X98057161Y-125180765D01*
X98044225Y-125159504D01*
X98015174Y-125138389D01*
X97970504Y-125101769D01*
X97942346Y-125046222D01*
X97931757Y-124983844D01*
X98341975Y-124983844D01*
X98342512Y-124991899D01*
X98346313Y-124992967D01*
X98361374Y-124979935D01*
X98387440Y-124945322D01*
X98419578Y-124895847D01*
X98428839Y-124880505D01*
X98460043Y-124825046D01*
X98481793Y-124780969D01*
X99041596Y-124780969D01*
X99043666Y-124781841D01*
X99061783Y-124769955D01*
X99088268Y-124740614D01*
X99093979Y-124733120D01*
X99113292Y-124702148D01*
X99116770Y-124685379D01*
X99114379Y-124684399D01*
X99095534Y-124696456D01*
X99069180Y-124726163D01*
X99064066Y-124733120D01*
X99045197Y-124764298D01*
X99041596Y-124780969D01*
X98481793Y-124780969D01*
X98481846Y-124780861D01*
X98493371Y-124751394D01*
X98493743Y-124740093D01*
X98482084Y-124750405D01*
X98457520Y-124785775D01*
X98449789Y-124798082D01*
X98402068Y-124875600D01*
X98369617Y-124929718D01*
X98350298Y-124964458D01*
X98341975Y-124983844D01*
X97931757Y-124983844D01*
X97928950Y-124967307D01*
X97927237Y-124914973D01*
X97927865Y-124907580D01*
X98257193Y-124907580D01*
X98264217Y-124911198D01*
X98281565Y-124897107D01*
X98303200Y-124868220D01*
X98305385Y-124864598D01*
X98324304Y-124828595D01*
X98332705Y-124804703D01*
X98332731Y-124803696D01*
X98324715Y-124804170D01*
X98305838Y-124824449D01*
X98282508Y-124856825D01*
X98266525Y-124883344D01*
X98257193Y-124907580D01*
X97927865Y-124907580D01*
X97935081Y-124822673D01*
X97961405Y-124752538D01*
X98010401Y-124697563D01*
X98084970Y-124651387D01*
X98153433Y-124607395D01*
X98215448Y-124544410D01*
X98240829Y-124511702D01*
X98349206Y-124388869D01*
X98481833Y-124283313D01*
X98520012Y-124258698D01*
X98657864Y-124191334D01*
X98813421Y-124146534D01*
X98981027Y-124124291D01*
X99155027Y-124124602D01*
G37*
%TO.C,R1*%
D12*
X90746359Y-113420000D02*
X91053641Y-113420000D01*
X90746359Y-114180000D02*
X91053641Y-114180000D01*
%TO.C,C9*%
X108640000Y-137392164D02*
X108640000Y-137607836D01*
X109360000Y-137392164D02*
X109360000Y-137607836D01*
%TO.C,C1*%
X99792164Y-119640000D02*
X100007836Y-119640000D01*
X99792164Y-120360000D02*
X100007836Y-120360000D01*
%TO.C,J2*%
X125590000Y-141220000D02*
X125590000Y-141740000D01*
X125590000Y-141740000D02*
X140210000Y-141740000D01*
X126240000Y-126260000D02*
X126240000Y-129590000D01*
X126240000Y-126260000D02*
X139560000Y-126260000D01*
X126240000Y-141220000D02*
X125590000Y-141220000D01*
X126240000Y-141220000D02*
X126240000Y-133110000D01*
X128500000Y-126040000D02*
X130300000Y-126040000D01*
X139560000Y-126260000D02*
X139560000Y-129590000D01*
X139560000Y-133110000D02*
X139560000Y-141220000D01*
X140210000Y-141220000D02*
X139560000Y-141220000D01*
X140210000Y-141740000D02*
X140210000Y-141220000D01*
%TO.C,D2*%
D10*
X85660000Y-139700000D02*
G75*
G02*
X85560000Y-139700000I-50000J0D01*
G01*
X85560000Y-139700000D02*
G75*
G02*
X85660000Y-139700000I50000J0D01*
G01*
%TO.C,J4*%
D12*
X80560000Y-110610000D02*
X80560000Y-120010000D01*
X82460000Y-110610000D02*
X80560000Y-110610000D01*
X82460000Y-120010000D02*
X80560000Y-120010000D01*
X86360000Y-110610000D02*
X84360000Y-110610000D01*
X86360000Y-120010000D02*
X84360000Y-120010000D01*
%TO.C,D1*%
X98860000Y-118350000D02*
X96200000Y-118350000D01*
X98860000Y-120050000D02*
X96200000Y-120050000D01*
X98860000Y-120050000D02*
X98860000Y-118350000D01*
%TO.C,U2*%
D11*
X104220000Y-131480000D02*
X109280000Y-131480000D01*
X104220000Y-134520000D02*
X104220000Y-131480000D01*
X109280000Y-131480000D02*
X109280000Y-134520000D01*
X109280000Y-134520000D02*
X104220000Y-134520000D01*
D13*
X104050000Y-135650000D02*
G75*
G02*
X103750000Y-135650000I-150000J0D01*
G01*
X103750000Y-135650000D02*
G75*
G02*
X104050000Y-135650000I150000J0D01*
G01*
D14*
X104330000Y-136000000D02*
G75*
G02*
X104270000Y-136000000I-30000J0D01*
G01*
X104270000Y-136000000D02*
G75*
G02*
X104330000Y-136000000I30000J0D01*
G01*
D13*
X104860000Y-134100000D02*
G75*
G02*
X104560000Y-134100000I-150000J0D01*
G01*
X104560000Y-134100000D02*
G75*
G02*
X104860000Y-134100000I150000J0D01*
G01*
%TO.C,C4*%
D12*
X110142164Y-129890000D02*
X110357836Y-129890000D01*
X110142164Y-130610000D02*
X110357836Y-130610000D01*
%TO.C,C3*%
X124940000Y-127507836D02*
X124940000Y-127292164D01*
X125660000Y-127507836D02*
X125660000Y-127292164D01*
%TO.C,J5*%
X112710000Y-136100000D02*
X112710000Y-138100000D01*
X112710000Y-140000000D02*
X112710000Y-141900000D01*
X112710000Y-141900000D02*
X122110000Y-141900000D01*
X122110000Y-136100000D02*
X122110000Y-138100000D01*
X122110000Y-140000000D02*
X122110000Y-141900000D01*
%TO.C,R5*%
X84346359Y-139320000D02*
X84653641Y-139320000D01*
X84346359Y-140080000D02*
X84653641Y-140080000D01*
%TO.C,C5*%
X107890000Y-128357836D02*
X107890000Y-128142164D01*
X108610000Y-128357836D02*
X108610000Y-128142164D01*
%TO.C,C10*%
X119640000Y-131807836D02*
X119640000Y-131592164D01*
X120360000Y-131807836D02*
X120360000Y-131592164D01*
%TO.C,C8*%
X106140000Y-128337836D02*
X106140000Y-128122164D01*
X106860000Y-128337836D02*
X106860000Y-128122164D01*
%TO.C,J3*%
X83267500Y-135890000D02*
X83267500Y-135030000D01*
X84637500Y-137370000D02*
X89087500Y-137370000D01*
X90487500Y-137370000D02*
X92787500Y-137370000D01*
X94187500Y-137370000D02*
X94907500Y-137370000D01*
X94907500Y-125190000D02*
X85087500Y-125190000D01*
X94907500Y-126420000D02*
X94907500Y-125190000D01*
X94907500Y-132390000D02*
X94907500Y-128720000D01*
X94907500Y-137370000D02*
X94907500Y-134690000D01*
%TO.C,C6*%
X102390000Y-119357836D02*
X102390000Y-119142164D01*
X103110000Y-119357836D02*
X103110000Y-119142164D01*
%TD*%
M02*
