%TF.GenerationSoftware,KiCad,Pcbnew,10.0.1*%
%TF.CreationDate,2026-05-10T15:17:57+10:00*%
%TF.ProjectId,YetAnotherUSBHub,59657441-6e6f-4746-9865-725553424875,rev?*%
%TF.SameCoordinates,Original*%
%TF.FileFunction,Paste,Top*%
%TF.FilePolarity,Positive*%
%FSLAX46Y46*%
G04 Gerber Fmt 4.6, Leading zero omitted, Abs format (unit mm)*
G04 Created by KiCad (PCBNEW 10.0.1) date 2026-05-10 15:17:57*
%MOMM*%
%LPD*%
G01*
G04 APERTURE LIST*
G04 Aperture macros list*
%AMRoundRect*
0 Rectangle with rounded corners*
0 $1 Rounding radius*
0 $2 $3 $4 $5 $6 $7 $8 $9 X,Y pos of 4 corners*
0 Add a 4 corners polygon primitive as box body*
4,1,4,$2,$3,$4,$5,$6,$7,$8,$9,$2,$3,0*
0 Add four circle primitives for the rounded corners*
1,1,$1+$1,$2,$3*
1,1,$1+$1,$4,$5*
1,1,$1+$1,$6,$7*
1,1,$1+$1,$8,$9*
0 Add four rect primitives between the rounded corners*
20,1,$1+$1,$2,$3,$4,$5,0*
20,1,$1+$1,$4,$5,$6,$7,0*
20,1,$1+$1,$6,$7,$8,$9,0*
20,1,$1+$1,$8,$9,$2,$3,0*%
G04 Aperture macros list end*
%ADD10RoundRect,0.135000X-0.135000X-0.185000X0.135000X-0.185000X0.135000X0.185000X-0.135000X0.185000X0*%
%ADD11RoundRect,0.135000X0.185000X-0.135000X0.185000X0.135000X-0.185000X0.135000X-0.185000X-0.135000X0*%
%ADD12RoundRect,0.140000X-0.170000X0.140000X-0.170000X-0.140000X0.170000X-0.140000X0.170000X0.140000X0*%
%ADD13O,0.560000X1.745000*%
%ADD14RoundRect,0.135000X0.135000X0.185000X-0.135000X0.185000X-0.135000X-0.185000X0.135000X-0.185000X0*%
%ADD15RoundRect,0.140000X-0.140000X-0.170000X0.140000X-0.170000X0.140000X0.170000X-0.140000X0.170000X0*%
%ADD16RoundRect,0.147500X-0.147500X-0.172500X0.147500X-0.172500X0.147500X0.172500X-0.147500X0.172500X0*%
%ADD17RoundRect,0.150000X-0.575000X0.150000X-0.575000X-0.150000X0.575000X-0.150000X0.575000X0.150000X0*%
%ADD18RoundRect,0.075000X-0.650000X0.075000X-0.650000X-0.075000X0.650000X-0.075000X0.650000X0.075000X0*%
%ADD19RoundRect,0.112500X0.187500X0.112500X-0.187500X0.112500X-0.187500X-0.112500X0.187500X-0.112500X0*%
%ADD20O,0.356000X1.815000*%
%ADD21RoundRect,0.140000X0.170000X-0.140000X0.170000X0.140000X-0.170000X0.140000X-0.170000X-0.140000X0*%
%ADD22RoundRect,0.150000X-0.150000X-0.575000X0.150000X-0.575000X0.150000X0.575000X-0.150000X0.575000X0*%
%ADD23RoundRect,0.075000X-0.075000X-0.650000X0.075000X-0.650000X0.075000X0.650000X-0.075000X0.650000X0*%
%ADD24R,1.100000X0.850000*%
%ADD25R,1.100000X0.750000*%
%ADD26R,1.000000X1.200000*%
%ADD27R,1.350000X1.550000*%
%ADD28R,1.350000X1.900000*%
%ADD29R,1.800000X1.170000*%
G04 APERTURE END LIST*
D10*
%TO.C,R2*%
X90690000Y-117100000D03*
X91710000Y-117100000D03*
%TD*%
D11*
%TO.C,R4*%
X119000000Y-132210000D03*
X119000000Y-131190000D03*
%TD*%
D12*
%TO.C,C2*%
X142800000Y-127020000D03*
X142800000Y-127980000D03*
%TD*%
D13*
%TO.C,U1*%
X104050000Y-123870000D03*
X105330000Y-123870000D03*
X106600000Y-123870000D03*
X107870000Y-123870000D03*
X109130000Y-123870000D03*
X110400000Y-123870000D03*
X111670000Y-123870000D03*
X112950000Y-123870000D03*
X112950000Y-118130000D03*
X111670000Y-118130000D03*
X110400000Y-118130000D03*
X109130000Y-118130000D03*
X107870000Y-118130000D03*
X106600000Y-118130000D03*
X105330000Y-118130000D03*
X104050000Y-118130000D03*
%TD*%
D14*
%TO.C,R3*%
X113510000Y-132200000D03*
X112490000Y-132200000D03*
%TD*%
D10*
%TO.C,R1*%
X90390000Y-113800000D03*
X91410000Y-113800000D03*
%TD*%
D12*
%TO.C,C9*%
X109000000Y-137020000D03*
X109000000Y-137980000D03*
%TD*%
D15*
%TO.C,C1*%
X99420000Y-120000000D03*
X100380000Y-120000000D03*
%TD*%
D16*
%TO.C,D2*%
X86215000Y-139700000D03*
X87185000Y-139700000D03*
%TD*%
D17*
%TO.C,J4*%
X88505000Y-112060000D03*
X88505000Y-112860000D03*
D18*
X88505000Y-114060000D03*
X88505000Y-115060000D03*
X88505000Y-115560000D03*
X88505000Y-116560000D03*
D17*
X88505000Y-117760000D03*
X88505000Y-118560000D03*
X88505000Y-118560000D03*
X88505000Y-117760000D03*
D18*
X88505000Y-117060000D03*
X88505000Y-116060000D03*
X88505000Y-114560000D03*
X88505000Y-113560000D03*
D17*
X88505000Y-112860000D03*
X88505000Y-112060000D03*
%TD*%
D19*
%TO.C,D1*%
X98300000Y-119200000D03*
X96200000Y-119200000D03*
%TD*%
D20*
%TO.C,U2*%
X104530000Y-135650000D03*
X105160000Y-135650000D03*
X105800000Y-135650000D03*
X106430000Y-135650000D03*
X107070000Y-135650000D03*
X107700000Y-135650000D03*
X108340000Y-135650000D03*
X108970000Y-135650000D03*
X108970000Y-130350000D03*
X108340000Y-130350000D03*
X107700000Y-130350000D03*
X107070000Y-130350000D03*
X106430000Y-130350000D03*
X105800000Y-130350000D03*
X105160000Y-130350000D03*
X104530000Y-130350000D03*
%TD*%
D15*
%TO.C,C4*%
X109770000Y-130250000D03*
X110730000Y-130250000D03*
%TD*%
D21*
%TO.C,C3*%
X125300000Y-127880000D03*
X125300000Y-126920000D03*
%TD*%
D22*
%TO.C,J5*%
X114160000Y-133955000D03*
X114960000Y-133955000D03*
D23*
X116160000Y-133955000D03*
X117160000Y-133955000D03*
X117660000Y-133955000D03*
X118660000Y-133955000D03*
D22*
X119860000Y-133955000D03*
X120660000Y-133955000D03*
X120660000Y-133955000D03*
X119860000Y-133955000D03*
D23*
X119160000Y-133955000D03*
X118160000Y-133955000D03*
X116660000Y-133955000D03*
X115660000Y-133955000D03*
D22*
X114960000Y-133955000D03*
X114160000Y-133955000D03*
%TD*%
D10*
%TO.C,R5*%
X83990000Y-139700000D03*
X85010000Y-139700000D03*
%TD*%
D21*
%TO.C,C5*%
X108250000Y-128730000D03*
X108250000Y-127770000D03*
%TD*%
%TO.C,C10*%
X120000000Y-132180000D03*
X120000000Y-131220000D03*
%TD*%
%TO.C,C8*%
X106500000Y-128710000D03*
X106500000Y-127750000D03*
%TD*%
D24*
%TO.C,J3*%
X83637500Y-134405000D03*
X83637500Y-133305000D03*
X83637500Y-132205000D03*
X83637500Y-131105000D03*
X83637500Y-130005000D03*
X83637500Y-128905000D03*
X83637500Y-127805000D03*
D25*
X83637500Y-126755000D03*
D26*
X89787500Y-137040000D03*
X93487500Y-137040000D03*
D27*
X83762500Y-136865000D03*
D28*
X94462500Y-133540000D03*
X94462500Y-127570000D03*
D29*
X83987500Y-125545000D03*
%TD*%
D21*
%TO.C,C6*%
X102750000Y-119730000D03*
X102750000Y-118770000D03*
%TD*%
M02*
