M48
; DRILL file KiCad 10.0.3 date 2026-05-29T19:06:34
; FORMAT={-:-/ absolute / metric / decimal}
; #@! TF.CreationDate,2026-05-29T19:06:34+10:00
; #@! TF.GenerationSoftware,Kicad,Pcbnew,10.0.3
; #@! TF.FileFunction,Plated,1,2,PTH
FMAT,2
METRIC
; #@! TA.AperFunction,Plated,PTH,ViaDrill
T1C0.250
; #@! TA.AperFunction,Plated,PTH,ViaDrill
T2C0.300
; #@! TA.AperFunction,Plated,PTH,ViaDrill
T3C0.400
; #@! TA.AperFunction,Plated,PTH,ComponentDrill
T4C0.600
; #@! TA.AperFunction,Plated,PTH,ComponentDrill
T5C0.950
; #@! TA.AperFunction,Plated,PTH,ComponentDrill
T6C2.300
%
G90
G05
T1
X84.1Y-128.905
X92.325Y-133.5
X93.975Y-115.75
X98.525Y-135.4
X113.05Y-128.4
X120.0Y-130.15
X122.875Y-128.025
X129.55Y-124.5
X150.45Y-124.25
T2
X84.0Y-135.7
X84.5Y-131.1
X85.7Y-138.9
X88.7Y-140.0
X89.8Y-111.85
X92.7Y-113.8
X92.7Y-117.1
X103.575Y-133.475
X104.6Y-117.1
X104.976Y-132.676
X106.2Y-133.7
X106.5Y-126.5
X107.25Y-126.0
X107.5Y-119.75
X107.7Y-132.0
X108.75Y-119.75
X108.75Y-139.0
X108.8Y-133.3
X109.25Y-131.5
X110.0Y-132.4
X111.25Y-131.75
X118.6Y-135.3
X121.5Y-133.0
T3
X109.44Y-120.81
T5
X129.4Y-128.64
X131.9Y-128.64
X133.9Y-128.64
X136.4Y-128.64
X146.9Y-128.64
X149.4Y-128.64
X151.4Y-128.64
X153.9Y-128.64
T6
X126.33Y-131.35
X139.47Y-131.35
X143.83Y-131.35
X156.97Y-131.35
T4
G00X83.71Y-110.99
M15
G01X83.11Y-110.99
M16
G05
G00X83.71Y-119.63
M15
G01X83.11Y-119.63
M16
G05
G00X88.14Y-110.99
M15
G01X87.04Y-110.99
M16
G05
G00X88.14Y-119.63
M15
G01X87.04Y-119.63
M16
G05
G00X113.09Y-134.32
M15
G01X113.09Y-135.42
M16
G05
G00X113.09Y-138.75
M15
G01X113.09Y-139.35
M16
G05
G00X121.73Y-134.32
M15
G01X121.73Y-135.42
M16
G05
G00X121.73Y-138.75
M15
G01X121.73Y-139.35
M16
G05
M30
