ISO-10303-21;
HEADER;
/* Generated by software containing ST-Developer
 * from STEP Tools, Inc. (www.steptools.com) 
 */
/* OPTION: using custom renumber hook */

FILE_DESCRIPTION(
/* description */ ('STEP AP242 Edition 2',
'CAx-IF Rec.Pracs.---Representation and Presentation of Product Manufa
cturing Information (PMI)---4.0---2014-10-13',
'CAx-IF Rec.Pracs.---3D Tessellated Geometry---0.4---2014-09-14','2;1',
'CAx-IF Rec.Pracs.---User Defined Attributes---1.5---2016-08-15'),
/* implementation_level */ '2;1');

FILE_NAME(
/* name */ 'Part Studio 1 - Part 1',
/* time_stamp */ '2026-05-30T05:06:04Z',
/* author */ (''),
/* organization */ (''),
/* preprocessor_version */ 'ST-DEVELOPER v20',
/* originating_system */ 'ONSHAPE BY PTC INC, 1.215',
/* authorisation */ '  ');

FILE_SCHEMA (('AP242_MANAGED_MODEL_BASED_3D_ENGINEERING_MIM_LF { 1 0 10303 442 3 1 4 }'));
ENDSEC;

DATA;
#10=SHAPE_REPRESENTATION_RELATIONSHIP('','',#864,#11);
#11=ADVANCED_BREP_SHAPE_REPRESENTATION('',(#862),#1374);
#12=CYLINDRICAL_SURFACE('',#880,0.002);
#13=CYLINDRICAL_SURFACE('',#882,0.002);
#14=CYLINDRICAL_SURFACE('',#885,0.002);
#15=CYLINDRICAL_SURFACE('',#888,0.002);
#16=CYLINDRICAL_SURFACE('',#891,0.002);
#17=CYLINDRICAL_SURFACE('',#896,0.002);
#18=CIRCLE('',#871,0.002);
#19=CIRCLE('',#872,0.002);
#20=CIRCLE('',#873,0.002);
#21=CIRCLE('',#874,0.002);
#22=CIRCLE('',#875,0.002);
#23=CIRCLE('',#876,0.002);
#24=CIRCLE('',#881,0.002);
#25=CIRCLE('',#883,0.002);
#26=CIRCLE('',#886,0.002);
#27=CIRCLE('',#889,0.002);
#28=CIRCLE('',#892,0.002);
#29=CIRCLE('',#897,0.002);
#30=ORIENTED_EDGE('',*,*,#264,.F.);
#31=ORIENTED_EDGE('',*,*,#265,.F.);
#32=ORIENTED_EDGE('',*,*,#266,.T.);
#33=ORIENTED_EDGE('',*,*,#267,.T.);
#34=ORIENTED_EDGE('',*,*,#268,.T.);
#35=ORIENTED_EDGE('',*,*,#269,.T.);
#36=ORIENTED_EDGE('',*,*,#270,.F.);
#37=ORIENTED_EDGE('',*,*,#271,.F.);
#38=ORIENTED_EDGE('',*,*,#272,.T.);
#39=ORIENTED_EDGE('',*,*,#273,.T.);
#40=ORIENTED_EDGE('',*,*,#274,.F.);
#41=ORIENTED_EDGE('',*,*,#275,.F.);
#42=ORIENTED_EDGE('',*,*,#276,.T.);
#43=ORIENTED_EDGE('',*,*,#277,.T.);
#44=ORIENTED_EDGE('',*,*,#278,.F.);
#45=ORIENTED_EDGE('',*,*,#279,.F.);
#46=ORIENTED_EDGE('',*,*,#280,.T.);
#47=ORIENTED_EDGE('',*,*,#281,.F.);
#48=ORIENTED_EDGE('',*,*,#282,.F.);
#49=ORIENTED_EDGE('',*,*,#283,.T.);
#50=ORIENTED_EDGE('',*,*,#284,.T.);
#51=ORIENTED_EDGE('',*,*,#285,.T.);
#52=ORIENTED_EDGE('',*,*,#286,.F.);
#53=ORIENTED_EDGE('',*,*,#287,.F.);
#54=ORIENTED_EDGE('',*,*,#288,.F.);
#55=ORIENTED_EDGE('',*,*,#267,.F.);
#56=ORIENTED_EDGE('',*,*,#289,.T.);
#57=ORIENTED_EDGE('',*,*,#290,.T.);
#58=ORIENTED_EDGE('',*,*,#291,.T.);
#59=ORIENTED_EDGE('',*,*,#292,.T.);
#60=ORIENTED_EDGE('',*,*,#293,.F.);
#61=ORIENTED_EDGE('',*,*,#294,.F.);
#62=ORIENTED_EDGE('',*,*,#295,.T.);
#63=ORIENTED_EDGE('',*,*,#296,.T.);
#64=ORIENTED_EDGE('',*,*,#297,.F.);
#65=ORIENTED_EDGE('',*,*,#298,.F.);
#66=ORIENTED_EDGE('',*,*,#299,.T.);
#67=ORIENTED_EDGE('',*,*,#300,.T.);
#68=ORIENTED_EDGE('',*,*,#301,.F.);
#69=ORIENTED_EDGE('',*,*,#302,.F.);
#70=ORIENTED_EDGE('',*,*,#303,.T.);
#71=ORIENTED_EDGE('',*,*,#304,.T.);
#72=ORIENTED_EDGE('',*,*,#305,.F.);
#73=ORIENTED_EDGE('',*,*,#306,.F.);
#74=ORIENTED_EDGE('',*,*,#307,.T.);
#75=ORIENTED_EDGE('',*,*,#308,.F.);
#76=ORIENTED_EDGE('',*,*,#309,.F.);
#77=ORIENTED_EDGE('',*,*,#310,.T.);
#78=ORIENTED_EDGE('',*,*,#311,.T.);
#79=ORIENTED_EDGE('',*,*,#312,.T.);
#80=ORIENTED_EDGE('',*,*,#313,.F.);
#81=ORIENTED_EDGE('',*,*,#314,.F.);
#82=ORIENTED_EDGE('',*,*,#315,.T.);
#83=ORIENTED_EDGE('',*,*,#316,.T.);
#84=ORIENTED_EDGE('',*,*,#317,.F.);
#85=ORIENTED_EDGE('',*,*,#318,.F.);
#86=ORIENTED_EDGE('',*,*,#280,.F.);
#87=ORIENTED_EDGE('',*,*,#319,.F.);
#88=ORIENTED_EDGE('',*,*,#320,.F.);
#89=ORIENTED_EDGE('',*,*,#321,.F.);
#90=ORIENTED_EDGE('',*,*,#322,.T.);
#91=ORIENTED_EDGE('',*,*,#323,.T.);
#92=ORIENTED_EDGE('',*,*,#324,.F.);
#93=ORIENTED_EDGE('',*,*,#325,.F.);
#94=ORIENTED_EDGE('',*,*,#326,.F.);
#95=ORIENTED_EDGE('',*,*,#327,.F.);
#96=ORIENTED_EDGE('',*,*,#307,.F.);
#97=ORIENTED_EDGE('',*,*,#328,.F.);
#98=ORIENTED_EDGE('',*,*,#329,.F.);
#99=ORIENTED_EDGE('',*,*,#330,.F.);
#100=ORIENTED_EDGE('',*,*,#331,.T.);
#101=ORIENTED_EDGE('',*,*,#265,.T.);
#102=ORIENTED_EDGE('',*,*,#332,.F.);
#103=ORIENTED_EDGE('',*,*,#290,.F.);
#104=ORIENTED_EDGE('',*,*,#333,.T.);
#105=ORIENTED_EDGE('',*,*,#334,.T.);
#106=ORIENTED_EDGE('',*,*,#330,.T.);
#107=ORIENTED_EDGE('',*,*,#335,.T.);
#108=ORIENTED_EDGE('',*,*,#336,.F.);
#109=ORIENTED_EDGE('',*,*,#337,.F.);
#110=ORIENTED_EDGE('',*,*,#328,.T.);
#111=ORIENTED_EDGE('',*,*,#310,.F.);
#112=ORIENTED_EDGE('',*,*,#338,.F.);
#113=ORIENTED_EDGE('',*,*,#281,.T.);
#114=ORIENTED_EDGE('',*,*,#327,.T.);
#115=ORIENTED_EDGE('',*,*,#339,.F.);
#116=ORIENTED_EDGE('',*,*,#340,.F.);
#117=ORIENTED_EDGE('',*,*,#308,.T.);
#118=ORIENTED_EDGE('',*,*,#326,.T.);
#119=ORIENTED_EDGE('',*,*,#341,.F.);
#120=ORIENTED_EDGE('',*,*,#342,.F.);
#121=ORIENTED_EDGE('',*,*,#339,.T.);
#122=ORIENTED_EDGE('',*,*,#325,.T.);
#123=ORIENTED_EDGE('',*,*,#343,.F.);
#124=ORIENTED_EDGE('',*,*,#344,.F.);
#125=ORIENTED_EDGE('',*,*,#341,.T.);
#126=ORIENTED_EDGE('',*,*,#324,.T.);
#127=ORIENTED_EDGE('',*,*,#345,.F.);
#128=ORIENTED_EDGE('',*,*,#346,.F.);
#129=ORIENTED_EDGE('',*,*,#343,.T.);
#130=ORIENTED_EDGE('',*,*,#323,.F.);
#131=ORIENTED_EDGE('',*,*,#347,.F.);
#132=ORIENTED_EDGE('',*,*,#348,.T.);
#133=ORIENTED_EDGE('',*,*,#345,.T.);
#134=ORIENTED_EDGE('',*,*,#322,.F.);
#135=ORIENTED_EDGE('',*,*,#349,.F.);
#136=ORIENTED_EDGE('',*,*,#350,.T.);
#137=ORIENTED_EDGE('',*,*,#347,.T.);
#138=ORIENTED_EDGE('',*,*,#321,.T.);
#139=ORIENTED_EDGE('',*,*,#351,.F.);
#140=ORIENTED_EDGE('',*,*,#352,.F.);
#141=ORIENTED_EDGE('',*,*,#349,.T.);
#142=ORIENTED_EDGE('',*,*,#320,.T.);
#143=ORIENTED_EDGE('',*,*,#353,.F.);
#144=ORIENTED_EDGE('',*,*,#354,.F.);
#145=ORIENTED_EDGE('',*,*,#351,.T.);
#146=ORIENTED_EDGE('',*,*,#355,.T.);
#147=ORIENTED_EDGE('',*,*,#356,.F.);
#148=ORIENTED_EDGE('',*,*,#357,.F.);
#149=ORIENTED_EDGE('',*,*,#336,.T.);
#150=ORIENTED_EDGE('',*,*,#356,.T.);
#151=ORIENTED_EDGE('',*,*,#358,.F.);
#152=ORIENTED_EDGE('',*,*,#334,.F.);
#153=ORIENTED_EDGE('',*,*,#359,.T.);
#154=ORIENTED_EDGE('',*,*,#319,.T.);
#155=ORIENTED_EDGE('',*,*,#283,.F.);
#156=ORIENTED_EDGE('',*,*,#360,.F.);
#157=ORIENTED_EDGE('',*,*,#353,.T.);
#158=ORIENTED_EDGE('',*,*,#266,.F.);
#159=ORIENTED_EDGE('',*,*,#331,.F.);
#160=ORIENTED_EDGE('',*,*,#337,.T.);
#161=ORIENTED_EDGE('',*,*,#357,.T.);
#162=ORIENTED_EDGE('',*,*,#359,.F.);
#163=ORIENTED_EDGE('',*,*,#333,.F.);
#164=ORIENTED_EDGE('',*,*,#289,.F.);
#165=ORIENTED_EDGE('',*,*,#282,.T.);
#166=ORIENTED_EDGE('',*,*,#338,.T.);
#167=ORIENTED_EDGE('',*,*,#309,.T.);
#168=ORIENTED_EDGE('',*,*,#340,.T.);
#169=ORIENTED_EDGE('',*,*,#342,.T.);
#170=ORIENTED_EDGE('',*,*,#344,.T.);
#171=ORIENTED_EDGE('',*,*,#346,.T.);
#172=ORIENTED_EDGE('',*,*,#348,.F.);
#173=ORIENTED_EDGE('',*,*,#350,.F.);
#174=ORIENTED_EDGE('',*,*,#352,.T.);
#175=ORIENTED_EDGE('',*,*,#354,.T.);
#176=ORIENTED_EDGE('',*,*,#360,.T.);
#177=ORIENTED_EDGE('',*,*,#329,.T.);
#178=ORIENTED_EDGE('',*,*,#264,.T.);
#179=ORIENTED_EDGE('',*,*,#288,.T.);
#180=ORIENTED_EDGE('',*,*,#332,.T.);
#181=ORIENTED_EDGE('',*,*,#358,.T.);
#182=ORIENTED_EDGE('',*,*,#355,.F.);
#183=ORIENTED_EDGE('',*,*,#335,.F.);
#184=ORIENTED_EDGE('',*,*,#361,.T.);
#185=ORIENTED_EDGE('',*,*,#311,.F.);
#186=ORIENTED_EDGE('',*,*,#362,.F.);
#187=ORIENTED_EDGE('',*,*,#292,.F.);
#188=ORIENTED_EDGE('',*,*,#293,.T.);
#189=ORIENTED_EDGE('',*,*,#362,.T.);
#190=ORIENTED_EDGE('',*,*,#314,.T.);
#191=ORIENTED_EDGE('',*,*,#363,.F.);
#192=ORIENTED_EDGE('',*,*,#294,.T.);
#193=ORIENTED_EDGE('',*,*,#363,.T.);
#194=ORIENTED_EDGE('',*,*,#313,.T.);
#195=ORIENTED_EDGE('',*,*,#364,.F.);
#196=ORIENTED_EDGE('',*,*,#364,.T.);
#197=ORIENTED_EDGE('',*,*,#312,.F.);
#198=ORIENTED_EDGE('',*,*,#361,.F.);
#199=ORIENTED_EDGE('',*,*,#291,.F.);
#200=ORIENTED_EDGE('',*,*,#365,.T.);
#201=ORIENTED_EDGE('',*,*,#303,.F.);
#202=ORIENTED_EDGE('',*,*,#366,.F.);
#203=ORIENTED_EDGE('',*,*,#296,.F.);
#204=ORIENTED_EDGE('',*,*,#297,.T.);
#205=ORIENTED_EDGE('',*,*,#366,.T.);
#206=ORIENTED_EDGE('',*,*,#306,.T.);
#207=ORIENTED_EDGE('',*,*,#367,.F.);
#208=ORIENTED_EDGE('',*,*,#298,.T.);
#209=ORIENTED_EDGE('',*,*,#367,.T.);
#210=ORIENTED_EDGE('',*,*,#305,.T.);
#211=ORIENTED_EDGE('',*,*,#368,.F.);
#212=ORIENTED_EDGE('',*,*,#368,.T.);
#213=ORIENTED_EDGE('',*,*,#304,.F.);
#214=ORIENTED_EDGE('',*,*,#365,.F.);
#215=ORIENTED_EDGE('',*,*,#295,.F.);
#216=ORIENTED_EDGE('',*,*,#369,.T.);
#217=ORIENTED_EDGE('',*,*,#315,.F.);
#218=ORIENTED_EDGE('',*,*,#370,.F.);
#219=ORIENTED_EDGE('',*,*,#300,.F.);
#220=ORIENTED_EDGE('',*,*,#301,.T.);
#221=ORIENTED_EDGE('',*,*,#370,.T.);
#222=ORIENTED_EDGE('',*,*,#318,.T.);
#223=ORIENTED_EDGE('',*,*,#371,.F.);
#224=ORIENTED_EDGE('',*,*,#302,.T.);
#225=ORIENTED_EDGE('',*,*,#371,.T.);
#226=ORIENTED_EDGE('',*,*,#317,.T.);
#227=ORIENTED_EDGE('',*,*,#372,.F.);
#228=ORIENTED_EDGE('',*,*,#372,.T.);
#229=ORIENTED_EDGE('',*,*,#316,.F.);
#230=ORIENTED_EDGE('',*,*,#369,.F.);
#231=ORIENTED_EDGE('',*,*,#299,.F.);
#232=ORIENTED_EDGE('',*,*,#373,.T.);
#233=ORIENTED_EDGE('',*,*,#276,.F.);
#234=ORIENTED_EDGE('',*,*,#374,.F.);
#235=ORIENTED_EDGE('',*,*,#269,.F.);
#236=ORIENTED_EDGE('',*,*,#270,.T.);
#237=ORIENTED_EDGE('',*,*,#374,.T.);
#238=ORIENTED_EDGE('',*,*,#279,.T.);
#239=ORIENTED_EDGE('',*,*,#375,.F.);
#240=ORIENTED_EDGE('',*,*,#271,.T.);
#241=ORIENTED_EDGE('',*,*,#375,.T.);
#242=ORIENTED_EDGE('',*,*,#278,.T.);
#243=ORIENTED_EDGE('',*,*,#376,.F.);
#244=ORIENTED_EDGE('',*,*,#376,.T.);
#245=ORIENTED_EDGE('',*,*,#277,.F.);
#246=ORIENTED_EDGE('',*,*,#373,.F.);
#247=ORIENTED_EDGE('',*,*,#268,.F.);
#248=ORIENTED_EDGE('',*,*,#377,.T.);
#249=ORIENTED_EDGE('',*,*,#284,.F.);
#250=ORIENTED_EDGE('',*,*,#378,.F.);
#251=ORIENTED_EDGE('',*,*,#273,.F.);
#252=ORIENTED_EDGE('',*,*,#274,.T.);
#253=ORIENTED_EDGE('',*,*,#378,.T.);
#254=ORIENTED_EDGE('',*,*,#287,.T.);
#255=ORIENTED_EDGE('',*,*,#379,.F.);
#256=ORIENTED_EDGE('',*,*,#275,.T.);
#257=ORIENTED_EDGE('',*,*,#379,.T.);
#258=ORIENTED_EDGE('',*,*,#286,.T.);
#259=ORIENTED_EDGE('',*,*,#380,.F.);
#260=ORIENTED_EDGE('',*,*,#380,.T.);
#261=ORIENTED_EDGE('',*,*,#285,.F.);
#262=ORIENTED_EDGE('',*,*,#377,.F.);
#263=ORIENTED_EDGE('',*,*,#272,.F.);
#264=EDGE_CURVE('',#381,#382,#459,.T.);
#265=EDGE_CURVE('',#383,#381,#460,.T.);
#266=EDGE_CURVE('',#383,#384,#461,.T.);
#267=EDGE_CURVE('',#384,#382,#462,.T.);
#268=EDGE_CURVE('',#385,#386,#463,.T.);
#269=EDGE_CURVE('',#386,#387,#464,.T.);
#270=EDGE_CURVE('',#388,#387,#465,.T.);
#271=EDGE_CURVE('',#385,#388,#466,.T.);
#272=EDGE_CURVE('',#389,#390,#467,.T.);
#273=EDGE_CURVE('',#390,#391,#468,.T.);
#274=EDGE_CURVE('',#392,#391,#469,.T.);
#275=EDGE_CURVE('',#389,#392,#470,.T.);
#276=EDGE_CURVE('',#393,#394,#471,.T.);
#277=EDGE_CURVE('',#394,#395,#472,.T.);
#278=EDGE_CURVE('',#396,#395,#473,.T.);
#279=EDGE_CURVE('',#393,#396,#474,.T.);
#280=EDGE_CURVE('',#397,#398,#475,.T.);
#281=EDGE_CURVE('',#399,#398,#476,.T.);
#282=EDGE_CURVE('',#400,#399,#477,.T.);
#283=EDGE_CURVE('',#400,#397,#478,.T.);
#284=EDGE_CURVE('',#401,#402,#479,.T.);
#285=EDGE_CURVE('',#402,#403,#480,.T.);
#286=EDGE_CURVE('',#404,#403,#481,.T.);
#287=EDGE_CURVE('',#401,#404,#482,.T.);
#288=EDGE_CURVE('',#382,#405,#483,.T.);
#289=EDGE_CURVE('',#384,#406,#484,.T.);
#290=EDGE_CURVE('',#406,#405,#485,.T.);
#291=EDGE_CURVE('',#407,#408,#486,.T.);
#292=EDGE_CURVE('',#408,#409,#487,.T.);
#293=EDGE_CURVE('',#410,#409,#488,.T.);
#294=EDGE_CURVE('',#407,#410,#489,.T.);
#295=EDGE_CURVE('',#411,#412,#490,.T.);
#296=EDGE_CURVE('',#412,#413,#491,.T.);
#297=EDGE_CURVE('',#414,#413,#492,.T.);
#298=EDGE_CURVE('',#411,#414,#493,.T.);
#299=EDGE_CURVE('',#415,#416,#494,.T.);
#300=EDGE_CURVE('',#416,#417,#495,.T.);
#301=EDGE_CURVE('',#418,#417,#496,.T.);
#302=EDGE_CURVE('',#415,#418,#497,.T.);
#303=EDGE_CURVE('',#419,#420,#498,.T.);
#304=EDGE_CURVE('',#420,#421,#499,.T.);
#305=EDGE_CURVE('',#422,#421,#500,.T.);
#306=EDGE_CURVE('',#419,#422,#501,.T.);
#307=EDGE_CURVE('',#423,#424,#502,.T.);
#308=EDGE_CURVE('',#425,#424,#503,.T.);
#309=EDGE_CURVE('',#426,#425,#504,.T.);
#310=EDGE_CURVE('',#426,#423,#505,.T.);
#311=EDGE_CURVE('',#427,#428,#506,.T.);
#312=EDGE_CURVE('',#428,#429,#507,.T.);
#313=EDGE_CURVE('',#430,#429,#508,.T.);
#314=EDGE_CURVE('',#427,#430,#509,.T.);
#315=EDGE_CURVE('',#431,#432,#510,.T.);
#316=EDGE_CURVE('',#432,#433,#511,.T.);
#317=EDGE_CURVE('',#434,#433,#512,.T.);
#318=EDGE_CURVE('',#431,#434,#513,.T.);
#319=EDGE_CURVE('',#435,#397,#18,.T.);
#320=EDGE_CURVE('',#436,#435,#514,.T.);
#321=EDGE_CURVE('',#437,#436,#19,.T.);
#322=EDGE_CURVE('',#437,#438,#515,.T.);
#323=EDGE_CURVE('',#438,#439,#20,.T.);
#324=EDGE_CURVE('',#440,#439,#516,.T.);
#325=EDGE_CURVE('',#441,#440,#21,.T.);
#326=EDGE_CURVE('',#442,#441,#517,.T.);
#327=EDGE_CURVE('',#424,#442,#22,.T.);
#328=EDGE_CURVE('',#398,#423,#23,.T.);
#329=EDGE_CURVE('',#443,#381,#518,.T.);
#330=EDGE_CURVE('',#444,#443,#519,.T.);
#331=EDGE_CURVE('',#444,#383,#520,.T.);
#332=EDGE_CURVE('',#405,#445,#521,.T.);
#333=EDGE_CURVE('',#406,#446,#522,.T.);
#334=EDGE_CURVE('',#446,#445,#523,.T.);
#335=EDGE_CURVE('',#443,#447,#524,.T.);
#336=EDGE_CURVE('',#448,#447,#525,.T.);
#337=EDGE_CURVE('',#444,#448,#526,.T.);
#338=EDGE_CURVE('',#399,#426,#24,.T.);
#339=EDGE_CURVE('',#449,#442,#527,.T.);
#340=EDGE_CURVE('',#425,#449,#25,.T.);
#341=EDGE_CURVE('',#450,#441,#528,.T.);
#342=EDGE_CURVE('',#449,#450,#529,.T.);
#343=EDGE_CURVE('',#451,#440,#530,.T.);
#344=EDGE_CURVE('',#450,#451,#26,.T.);
#345=EDGE_CURVE('',#452,#439,#531,.T.);
#346=EDGE_CURVE('',#451,#452,#532,.T.);
#347=EDGE_CURVE('',#453,#438,#533,.T.);
#348=EDGE_CURVE('',#453,#452,#27,.T.);
#349=EDGE_CURVE('',#454,#437,#534,.T.);
#350=EDGE_CURVE('',#454,#453,#535,.T.);
#351=EDGE_CURVE('',#455,#436,#536,.T.);
#352=EDGE_CURVE('',#454,#455,#28,.T.);
#353=EDGE_CURVE('',#456,#435,#537,.T.);
#354=EDGE_CURVE('',#455,#456,#538,.T.);
#355=EDGE_CURVE('',#447,#457,#539,.T.);
#356=EDGE_CURVE('',#458,#457,#540,.T.);
#357=EDGE_CURVE('',#448,#458,#541,.T.);
#358=EDGE_CURVE('',#445,#457,#542,.T.);
#359=EDGE_CURVE('',#446,#458,#543,.T.);
#360=EDGE_CURVE('',#456,#400,#29,.T.);
#361=EDGE_CURVE('',#408,#428,#544,.T.);
#362=EDGE_CURVE('',#409,#427,#545,.T.);
#363=EDGE_CURVE('',#410,#430,#546,.T.);
#364=EDGE_CURVE('',#407,#429,#547,.T.);
#365=EDGE_CURVE('',#412,#420,#548,.T.);
#366=EDGE_CURVE('',#413,#419,#549,.T.);
#367=EDGE_CURVE('',#414,#422,#550,.T.);
#368=EDGE_CURVE('',#411,#421,#551,.T.);
#369=EDGE_CURVE('',#416,#432,#552,.T.);
#370=EDGE_CURVE('',#417,#431,#553,.T.);
#371=EDGE_CURVE('',#418,#434,#554,.T.);
#372=EDGE_CURVE('',#415,#433,#555,.T.);
#373=EDGE_CURVE('',#386,#394,#556,.T.);
#374=EDGE_CURVE('',#387,#393,#557,.T.);
#375=EDGE_CURVE('',#388,#396,#558,.T.);
#376=EDGE_CURVE('',#385,#395,#559,.T.);
#377=EDGE_CURVE('',#390,#402,#560,.T.);
#378=EDGE_CURVE('',#391,#401,#561,.T.);
#379=EDGE_CURVE('',#392,#404,#562,.T.);
#380=EDGE_CURVE('',#389,#403,#563,.T.);
#381=VERTEX_POINT('',#1138);
#382=VERTEX_POINT('',#1139);
#383=VERTEX_POINT('',#1141);
#384=VERTEX_POINT('',#1143);
#385=VERTEX_POINT('',#1146);
#386=VERTEX_POINT('',#1147);
#387=VERTEX_POINT('',#1149);
#388=VERTEX_POINT('',#1151);
#389=VERTEX_POINT('',#1154);
#390=VERTEX_POINT('',#1155);
#391=VERTEX_POINT('',#1157);
#392=VERTEX_POINT('',#1159);
#393=VERTEX_POINT('',#1163);
#394=VERTEX_POINT('',#1164);
#395=VERTEX_POINT('',#1166);
#396=VERTEX_POINT('',#1168);
#397=VERTEX_POINT('',#1171);
#398=VERTEX_POINT('',#1172);
#399=VERTEX_POINT('',#1174);
#400=VERTEX_POINT('',#1176);
#401=VERTEX_POINT('',#1179);
#402=VERTEX_POINT('',#1180);
#403=VERTEX_POINT('',#1182);
#404=VERTEX_POINT('',#1184);
#405=VERTEX_POINT('',#1188);
#406=VERTEX_POINT('',#1190);
#407=VERTEX_POINT('',#1193);
#408=VERTEX_POINT('',#1194);
#409=VERTEX_POINT('',#1196);
#410=VERTEX_POINT('',#1198);
#411=VERTEX_POINT('',#1201);
#412=VERTEX_POINT('',#1202);
#413=VERTEX_POINT('',#1204);
#414=VERTEX_POINT('',#1206);
#415=VERTEX_POINT('',#1209);
#416=VERTEX_POINT('',#1210);
#417=VERTEX_POINT('',#1212);
#418=VERTEX_POINT('',#1214);
#419=VERTEX_POINT('',#1218);
#420=VERTEX_POINT('',#1219);
#421=VERTEX_POINT('',#1221);
#422=VERTEX_POINT('',#1223);
#423=VERTEX_POINT('',#1226);
#424=VERTEX_POINT('',#1227);
#425=VERTEX_POINT('',#1229);
#426=VERTEX_POINT('',#1231);
#427=VERTEX_POINT('',#1234);
#428=VERTEX_POINT('',#1235);
#429=VERTEX_POINT('',#1237);
#430=VERTEX_POINT('',#1239);
#431=VERTEX_POINT('',#1242);
#432=VERTEX_POINT('',#1243);
#433=VERTEX_POINT('',#1245);
#434=VERTEX_POINT('',#1247);
#435=VERTEX_POINT('',#1251);
#436=VERTEX_POINT('',#1253);
#437=VERTEX_POINT('',#1255);
#438=VERTEX_POINT('',#1257);
#439=VERTEX_POINT('',#1259);
#440=VERTEX_POINT('',#1261);
#441=VERTEX_POINT('',#1263);
#442=VERTEX_POINT('',#1265);
#443=VERTEX_POINT('',#1270);
#444=VERTEX_POINT('',#1272);
#445=VERTEX_POINT('',#1276);
#446=VERTEX_POINT('',#1278);
#447=VERTEX_POINT('',#1282);
#448=VERTEX_POINT('',#1284);
#449=VERTEX_POINT('',#1290);
#450=VERTEX_POINT('',#1294);
#451=VERTEX_POINT('',#1298);
#452=VERTEX_POINT('',#1302);
#453=VERTEX_POINT('',#1306);
#454=VERTEX_POINT('',#1310);
#455=VERTEX_POINT('',#1314);
#456=VERTEX_POINT('',#1318);
#457=VERTEX_POINT('',#1322);
#458=VERTEX_POINT('',#1324);
#459=LINE('',#1137,#564);
#460=LINE('',#1140,#565);
#461=LINE('',#1142,#566);
#462=LINE('',#1144,#567);
#463=LINE('',#1145,#568);
#464=LINE('',#1148,#569);
#465=LINE('',#1150,#570);
#466=LINE('',#1152,#571);
#467=LINE('',#1153,#572);
#468=LINE('',#1156,#573);
#469=LINE('',#1158,#574);
#470=LINE('',#1160,#575);
#471=LINE('',#1162,#576);
#472=LINE('',#1165,#577);
#473=LINE('',#1167,#578);
#474=LINE('',#1169,#579);
#475=LINE('',#1170,#580);
#476=LINE('',#1173,#581);
#477=LINE('',#1175,#582);
#478=LINE('',#1177,#583);
#479=LINE('',#1178,#584);
#480=LINE('',#1181,#585);
#481=LINE('',#1183,#586);
#482=LINE('',#1185,#587);
#483=LINE('',#1187,#588);
#484=LINE('',#1189,#589);
#485=LINE('',#1191,#590);
#486=LINE('',#1192,#591);
#487=LINE('',#1195,#592);
#488=LINE('',#1197,#593);
#489=LINE('',#1199,#594);
#490=LINE('',#1200,#595);
#491=LINE('',#1203,#596);
#492=LINE('',#1205,#597);
#493=LINE('',#1207,#598);
#494=LINE('',#1208,#599);
#495=LINE('',#1211,#600);
#496=LINE('',#1213,#601);
#497=LINE('',#1215,#602);
#498=LINE('',#1217,#603);
#499=LINE('',#1220,#604);
#500=LINE('',#1222,#605);
#501=LINE('',#1224,#606);
#502=LINE('',#1225,#607);
#503=LINE('',#1228,#608);
#504=LINE('',#1230,#609);
#505=LINE('',#1232,#610);
#506=LINE('',#1233,#611);
#507=LINE('',#1236,#612);
#508=LINE('',#1238,#613);
#509=LINE('',#1240,#614);
#510=LINE('',#1241,#615);
#511=LINE('',#1244,#616);
#512=LINE('',#1246,#617);
#513=LINE('',#1248,#618);
#514=LINE('',#1252,#619);
#515=LINE('',#1256,#620);
#516=LINE('',#1260,#621);
#517=LINE('',#1264,#622);
#518=LINE('',#1269,#623);
#519=LINE('',#1271,#624);
#520=LINE('',#1273,#625);
#521=LINE('',#1275,#626);
#522=LINE('',#1277,#627);
#523=LINE('',#1279,#628);
#524=LINE('',#1281,#629);
#525=LINE('',#1283,#630);
#526=LINE('',#1285,#631);
#527=LINE('',#1289,#632);
#528=LINE('',#1293,#633);
#529=LINE('',#1295,#634);
#530=LINE('',#1297,#635);
#531=LINE('',#1301,#636);
#532=LINE('',#1303,#637);
#533=LINE('',#1305,#638);
#534=LINE('',#1309,#639);
#535=LINE('',#1311,#640);
#536=LINE('',#1313,#641);
#537=LINE('',#1317,#642);
#538=LINE('',#1319,#643);
#539=LINE('',#1321,#644);
#540=LINE('',#1323,#645);
#541=LINE('',#1325,#646);
#542=LINE('',#1327,#647);
#543=LINE('',#1328,#648);
#544=LINE('',#1334,#649);
#545=LINE('',#1335,#650);
#546=LINE('',#1337,#651);
#547=LINE('',#1339,#652);
#548=LINE('',#1342,#653);
#549=LINE('',#1343,#654);
#550=LINE('',#1345,#655);
#551=LINE('',#1347,#656);
#552=LINE('',#1350,#657);
#553=LINE('',#1351,#658);
#554=LINE('',#1353,#659);
#555=LINE('',#1355,#660);
#556=LINE('',#1358,#661);
#557=LINE('',#1359,#662);
#558=LINE('',#1361,#663);
#559=LINE('',#1363,#664);
#560=LINE('',#1366,#665);
#561=LINE('',#1367,#666);
#562=LINE('',#1369,#667);
#563=LINE('',#1371,#668);
#564=VECTOR('',#924,1.);
#565=VECTOR('',#925,1.);
#566=VECTOR('',#926,1.);
#567=VECTOR('',#927,1.);
#568=VECTOR('',#928,1.);
#569=VECTOR('',#929,1.);
#570=VECTOR('',#930,1.);
#571=VECTOR('',#931,1.);
#572=VECTOR('',#932,1.);
#573=VECTOR('',#933,1.);
#574=VECTOR('',#934,1.);
#575=VECTOR('',#935,1.);
#576=VECTOR('',#938,1.);
#577=VECTOR('',#939,1.);
#578=VECTOR('',#940,1.);
#579=VECTOR('',#941,1.);
#580=VECTOR('',#942,1.);
#581=VECTOR('',#943,1.);
#582=VECTOR('',#944,1.);
#583=VECTOR('',#945,1.);
#584=VECTOR('',#946,1.);
#585=VECTOR('',#947,1.);
#586=VECTOR('',#948,1.);
#587=VECTOR('',#949,1.);
#588=VECTOR('',#952,1.);
#589=VECTOR('',#953,1.);
#590=VECTOR('',#954,1.);
#591=VECTOR('',#955,1.);
#592=VECTOR('',#956,1.);
#593=VECTOR('',#957,1.);
#594=VECTOR('',#958,1.);
#595=VECTOR('',#959,1.);
#596=VECTOR('',#960,1.);
#597=VECTOR('',#961,1.);
#598=VECTOR('',#962,1.);
#599=VECTOR('',#963,1.);
#600=VECTOR('',#964,1.);
#601=VECTOR('',#965,1.);
#602=VECTOR('',#966,1.);
#603=VECTOR('',#969,1.);
#604=VECTOR('',#970,1.);
#605=VECTOR('',#971,1.);
#606=VECTOR('',#972,1.);
#607=VECTOR('',#973,1.);
#608=VECTOR('',#974,1.);
#609=VECTOR('',#975,1.);
#610=VECTOR('',#976,1.);
#611=VECTOR('',#977,1.);
#612=VECTOR('',#978,1.);
#613=VECTOR('',#979,1.);
#614=VECTOR('',#980,1.);
#615=VECTOR('',#981,1.);
#616=VECTOR('',#982,1.);
#617=VECTOR('',#983,1.);
#618=VECTOR('',#984,1.);
#619=VECTOR('',#989,1.);
#620=VECTOR('',#992,1.);
#621=VECTOR('',#995,1.);
#622=VECTOR('',#998,1.);
#623=VECTOR('',#1005,1.);
#624=VECTOR('',#1006,1.);
#625=VECTOR('',#1007,1.);
#626=VECTOR('',#1010,1.);
#627=VECTOR('',#1011,1.);
#628=VECTOR('',#1012,1.);
#629=VECTOR('',#1015,1.);
#630=VECTOR('',#1016,1.);
#631=VECTOR('',#1017,1.);
#632=VECTOR('',#1024,1.);
#633=VECTOR('',#1029,1.);
#634=VECTOR('',#1030,1.);
#635=VECTOR('',#1033,1.);
#636=VECTOR('',#1038,1.);
#637=VECTOR('',#1039,1.);
#638=VECTOR('',#1042,1.);
#639=VECTOR('',#1047,1.);
#640=VECTOR('',#1048,1.);
#641=VECTOR('',#1051,1.);
#642=VECTOR('',#1056,1.);
#643=VECTOR('',#1057,1.);
#644=VECTOR('',#1060,1.);
#645=VECTOR('',#1061,1.);
#646=VECTOR('',#1062,1.);
#647=VECTOR('',#1065,1.);
#648=VECTOR('',#1066,1.);
#649=VECTOR('',#1077,1.);
#650=VECTOR('',#1078,1.);
#651=VECTOR('',#1081,1.);
#652=VECTOR('',#1084,1.);
#653=VECTOR('',#1089,1.);
#654=VECTOR('',#1090,1.);
#655=VECTOR('',#1093,1.);
#656=VECTOR('',#1096,1.);
#657=VECTOR('',#1101,1.);
#658=VECTOR('',#1102,1.);
#659=VECTOR('',#1105,1.);
#660=VECTOR('',#1108,1.);
#661=VECTOR('',#1113,1.);
#662=VECTOR('',#1114,1.);
#663=VECTOR('',#1117,1.);
#664=VECTOR('',#1120,1.);
#665=VECTOR('',#1125,1.);
#666=VECTOR('',#1126,1.);
#667=VECTOR('',#1129,1.);
#668=VECTOR('',#1132,1.);
#669=EDGE_LOOP('',(#30,#31,#32,#33));
#670=EDGE_LOOP('',(#34,#35,#36,#37));
#671=EDGE_LOOP('',(#38,#39,#40,#41));
#672=EDGE_LOOP('',(#42,#43,#44,#45));
#673=EDGE_LOOP('',(#46,#47,#48,#49));
#674=EDGE_LOOP('',(#50,#51,#52,#53));
#675=EDGE_LOOP('',(#54,#55,#56,#57));
#676=EDGE_LOOP('',(#58,#59,#60,#61));
#677=EDGE_LOOP('',(#62,#63,#64,#65));
#678=EDGE_LOOP('',(#66,#67,#68,#69));
#679=EDGE_LOOP('',(#70,#71,#72,#73));
#680=EDGE_LOOP('',(#74,#75,#76,#77));
#681=EDGE_LOOP('',(#78,#79,#80,#81));
#682=EDGE_LOOP('',(#82,#83,#84,#85));
#683=EDGE_LOOP('',(#86,#87,#88,#89,#90,#91,#92,#93,#94,#95,#96,#97));
#684=EDGE_LOOP('',(#98,#99,#100,#101));
#685=EDGE_LOOP('',(#102,#103,#104,#105));
#686=EDGE_LOOP('',(#106,#107,#108,#109));
#687=EDGE_LOOP('',(#110,#111,#112,#113));
#688=EDGE_LOOP('',(#114,#115,#116,#117));
#689=EDGE_LOOP('',(#118,#119,#120,#121));
#690=EDGE_LOOP('',(#122,#123,#124,#125));
#691=EDGE_LOOP('',(#126,#127,#128,#129));
#692=EDGE_LOOP('',(#130,#131,#132,#133));
#693=EDGE_LOOP('',(#134,#135,#136,#137));
#694=EDGE_LOOP('',(#138,#139,#140,#141));
#695=EDGE_LOOP('',(#142,#143,#144,#145));
#696=EDGE_LOOP('',(#146,#147,#148,#149));
#697=EDGE_LOOP('',(#150,#151,#152,#153));
#698=EDGE_LOOP('',(#154,#155,#156,#157));
#699=EDGE_LOOP('',(#158,#159,#160,#161,#162,#163,#164));
#700=EDGE_LOOP('',(#165,#166,#167,#168,#169,#170,#171,#172,#173,#174,#175,
#176));
#701=EDGE_LOOP('',(#177,#178,#179,#180,#181,#182,#183));
#702=EDGE_LOOP('',(#184,#185,#186,#187));
#703=EDGE_LOOP('',(#188,#189,#190,#191));
#704=EDGE_LOOP('',(#192,#193,#194,#195));
#705=EDGE_LOOP('',(#196,#197,#198,#199));
#706=EDGE_LOOP('',(#200,#201,#202,#203));
#707=EDGE_LOOP('',(#204,#205,#206,#207));
#708=EDGE_LOOP('',(#208,#209,#210,#211));
#709=EDGE_LOOP('',(#212,#213,#214,#215));
#710=EDGE_LOOP('',(#216,#217,#218,#219));
#711=EDGE_LOOP('',(#220,#221,#222,#223));
#712=EDGE_LOOP('',(#224,#225,#226,#227));
#713=EDGE_LOOP('',(#228,#229,#230,#231));
#714=EDGE_LOOP('',(#232,#233,#234,#235));
#715=EDGE_LOOP('',(#236,#237,#238,#239));
#716=EDGE_LOOP('',(#240,#241,#242,#243));
#717=EDGE_LOOP('',(#244,#245,#246,#247));
#718=EDGE_LOOP('',(#248,#249,#250,#251));
#719=EDGE_LOOP('',(#252,#253,#254,#255));
#720=EDGE_LOOP('',(#256,#257,#258,#259));
#721=EDGE_LOOP('',(#260,#261,#262,#263));
#722=FACE_BOUND('',#669,.T.);
#723=FACE_BOUND('',#670,.T.);
#724=FACE_BOUND('',#671,.T.);
#725=FACE_BOUND('',#672,.T.);
#726=FACE_BOUND('',#673,.T.);
#727=FACE_BOUND('',#674,.T.);
#728=FACE_BOUND('',#675,.T.);
#729=FACE_BOUND('',#676,.T.);
#730=FACE_BOUND('',#677,.T.);
#731=FACE_BOUND('',#678,.T.);
#732=FACE_BOUND('',#679,.T.);
#733=FACE_BOUND('',#680,.T.);
#734=FACE_BOUND('',#681,.T.);
#735=FACE_BOUND('',#682,.T.);
#736=FACE_BOUND('',#683,.T.);
#737=FACE_BOUND('',#684,.T.);
#738=FACE_BOUND('',#685,.T.);
#739=FACE_BOUND('',#686,.T.);
#740=FACE_BOUND('',#687,.T.);
#741=FACE_BOUND('',#688,.T.);
#742=FACE_BOUND('',#689,.T.);
#743=FACE_BOUND('',#690,.T.);
#744=FACE_BOUND('',#691,.T.);
#745=FACE_BOUND('',#692,.T.);
#746=FACE_BOUND('',#693,.T.);
#747=FACE_BOUND('',#694,.T.);
#748=FACE_BOUND('',#695,.T.);
#749=FACE_BOUND('',#696,.T.);
#750=FACE_BOUND('',#697,.T.);
#751=FACE_BOUND('',#698,.T.);
#752=FACE_BOUND('',#699,.T.);
#753=FACE_BOUND('',#700,.T.);
#754=FACE_BOUND('',#701,.T.);
#755=FACE_BOUND('',#702,.T.);
#756=FACE_BOUND('',#703,.T.);
#757=FACE_BOUND('',#704,.T.);
#758=FACE_BOUND('',#705,.T.);
#759=FACE_BOUND('',#706,.T.);
#760=FACE_BOUND('',#707,.T.);
#761=FACE_BOUND('',#708,.T.);
#762=FACE_BOUND('',#709,.T.);
#763=FACE_BOUND('',#710,.T.);
#764=FACE_BOUND('',#711,.T.);
#765=FACE_BOUND('',#712,.T.);
#766=FACE_BOUND('',#713,.T.);
#767=FACE_BOUND('',#714,.T.);
#768=FACE_BOUND('',#715,.T.);
#769=FACE_BOUND('',#716,.T.);
#770=FACE_BOUND('',#717,.T.);
#771=FACE_BOUND('',#718,.T.);
#772=FACE_BOUND('',#719,.T.);
#773=FACE_BOUND('',#720,.T.);
#774=FACE_BOUND('',#721,.T.);
#775=PLANE('',#866);
#776=PLANE('',#867);
#777=PLANE('',#868);
#778=PLANE('',#869);
#779=PLANE('',#870);
#780=PLANE('',#877);
#781=PLANE('',#878);
#782=PLANE('',#879);
#783=PLANE('',#884);
#784=PLANE('',#887);
#785=PLANE('',#890);
#786=PLANE('',#893);
#787=PLANE('',#894);
#788=PLANE('',#895);
#789=PLANE('',#898);
#790=PLANE('',#899);
#791=PLANE('',#900);
#792=PLANE('',#901);
#793=PLANE('',#902);
#794=PLANE('',#903);
#795=PLANE('',#904);
#796=PLANE('',#905);
#797=PLANE('',#906);
#798=PLANE('',#907);
#799=PLANE('',#908);
#800=PLANE('',#909);
#801=PLANE('',#910);
#802=PLANE('',#911);
#803=PLANE('',#912);
#804=PLANE('',#913);
#805=PLANE('',#914);
#806=PLANE('',#915);
#807=PLANE('',#916);
#808=PLANE('',#917);
#809=PLANE('',#918);
#810=PLANE('',#919);
#811=ADVANCED_FACE('',(#722,#723,#724),#775,.T.);
#812=ADVANCED_FACE('',(#725,#726,#727),#776,.F.);
#813=ADVANCED_FACE('',(#728,#729,#730,#731),#777,.T.);
#814=ADVANCED_FACE('',(#732,#733,#734,#735),#778,.F.);
#815=ADVANCED_FACE('',(#736),#779,.F.);
#816=ADVANCED_FACE('',(#737),#780,.T.);
#817=ADVANCED_FACE('',(#738),#781,.T.);
#818=ADVANCED_FACE('',(#739),#782,.F.);
#819=ADVANCED_FACE('',(#740),#12,.T.);
#820=ADVANCED_FACE('',(#741),#13,.T.);
#821=ADVANCED_FACE('',(#742),#783,.F.);
#822=ADVANCED_FACE('',(#743),#14,.T.);
#823=ADVANCED_FACE('',(#744),#784,.F.);
#824=ADVANCED_FACE('',(#745),#15,.F.);
#825=ADVANCED_FACE('',(#746),#785,.T.);
#826=ADVANCED_FACE('',(#747),#16,.T.);
#827=ADVANCED_FACE('',(#748),#786,.F.);
#828=ADVANCED_FACE('',(#749),#787,.F.);
#829=ADVANCED_FACE('',(#750),#788,.T.);
#830=ADVANCED_FACE('',(#751),#17,.T.);
#831=ADVANCED_FACE('',(#752,#753),#789,.T.);
#832=ADVANCED_FACE('',(#754),#790,.T.);
#833=ADVANCED_FACE('',(#755),#791,.T.);
#834=ADVANCED_FACE('',(#756),#792,.F.);
#835=ADVANCED_FACE('',(#757),#793,.F.);
#836=ADVANCED_FACE('',(#758),#794,.T.);
#837=ADVANCED_FACE('',(#759),#795,.T.);
#838=ADVANCED_FACE('',(#760),#796,.F.);
#839=ADVANCED_FACE('',(#761),#797,.F.);
#840=ADVANCED_FACE('',(#762),#798,.T.);
#841=ADVANCED_FACE('',(#763),#799,.T.);
#842=ADVANCED_FACE('',(#764),#800,.F.);
#843=ADVANCED_FACE('',(#765),#801,.F.);
#844=ADVANCED_FACE('',(#766),#802,.T.);
#845=ADVANCED_FACE('',(#767),#803,.T.);
#846=ADVANCED_FACE('',(#768),#804,.F.);
#847=ADVANCED_FACE('',(#769),#805,.F.);
#848=ADVANCED_FACE('',(#770),#806,.T.);
#849=ADVANCED_FACE('',(#771),#807,.T.);
#850=ADVANCED_FACE('',(#772),#808,.F.);
#851=ADVANCED_FACE('',(#773),#809,.F.);
#852=ADVANCED_FACE('',(#774),#810,.T.);
#853=CLOSED_SHELL('',(#811,#812,#813,#814,#815,#816,#817,#818,#819,#820,
#821,#822,#823,#824,#825,#826,#827,#828,#829,#830,#831,#832,#833,#834,#835,
#836,#837,#838,#839,#840,#841,#842,#843,#844,#845,#846,#847,#848,#849,#850,
#851,#852));
#854=STYLED_ITEM('',(#855),#862);
#855=PRESENTATION_STYLE_ASSIGNMENT((#856));
#856=SURFACE_STYLE_USAGE(.BOTH.,#857);
#857=SURFACE_SIDE_STYLE('',(#858));
#858=SURFACE_STYLE_FILL_AREA(#859);
#859=FILL_AREA_STYLE('',(#860));
#860=FILL_AREA_STYLE_COLOUR('',#861);
#861=DRAUGHTING_PRE_DEFINED_COLOUR('black');
#862=MANIFOLD_SOLID_BREP('Part 1',#853);
#863=SHAPE_DEFINITION_REPRESENTATION(#1379,#864);
#864=SHAPE_REPRESENTATION('Part 1',(#865),#1374);
#865=AXIS2_PLACEMENT_3D('',#1135,#920,#921);
#866=AXIS2_PLACEMENT_3D('',#1136,#922,#923);
#867=AXIS2_PLACEMENT_3D('',#1161,#936,#937);
#868=AXIS2_PLACEMENT_3D('',#1186,#950,#951);
#869=AXIS2_PLACEMENT_3D('',#1216,#967,#968);
#870=AXIS2_PLACEMENT_3D('',#1249,#985,#986);
#871=AXIS2_PLACEMENT_3D('',#1250,#987,#988);
#872=AXIS2_PLACEMENT_3D('',#1254,#990,#991);
#873=AXIS2_PLACEMENT_3D('',#1258,#993,#994);
#874=AXIS2_PLACEMENT_3D('',#1262,#996,#997);
#875=AXIS2_PLACEMENT_3D('',#1266,#999,#1000);
#876=AXIS2_PLACEMENT_3D('',#1267,#1001,#1002);
#877=AXIS2_PLACEMENT_3D('',#1268,#1003,#1004);
#878=AXIS2_PLACEMENT_3D('',#1274,#1008,#1009);
#879=AXIS2_PLACEMENT_3D('',#1280,#1013,#1014);
#880=AXIS2_PLACEMENT_3D('',#1286,#1018,#1019);
#881=AXIS2_PLACEMENT_3D('',#1287,#1020,#1021);
#882=AXIS2_PLACEMENT_3D('',#1288,#1022,#1023);
#883=AXIS2_PLACEMENT_3D('',#1291,#1025,#1026);
#884=AXIS2_PLACEMENT_3D('',#1292,#1027,#1028);
#885=AXIS2_PLACEMENT_3D('',#1296,#1031,#1032);
#886=AXIS2_PLACEMENT_3D('',#1299,#1034,#1035);
#887=AXIS2_PLACEMENT_3D('',#1300,#1036,#1037);
#888=AXIS2_PLACEMENT_3D('',#1304,#1040,#1041);
#889=AXIS2_PLACEMENT_3D('',#1307,#1043,#1044);
#890=AXIS2_PLACEMENT_3D('',#1308,#1045,#1046);
#891=AXIS2_PLACEMENT_3D('',#1312,#1049,#1050);
#892=AXIS2_PLACEMENT_3D('',#1315,#1052,#1053);
#893=AXIS2_PLACEMENT_3D('',#1316,#1054,#1055);
#894=AXIS2_PLACEMENT_3D('',#1320,#1058,#1059);
#895=AXIS2_PLACEMENT_3D('',#1326,#1063,#1064);
#896=AXIS2_PLACEMENT_3D('',#1329,#1067,#1068);
#897=AXIS2_PLACEMENT_3D('',#1330,#1069,#1070);
#898=AXIS2_PLACEMENT_3D('',#1331,#1071,#1072);
#899=AXIS2_PLACEMENT_3D('',#1332,#1073,#1074);
#900=AXIS2_PLACEMENT_3D('',#1333,#1075,#1076);
#901=AXIS2_PLACEMENT_3D('',#1336,#1079,#1080);
#902=AXIS2_PLACEMENT_3D('',#1338,#1082,#1083);
#903=AXIS2_PLACEMENT_3D('',#1340,#1085,#1086);
#904=AXIS2_PLACEMENT_3D('',#1341,#1087,#1088);
#905=AXIS2_PLACEMENT_3D('',#1344,#1091,#1092);
#906=AXIS2_PLACEMENT_3D('',#1346,#1094,#1095);
#907=AXIS2_PLACEMENT_3D('',#1348,#1097,#1098);
#908=AXIS2_PLACEMENT_3D('',#1349,#1099,#1100);
#909=AXIS2_PLACEMENT_3D('',#1352,#1103,#1104);
#910=AXIS2_PLACEMENT_3D('',#1354,#1106,#1107);
#911=AXIS2_PLACEMENT_3D('',#1356,#1109,#1110);
#912=AXIS2_PLACEMENT_3D('',#1357,#1111,#1112);
#913=AXIS2_PLACEMENT_3D('',#1360,#1115,#1116);
#914=AXIS2_PLACEMENT_3D('',#1362,#1118,#1119);
#915=AXIS2_PLACEMENT_3D('',#1364,#1121,#1122);
#916=AXIS2_PLACEMENT_3D('',#1365,#1123,#1124);
#917=AXIS2_PLACEMENT_3D('',#1368,#1127,#1128);
#918=AXIS2_PLACEMENT_3D('',#1370,#1130,#1131);
#919=AXIS2_PLACEMENT_3D('',#1372,#1133,#1134);
#920=DIRECTION('',(0.,0.,1.));
#921=DIRECTION('',(1.,0.,0.));
#922=DIRECTION('',(1.,0.,0.));
#923=DIRECTION('',(0.,0.,-1.));
#924=DIRECTION('',(0.,-1.,0.));
#925=DIRECTION('',(0.,0.,-1.));
#926=DIRECTION('',(0.,-1.,0.));
#927=DIRECTION('',(0.,0.,-1.));
#928=DIRECTION('',(0.,0.,1.));
#929=DIRECTION('',(0.,1.,-1.63037920674512E-16));
#930=DIRECTION('',(0.,0.,1.));
#931=DIRECTION('',(0.,1.,-2.44556881011768E-16));
#932=DIRECTION('',(0.,0.,1.));
#933=DIRECTION('',(0.,1.,0.));
#934=DIRECTION('',(0.,0.,1.));
#935=DIRECTION('',(0.,1.,0.));
#936=DIRECTION('',(1.,0.,0.));
#937=DIRECTION('',(0.,0.,-1.));
#938=DIRECTION('',(0.,-1.,1.63037920674512E-16));
#939=DIRECTION('',(0.,0.,-1.));
#940=DIRECTION('',(0.,-1.,2.44556881011768E-16));
#941=DIRECTION('',(0.,0.,-1.));
#942=DIRECTION('',(0.,-1.,0.));
#943=DIRECTION('',(0.,0.,-1.));
#944=DIRECTION('',(0.,-1.,0.));
#945=DIRECTION('',(0.,0.,-1.));
#946=DIRECTION('',(0.,-1.,0.));
#947=DIRECTION('',(0.,0.,-1.));
#948=DIRECTION('',(0.,-1.,0.));
#949=DIRECTION('',(0.,0.,-1.));
#950=DIRECTION('',(0.,1.,0.));
#951=DIRECTION('',(0.,0.,1.));
#952=DIRECTION('',(1.,0.,0.));
#953=DIRECTION('',(1.,0.,0.));
#954=DIRECTION('',(0.,0.,-1.));
#955=DIRECTION('',(0.,0.,1.));
#956=DIRECTION('',(-1.,0.,0.));
#957=DIRECTION('',(0.,0.,1.));
#958=DIRECTION('',(-1.,0.,0.));
#959=DIRECTION('',(0.,0.,1.));
#960=DIRECTION('',(-1.,0.,0.));
#961=DIRECTION('',(0.,0.,1.));
#962=DIRECTION('',(-1.,0.,0.));
#963=DIRECTION('',(1.,0.,1.63037920674512E-16));
#964=DIRECTION('',(0.,0.,1.));
#965=DIRECTION('',(1.,0.,0.));
#966=DIRECTION('',(0.,0.,1.));
#967=DIRECTION('',(0.,1.,0.));
#968=DIRECTION('',(0.,0.,1.));
#969=DIRECTION('',(1.,0.,0.));
#970=DIRECTION('',(0.,0.,-1.));
#971=DIRECTION('',(1.,0.,0.));
#972=DIRECTION('',(0.,0.,-1.));
#973=DIRECTION('',(1.,0.,0.));
#974=DIRECTION('',(0.,0.,-1.));
#975=DIRECTION('',(1.,0.,0.));
#976=DIRECTION('',(0.,0.,-1.));
#977=DIRECTION('',(1.,0.,0.));
#978=DIRECTION('',(0.,0.,-1.));
#979=DIRECTION('',(1.,0.,0.));
#980=DIRECTION('',(0.,0.,-1.));
#981=DIRECTION('',(0.,0.,-1.));
#982=DIRECTION('',(-1.,0.,-1.63037920674512E-16));
#983=DIRECTION('',(0.,0.,-1.));
#984=DIRECTION('',(-1.,0.,0.));
#985=DIRECTION('',(0.,0.,1.));
#986=DIRECTION('',(1.,0.,0.));
#987=DIRECTION('',(0.,0.,1.));
#988=DIRECTION('',(1.,0.,0.));
#989=DIRECTION('',(-1.,-1.16866830533108E-16,0.));
#990=DIRECTION('',(0.,0.,1.));
#991=DIRECTION('',(1.,0.,0.));
#992=DIRECTION('',(0.583541211356118,-0.812083526891806,0.));
#993=DIRECTION('',(0.,0.,1.));
#994=DIRECTION('',(1.,0.,0.));
#995=DIRECTION('',(-1.,-1.43064687678239E-16,0.));
#996=DIRECTION('',(0.,0.,1.));
#997=DIRECTION('',(1.,0.,0.));
#998=DIRECTION('',(0.,1.,0.));
#999=DIRECTION('',(0.,0.,1.));
#1000=DIRECTION('',(1.,0.,0.));
#1001=DIRECTION('',(0.,0.,1.));
#1002=DIRECTION('',(1.,0.,0.));
#1003=DIRECTION('',(2.41773306756349E-16,-1.,0.));
#1004=DIRECTION('',(1.,2.41773306756349E-16,0.));
#1005=DIRECTION('',(-1.,-2.41773306756349E-16,0.));
#1006=DIRECTION('',(0.,0.,-1.));
#1007=DIRECTION('',(-1.,-2.41773306756349E-16,0.));
#1008=DIRECTION('',(-1.,0.,0.));
#1009=DIRECTION('',(0.,0.,1.));
#1010=DIRECTION('',(0.,1.,0.));
#1011=DIRECTION('',(0.,1.,0.));
#1012=DIRECTION('',(0.,0.,-1.));
#1013=DIRECTION('',(0.229405902574891,0.973330843990778,0.));
#1014=DIRECTION('',(-0.973330843990778,0.229405902574891,0.));
#1015=DIRECTION('',(0.973330843990778,-0.229405902574891,0.));
#1016=DIRECTION('',(0.,0.,-1.));
#1017=DIRECTION('',(0.973330843990778,-0.229405902574891,0.));
#1018=DIRECTION('',(0.,0.,-1.));
#1019=DIRECTION('',(-1.,0.,0.));
#1020=DIRECTION('',(0.,0.,1.));
#1021=DIRECTION('',(1.,0.,0.));
#1022=DIRECTION('',(0.,0.,-1.));
#1023=DIRECTION('',(-1.,0.,0.));
#1024=DIRECTION('',(0.,0.,-1.));
#1025=DIRECTION('',(0.,0.,1.));
#1026=DIRECTION('',(1.,0.,0.));
#1027=DIRECTION('',(-1.,0.,0.));
#1028=DIRECTION('',(0.,0.,1.));
#1029=DIRECTION('',(0.,0.,-1.));
#1030=DIRECTION('',(0.,1.,0.));
#1031=DIRECTION('',(0.,0.,-1.));
#1032=DIRECTION('',(-1.,0.,0.));
#1033=DIRECTION('',(0.,0.,-1.));
#1034=DIRECTION('',(0.,0.,1.));
#1035=DIRECTION('',(1.,0.,0.));
#1036=DIRECTION('',(1.43064687678239E-16,-1.,0.));
#1037=DIRECTION('',(1.,1.43064687678239E-16,0.));
#1038=DIRECTION('',(0.,0.,-1.));
#1039=DIRECTION('',(-1.,-1.43064687678239E-16,0.));
#1040=DIRECTION('',(0.,0.,-1.));
#1041=DIRECTION('',(-1.,0.,0.));
#1042=DIRECTION('',(0.,0.,-1.));
#1043=DIRECTION('',(0.,0.,1.));
#1044=DIRECTION('',(1.,0.,0.));
#1045=DIRECTION('',(0.812083526891806,0.583541211356118,0.));
#1046=DIRECTION('',(-0.583541211356118,0.812083526891806,0.));
#1047=DIRECTION('',(0.,0.,-1.));
#1048=DIRECTION('',(0.583541211356118,-0.812083526891806,0.));
#1049=DIRECTION('',(0.,0.,-1.));
#1050=DIRECTION('',(-1.,0.,0.));
#1051=DIRECTION('',(0.,0.,-1.));
#1052=DIRECTION('',(0.,0.,1.));
#1053=DIRECTION('',(1.,0.,0.));
#1054=DIRECTION('',(1.16866830533108E-16,-1.,0.));
#1055=DIRECTION('',(1.,1.16866830533108E-16,0.));
#1056=DIRECTION('',(0.,0.,-1.));
#1057=DIRECTION('',(-1.,-1.16866830533108E-16,0.));
#1058=DIRECTION('',(0.812083526891806,0.583541211356118,0.));
#1059=DIRECTION('',(-0.583541211356118,0.812083526891806,0.));
#1060=DIRECTION('',(0.583541211356118,-0.812083526891806,0.));
#1061=DIRECTION('',(0.,0.,-1.));
#1062=DIRECTION('',(0.583541211356118,-0.812083526891806,0.));
#1063=DIRECTION('',(1.32078839346491E-16,-1.,0.));
#1064=DIRECTION('',(1.,1.32078839346491E-16,0.));
#1065=DIRECTION('',(-1.,-1.32078839346491E-16,0.));
#1066=DIRECTION('',(-1.,-1.32078839346491E-16,0.));
#1067=DIRECTION('',(0.,0.,-1.));
#1068=DIRECTION('',(-1.,0.,0.));
#1069=DIRECTION('',(0.,0.,1.));
#1070=DIRECTION('',(1.,0.,0.));
#1071=DIRECTION('',(0.,0.,1.));
#1072=DIRECTION('',(1.,0.,0.));
#1073=DIRECTION('',(0.,0.,1.));
#1074=DIRECTION('',(1.,0.,0.));
#1075=DIRECTION('',(0.,0.,-1.));
#1076=DIRECTION('',(-1.,0.,0.));
#1077=DIRECTION('',(0.,-1.,0.));
#1078=DIRECTION('',(0.,-1.,0.));
#1079=DIRECTION('',(-1.,0.,0.));
#1080=DIRECTION('',(0.,0.,1.));
#1081=DIRECTION('',(0.,-1.,0.));
#1082=DIRECTION('',(0.,0.,-1.));
#1083=DIRECTION('',(-1.,0.,0.));
#1084=DIRECTION('',(0.,-1.,0.));
#1085=DIRECTION('',(-1.,0.,0.));
#1086=DIRECTION('',(0.,0.,1.));
#1087=DIRECTION('',(0.,0.,-1.));
#1088=DIRECTION('',(-1.,0.,0.));
#1089=DIRECTION('',(0.,-1.,0.));
#1090=DIRECTION('',(0.,-1.,0.));
#1091=DIRECTION('',(-1.,0.,0.));
#1092=DIRECTION('',(0.,0.,1.));
#1093=DIRECTION('',(0.,-1.,0.));
#1094=DIRECTION('',(0.,0.,-1.));
#1095=DIRECTION('',(-1.,0.,0.));
#1096=DIRECTION('',(0.,-1.,0.));
#1097=DIRECTION('',(-1.,0.,0.));
#1098=DIRECTION('',(0.,0.,1.));
#1099=DIRECTION('',(-1.,0.,0.));
#1100=DIRECTION('',(0.,0.,1.));
#1101=DIRECTION('',(0.,-1.,0.));
#1102=DIRECTION('',(0.,-1.,0.));
#1103=DIRECTION('',(0.,0.,1.));
#1104=DIRECTION('',(1.,0.,0.));
#1105=DIRECTION('',(0.,-1.,0.));
#1106=DIRECTION('',(-1.,0.,0.));
#1107=DIRECTION('',(0.,0.,1.));
#1108=DIRECTION('',(0.,-1.,0.));
#1109=DIRECTION('',(-1.63037920674512E-16,0.,1.));
#1110=DIRECTION('',(1.,0.,1.63037920674512E-16));
#1111=DIRECTION('',(0.,-1.63037920674512E-16,-1.));
#1112=DIRECTION('',(0.,1.,-1.63037920674512E-16));
#1113=DIRECTION('',(-1.,0.,0.));
#1114=DIRECTION('',(-1.,0.,0.));
#1115=DIRECTION('',(0.,1.,0.));
#1116=DIRECTION('',(0.,0.,1.));
#1117=DIRECTION('',(-1.,0.,0.));
#1118=DIRECTION('',(0.,-2.44556881011768E-16,-1.));
#1119=DIRECTION('',(0.,1.,-2.44556881011768E-16));
#1120=DIRECTION('',(-1.,0.,0.));
#1121=DIRECTION('',(0.,1.,0.));
#1122=DIRECTION('',(0.,0.,1.));
#1123=DIRECTION('',(0.,0.,-1.));
#1124=DIRECTION('',(-1.,0.,0.));
#1125=DIRECTION('',(-1.,0.,0.));
#1126=DIRECTION('',(-1.,0.,0.));
#1127=DIRECTION('',(0.,1.,0.));
#1128=DIRECTION('',(0.,0.,1.));
#1129=DIRECTION('',(-1.,0.,0.));
#1130=DIRECTION('',(0.,0.,-1.));
#1131=DIRECTION('',(-1.,0.,0.));
#1132=DIRECTION('',(-1.,0.,0.));
#1133=DIRECTION('',(0.,1.,0.));
#1134=DIRECTION('',(0.,0.,1.));
#1135=CARTESIAN_POINT('',(0.,0.,0.));
#1136=CARTESIAN_POINT('',(-0.038198,0.00505823239035959,0.015));
#1137=CARTESIAN_POINT('',(-0.038198,0.00505823239035959,0.002));
#1138=CARTESIAN_POINT('',(-0.038198,0.0222082323903595,0.002));
#1139=CARTESIAN_POINT('',(-0.038198,-0.0120917676096403,0.002));
#1140=CARTESIAN_POINT('',(-0.038198,0.0222082323903595,0.015));
#1141=CARTESIAN_POINT('',(-0.038198,0.0222082323903595,0.015));
#1142=CARTESIAN_POINT('',(-0.038198,0.00505823239035959,0.015));
#1143=CARTESIAN_POINT('',(-0.038198,-0.0120917676096403,0.015));
#1144=CARTESIAN_POINT('',(-0.038198,-0.0120917676096403,0.015));
#1145=CARTESIAN_POINT('',(-0.038198,0.0094782323903595,0.015));
#1146=CARTESIAN_POINT('',(-0.038198,0.0094782323903595,0.0045));
#1147=CARTESIAN_POINT('',(-0.038198,0.0094782323903595,0.0085));
#1148=CARTESIAN_POINT('',(-0.038198,0.00505823239035958,0.0085));
#1149=CARTESIAN_POINT('',(-0.038198,0.0201182323903595,0.0085));
#1150=CARTESIAN_POINT('',(-0.038198,0.0201182323903595,0.015));
#1151=CARTESIAN_POINT('',(-0.038198,0.0201182323903595,0.0045));
#1152=CARTESIAN_POINT('',(-0.038198,0.00505823239035958,0.0045));
#1153=CARTESIAN_POINT('',(-0.038198,-0.0080317676096405,0.015));
#1154=CARTESIAN_POINT('',(-0.038198,-0.0080317676096405,0.0045));
#1155=CARTESIAN_POINT('',(-0.038198,-0.0080317676096405,0.0065));
#1156=CARTESIAN_POINT('',(-0.038198,0.00505823239035959,0.0065));
#1157=CARTESIAN_POINT('',(-0.038198,0.0056482323903595,0.0065));
#1158=CARTESIAN_POINT('',(-0.038198,0.0056482323903595,0.015));
#1159=CARTESIAN_POINT('',(-0.038198,0.0056482323903595,0.0045));
#1160=CARTESIAN_POINT('',(-0.038198,0.00505823239035959,0.0045));
#1161=CARTESIAN_POINT('',(-0.040198,0.0050582323903595,0.015));
#1162=CARTESIAN_POINT('',(-0.040198,0.0147982323903595,0.0085));
#1163=CARTESIAN_POINT('',(-0.040198,0.0201182323903595,0.0085));
#1164=CARTESIAN_POINT('',(-0.040198,0.0094782323903595,0.0085));
#1165=CARTESIAN_POINT('',(-0.040198,0.0094782323903595,0.0065));
#1166=CARTESIAN_POINT('',(-0.040198,0.0094782323903595,0.0045));
#1167=CARTESIAN_POINT('',(-0.040198,0.0147982323903595,0.0045));
#1168=CARTESIAN_POINT('',(-0.040198,0.0201182323903595,0.0045));
#1169=CARTESIAN_POINT('',(-0.040198,0.0201182323903595,0.0065));
#1170=CARTESIAN_POINT('',(-0.040198,0.0050582323903595,0.));
#1171=CARTESIAN_POINT('',(-0.040198,0.0222082323903595,0.));
#1172=CARTESIAN_POINT('',(-0.040198,-0.0120917676096405,0.));
#1173=CARTESIAN_POINT('',(-0.040198,-0.0120917676096405,0.015));
#1174=CARTESIAN_POINT('',(-0.040198,-0.0120917676096405,0.015));
#1175=CARTESIAN_POINT('',(-0.040198,0.0050582323903595,0.015));
#1176=CARTESIAN_POINT('',(-0.040198,0.0222082323903595,0.015));
#1177=CARTESIAN_POINT('',(-0.040198,0.0222082323903595,0.015));
#1178=CARTESIAN_POINT('',(-0.040198,-0.0011917676096405,0.0065));
#1179=CARTESIAN_POINT('',(-0.040198,0.0056482323903595,0.0065));
#1180=CARTESIAN_POINT('',(-0.040198,-0.0080317676096405,0.0065));
#1181=CARTESIAN_POINT('',(-0.040198,-0.0080317676096405,0.0055));
#1182=CARTESIAN_POINT('',(-0.040198,-0.0080317676096405,0.0045));
#1183=CARTESIAN_POINT('',(-0.040198,-0.0011917676096405,0.0045));
#1184=CARTESIAN_POINT('',(-0.040198,0.0056482323903595,0.0045));
#1185=CARTESIAN_POINT('',(-0.040198,0.0056482323903595,0.0055));
#1186=CARTESIAN_POINT('',(0.000601999999999991,-0.0120917676096403,0.015));
#1187=CARTESIAN_POINT('',(0.000601999999999991,-0.0120917676096403,0.002));
#1188=CARTESIAN_POINT('',(0.039402,-0.0120917676096403,0.002));
#1189=CARTESIAN_POINT('',(0.000601999999999991,-0.0120917676096403,0.015));
#1190=CARTESIAN_POINT('',(0.039402,-0.0120917676096403,0.015));
#1191=CARTESIAN_POINT('',(0.039402,-0.0120917676096403,0.015));
#1192=CARTESIAN_POINT('',(0.037702,-0.0120917676096403,0.015));
#1193=CARTESIAN_POINT('',(0.037702,-0.0120917676096403,0.0045));
#1194=CARTESIAN_POINT('',(0.037702,-0.0120917676096403,0.0125));
#1195=CARTESIAN_POINT('',(0.000601999999999991,-0.0120917676096403,0.0125));
#1196=CARTESIAN_POINT('',(0.022302,-0.0120917676096403,0.0125));
#1197=CARTESIAN_POINT('',(0.022302,-0.0120917676096403,0.015));
#1198=CARTESIAN_POINT('',(0.022302,-0.0120917676096403,0.0045));
#1199=CARTESIAN_POINT('',(0.000601999999999991,-0.0120917676096403,0.0045));
#1200=CARTESIAN_POINT('',(0.020202,-0.0120917676096403,0.015));
#1201=CARTESIAN_POINT('',(0.020202,-0.0120917676096403,0.0045));
#1202=CARTESIAN_POINT('',(0.020202,-0.0120917676096403,0.0125));
#1203=CARTESIAN_POINT('',(0.000601999999999991,-0.0120917676096403,0.0125));
#1204=CARTESIAN_POINT('',(0.004802,-0.0120917676096403,0.0125));
#1205=CARTESIAN_POINT('',(0.004802,-0.0120917676096403,0.015));
#1206=CARTESIAN_POINT('',(0.004802,-0.0120917676096403,0.0045));
#1207=CARTESIAN_POINT('',(0.000601999999999991,-0.0120917676096403,0.0045));
#1208=CARTESIAN_POINT('',(0.000601999999999993,-0.0120917676096403,0.0045));
#1209=CARTESIAN_POINT('',(-0.008308,-0.0120917676096403,0.0045));
#1210=CARTESIAN_POINT('',(0.002332,-0.0120917676096403,0.0045));
#1211=CARTESIAN_POINT('',(0.002332,-0.0120917676096403,0.015));
#1212=CARTESIAN_POINT('',(0.002332,-0.0120917676096403,0.0085));
#1213=CARTESIAN_POINT('',(0.000601999999999991,-0.0120917676096403,0.0085));
#1214=CARTESIAN_POINT('',(-0.008308,-0.0120917676096403,0.0085));
#1215=CARTESIAN_POINT('',(-0.008308,-0.0120917676096403,0.015));
#1216=CARTESIAN_POINT('',(0.000601999999999991,-0.0140917676096405,0.015));
#1217=CARTESIAN_POINT('',(0.012502,-0.0140917676096405,0.0125));
#1218=CARTESIAN_POINT('',(0.004802,-0.0140917676096405,0.0125));
#1219=CARTESIAN_POINT('',(0.020202,-0.0140917676096405,0.0125));
#1220=CARTESIAN_POINT('',(0.020202,-0.0140917676096405,0.0085));
#1221=CARTESIAN_POINT('',(0.020202,-0.0140917676096405,0.0045));
#1222=CARTESIAN_POINT('',(0.012502,-0.0140917676096405,0.0045));
#1223=CARTESIAN_POINT('',(0.004802,-0.0140917676096405,0.0045));
#1224=CARTESIAN_POINT('',(0.004802,-0.0140917676096405,0.0085));
#1225=CARTESIAN_POINT('',(0.000601999999999991,-0.0140917676096405,0.));
#1226=CARTESIAN_POINT('',(-0.038198,-0.0140917676096405,0.));
#1227=CARTESIAN_POINT('',(0.039402,-0.0140917676096405,0.));
#1228=CARTESIAN_POINT('',(0.039402,-0.0140917676096405,0.015));
#1229=CARTESIAN_POINT('',(0.039402,-0.0140917676096405,0.015));
#1230=CARTESIAN_POINT('',(0.000601999999999991,-0.0140917676096405,0.015));
#1231=CARTESIAN_POINT('',(-0.038198,-0.0140917676096405,0.015));
#1232=CARTESIAN_POINT('',(-0.038198,-0.0140917676096405,0.015));
#1233=CARTESIAN_POINT('',(0.030002,-0.0140917676096405,0.0125));
#1234=CARTESIAN_POINT('',(0.022302,-0.0140917676096405,0.0125));
#1235=CARTESIAN_POINT('',(0.037702,-0.0140917676096405,0.0125));
#1236=CARTESIAN_POINT('',(0.037702,-0.0140917676096405,0.0085));
#1237=CARTESIAN_POINT('',(0.037702,-0.0140917676096405,0.0045));
#1238=CARTESIAN_POINT('',(0.030002,-0.0140917676096405,0.0045));
#1239=CARTESIAN_POINT('',(0.022302,-0.0140917676096405,0.0045));
#1240=CARTESIAN_POINT('',(0.022302,-0.0140917676096405,0.0085));
#1241=CARTESIAN_POINT('',(0.002332,-0.0140917676096405,0.0065));
#1242=CARTESIAN_POINT('',(0.002332,-0.0140917676096405,0.0085));
#1243=CARTESIAN_POINT('',(0.002332,-0.0140917676096405,0.0045));
#1244=CARTESIAN_POINT('',(-0.002988,-0.0140917676096405,0.0045));
#1245=CARTESIAN_POINT('',(-0.008308,-0.0140917676096405,0.0045));
#1246=CARTESIAN_POINT('',(-0.008308,-0.0140917676096405,0.0065));
#1247=CARTESIAN_POINT('',(-0.008308,-0.0140917676096405,0.0085));
#1248=CARTESIAN_POINT('',(-0.002988,-0.0140917676096405,0.0085));
#1249=CARTESIAN_POINT('',(0.000601999999999991,0.0050582323903595,0.));
#1250=CARTESIAN_POINT('',(-0.038198,0.0222082323903595,0.));
#1251=CARTESIAN_POINT('',(-0.038198,0.0242082323903595,0.));
#1252=CARTESIAN_POINT('',(-0.0233544086399574,0.0242082323903595,0.));
#1253=CARTESIAN_POINT('',(-0.00851081727991478,0.0242082323903595,0.));
#1254=CARTESIAN_POINT('',(-0.00851081727991478,0.0222082323903595,0.));
#1255=CARTESIAN_POINT('',(-0.00688665022613117,0.0233753148130718,0.));
#1256=CARTESIAN_POINT('',(-0.00274258111070329,0.0176082323903595,0.));
#1257=CARTESIAN_POINT('',(0.00140148800472459,0.0118411499676472,0.));
#1258=CARTESIAN_POINT('',(0.00302565505850821,0.0130082323903595,0.));
#1259=CARTESIAN_POINT('',(0.00302565505850821,0.0110082323903595,0.));
#1260=CARTESIAN_POINT('',(0.0212138275292541,0.0110082323903595,0.));
#1261=CARTESIAN_POINT('',(0.039402,0.0110082323903595,0.));
#1262=CARTESIAN_POINT('',(0.039402,0.00900823239035949,0.));
#1263=CARTESIAN_POINT('',(0.041402,0.00900823239035949,0.));
#1264=CARTESIAN_POINT('',(0.041402,-0.00154176760964051,0.));
#1265=CARTESIAN_POINT('',(0.041402,-0.0120917676096405,0.));
#1266=CARTESIAN_POINT('',(0.039402,-0.0120917676096405,0.));
#1267=CARTESIAN_POINT('',(-0.038198,-0.0120917676096405,0.));
#1268=CARTESIAN_POINT('',(-0.023848,0.0222082323903595,0.015));
#1269=CARTESIAN_POINT('',(-0.023848,0.0222082323903595,0.002));
#1270=CARTESIAN_POINT('',(-0.009498,0.0222082323903595,0.002));
#1271=CARTESIAN_POINT('',(-0.009498,0.0222082323903595,0.015));
#1272=CARTESIAN_POINT('',(-0.009498,0.0222082323903595,0.015));
#1273=CARTESIAN_POINT('',(-0.023848,0.0222082323903595,0.015));
#1274=CARTESIAN_POINT('',(0.039402,-0.00154176760964041,0.015));
#1275=CARTESIAN_POINT('',(0.039402,-0.00154176760964041,0.002));
#1276=CARTESIAN_POINT('',(0.039402,0.00900823239035949,0.002));
#1277=CARTESIAN_POINT('',(0.039402,-0.00154176760964041,0.015));
#1278=CARTESIAN_POINT('',(0.039402,0.00900823239035949,0.015));
#1279=CARTESIAN_POINT('',(0.039402,0.00900823239035949,0.015));
#1280=CARTESIAN_POINT('',(-0.00949027234226846,0.0222064110463554,0.015));
#1281=CARTESIAN_POINT('',(-0.00949027234226846,0.0222064110463554,0.002));
#1282=CARTESIAN_POINT('',(-0.00948254468453692,0.0222045897023513,0.002));
#1283=CARTESIAN_POINT('',(-0.00948254468453692,0.0222045897023513,0.015));
#1284=CARTESIAN_POINT('',(-0.00948254468453692,0.0222045897023513,0.015));
#1285=CARTESIAN_POINT('',(-0.00949027234226846,0.0222064110463554,0.015));
#1286=CARTESIAN_POINT('',(-0.038198,-0.0120917676096405,0.015));
#1287=CARTESIAN_POINT('',(-0.038198,-0.0120917676096405,0.015));
#1288=CARTESIAN_POINT('',(0.039402,-0.0120917676096405,0.015));
#1289=CARTESIAN_POINT('',(0.041402,-0.0120917676096405,0.015));
#1290=CARTESIAN_POINT('',(0.041402,-0.0120917676096405,0.015));
#1291=CARTESIAN_POINT('',(0.039402,-0.0120917676096405,0.015));
#1292=CARTESIAN_POINT('',(0.041402,-0.00154176760964051,0.015));
#1293=CARTESIAN_POINT('',(0.041402,0.00900823239035949,0.015));
#1294=CARTESIAN_POINT('',(0.041402,0.00900823239035949,0.015));
#1295=CARTESIAN_POINT('',(0.041402,-0.00154176760964051,0.015));
#1296=CARTESIAN_POINT('',(0.039402,0.00900823239035949,0.015));
#1297=CARTESIAN_POINT('',(0.039402,0.0110082323903595,0.015));
#1298=CARTESIAN_POINT('',(0.039402,0.0110082323903595,0.015));
#1299=CARTESIAN_POINT('',(0.039402,0.00900823239035949,0.015));
#1300=CARTESIAN_POINT('',(0.0212138275292541,0.0110082323903595,0.015));
#1301=CARTESIAN_POINT('',(0.00302565505850821,0.0110082323903595,0.015));
#1302=CARTESIAN_POINT('',(0.00302565505850821,0.0110082323903595,0.015));
#1303=CARTESIAN_POINT('',(0.0212138275292541,0.0110082323903595,0.015));
#1304=CARTESIAN_POINT('',(0.00302565505850821,0.0130082323903595,0.015));
#1305=CARTESIAN_POINT('',(0.00140148800472459,0.0118411499676472,0.015));
#1306=CARTESIAN_POINT('',(0.00140148800472459,0.0118411499676472,0.015));
#1307=CARTESIAN_POINT('',(0.00302565505850821,0.0130082323903595,0.015));
#1308=CARTESIAN_POINT('',(-0.00274258111070329,0.0176082323903595,0.015));
#1309=CARTESIAN_POINT('',(-0.00688665022613117,0.0233753148130718,0.015));
#1310=CARTESIAN_POINT('',(-0.00688665022613117,0.0233753148130718,0.015));
#1311=CARTESIAN_POINT('',(-0.00274258111070329,0.0176082323903595,0.015));
#1312=CARTESIAN_POINT('',(-0.00851081727991478,0.0222082323903595,0.015));
#1313=CARTESIAN_POINT('',(-0.00851081727991478,0.0242082323903595,0.015));
#1314=CARTESIAN_POINT('',(-0.00851081727991478,0.0242082323903595,0.015));
#1315=CARTESIAN_POINT('',(-0.00851081727991478,0.0222082323903595,0.015));
#1316=CARTESIAN_POINT('',(-0.0233544086399574,0.0242082323903595,0.015));
#1317=CARTESIAN_POINT('',(-0.038198,0.0242082323903595,0.015));
#1318=CARTESIAN_POINT('',(-0.038198,0.0242082323903595,0.015));
#1319=CARTESIAN_POINT('',(-0.0233544086399574,0.0242082323903595,0.015));
#1320=CARTESIAN_POINT('',(-0.00474127234226846,0.0156064110463554,0.015));
#1321=CARTESIAN_POINT('',(-0.00474127234226846,0.0156064110463554,0.002));
#1322=CARTESIAN_POINT('',(-8.67361737988404E-19,0.00900823239035949,0.002));
#1323=CARTESIAN_POINT('',(-8.67361737988404E-19,0.00900823239035949,0.015));
#1324=CARTESIAN_POINT('',(-8.67361737988404E-19,0.00900823239035949,0.015));
#1325=CARTESIAN_POINT('',(-0.00474127234226846,0.0156064110463554,0.015));
#1326=CARTESIAN_POINT('',(0.019701,0.00900823239035949,0.015));
#1327=CARTESIAN_POINT('',(0.019701,0.00900823239035949,0.002));
#1328=CARTESIAN_POINT('',(0.019701,0.00900823239035949,0.015));
#1329=CARTESIAN_POINT('',(-0.038198,0.0222082323903595,0.015));
#1330=CARTESIAN_POINT('',(-0.038198,0.0222082323903595,0.015));
#1331=CARTESIAN_POINT('',(0.000601999999999991,0.0050582323903595,0.015));
#1332=CARTESIAN_POINT('',(0.000601999999999991,0.0050582323903595,0.002));
#1333=CARTESIAN_POINT('',(0.030002,-0.0110917676096405,0.0125));
#1334=CARTESIAN_POINT('',(0.037702,-0.0110917676096405,0.0125));
#1335=CARTESIAN_POINT('',(0.022302,-0.0110917676096405,0.0125));
#1336=CARTESIAN_POINT('',(0.022302,-0.0110917676096405,0.0085));
#1337=CARTESIAN_POINT('',(0.022302,-0.0110917676096405,0.0045));
#1338=CARTESIAN_POINT('',(0.030002,-0.0110917676096405,0.0045));
#1339=CARTESIAN_POINT('',(0.037702,-0.0110917676096405,0.0045));
#1340=CARTESIAN_POINT('',(0.037702,-0.0110917676096405,0.0085));
#1341=CARTESIAN_POINT('',(0.012502,-0.0110917676096405,0.0125));
#1342=CARTESIAN_POINT('',(0.020202,-0.0110917676096405,0.0125));
#1343=CARTESIAN_POINT('',(0.004802,-0.0110917676096405,0.0125));
#1344=CARTESIAN_POINT('',(0.004802,-0.0110917676096405,0.0085));
#1345=CARTESIAN_POINT('',(0.004802,-0.0110917676096405,0.0045));
#1346=CARTESIAN_POINT('',(0.012502,-0.0110917676096405,0.0045));
#1347=CARTESIAN_POINT('',(0.020202,-0.0110917676096405,0.0045));
#1348=CARTESIAN_POINT('',(0.020202,-0.0110917676096405,0.0085));
#1349=CARTESIAN_POINT('',(0.002332,-0.0110917676096405,0.0065));
#1350=CARTESIAN_POINT('',(0.002332,-0.0110917676096405,0.0045));
#1351=CARTESIAN_POINT('',(0.002332,-0.0110917676096405,0.0085));
#1352=CARTESIAN_POINT('',(-0.002988,-0.0110917676096405,0.0085));
#1353=CARTESIAN_POINT('',(-0.008308,-0.0110917676096405,0.0085));
#1354=CARTESIAN_POINT('',(-0.008308,-0.0110917676096405,0.0065));
#1355=CARTESIAN_POINT('',(-0.008308,-0.0110917676096405,0.0045));
#1356=CARTESIAN_POINT('',(-0.002988,-0.0110917676096405,0.0045));
#1357=CARTESIAN_POINT('',(-0.037198,0.0147982323903595,0.0085));
#1358=CARTESIAN_POINT('',(-0.037198,0.0094782323903595,0.0085));
#1359=CARTESIAN_POINT('',(-0.037198,0.0201182323903595,0.0085));
#1360=CARTESIAN_POINT('',(-0.037198,0.0201182323903595,0.0065));
#1361=CARTESIAN_POINT('',(-0.037198,0.0201182323903595,0.0045));
#1362=CARTESIAN_POINT('',(-0.037198,0.0147982323903595,0.0045));
#1363=CARTESIAN_POINT('',(-0.037198,0.0094782323903595,0.0045));
#1364=CARTESIAN_POINT('',(-0.037198,0.0094782323903595,0.0065));
#1365=CARTESIAN_POINT('',(-0.037198,-0.0011917676096405,0.0065));
#1366=CARTESIAN_POINT('',(-0.037198,-0.0080317676096405,0.0065));
#1367=CARTESIAN_POINT('',(-0.037198,0.0056482323903595,0.0065));
#1368=CARTESIAN_POINT('',(-0.037198,0.0056482323903595,0.0055));
#1369=CARTESIAN_POINT('',(-0.037198,0.0056482323903595,0.0045));
#1370=CARTESIAN_POINT('',(-0.037198,-0.0011917676096405,0.0045));
#1371=CARTESIAN_POINT('',(-0.037198,-0.0080317676096405,0.0045));
#1372=CARTESIAN_POINT('',(-0.037198,-0.0080317676096405,0.0055));
#1373=MECHANICAL_DESIGN_GEOMETRIC_PRESENTATION_REPRESENTATION('',(#854),
#1374);
#1374=(
GEOMETRIC_REPRESENTATION_CONTEXT(3)
GLOBAL_UNCERTAINTY_ASSIGNED_CONTEXT((#1375))
GLOBAL_UNIT_ASSIGNED_CONTEXT((#1378,#1377,#1376))
REPRESENTATION_CONTEXT('Part 1','TOP_LEVEL_ASSEMBLY_PART')
);
#1375=UNCERTAINTY_MEASURE_WITH_UNIT(LENGTH_MEASURE(1.E-8),#1378,
'DISTANCE_ACCURACY_VALUE','Maximum Tolerance applied to model');
#1376=(
NAMED_UNIT(*)
SI_UNIT($,.STERADIAN.)
SOLID_ANGLE_UNIT()
);
#1377=(
NAMED_UNIT(*)
PLANE_ANGLE_UNIT()
SI_UNIT($,.RADIAN.)
);
#1378=(
LENGTH_UNIT()
NAMED_UNIT(*)
SI_UNIT($,.METRE.)
);
#1379=PRODUCT_DEFINITION_SHAPE('','',#1380);
#1380=PRODUCT_DEFINITION('','',#1382,#1381);
#1381=PRODUCT_DEFINITION_CONTEXT('',#1388,'design');
#1382=PRODUCT_DEFINITION_FORMATION_WITH_SPECIFIED_SOURCE('','',#1384,
 .NOT_KNOWN.);
#1383=PRODUCT_RELATED_PRODUCT_CATEGORY('','',(#1384));
#1384=PRODUCT('Part 1','Part 1','Part 1',(#1386));
#1385=PRODUCT_CATEGORY('','');
#1386=PRODUCT_CONTEXT('',#1388,'mechanical');
#1387=APPLICATION_PROTOCOL_DEFINITION('international standard',
'ap242_managed_model_based_3d_engineering',2020,#1388);
#1388=APPLICATION_CONTEXT('managed model based 3d engineering');
ENDSEC;
END-ISO-10303-21;
