ISO-10303-21;
HEADER;
/* Generated by software containing ST-Developer
 * from STEP Tools, Inc. (www.steptools.com) 
 */
/* OPTION: using custom renumber hook */

FILE_DESCRIPTION(
/* description */ ('STEP AP242 Edition 2',
'CAx-IF Rec.Pracs.---Representation and Presentation of Product Manufa
cturing Information (PMI)---4.0---2014-10-13',
'CAx-IF Rec.Pracs.---3D Tessellated Geometry---0.4---2014-09-14','2;1',
'CAx-IF Rec.Pracs.---User Defined Attributes---1.5---2016-08-15'),
/* implementation_level */ '2;1');

FILE_NAME(
/* name */ 'Part Studio 1 - Part 225',
/* time_stamp */ '2026-05-30T05:06:29Z',
/* author */ (''),
/* organization */ (''),
/* preprocessor_version */ 'ST-DEVELOPER v20',
/* originating_system */ 'ONSHAPE BY PTC INC, 1.215',
/* authorisation */ '  ');

FILE_SCHEMA (('AP242_MANAGED_MODEL_BASED_3D_ENGINEERING_MIM_LF { 1 0 10303 442 3 1 4 }'));
ENDSEC;

DATA;
#10=SHAPE_REPRESENTATION_RELATIONSHIP('','',#542,#11);
#11=ADVANCED_BREP_SHAPE_REPRESENTATION('',(#540),#892);
#12=PLANE('',#550);
#13=PLANE('',#554);
#14=PLANE('',#558);
#15=PLANE('',#562);
#16=PLANE('',#569);
#17=PLANE('',#576);
#18=PLANE('',#577);
#19=PLANE('',#578);
#20=PLANE('',#579);
#21=PLANE('',#580);
#22=PLANE('',#581);
#23=PLANE('',#582);
#24=PLANE('',#583);
#25=PLANE('',#584);
#26=PLANE('',#585);
#27=PLANE('',#586);
#28=PLANE('',#587);
#29=PLANE('',#588);
#30=LINE('',#743,#87);
#31=LINE('',#747,#88);
#32=LINE('',#751,#89);
#33=LINE('',#755,#90);
#34=LINE('',#757,#91);
#35=LINE('',#759,#92);
#36=LINE('',#763,#93);
#37=LINE('',#767,#94);
#38=LINE('',#769,#95);
#39=LINE('',#771,#96);
#40=LINE('',#775,#97);
#41=LINE('',#779,#98);
#42=LINE('',#781,#99);
#43=LINE('',#783,#100);
#44=LINE('',#787,#101);
#45=LINE('',#791,#102);
#46=LINE('',#793,#103);
#47=LINE('',#795,#104);
#48=LINE('',#799,#105);
#49=LINE('',#805,#106);
#50=LINE('',#809,#107);
#51=LINE('',#811,#108);
#52=LINE('',#813,#109);
#53=LINE('',#817,#110);
#54=LINE('',#823,#111);
#55=LINE('',#827,#112);
#56=LINE('',#830,#113);
#57=LINE('',#832,#114);
#58=LINE('',#834,#115);
#59=LINE('',#836,#116);
#60=LINE('',#838,#117);
#61=LINE('',#840,#118);
#62=LINE('',#842,#119);
#63=LINE('',#844,#120);
#64=LINE('',#846,#121);
#65=LINE('',#848,#122);
#66=LINE('',#850,#123);
#67=LINE('',#852,#124);
#68=LINE('',#854,#125);
#69=LINE('',#856,#126);
#70=LINE('',#858,#127);
#71=LINE('',#860,#128);
#72=LINE('',#862,#129);
#73=LINE('',#864,#130);
#74=LINE('',#866,#131);
#75=LINE('',#868,#132);
#76=LINE('',#870,#133);
#77=LINE('',#872,#134);
#78=LINE('',#874,#135);
#79=LINE('',#876,#136);
#80=LINE('',#878,#137);
#81=LINE('',#880,#138);
#82=LINE('',#882,#139);
#83=LINE('',#884,#140);
#84=LINE('',#885,#141);
#85=LINE('',#887,#142);
#86=LINE('',#888,#143);
#87=VECTOR('',#595,1.);
#88=VECTOR('',#598,1.);
#89=VECTOR('',#603,1.);
#90=VECTOR('',#608,1.);
#91=VECTOR('',#609,1.);
#92=VECTOR('',#610,1.);
#93=VECTOR('',#615,1.);
#94=VECTOR('',#620,1.);
#95=VECTOR('',#621,1.);
#96=VECTOR('',#622,1.);
#97=VECTOR('',#627,1.);
#98=VECTOR('',#632,1.);
#99=VECTOR('',#633,1.);
#100=VECTOR('',#634,1.);
#101=VECTOR('',#639,1.);
#102=VECTOR('',#644,1.);
#103=VECTOR('',#645,1.);
#104=VECTOR('',#646,1.);
#105=VECTOR('',#651,1.);
#106=VECTOR('',#658,1.);
#107=VECTOR('',#663,1.);
#108=VECTOR('',#664,1.);
#109=VECTOR('',#665,1.);
#110=VECTOR('',#670,1.);
#111=VECTOR('',#677,1.);
#112=VECTOR('',#682,1.);
#113=VECTOR('',#683,1.);
#114=VECTOR('',#684,1.);
#115=VECTOR('',#685,1.);
#116=VECTOR('',#688,1.);
#117=VECTOR('',#689,1.);
#118=VECTOR('',#690,1.);
#119=VECTOR('',#693,1.);
#120=VECTOR('',#694,1.);
#121=VECTOR('',#695,1.);
#122=VECTOR('',#698,1.);
#123=VECTOR('',#699,1.);
#124=VECTOR('',#700,1.);
#125=VECTOR('',#703,1.);
#126=VECTOR('',#704,1.);
#127=VECTOR('',#705,1.);
#128=VECTOR('',#708,1.);
#129=VECTOR('',#709,1.);
#130=VECTOR('',#710,1.);
#131=VECTOR('',#713,1.);
#132=VECTOR('',#714,1.);
#133=VECTOR('',#715,1.);
#134=VECTOR('',#718,1.);
#135=VECTOR('',#719,1.);
#136=VECTOR('',#720,1.);
#137=VECTOR('',#723,1.);
#138=VECTOR('',#724,1.);
#139=VECTOR('',#725,1.);
#140=VECTOR('',#728,1.);
#141=VECTOR('',#729,1.);
#142=VECTOR('',#732,1.);
#143=VECTOR('',#733,1.);
#144=ORIENTED_EDGE('',*,*,#294,.T.);
#145=ORIENTED_EDGE('',*,*,#295,.F.);
#146=ORIENTED_EDGE('',*,*,#296,.F.);
#147=ORIENTED_EDGE('',*,*,#297,.T.);
#148=ORIENTED_EDGE('',*,*,#298,.T.);
#149=ORIENTED_EDGE('',*,*,#299,.F.);
#150=ORIENTED_EDGE('',*,*,#300,.F.);
#151=ORIENTED_EDGE('',*,*,#295,.T.);
#152=ORIENTED_EDGE('',*,*,#301,.T.);
#153=ORIENTED_EDGE('',*,*,#302,.F.);
#154=ORIENTED_EDGE('',*,*,#303,.F.);
#155=ORIENTED_EDGE('',*,*,#299,.T.);
#156=ORIENTED_EDGE('',*,*,#304,.T.);
#157=ORIENTED_EDGE('',*,*,#305,.F.);
#158=ORIENTED_EDGE('',*,*,#306,.F.);
#159=ORIENTED_EDGE('',*,*,#302,.T.);
#160=ORIENTED_EDGE('',*,*,#307,.T.);
#161=ORIENTED_EDGE('',*,*,#308,.F.);
#162=ORIENTED_EDGE('',*,*,#309,.F.);
#163=ORIENTED_EDGE('',*,*,#305,.T.);
#164=ORIENTED_EDGE('',*,*,#310,.T.);
#165=ORIENTED_EDGE('',*,*,#311,.F.);
#166=ORIENTED_EDGE('',*,*,#312,.F.);
#167=ORIENTED_EDGE('',*,*,#308,.T.);
#168=ORIENTED_EDGE('',*,*,#313,.T.);
#169=ORIENTED_EDGE('',*,*,#314,.F.);
#170=ORIENTED_EDGE('',*,*,#315,.F.);
#171=ORIENTED_EDGE('',*,*,#311,.T.);
#172=ORIENTED_EDGE('',*,*,#316,.T.);
#173=ORIENTED_EDGE('',*,*,#317,.F.);
#174=ORIENTED_EDGE('',*,*,#318,.F.);
#175=ORIENTED_EDGE('',*,*,#314,.T.);
#176=ORIENTED_EDGE('',*,*,#319,.T.);
#177=ORIENTED_EDGE('',*,*,#320,.F.);
#178=ORIENTED_EDGE('',*,*,#321,.F.);
#179=ORIENTED_EDGE('',*,*,#317,.T.);
#180=ORIENTED_EDGE('',*,*,#322,.F.);
#181=ORIENTED_EDGE('',*,*,#323,.F.);
#182=ORIENTED_EDGE('',*,*,#324,.T.);
#183=ORIENTED_EDGE('',*,*,#320,.T.);
#184=ORIENTED_EDGE('',*,*,#325,.F.);
#185=ORIENTED_EDGE('',*,*,#326,.F.);
#186=ORIENTED_EDGE('',*,*,#327,.T.);
#187=ORIENTED_EDGE('',*,*,#323,.T.);
#188=ORIENTED_EDGE('',*,*,#328,.T.);
#189=ORIENTED_EDGE('',*,*,#329,.F.);
#190=ORIENTED_EDGE('',*,*,#330,.F.);
#191=ORIENTED_EDGE('',*,*,#326,.T.);
#192=ORIENTED_EDGE('',*,*,#331,.T.);
#193=ORIENTED_EDGE('',*,*,#332,.F.);
#194=ORIENTED_EDGE('',*,*,#333,.F.);
#195=ORIENTED_EDGE('',*,*,#329,.T.);
#196=ORIENTED_EDGE('',*,*,#334,.T.);
#197=ORIENTED_EDGE('',*,*,#335,.F.);
#198=ORIENTED_EDGE('',*,*,#336,.F.);
#199=ORIENTED_EDGE('',*,*,#332,.T.);
#200=ORIENTED_EDGE('',*,*,#337,.T.);
#201=ORIENTED_EDGE('',*,*,#338,.F.);
#202=ORIENTED_EDGE('',*,*,#339,.F.);
#203=ORIENTED_EDGE('',*,*,#340,.T.);
#204=ORIENTED_EDGE('',*,*,#341,.T.);
#205=ORIENTED_EDGE('',*,*,#342,.F.);
#206=ORIENTED_EDGE('',*,*,#343,.F.);
#207=ORIENTED_EDGE('',*,*,#338,.T.);
#208=ORIENTED_EDGE('',*,*,#344,.F.);
#209=ORIENTED_EDGE('',*,*,#345,.F.);
#210=ORIENTED_EDGE('',*,*,#346,.T.);
#211=ORIENTED_EDGE('',*,*,#342,.T.);
#212=ORIENTED_EDGE('',*,*,#347,.F.);
#213=ORIENTED_EDGE('',*,*,#348,.F.);
#214=ORIENTED_EDGE('',*,*,#349,.T.);
#215=ORIENTED_EDGE('',*,*,#345,.T.);
#216=ORIENTED_EDGE('',*,*,#350,.F.);
#217=ORIENTED_EDGE('',*,*,#351,.F.);
#218=ORIENTED_EDGE('',*,*,#352,.T.);
#219=ORIENTED_EDGE('',*,*,#348,.T.);
#220=ORIENTED_EDGE('',*,*,#353,.F.);
#221=ORIENTED_EDGE('',*,*,#354,.F.);
#222=ORIENTED_EDGE('',*,*,#355,.T.);
#223=ORIENTED_EDGE('',*,*,#351,.T.);
#224=ORIENTED_EDGE('',*,*,#356,.T.);
#225=ORIENTED_EDGE('',*,*,#357,.F.);
#226=ORIENTED_EDGE('',*,*,#358,.F.);
#227=ORIENTED_EDGE('',*,*,#354,.T.);
#228=ORIENTED_EDGE('',*,*,#359,.T.);
#229=ORIENTED_EDGE('',*,*,#360,.F.);
#230=ORIENTED_EDGE('',*,*,#361,.F.);
#231=ORIENTED_EDGE('',*,*,#357,.T.);
#232=ORIENTED_EDGE('',*,*,#362,.F.);
#233=ORIENTED_EDGE('',*,*,#363,.F.);
#234=ORIENTED_EDGE('',*,*,#364,.T.);
#235=ORIENTED_EDGE('',*,*,#360,.T.);
#236=ORIENTED_EDGE('',*,*,#365,.T.);
#237=ORIENTED_EDGE('',*,*,#340,.F.);
#238=ORIENTED_EDGE('',*,*,#366,.F.);
#239=ORIENTED_EDGE('',*,*,#363,.T.);
#240=ORIENTED_EDGE('',*,*,#367,.T.);
#241=ORIENTED_EDGE('',*,*,#297,.F.);
#242=ORIENTED_EDGE('',*,*,#368,.F.);
#243=ORIENTED_EDGE('',*,*,#335,.T.);
#244=ORIENTED_EDGE('',*,*,#339,.T.);
#245=ORIENTED_EDGE('',*,*,#343,.T.);
#246=ORIENTED_EDGE('',*,*,#346,.F.);
#247=ORIENTED_EDGE('',*,*,#349,.F.);
#248=ORIENTED_EDGE('',*,*,#352,.F.);
#249=ORIENTED_EDGE('',*,*,#355,.F.);
#250=ORIENTED_EDGE('',*,*,#358,.T.);
#251=ORIENTED_EDGE('',*,*,#361,.T.);
#252=ORIENTED_EDGE('',*,*,#364,.F.);
#253=ORIENTED_EDGE('',*,*,#366,.T.);
#254=ORIENTED_EDGE('',*,*,#296,.T.);
#255=ORIENTED_EDGE('',*,*,#300,.T.);
#256=ORIENTED_EDGE('',*,*,#303,.T.);
#257=ORIENTED_EDGE('',*,*,#306,.T.);
#258=ORIENTED_EDGE('',*,*,#309,.T.);
#259=ORIENTED_EDGE('',*,*,#312,.T.);
#260=ORIENTED_EDGE('',*,*,#315,.T.);
#261=ORIENTED_EDGE('',*,*,#318,.T.);
#262=ORIENTED_EDGE('',*,*,#321,.T.);
#263=ORIENTED_EDGE('',*,*,#324,.F.);
#264=ORIENTED_EDGE('',*,*,#327,.F.);
#265=ORIENTED_EDGE('',*,*,#330,.T.);
#266=ORIENTED_EDGE('',*,*,#333,.T.);
#267=ORIENTED_EDGE('',*,*,#336,.T.);
#268=ORIENTED_EDGE('',*,*,#368,.T.);
#269=ORIENTED_EDGE('',*,*,#337,.F.);
#270=ORIENTED_EDGE('',*,*,#365,.F.);
#271=ORIENTED_EDGE('',*,*,#362,.T.);
#272=ORIENTED_EDGE('',*,*,#359,.F.);
#273=ORIENTED_EDGE('',*,*,#356,.F.);
#274=ORIENTED_EDGE('',*,*,#353,.T.);
#275=ORIENTED_EDGE('',*,*,#350,.T.);
#276=ORIENTED_EDGE('',*,*,#347,.T.);
#277=ORIENTED_EDGE('',*,*,#344,.T.);
#278=ORIENTED_EDGE('',*,*,#341,.F.);
#279=ORIENTED_EDGE('',*,*,#294,.F.);
#280=ORIENTED_EDGE('',*,*,#367,.F.);
#281=ORIENTED_EDGE('',*,*,#334,.F.);
#282=ORIENTED_EDGE('',*,*,#331,.F.);
#283=ORIENTED_EDGE('',*,*,#328,.F.);
#284=ORIENTED_EDGE('',*,*,#325,.T.);
#285=ORIENTED_EDGE('',*,*,#322,.T.);
#286=ORIENTED_EDGE('',*,*,#319,.F.);
#287=ORIENTED_EDGE('',*,*,#316,.F.);
#288=ORIENTED_EDGE('',*,*,#313,.F.);
#289=ORIENTED_EDGE('',*,*,#310,.F.);
#290=ORIENTED_EDGE('',*,*,#307,.F.);
#291=ORIENTED_EDGE('',*,*,#304,.F.);
#292=ORIENTED_EDGE('',*,*,#301,.F.);
#293=ORIENTED_EDGE('',*,*,#298,.F.);
#294=EDGE_CURVE('',#369,#370,#419,.T.);
#295=EDGE_CURVE('',#371,#370,#30,.T.);
#296=EDGE_CURVE('',#372,#371,#420,.T.);
#297=EDGE_CURVE('',#372,#369,#31,.T.);
#298=EDGE_CURVE('',#370,#373,#421,.T.);
#299=EDGE_CURVE('',#374,#373,#32,.T.);
#300=EDGE_CURVE('',#371,#374,#422,.T.);
#301=EDGE_CURVE('',#373,#375,#33,.T.);
#302=EDGE_CURVE('',#376,#375,#34,.T.);
#303=EDGE_CURVE('',#374,#376,#35,.T.);
#304=EDGE_CURVE('',#375,#377,#423,.T.);
#305=EDGE_CURVE('',#378,#377,#36,.T.);
#306=EDGE_CURVE('',#376,#378,#424,.T.);
#307=EDGE_CURVE('',#377,#379,#37,.T.);
#308=EDGE_CURVE('',#380,#379,#38,.T.);
#309=EDGE_CURVE('',#378,#380,#39,.T.);
#310=EDGE_CURVE('',#379,#381,#425,.T.);
#311=EDGE_CURVE('',#382,#381,#40,.T.);
#312=EDGE_CURVE('',#380,#382,#426,.T.);
#313=EDGE_CURVE('',#381,#383,#41,.T.);
#314=EDGE_CURVE('',#384,#383,#42,.T.);
#315=EDGE_CURVE('',#382,#384,#43,.T.);
#316=EDGE_CURVE('',#383,#385,#427,.T.);
#317=EDGE_CURVE('',#386,#385,#44,.T.);
#318=EDGE_CURVE('',#384,#386,#428,.T.);
#319=EDGE_CURVE('',#385,#387,#45,.T.);
#320=EDGE_CURVE('',#388,#387,#46,.T.);
#321=EDGE_CURVE('',#386,#388,#47,.T.);
#322=EDGE_CURVE('',#389,#387,#429,.T.);
#323=EDGE_CURVE('',#390,#389,#48,.T.);
#324=EDGE_CURVE('',#390,#388,#430,.T.);
#325=EDGE_CURVE('',#391,#389,#431,.T.);
#326=EDGE_CURVE('',#392,#391,#49,.T.);
#327=EDGE_CURVE('',#392,#390,#432,.T.);
#328=EDGE_CURVE('',#391,#393,#50,.T.);
#329=EDGE_CURVE('',#394,#393,#51,.T.);
#330=EDGE_CURVE('',#392,#394,#52,.T.);
#331=EDGE_CURVE('',#393,#395,#433,.T.);
#332=EDGE_CURVE('',#396,#395,#53,.T.);
#333=EDGE_CURVE('',#394,#396,#434,.T.);
#334=EDGE_CURVE('',#395,#397,#435,.T.);
#335=EDGE_CURVE('',#398,#397,#54,.T.);
#336=EDGE_CURVE('',#396,#398,#436,.T.);
#337=EDGE_CURVE('',#399,#400,#55,.T.);
#338=EDGE_CURVE('',#401,#400,#56,.T.);
#339=EDGE_CURVE('',#402,#401,#57,.T.);
#340=EDGE_CURVE('',#402,#399,#58,.T.);
#341=EDGE_CURVE('',#400,#403,#59,.T.);
#342=EDGE_CURVE('',#404,#403,#60,.T.);
#343=EDGE_CURVE('',#401,#404,#61,.T.);
#344=EDGE_CURVE('',#405,#403,#62,.T.);
#345=EDGE_CURVE('',#406,#405,#63,.T.);
#346=EDGE_CURVE('',#406,#404,#64,.T.);
#347=EDGE_CURVE('',#407,#405,#65,.T.);
#348=EDGE_CURVE('',#408,#407,#66,.T.);
#349=EDGE_CURVE('',#408,#406,#67,.T.);
#350=EDGE_CURVE('',#409,#407,#68,.T.);
#351=EDGE_CURVE('',#410,#409,#69,.T.);
#352=EDGE_CURVE('',#410,#408,#70,.T.);
#353=EDGE_CURVE('',#411,#409,#71,.T.);
#354=EDGE_CURVE('',#412,#411,#72,.T.);
#355=EDGE_CURVE('',#412,#410,#73,.T.);
#356=EDGE_CURVE('',#411,#413,#74,.T.);
#357=EDGE_CURVE('',#414,#413,#75,.T.);
#358=EDGE_CURVE('',#412,#414,#76,.T.);
#359=EDGE_CURVE('',#413,#415,#77,.T.);
#360=EDGE_CURVE('',#416,#415,#78,.T.);
#361=EDGE_CURVE('',#414,#416,#79,.T.);
#362=EDGE_CURVE('',#417,#415,#80,.T.);
#363=EDGE_CURVE('',#418,#417,#81,.T.);
#364=EDGE_CURVE('',#418,#416,#82,.T.);
#365=EDGE_CURVE('',#417,#399,#83,.T.);
#366=EDGE_CURVE('',#418,#402,#84,.T.);
#367=EDGE_CURVE('',#397,#369,#85,.T.);
#368=EDGE_CURVE('',#398,#372,#86,.T.);
#369=VERTEX_POINT('',#741);
#370=VERTEX_POINT('',#742);
#371=VERTEX_POINT('',#744);
#372=VERTEX_POINT('',#746);
#373=VERTEX_POINT('',#750);
#374=VERTEX_POINT('',#752);
#375=VERTEX_POINT('',#756);
#376=VERTEX_POINT('',#758);
#377=VERTEX_POINT('',#762);
#378=VERTEX_POINT('',#764);
#379=VERTEX_POINT('',#768);
#380=VERTEX_POINT('',#770);
#381=VERTEX_POINT('',#774);
#382=VERTEX_POINT('',#776);
#383=VERTEX_POINT('',#780);
#384=VERTEX_POINT('',#782);
#385=VERTEX_POINT('',#786);
#386=VERTEX_POINT('',#788);
#387=VERTEX_POINT('',#792);
#388=VERTEX_POINT('',#794);
#389=VERTEX_POINT('',#798);
#390=VERTEX_POINT('',#800);
#391=VERTEX_POINT('',#804);
#392=VERTEX_POINT('',#806);
#393=VERTEX_POINT('',#810);
#394=VERTEX_POINT('',#812);
#395=VERTEX_POINT('',#816);
#396=VERTEX_POINT('',#818);
#397=VERTEX_POINT('',#822);
#398=VERTEX_POINT('',#824);
#399=VERTEX_POINT('',#828);
#400=VERTEX_POINT('',#829);
#401=VERTEX_POINT('',#831);
#402=VERTEX_POINT('',#833);
#403=VERTEX_POINT('',#837);
#404=VERTEX_POINT('',#839);
#405=VERTEX_POINT('',#843);
#406=VERTEX_POINT('',#845);
#407=VERTEX_POINT('',#849);
#408=VERTEX_POINT('',#851);
#409=VERTEX_POINT('',#855);
#410=VERTEX_POINT('',#857);
#411=VERTEX_POINT('',#861);
#412=VERTEX_POINT('',#863);
#413=VERTEX_POINT('',#867);
#414=VERTEX_POINT('',#869);
#415=VERTEX_POINT('',#873);
#416=VERTEX_POINT('',#875);
#417=VERTEX_POINT('',#879);
#418=VERTEX_POINT('',#881);
#419=CIRCLE('',#545,0.002);
#420=CIRCLE('',#546,0.002);
#421=CIRCLE('',#548,0.002);
#422=CIRCLE('',#549,0.002);
#423=CIRCLE('',#552,0.002);
#424=CIRCLE('',#553,0.002);
#425=CIRCLE('',#556,0.002);
#426=CIRCLE('',#557,0.002);
#427=CIRCLE('',#560,0.002);
#428=CIRCLE('',#561,0.002);
#429=CIRCLE('',#564,0.002);
#430=CIRCLE('',#565,0.002);
#431=CIRCLE('',#567,0.002);
#432=CIRCLE('',#568,0.002);
#433=CIRCLE('',#571,0.002);
#434=CIRCLE('',#572,0.002);
#435=CIRCLE('',#574,0.002);
#436=CIRCLE('',#575,0.002);
#437=EDGE_LOOP('',(#144,#145,#146,#147));
#438=EDGE_LOOP('',(#148,#149,#150,#151));
#439=EDGE_LOOP('',(#152,#153,#154,#155));
#440=EDGE_LOOP('',(#156,#157,#158,#159));
#441=EDGE_LOOP('',(#160,#161,#162,#163));
#442=EDGE_LOOP('',(#164,#165,#166,#167));
#443=EDGE_LOOP('',(#168,#169,#170,#171));
#444=EDGE_LOOP('',(#172,#173,#174,#175));
#445=EDGE_LOOP('',(#176,#177,#178,#179));
#446=EDGE_LOOP('',(#180,#181,#182,#183));
#447=EDGE_LOOP('',(#184,#185,#186,#187));
#448=EDGE_LOOP('',(#188,#189,#190,#191));
#449=EDGE_LOOP('',(#192,#193,#194,#195));
#450=EDGE_LOOP('',(#196,#197,#198,#199));
#451=EDGE_LOOP('',(#200,#201,#202,#203));
#452=EDGE_LOOP('',(#204,#205,#206,#207));
#453=EDGE_LOOP('',(#208,#209,#210,#211));
#454=EDGE_LOOP('',(#212,#213,#214,#215));
#455=EDGE_LOOP('',(#216,#217,#218,#219));
#456=EDGE_LOOP('',(#220,#221,#222,#223));
#457=EDGE_LOOP('',(#224,#225,#226,#227));
#458=EDGE_LOOP('',(#228,#229,#230,#231));
#459=EDGE_LOOP('',(#232,#233,#234,#235));
#460=EDGE_LOOP('',(#236,#237,#238,#239));
#461=EDGE_LOOP('',(#240,#241,#242,#243));
#462=EDGE_LOOP('',(#244,#245,#246,#247,#248,#249,#250,#251,#252,#253));
#463=EDGE_LOOP('',(#254,#255,#256,#257,#258,#259,#260,#261,#262,#263,#264,
#265,#266,#267,#268));
#464=EDGE_LOOP('',(#269,#270,#271,#272,#273,#274,#275,#276,#277,#278));
#465=EDGE_LOOP('',(#279,#280,#281,#282,#283,#284,#285,#286,#287,#288,#289,
#290,#291,#292,#293));
#466=FACE_BOUND('',#437,.T.);
#467=FACE_BOUND('',#438,.T.);
#468=FACE_BOUND('',#439,.T.);
#469=FACE_BOUND('',#440,.T.);
#470=FACE_BOUND('',#441,.T.);
#471=FACE_BOUND('',#442,.T.);
#472=FACE_BOUND('',#443,.T.);
#473=FACE_BOUND('',#444,.T.);
#474=FACE_BOUND('',#445,.T.);
#475=FACE_BOUND('',#446,.T.);
#476=FACE_BOUND('',#447,.T.);
#477=FACE_BOUND('',#448,.T.);
#478=FACE_BOUND('',#449,.T.);
#479=FACE_BOUND('',#450,.T.);
#480=FACE_BOUND('',#451,.T.);
#481=FACE_BOUND('',#452,.T.);
#482=FACE_BOUND('',#453,.T.);
#483=FACE_BOUND('',#454,.T.);
#484=FACE_BOUND('',#455,.T.);
#485=FACE_BOUND('',#456,.T.);
#486=FACE_BOUND('',#457,.T.);
#487=FACE_BOUND('',#458,.T.);
#488=FACE_BOUND('',#459,.T.);
#489=FACE_BOUND('',#460,.T.);
#490=FACE_BOUND('',#461,.T.);
#491=FACE_BOUND('',#462,.T.);
#492=FACE_BOUND('',#463,.T.);
#493=FACE_BOUND('',#464,.T.);
#494=FACE_BOUND('',#465,.T.);
#495=CYLINDRICAL_SURFACE('',#544,0.002);
#496=CYLINDRICAL_SURFACE('',#547,0.002);
#497=CYLINDRICAL_SURFACE('',#551,0.002);
#498=CYLINDRICAL_SURFACE('',#555,0.002);
#499=CYLINDRICAL_SURFACE('',#559,0.002);
#500=CYLINDRICAL_SURFACE('',#563,0.002);
#501=CYLINDRICAL_SURFACE('',#566,0.002);
#502=CYLINDRICAL_SURFACE('',#570,0.002);
#503=CYLINDRICAL_SURFACE('',#573,0.002);
#504=ADVANCED_FACE('',(#466),#495,.T.);
#505=ADVANCED_FACE('',(#467),#496,.T.);
#506=ADVANCED_FACE('',(#468),#12,.F.);
#507=ADVANCED_FACE('',(#469),#497,.T.);
#508=ADVANCED_FACE('',(#470),#13,.F.);
#509=ADVANCED_FACE('',(#471),#498,.T.);
#510=ADVANCED_FACE('',(#472),#14,.F.);
#511=ADVANCED_FACE('',(#473),#499,.T.);
#512=ADVANCED_FACE('',(#474),#15,.F.);
#513=ADVANCED_FACE('',(#475),#500,.F.);
#514=ADVANCED_FACE('',(#476),#501,.F.);
#515=ADVANCED_FACE('',(#477),#16,.F.);
#516=ADVANCED_FACE('',(#478),#502,.T.);
#517=ADVANCED_FACE('',(#479),#503,.T.);
#518=ADVANCED_FACE('',(#480),#17,.F.);
#519=ADVANCED_FACE('',(#481),#18,.F.);
#520=ADVANCED_FACE('',(#482),#19,.T.);
#521=ADVANCED_FACE('',(#483),#20,.T.);
#522=ADVANCED_FACE('',(#484),#21,.T.);
#523=ADVANCED_FACE('',(#485),#22,.T.);
#524=ADVANCED_FACE('',(#486),#23,.F.);
#525=ADVANCED_FACE('',(#487),#24,.F.);
#526=ADVANCED_FACE('',(#488),#25,.T.);
#527=ADVANCED_FACE('',(#489),#26,.F.);
#528=ADVANCED_FACE('',(#490),#27,.F.);
#529=ADVANCED_FACE('',(#491,#492),#28,.T.);
#530=ADVANCED_FACE('',(#493,#494),#29,.F.);
#531=CLOSED_SHELL('',(#504,#505,#506,#507,#508,#509,#510,#511,#512,#513,
#514,#515,#516,#517,#518,#519,#520,#521,#522,#523,#524,#525,#526,#527,#528,
#529,#530));
#532=STYLED_ITEM('',(#533),#540);
#533=PRESENTATION_STYLE_ASSIGNMENT((#534));
#534=SURFACE_STYLE_USAGE(.BOTH.,#535);
#535=SURFACE_SIDE_STYLE('',(#536));
#536=SURFACE_STYLE_FILL_AREA(#537);
#537=FILL_AREA_STYLE('',(#538));
#538=FILL_AREA_STYLE_COLOUR('',#539);
#539=COLOUR_RGB('',0.380392156862745,0.776470588235294,0.501960784313726);
#540=MANIFOLD_SOLID_BREP('Part 225',#531);
#541=SHAPE_DEFINITION_REPRESENTATION(#897,#542);
#542=SHAPE_REPRESENTATION('Part 225',(#543),#892);
#543=AXIS2_PLACEMENT_3D('',#738,#589,#590);
#544=AXIS2_PLACEMENT_3D('',#739,#591,#592);
#545=AXIS2_PLACEMENT_3D('',#740,#593,#594);
#546=AXIS2_PLACEMENT_3D('',#745,#596,#597);
#547=AXIS2_PLACEMENT_3D('',#748,#599,#600);
#548=AXIS2_PLACEMENT_3D('',#749,#601,#602);
#549=AXIS2_PLACEMENT_3D('',#753,#604,#605);
#550=AXIS2_PLACEMENT_3D('',#754,#606,#607);
#551=AXIS2_PLACEMENT_3D('',#760,#611,#612);
#552=AXIS2_PLACEMENT_3D('',#761,#613,#614);
#553=AXIS2_PLACEMENT_3D('',#765,#616,#617);
#554=AXIS2_PLACEMENT_3D('',#766,#618,#619);
#555=AXIS2_PLACEMENT_3D('',#772,#623,#624);
#556=AXIS2_PLACEMENT_3D('',#773,#625,#626);
#557=AXIS2_PLACEMENT_3D('',#777,#628,#629);
#558=AXIS2_PLACEMENT_3D('',#778,#630,#631);
#559=AXIS2_PLACEMENT_3D('',#784,#635,#636);
#560=AXIS2_PLACEMENT_3D('',#785,#637,#638);
#561=AXIS2_PLACEMENT_3D('',#789,#640,#641);
#562=AXIS2_PLACEMENT_3D('',#790,#642,#643);
#563=AXIS2_PLACEMENT_3D('',#796,#647,#648);
#564=AXIS2_PLACEMENT_3D('',#797,#649,#650);
#565=AXIS2_PLACEMENT_3D('',#801,#652,#653);
#566=AXIS2_PLACEMENT_3D('',#802,#654,#655);
#567=AXIS2_PLACEMENT_3D('',#803,#656,#657);
#568=AXIS2_PLACEMENT_3D('',#807,#659,#660);
#569=AXIS2_PLACEMENT_3D('',#808,#661,#662);
#570=AXIS2_PLACEMENT_3D('',#814,#666,#667);
#571=AXIS2_PLACEMENT_3D('',#815,#668,#669);
#572=AXIS2_PLACEMENT_3D('',#819,#671,#672);
#573=AXIS2_PLACEMENT_3D('',#820,#673,#674);
#574=AXIS2_PLACEMENT_3D('',#821,#675,#676);
#575=AXIS2_PLACEMENT_3D('',#825,#678,#679);
#576=AXIS2_PLACEMENT_3D('',#826,#680,#681);
#577=AXIS2_PLACEMENT_3D('',#835,#686,#687);
#578=AXIS2_PLACEMENT_3D('',#841,#691,#692);
#579=AXIS2_PLACEMENT_3D('',#847,#696,#697);
#580=AXIS2_PLACEMENT_3D('',#853,#701,#702);
#581=AXIS2_PLACEMENT_3D('',#859,#706,#707);
#582=AXIS2_PLACEMENT_3D('',#865,#711,#712);
#583=AXIS2_PLACEMENT_3D('',#871,#716,#717);
#584=AXIS2_PLACEMENT_3D('',#877,#721,#722);
#585=AXIS2_PLACEMENT_3D('',#883,#726,#727);
#586=AXIS2_PLACEMENT_3D('',#886,#730,#731);
#587=AXIS2_PLACEMENT_3D('',#889,#734,#735);
#588=AXIS2_PLACEMENT_3D('',#890,#736,#737);
#589=DIRECTION('',(0.,0.,1.));
#590=DIRECTION('',(1.,0.,0.));
#591=DIRECTION('',(0.,0.,-1.));
#592=DIRECTION('',(-1.,0.,0.));
#593=DIRECTION('',(0.,0.,1.));
#594=DIRECTION('',(1.,0.,0.));
#595=DIRECTION('',(0.,0.,-1.));
#596=DIRECTION('',(0.,0.,1.));
#597=DIRECTION('',(1.,0.,0.));
#598=DIRECTION('',(0.,0.,-1.));
#599=DIRECTION('',(0.,0.,-1.));
#600=DIRECTION('',(-1.,0.,0.));
#601=DIRECTION('',(0.,0.,1.));
#602=DIRECTION('',(1.,0.,0.));
#603=DIRECTION('',(0.,0.,-1.));
#604=DIRECTION('',(0.,0.,1.));
#605=DIRECTION('',(1.,0.,0.));
#606=DIRECTION('',(1.,0.,0.));
#607=DIRECTION('',(0.,0.,-1.));
#608=DIRECTION('',(0.,-1.,0.));
#609=DIRECTION('',(0.,0.,-1.));
#610=DIRECTION('',(0.,-1.,0.));
#611=DIRECTION('',(0.,0.,-1.));
#612=DIRECTION('',(-1.,0.,0.));
#613=DIRECTION('',(0.,0.,1.));
#614=DIRECTION('',(1.,0.,0.));
#615=DIRECTION('',(0.,0.,-1.));
#616=DIRECTION('',(0.,0.,1.));
#617=DIRECTION('',(1.,0.,0.));
#618=DIRECTION('',(0.,1.,0.));
#619=DIRECTION('',(0.,0.,1.));
#620=DIRECTION('',(1.,0.,0.));
#621=DIRECTION('',(0.,0.,-1.));
#622=DIRECTION('',(1.,0.,0.));
#623=DIRECTION('',(0.,0.,-1.));
#624=DIRECTION('',(-1.,0.,0.));
#625=DIRECTION('',(0.,0.,1.));
#626=DIRECTION('',(1.,0.,0.));
#627=DIRECTION('',(0.,0.,-1.));
#628=DIRECTION('',(0.,0.,1.));
#629=DIRECTION('',(1.,0.,0.));
#630=DIRECTION('',(-1.,0.,0.));
#631=DIRECTION('',(0.,0.,1.));
#632=DIRECTION('',(0.,1.,0.));
#633=DIRECTION('',(0.,0.,-1.));
#634=DIRECTION('',(0.,1.,0.));
#635=DIRECTION('',(0.,0.,-1.));
#636=DIRECTION('',(-1.,0.,0.));
#637=DIRECTION('',(0.,0.,1.));
#638=DIRECTION('',(1.,0.,0.));
#639=DIRECTION('',(0.,0.,-1.));
#640=DIRECTION('',(0.,0.,1.));
#641=DIRECTION('',(1.,0.,0.));
#642=DIRECTION('',(1.43064687678239E-16,-1.,0.));
#643=DIRECTION('',(1.,1.43064687678239E-16,0.));
#644=DIRECTION('',(-1.,-1.43064687678239E-16,0.));
#645=DIRECTION('',(0.,0.,-1.));
#646=DIRECTION('',(-1.,-1.43064687678239E-16,0.));
#647=DIRECTION('',(0.,0.,-1.));
#648=DIRECTION('',(-1.,0.,0.));
#649=DIRECTION('',(0.,0.,1.));
#650=DIRECTION('',(1.,0.,0.));
#651=DIRECTION('',(0.,0.,-1.));
#652=DIRECTION('',(0.,0.,1.));
#653=DIRECTION('',(1.,0.,0.));
#654=DIRECTION('',(0.,0.,-1.));
#655=DIRECTION('',(-1.,0.,0.));
#656=DIRECTION('',(0.,0.,1.));
#657=DIRECTION('',(1.,0.,0.));
#658=DIRECTION('',(0.,0.,-1.));
#659=DIRECTION('',(0.,0.,1.));
#660=DIRECTION('',(1.,0.,0.));
#661=DIRECTION('',(-0.812083526891806,-0.583541211356118,0.));
#662=DIRECTION('',(0.583541211356118,-0.812083526891806,0.));
#663=DIRECTION('',(-0.583541211356118,0.812083526891806,0.));
#664=DIRECTION('',(0.,0.,-1.));
#665=DIRECTION('',(-0.583541211356118,0.812083526891806,0.));
#666=DIRECTION('',(0.,0.,-1.));
#667=DIRECTION('',(-1.,0.,0.));
#668=DIRECTION('',(0.,0.,1.));
#669=DIRECTION('',(1.,0.,0.));
#670=DIRECTION('',(0.,0.,-1.));
#671=DIRECTION('',(0.,0.,1.));
#672=DIRECTION('',(1.,0.,0.));
#673=DIRECTION('',(0.,0.,-1.));
#674=DIRECTION('',(-1.,0.,0.));
#675=DIRECTION('',(0.,0.,1.));
#676=DIRECTION('',(1.,0.,0.));
#677=DIRECTION('',(0.,0.,-1.));
#678=DIRECTION('',(0.,0.,1.));
#679=DIRECTION('',(1.,0.,0.));
#680=DIRECTION('',(0.812083526891806,0.583541211356118,0.));
#681=DIRECTION('',(-0.583541211356118,0.812083526891806,0.));
#682=DIRECTION('',(0.583541211356118,-0.812083526891806,0.));
#683=DIRECTION('',(0.,0.,-1.));
#684=DIRECTION('',(0.583541211356118,-0.812083526891806,0.));
#685=DIRECTION('',(0.,0.,-1.));
#686=DIRECTION('',(-0.00136537013741421,0.999999067881759,0.));
#687=DIRECTION('',(-0.99999906788176,-0.00136537013741421,0.));
#688=DIRECTION('',(0.99999906788176,0.00136537013741421,0.));
#689=DIRECTION('',(0.,0.,-1.));
#690=DIRECTION('',(0.99999906788176,0.00136537013741421,0.));
#691=DIRECTION('',(-1.,0.,0.));
#692=DIRECTION('',(0.,0.,1.));
#693=DIRECTION('',(0.,1.,0.));
#694=DIRECTION('',(0.,0.,-1.));
#695=DIRECTION('',(0.,1.,0.));
#696=DIRECTION('',(0.,1.,0.));
#697=DIRECTION('',(0.,0.,1.));
#698=DIRECTION('',(1.,0.,0.));
#699=DIRECTION('',(0.,0.,-1.));
#700=DIRECTION('',(1.,0.,0.));
#701=DIRECTION('',(1.,0.,0.));
#702=DIRECTION('',(0.,0.,-1.));
#703=DIRECTION('',(0.,-1.,0.));
#704=DIRECTION('',(0.,0.,-1.));
#705=DIRECTION('',(0.,-1.,0.));
#706=DIRECTION('',(2.41773306756349E-16,-1.,0.));
#707=DIRECTION('',(1.,2.41773306756349E-16,0.));
#708=DIRECTION('',(-1.,-2.41773306756349E-16,0.));
#709=DIRECTION('',(0.,0.,-1.));
#710=DIRECTION('',(-1.,-2.41773306756349E-16,0.));
#711=DIRECTION('',(-0.999999998296531,5.83689896919846E-5,0.));
#712=DIRECTION('',(-5.83689896919846E-5,-0.999999998296531,0.));
#713=DIRECTION('',(5.83689896919846E-5,0.999999998296531,0.));
#714=DIRECTION('',(0.,0.,-1.));
#715=DIRECTION('',(5.83689896919846E-5,0.999999998296531,0.));
#716=DIRECTION('',(0.000209947542960528,0.999999977961014,0.));
#717=DIRECTION('',(-0.999999977961014,0.000209947542960528,0.));
#718=DIRECTION('',(0.999999977961014,-0.000209947542960528,0.));
#719=DIRECTION('',(0.,0.,-1.));
#720=DIRECTION('',(0.999999977961014,-0.000209947542960528,0.));
#721=DIRECTION('',(2.41773306756349E-16,-1.,0.));
#722=DIRECTION('',(1.,2.41773306756349E-16,0.));
#723=DIRECTION('',(-1.,-2.41773306756349E-16,0.));
#724=DIRECTION('',(0.,0.,-1.));
#725=DIRECTION('',(-1.,-2.41773306756349E-16,0.));
#726=DIRECTION('',(0.229405902574891,0.973330843990778,0.));
#727=DIRECTION('',(-0.973330843990778,0.229405902574891,0.));
#728=DIRECTION('',(0.973330843990778,-0.229405902574891,0.));
#729=DIRECTION('',(0.973330843990778,-0.229405902574891,0.));
#730=DIRECTION('',(1.16866830533108E-16,-1.,0.));
#731=DIRECTION('',(1.,1.16866830533108E-16,0.));
#732=DIRECTION('',(-1.,-1.16866830533108E-16,0.));
#733=DIRECTION('',(-1.,-1.16866830533108E-16,0.));
#734=DIRECTION('',(0.,0.,1.));
#735=DIRECTION('',(1.,0.,0.));
#736=DIRECTION('',(0.,0.,1.));
#737=DIRECTION('',(1.,0.,0.));
#738=CARTESIAN_POINT('',(0.,0.,0.));
#739=CARTESIAN_POINT('',(-0.038198,0.0222082323903595,0.018));
#740=CARTESIAN_POINT('',(-0.038198,0.0222082323903595,0.015));
#741=CARTESIAN_POINT('',(-0.038198,0.0242082323903595,0.015));
#742=CARTESIAN_POINT('',(-0.039728956580215,0.0234951558338853,0.015));
#743=CARTESIAN_POINT('',(-0.039728956580215,0.0234951558338853,0.018));
#744=CARTESIAN_POINT('',(-0.039728956580215,0.0234951558338853,0.018));
#745=CARTESIAN_POINT('',(-0.038198,0.0222082323903595,0.018));
#746=CARTESIAN_POINT('',(-0.038198,0.0242082323903595,0.018));
#747=CARTESIAN_POINT('',(-0.038198,0.0242082323903595,0.018));
#748=CARTESIAN_POINT('',(-0.0381959978044033,0.0222106180214166,0.018));
#749=CARTESIAN_POINT('',(-0.0381959978044033,0.0222106180214166,0.015));
#750=CARTESIAN_POINT('',(-0.0401959978044033,0.0222106180214167,0.015));
#751=CARTESIAN_POINT('',(-0.0401959978044033,0.0222106180214167,0.018));
#752=CARTESIAN_POINT('',(-0.0401959978044033,0.0222106180214167,0.018));
#753=CARTESIAN_POINT('',(-0.0381959978044033,0.0222106180214166,0.018));
#754=CARTESIAN_POINT('',(-0.0401959978044033,0.00506697043519614,0.018));
#755=CARTESIAN_POINT('',(-0.0401959978044033,0.00506697043519614,0.015));
#756=CARTESIAN_POINT('',(-0.0401959978044033,-0.0120766771510243,0.015));
#757=CARTESIAN_POINT('',(-0.0401959978044033,-0.0120766771510243,0.018));
#758=CARTESIAN_POINT('',(-0.0401959978044033,-0.0120766771510243,0.018));
#759=CARTESIAN_POINT('',(-0.0401959978044033,0.00506697043519614,0.018));
#760=CARTESIAN_POINT('',(-0.0381959978044033,-0.0120766771510243,0.018));
#761=CARTESIAN_POINT('',(-0.0381959978044033,-0.0120766771510243,0.015));
#762=CARTESIAN_POINT('',(-0.0381959978044033,-0.0140766771510243,0.015));
#763=CARTESIAN_POINT('',(-0.0381959978044033,-0.0140766771510243,0.018));
#764=CARTESIAN_POINT('',(-0.0381959978044033,-0.0140766771510243,0.018));
#765=CARTESIAN_POINT('',(-0.0381959978044033,-0.0120766771510243,0.018));
#766=CARTESIAN_POINT('',(0.000603001097798338,-0.0140766771510243,0.018));
#767=CARTESIAN_POINT('',(0.000603001097798338,-0.0140766771510243,0.015));
#768=CARTESIAN_POINT('',(0.039402,-0.0140766771510243,0.015));
#769=CARTESIAN_POINT('',(0.039402,-0.0140766771510243,0.018));
#770=CARTESIAN_POINT('',(0.039402,-0.0140766771510243,0.018));
#771=CARTESIAN_POINT('',(0.000603001097798338,-0.0140766771510243,0.018));
#772=CARTESIAN_POINT('',(0.039402,-0.0120766771510243,0.018));
#773=CARTESIAN_POINT('',(0.039402,-0.0120766771510243,0.015));
#774=CARTESIAN_POINT('',(0.041402,-0.0120766771510243,0.015));
#775=CARTESIAN_POINT('',(0.041402,-0.0120766771510243,0.018));
#776=CARTESIAN_POINT('',(0.041402,-0.0120766771510243,0.018));
#777=CARTESIAN_POINT('',(0.039402,-0.0120766771510243,0.018));
#778=CARTESIAN_POINT('',(0.041402,-0.00154176760964051,0.018));
#779=CARTESIAN_POINT('',(0.041402,-0.00154176760964051,0.015));
#780=CARTESIAN_POINT('',(0.041402,0.00900823239035949,0.015));
#781=CARTESIAN_POINT('',(0.041402,0.00900823239035949,0.018));
#782=CARTESIAN_POINT('',(0.041402,0.00900823239035949,0.018));
#783=CARTESIAN_POINT('',(0.041402,-0.00154176760964051,0.018));
#784=CARTESIAN_POINT('',(0.039402,0.00900823239035949,0.018));
#785=CARTESIAN_POINT('',(0.039402,0.00900823239035949,0.015));
#786=CARTESIAN_POINT('',(0.039402,0.0110082323903595,0.015));
#787=CARTESIAN_POINT('',(0.039402,0.0110082323903595,0.018));
#788=CARTESIAN_POINT('',(0.039402,0.0110082323903595,0.018));
#789=CARTESIAN_POINT('',(0.039402,0.00900823239035949,0.018));
#790=CARTESIAN_POINT('',(0.0212138275292541,0.0110082323903595,0.018));
#791=CARTESIAN_POINT('',(0.0212138275292541,0.0110082323903595,0.015));
#792=CARTESIAN_POINT('',(0.00302565505850821,0.0110082323903595,0.015));
#793=CARTESIAN_POINT('',(0.00302565505850821,0.0110082323903595,0.018));
#794=CARTESIAN_POINT('',(0.00302565505850821,0.0110082323903595,0.018));
#795=CARTESIAN_POINT('',(0.0212138275292541,0.0110082323903595,0.018));
#796=CARTESIAN_POINT('',(0.00302565505850821,0.0130082323903595,0.018));
#797=CARTESIAN_POINT('',(0.00302565505850821,0.0130082323903595,0.015));
#798=CARTESIAN_POINT('',(0.00245217055966602,0.0110922168555614,0.015));
#799=CARTESIAN_POINT('',(0.00245217055966602,0.0110922168555614,0.018));
#800=CARTESIAN_POINT('',(0.00245217055966602,0.0110922168555614,0.018));
#801=CARTESIAN_POINT('',(0.00302565505850821,0.0130082323903595,0.018));
#802=CARTESIAN_POINT('',(0.00302070133957967,0.0130097081208063,0.018));
#803=CARTESIAN_POINT('',(0.00302070133957967,0.0130097081208063,0.015));
#804=CARTESIAN_POINT('',(0.00139653428579605,0.0118426256980941,0.015));
#805=CARTESIAN_POINT('',(0.00139653428579605,0.0118426256980941,0.018));
#806=CARTESIAN_POINT('',(0.00139653428579605,0.0118426256980941,0.018));
#807=CARTESIAN_POINT('',(0.00302070133957967,0.0130097081208063,0.018));
#808=CARTESIAN_POINT('',(-0.00274703324836118,0.0176090100966062,0.018));
#809=CARTESIAN_POINT('',(-0.00274703324836118,0.0176090100966062,0.015));
#810=CARTESIAN_POINT('',(-0.00689060078251839,0.0233753944951183,0.015));
#811=CARTESIAN_POINT('',(-0.00689060078251839,0.0233753944951183,0.018));
#812=CARTESIAN_POINT('',(-0.00689060078251839,0.0233753944951183,0.018));
#813=CARTESIAN_POINT('',(-0.00274703324836118,0.0176090100966062,0.018));
#814=CARTESIAN_POINT('',(-0.00851476783630202,0.0222083120724061,0.018));
#815=CARTESIAN_POINT('',(-0.00851476783630202,0.0222083120724061,0.015));
#816=CARTESIAN_POINT('',(-0.00847246112290171,0.0242078645578391,0.015));
#817=CARTESIAN_POINT('',(-0.00847246112290171,0.0242078645578391,0.018));
#818=CARTESIAN_POINT('',(-0.00847246112290171,0.0242078645578391,0.018));
#819=CARTESIAN_POINT('',(-0.00851476783630202,0.0222083120724061,0.018));
#820=CARTESIAN_POINT('',(-0.00851081727991478,0.0222082323903595,0.018));
#821=CARTESIAN_POINT('',(-0.00851081727991478,0.0222082323903595,0.015));
#822=CARTESIAN_POINT('',(-0.00851081727991478,0.0242082323903595,0.015));
#823=CARTESIAN_POINT('',(-0.00851081727991478,0.0242082323903595,0.018));
#824=CARTESIAN_POINT('',(-0.00851081727991478,0.0242082323903595,0.018));
#825=CARTESIAN_POINT('',(-0.00851081727991478,0.0222082323903595,0.018));
#826=CARTESIAN_POINT('',(-0.00474127234226846,0.0156064110463554,0.018));
#827=CARTESIAN_POINT('',(-0.00474127234226846,0.0156064110463554,0.015));
#828=CARTESIAN_POINT('',(-0.00948254468453692,0.0222045897023513,0.015));
#829=CARTESIAN_POINT('',(-8.67361737988404E-19,0.00900823239035949,0.015));
#830=CARTESIAN_POINT('',(-8.67361737988404E-19,0.00900823239035949,0.018));
#831=CARTESIAN_POINT('',(-8.67361737988404E-19,0.00900823239035949,0.018));
#832=CARTESIAN_POINT('',(-0.00474127234226846,0.0156064110463554,0.018));
#833=CARTESIAN_POINT('',(-0.00948254468453692,0.0222045897023513,0.018));
#834=CARTESIAN_POINT('',(-0.00948254468453692,0.0222045897023513,0.018));
#835=CARTESIAN_POINT('',(0.019701,0.00903513157250991,0.018));
#836=CARTESIAN_POINT('',(0.019701,0.00903513157250991,0.015));
#837=CARTESIAN_POINT('',(0.039402,0.00906203075466032,0.015));
#838=CARTESIAN_POINT('',(0.039402,0.00906203075466032,0.018));
#839=CARTESIAN_POINT('',(0.039402,0.00906203075466032,0.018));
#840=CARTESIAN_POINT('',(0.019701,0.00903513157250991,0.018));
#841=CARTESIAN_POINT('',(0.039402,-0.001507323198182,0.018));
#842=CARTESIAN_POINT('',(0.039402,-0.001507323198182,0.015));
#843=CARTESIAN_POINT('',(0.039402,-0.0120917676096403,0.015));
#844=CARTESIAN_POINT('',(0.039402,-0.0120917676096403,0.018));
#845=CARTESIAN_POINT('',(0.039402,-0.0120917676096403,0.018));
#846=CARTESIAN_POINT('',(0.039402,-0.001507323198182,0.018));
#847=CARTESIAN_POINT('',(0.000601999999999991,-0.0120917676096403,0.018));
#848=CARTESIAN_POINT('',(0.000601999999999991,-0.0120917676096403,0.015));
#849=CARTESIAN_POINT('',(-0.038198,-0.0120917676096403,0.015));
#850=CARTESIAN_POINT('',(-0.038198,-0.0120917676096403,0.018));
#851=CARTESIAN_POINT('',(-0.038198,-0.0120917676096403,0.018));
#852=CARTESIAN_POINT('',(0.000601999999999991,-0.0120917676096403,0.018));
#853=CARTESIAN_POINT('',(-0.038198,0.00505823239035959,0.018));
#854=CARTESIAN_POINT('',(-0.038198,0.00505823239035959,0.015));
#855=CARTESIAN_POINT('',(-0.038198,0.0222082323903595,0.015));
#856=CARTESIAN_POINT('',(-0.038198,0.0222082323903595,0.018));
#857=CARTESIAN_POINT('',(-0.038198,0.0222082323903595,0.018));
#858=CARTESIAN_POINT('',(-0.038198,0.00505823239035959,0.018));
#859=CARTESIAN_POINT('',(-0.023848,0.0222082323903595,0.018));
#860=CARTESIAN_POINT('',(-0.023848,0.0222082323903595,0.015));
#861=CARTESIAN_POINT('',(-0.0381959979436502,0.0222082323903595,0.015));
#862=CARTESIAN_POINT('',(-0.0381959979436502,0.0222082323903595,0.018));
#863=CARTESIAN_POINT('',(-0.0381959979436502,0.0222082323903595,0.018));
#864=CARTESIAN_POINT('',(-0.023848,0.0222082323903595,0.018));
#865=CARTESIAN_POINT('',(-0.0381969989022016,0.00505942520588815,0.018));
#866=CARTESIAN_POINT('',(-0.0381969989022016,0.00505942520588815,0.015));
#867=CARTESIAN_POINT('',(-0.0381959978044033,0.0222106180214167,0.015));
#868=CARTESIAN_POINT('',(-0.0381959978044033,0.0222106180214167,0.018));
#869=CARTESIAN_POINT('',(-0.0381959978044033,0.0222106180214167,0.018));
#870=CARTESIAN_POINT('',(-0.0381969989022016,0.00505942520588815,0.018));
#871=CARTESIAN_POINT('',(-0.0238392712444701,0.022207603861884,0.018));
#872=CARTESIAN_POINT('',(-0.0238392712444701,0.022207603861884,0.015));
#873=CARTESIAN_POINT('',(-0.0268330117417343,0.0222082323903595,0.015));
#874=CARTESIAN_POINT('',(-0.0268330117417343,0.0222082323903595,0.018));
#875=CARTESIAN_POINT('',(-0.0268330117417343,0.0222082323903595,0.018));
#876=CARTESIAN_POINT('',(-0.0238392712444701,0.022207603861884,0.018));
#877=CARTESIAN_POINT('',(-0.023848,0.0222082323903595,0.018));
#878=CARTESIAN_POINT('',(-0.023848,0.0222082323903595,0.015));
#879=CARTESIAN_POINT('',(-0.009498,0.0222082323903595,0.015));
#880=CARTESIAN_POINT('',(-0.009498,0.0222082323903595,0.018));
#881=CARTESIAN_POINT('',(-0.009498,0.0222082323903595,0.018));
#882=CARTESIAN_POINT('',(-0.023848,0.0222082323903595,0.018));
#883=CARTESIAN_POINT('',(-0.00949027234226846,0.0222064110463554,0.018));
#884=CARTESIAN_POINT('',(-0.00949027234226846,0.0222064110463554,0.015));
#885=CARTESIAN_POINT('',(-0.00949027234226846,0.0222064110463554,0.018));
#886=CARTESIAN_POINT('',(-0.0233544086399574,0.0242082323903595,0.018));
#887=CARTESIAN_POINT('',(-0.0233544086399574,0.0242082323903595,0.015));
#888=CARTESIAN_POINT('',(-0.0233544086399574,0.0242082323903595,0.018));
#889=CARTESIAN_POINT('',(0.000601999999999991,0.00505942520588806,0.018));
#890=CARTESIAN_POINT('',(0.000601999999999991,0.00505942520588806,0.015));
#891=MECHANICAL_DESIGN_GEOMETRIC_PRESENTATION_REPRESENTATION('',(#532),
#892);
#892=(
GEOMETRIC_REPRESENTATION_CONTEXT(3)
GLOBAL_UNCERTAINTY_ASSIGNED_CONTEXT((#893))
GLOBAL_UNIT_ASSIGNED_CONTEXT((#896,#895,#894))
REPRESENTATION_CONTEXT('Part 225','TOP_LEVEL_ASSEMBLY_PART')
);
#893=UNCERTAINTY_MEASURE_WITH_UNIT(LENGTH_MEASURE(1.E-8),#896,
'DISTANCE_ACCURACY_VALUE','Maximum Tolerance applied to model');
#894=(
NAMED_UNIT(*)
SI_UNIT($,.STERADIAN.)
SOLID_ANGLE_UNIT()
);
#895=(
NAMED_UNIT(*)
PLANE_ANGLE_UNIT()
SI_UNIT($,.RADIAN.)
);
#896=(
LENGTH_UNIT()
NAMED_UNIT(*)
SI_UNIT($,.METRE.)
);
#897=PRODUCT_DEFINITION_SHAPE('','',#898);
#898=PRODUCT_DEFINITION('','',#900,#899);
#899=PRODUCT_DEFINITION_CONTEXT('',#906,'design');
#900=PRODUCT_DEFINITION_FORMATION_WITH_SPECIFIED_SOURCE('','',#902,
 .NOT_KNOWN.);
#901=PRODUCT_RELATED_PRODUCT_CATEGORY('','',(#902));
#902=PRODUCT('Part 225','Part 225','Part 225',(#904));
#903=PRODUCT_CATEGORY('','');
#904=PRODUCT_CONTEXT('',#906,'mechanical');
#905=APPLICATION_PROTOCOL_DEFINITION('international standard',
'ap242_managed_model_based_3d_engineering',2020,#906);
#906=APPLICATION_CONTEXT('managed model based 3d engineering');
ENDSEC;
END-ISO-10303-21;
