  0
SECTION
  2
HEADER
  9
$ANGBASE
  50
0.0
  9
$ANGDIR
  70
1
  9
$MEASUREMENT
  70
1
  9
$INSUNITS
  70
4
  0
ENDSEC
  0
SECTION
  2
TABLES
  0
TABLE
  2
LTYPE
  70
4
  0
LTYPE
  5
40F
  2
CONTINUOUS
  70
0
  3
Solid line
  72
65
  73
0
  40
0.0
  0
LTYPE
  5
410
  2
DASHDOT
 70
0
  3
Dash Dot ____ _ ____ _
 72
65
 73
4
 40
2.0
 49
1.25
 49
-0.25
 49
0.25
 49
-0.25
  0
LTYPE
  5
411
  2
DASHED
 70
0
  3
Dashed __ __ __ __ __
 72
65
 73
2
 40
0.75
 49
0.5
 49
-0.25
  0
LTYPE
  5
43B
  2
DOTTED
 70
0
  3
Dotted .  .  .  .
 72
65
 73
2
 40
0.2
 49
0.0
 49
-0.2
  0
ENDTAB
  0
TABLE
  2
STYLE
  70
4
  0
STYLE
  2
KICAD
  70
0
  40
0
  41
1
  42
1
  50
0
  71
0
  3
isocp.shx
  0
STYLE
  2
KICADB
  70
0
  40
0
  41
1
  42
1
  50
0
  71
0
  3
isocp.shx
  0
STYLE
  2
KICADI
  70
0
  40
0
  41
1
  42
1
  50
15
  71
0
  3
isocp.shx
  0
STYLE
  2
KICADBI
  70
0
  40
0
  41
1
  42
1
  50
15
  71
0
  3
isocp.shx
  0
ENDTAB
  0
TABLE
  2
LAYER
  70
1
  0
LAYER
  2
Edge.Cuts
  70
0
  62
254
  420
13685453
  6
CONTINUOUS
  0
ENDTAB
  0
ENDSEC
  0
SECTION
  2
ENTITIES
0
LINE
8
Edge.Cuts
6
CONTINUOUS
10
109.6021080000000012
20
-107.875
11
109.8555959999999914
21
-107.8909299999999973
0
LINE
8
Edge.Cuts
6
CONTINUOUS
10
109.8555959999999914
20
-107.8909299999999973
11
110.1050949999999915
21
-107.9384649999999937
0
LINE
8
Edge.Cuts
6
CONTINUOUS
10
110.1050949999999915
20
-107.9384649999999937
11
110.3466820000000013
21
-108.0168579999999992
0
LINE
8
Edge.Cuts
6
CONTINUOUS
10
110.3466820000000013
20
-108.0168579999999992
11
110.576554999999999
21
-108.1248760000000004
0
LINE
8
Edge.Cuts
6
CONTINUOUS
10
110.576554999999999
20
-108.1248760000000004
11
110.7910989999999885
21
-108.2608189999999979
0
LINE
8
Edge.Cuts
6
CONTINUOUS
10
110.7910989999999885
20
-108.2608189999999979
11
110.986937999999995
21
-108.4225489999999894
0
LINE
8
Edge.Cuts
6
CONTINUOUS
10
110.986937999999995
20
-108.4225489999999894
11
111.1609919999999931
21
-108.6075219999999888
0
LINE
8
Edge.Cuts
6
CONTINUOUS
10
111.1609919999999931
20
-108.6075219999999888
11
111.3105180000000018
21
-108.812821999999997
0
LINE
8
Edge.Cuts
6
CONTINUOUS
10
111.3105180000000018
20
-108.812821999999997
11
111.3105229999999892
21
-108.8128269999999986
0
LINE
8
Edge.Cuts
6
CONTINUOUS
10
111.3105229999999892
20
-108.8128269999999986
11
118.531659999999988
21
-120.1603289999999902
0
LINE
8
Edge.Cuts
6
CONTINUOUS
10
118.531659999999988
20
-120.1603289999999902
11
118.5982810000000001
21
-120.2650349999999975
0
LINE
8
Edge.Cuts
6
CONTINUOUS
10
118.5982810000000001
20
-120.2650349999999975
11
118.75670199999999
21
-120.4561080000000004
0
LINE
8
Edge.Cuts
6
CONTINUOUS
10
118.75670199999999
20
-120.4561080000000004
11
118.9377949999999942
21
-120.6258469999999932
0
LINE
8
Edge.Cuts
6
CONTINUOUS
10
118.9377949999999942
20
-120.6258469999999932
11
119.1387110000000007
21
-120.7715829999999926
0
LINE
8
Edge.Cuts
6
CONTINUOUS
10
119.1387110000000007
20
-120.7715829999999926
11
119.3562900000000013
21
-120.8910219999999924
0
LINE
8
Edge.Cuts
6
CONTINUOUS
10
119.3562900000000013
20
-120.8910219999999924
11
119.5871089999999981
21
-120.9822849999999903
0
LINE
8
Edge.Cuts
6
CONTINUOUS
10
119.5871089999999981
20
-120.9822849999999903
11
119.8275359999999949
21
-121.0439379999999971
0
LINE
8
Edge.Cuts
6
CONTINUOUS
10
119.8275359999999949
20
-121.0439379999999971
11
120.0737889999999908
21
-121.0750089999999943
0
LINE
8
Edge.Cuts
6
CONTINUOUS
10
120.0737889999999908
20
-121.0750089999999943
11
120.197891999999996
21
-121.0749999999999886
0
LINE
8
Edge.Cuts
6
CONTINUOUS
10
120.197891999999996
20
-121.0749999999999886
11
157.5999999999999943
21
-121.0749999999999886
0
LINE
8
Edge.Cuts
6
CONTINUOUS
10
157.5999999999999943
20
-121.0749999999999886
11
157.8643160000000023
21
-121.0923239999999907
0
LINE
8
Edge.Cuts
6
CONTINUOUS
10
157.8643160000000023
20
-121.0923239999999907
11
158.1241090000000042
21
-121.1439999999999912
0
LINE
8
Edge.Cuts
6
CONTINUOUS
10
158.1241090000000042
20
-121.1439999999999912
11
158.3749339999999961
21
-121.2291439999999909
0
LINE
8
Edge.Cuts
6
CONTINUOUS
10
158.3749339999999961
20
-121.2291439999999909
11
158.6124999999999829
21
-121.3462979999999902
0
LINE
8
Edge.Cuts
6
CONTINUOUS
10
158.6124999999999829
20
-121.3462979999999902
11
158.8327419999999961
21
-121.4934590000000014
0
LINE
8
Edge.Cuts
6
CONTINUOUS
10
158.8327419999999961
20
-121.4934590000000014
11
159.0318919999999991
21
-121.6681079999999895
0
LINE
8
Edge.Cuts
6
CONTINUOUS
10
159.0318919999999991
20
-121.6681079999999895
11
159.2065409999999872
21
-121.8672579999999925
0
LINE
8
Edge.Cuts
6
CONTINUOUS
10
159.2065409999999872
20
-121.8672579999999925
11
159.3537019999999984
21
-122.0874999999999915
0
LINE
8
Edge.Cuts
6
CONTINUOUS
10
159.3537019999999984
20
-122.0874999999999915
11
159.4708559999999977
21
-122.3250659999999925
0
LINE
8
Edge.Cuts
6
CONTINUOUS
10
159.4708559999999977
20
-122.3250659999999925
11
159.5559999999999832
21
-122.5758909999999986
0
LINE
8
Edge.Cuts
6
CONTINUOUS
10
159.5559999999999832
20
-122.5758909999999986
11
159.6076759999999979
21
-122.8356840000000005
0
LINE
8
Edge.Cuts
6
CONTINUOUS
10
159.6076759999999979
20
-122.8356840000000005
11
159.625
21
-123.0999999999999943
0
LINE
8
Edge.Cuts
6
CONTINUOUS
10
159.625
20
-123.0999999999999943
11
159.625
21
-138.5
0
LINE
8
Edge.Cuts
6
CONTINUOUS
10
159.625
20
-138.5
11
159.6076759999999979
21
-138.7643159999999796
0
LINE
8
Edge.Cuts
6
CONTINUOUS
10
159.6076759999999979
20
-138.7643159999999796
11
159.5559999999999832
21
-139.0241089999999815
0
LINE
8
Edge.Cuts
6
CONTINUOUS
10
159.5559999999999832
20
-139.0241089999999815
11
159.4708559999999977
21
-139.2749340000000018
0
LINE
8
Edge.Cuts
6
CONTINUOUS
10
159.4708559999999977
20
-139.2749340000000018
11
159.3537019999999984
21
-139.5124999999999886
0
LINE
8
Edge.Cuts
6
CONTINUOUS
10
159.3537019999999984
20
-139.5124999999999886
11
159.2065409999999872
21
-139.7327420000000018
0
LINE
8
Edge.Cuts
6
CONTINUOUS
10
159.2065409999999872
20
-139.7327420000000018
11
159.0318919999999991
21
-139.9318920000000048
0
LINE
8
Edge.Cuts
6
CONTINUOUS
10
159.0318919999999991
20
-139.9318920000000048
11
158.8327419999999961
21
-140.1065409999999929
0
LINE
8
Edge.Cuts
6
CONTINUOUS
10
158.8327419999999961
20
-140.1065409999999929
11
158.6124999999999829
21
-140.2537020000000041
0
LINE
8
Edge.Cuts
6
CONTINUOUS
10
158.6124999999999829
20
-140.2537020000000041
11
158.3749339999999961
21
-140.3708560000000034
0
LINE
8
Edge.Cuts
6
CONTINUOUS
10
158.3749339999999961
20
-140.3708560000000034
11
158.1241090000000042
21
-140.4559999999999889
0
LINE
8
Edge.Cuts
6
CONTINUOUS
10
158.1241090000000042
20
-140.4559999999999889
11
157.8643160000000023
21
-140.5076760000000036
0
LINE
8
Edge.Cuts
6
CONTINUOUS
10
157.8643160000000023
20
-140.5076760000000036
11
157.5999999999999943
21
-140.5250000000000057
0
LINE
8
Edge.Cuts
6
CONTINUOUS
10
157.5999999999999943
20
-140.5250000000000057
11
84.
21
-140.5250000000000057
0
LINE
8
Edge.Cuts
6
CONTINUOUS
10
84.
20
-140.5250000000000057
11
83.735683999999992
21
-140.5076760000000036
0
LINE
8
Edge.Cuts
6
CONTINUOUS
10
83.735683999999992
20
-140.5076760000000036
11
83.4758909999999901
21
-140.4559999999999889
0
LINE
8
Edge.Cuts
6
CONTINUOUS
10
83.4758909999999901
20
-140.4559999999999889
11
83.2250659999999982
21
-140.3708560000000034
0
LINE
8
Edge.Cuts
6
CONTINUOUS
10
83.2250659999999982
20
-140.3708560000000034
11
82.9874999999999972
21
-140.2537020000000041
0
LINE
8
Edge.Cuts
6
CONTINUOUS
10
82.9874999999999972
20
-140.2537020000000041
11
82.7672579999999982
21
-140.1065409999999929
0
LINE
8
Edge.Cuts
6
CONTINUOUS
10
82.7672579999999982
20
-140.1065409999999929
11
82.5681079999999952
21
-139.9318920000000048
0
LINE
8
Edge.Cuts
6
CONTINUOUS
10
82.5681079999999952
20
-139.9318920000000048
11
82.3934589999999929
21
-139.7327420000000018
0
LINE
8
Edge.Cuts
6
CONTINUOUS
10
82.3934589999999929
20
-139.7327420000000018
11
82.2462979999999959
21
-139.5124999999999886
0
LINE
8
Edge.Cuts
6
CONTINUOUS
10
82.2462979999999959
20
-139.5124999999999886
11
82.1291439999999966
21
-139.2749340000000018
0
LINE
8
Edge.Cuts
6
CONTINUOUS
10
82.1291439999999966
20
-139.2749340000000018
11
82.0439999999999969
21
-139.0241089999999815
0
LINE
8
Edge.Cuts
6
CONTINUOUS
10
82.0439999999999969
20
-139.0241089999999815
11
81.9923239999999964
21
-138.7643159999999796
0
LINE
8
Edge.Cuts
6
CONTINUOUS
10
81.9923239999999964
20
-138.7643159999999796
11
81.9749999999999943
21
-138.5
0
LINE
8
Edge.Cuts
6
CONTINUOUS
10
81.9749999999999943
20
-138.5
11
81.9749999999999943
21
-109.8999999999999915
0
LINE
8
Edge.Cuts
6
CONTINUOUS
10
81.9749999999999943
20
-109.8999999999999915
11
81.9923239999999964
21
-109.6356839999999977
0
LINE
8
Edge.Cuts
6
CONTINUOUS
10
81.9923239999999964
20
-109.6356839999999977
11
82.0439999999999969
21
-109.3758909999999958
0
LINE
8
Edge.Cuts
6
CONTINUOUS
10
82.0439999999999969
20
-109.3758909999999958
11
82.1291439999999966
21
-109.1250659999999897
0
LINE
8
Edge.Cuts
6
CONTINUOUS
10
82.1291439999999966
20
-109.1250659999999897
11
82.2462979999999959
21
-108.8874999999999886
0
LINE
8
Edge.Cuts
6
CONTINUOUS
10
82.2462979999999959
20
-108.8874999999999886
11
82.3934589999999929
21
-108.6672579999999897
0
LINE
8
Edge.Cuts
6
CONTINUOUS
10
82.3934589999999929
20
-108.6672579999999897
11
82.5681079999999952
21
-108.4681080000000009
0
LINE
8
Edge.Cuts
6
CONTINUOUS
10
82.5681079999999952
20
-108.4681080000000009
11
82.7672579999999982
21
-108.2934589999999986
0
LINE
8
Edge.Cuts
6
CONTINUOUS
10
82.7672579999999982
20
-108.2934589999999986
11
82.9874999999999972
21
-108.1462980000000016
0
LINE
8
Edge.Cuts
6
CONTINUOUS
10
82.9874999999999972
20
-108.1462980000000016
11
83.2250659999999982
21
-108.0291439999999881
0
LINE
8
Edge.Cuts
6
CONTINUOUS
10
83.2250659999999982
20
-108.0291439999999881
11
83.4758909999999901
21
-107.9439999999999884
0
LINE
8
Edge.Cuts
6
CONTINUOUS
10
83.4758909999999901
20
-107.9439999999999884
11
83.735683999999992
21
-107.8923240000000021
0
LINE
8
Edge.Cuts
6
CONTINUOUS
10
83.735683999999992
20
-107.8923240000000021
11
84.
21
-107.875
0
LINE
8
Edge.Cuts
6
CONTINUOUS
10
84.
20
-107.875
11
109.6021080000000012
21
-107.875
0
LINE
8
Edge.Cuts
6
CONTINUOUS
10
109.6021080000000012
20
-107.9249999999999972
11
84.
21
-107.9249999999999972
0
LINE
8
Edge.Cuts
6
CONTINUOUS
10
84.
20
-107.9249999999999972
11
83.8705519999999893
21
-107.9249999999999972
0
LINE
8
Edge.Cuts
6
CONTINUOUS
10
83.8705519999999893
20
-107.9249999999999972
11
83.6138699999999915
21
-107.9587919999999883
0
LINE
8
Edge.Cuts
6
CONTINUOUS
10
83.6138699999999915
20
-107.9587919999999883
11
83.3637949999999961
21
-108.0257999999999896
0
LINE
8
Edge.Cuts
6
CONTINUOUS
10
83.3637949999999961
20
-108.0257999999999896
11
83.1246050000000025
21
-108.1248749999999887
0
LINE
8
Edge.Cuts
6
CONTINUOUS
10
83.1246050000000025
20
-108.1248749999999887
11
82.9003939999999915
21
-108.2543229999999994
0
LINE
8
Edge.Cuts
6
CONTINUOUS
10
82.9003939999999915
20
-108.2543229999999994
11
82.6949970000000008
21
-108.4119299999999981
0
LINE
8
Edge.Cuts
6
CONTINUOUS
10
82.6949970000000008
20
-108.4119299999999981
11
82.5119299999999924
21
-108.5949969999999922
0
LINE
8
Edge.Cuts
6
CONTINUOUS
10
82.5119299999999924
20
-108.5949969999999922
11
82.3543229999999937
21
-108.8003939999999972
0
LINE
8
Edge.Cuts
6
CONTINUOUS
10
82.3543229999999937
20
-108.8003939999999972
11
82.2248749999999973
21
-109.024604999999994
0
LINE
8
Edge.Cuts
6
CONTINUOUS
10
82.2248749999999973
20
-109.024604999999994
11
82.1257999999999981
21
-109.2637950000000018
0
LINE
8
Edge.Cuts
6
CONTINUOUS
10
82.1257999999999981
20
-109.2637950000000018
11
82.0587919999999968
21
-109.5138699999999972
0
LINE
8
Edge.Cuts
6
CONTINUOUS
10
82.0587919999999968
20
-109.5138699999999972
11
82.0249999999999915
21
-109.770551999999995
0
LINE
8
Edge.Cuts
6
CONTINUOUS
10
82.0249999999999915
20
-109.770551999999995
11
82.0249999999999915
21
-109.8999999999999915
0
LINE
8
Edge.Cuts
6
CONTINUOUS
10
82.0249999999999915
20
-109.8999999999999915
11
82.0249999999999915
21
-138.5
0
LINE
8
Edge.Cuts
6
CONTINUOUS
10
82.0249999999999915
20
-138.5
11
82.0249999999999915
21
-138.6294479999999965
0
LINE
8
Edge.Cuts
6
CONTINUOUS
10
82.0249999999999915
20
-138.6294479999999965
11
82.0587919999999968
21
-138.8861299999999801
0
LINE
8
Edge.Cuts
6
CONTINUOUS
10
82.0587919999999968
20
-138.8861299999999801
11
82.1257999999999981
21
-139.1362049999999897
0
LINE
8
Edge.Cuts
6
CONTINUOUS
10
82.1257999999999981
20
-139.1362049999999897
11
82.2248749999999973
21
-139.3753949999999975
0
LINE
8
Edge.Cuts
6
CONTINUOUS
10
82.2248749999999973
20
-139.3753949999999975
11
82.3543229999999937
21
-139.5996059999999943
0
LINE
8
Edge.Cuts
6
CONTINUOUS
10
82.3543229999999937
20
-139.5996059999999943
11
82.5119299999999924
21
-139.8050029999999992
0
LINE
8
Edge.Cuts
6
CONTINUOUS
10
82.5119299999999924
20
-139.8050029999999992
11
82.6949970000000008
21
-139.9880699999999933
0
LINE
8
Edge.Cuts
6
CONTINUOUS
10
82.6949970000000008
20
-139.9880699999999933
11
82.9003939999999915
21
-140.1456770000000063
0
LINE
8
Edge.Cuts
6
CONTINUOUS
10
82.9003939999999915
20
-140.1456770000000063
11
83.1246050000000025
21
-140.2751250000000027
0
LINE
8
Edge.Cuts
6
CONTINUOUS
10
83.1246050000000025
20
-140.2751250000000027
11
83.3637949999999961
21
-140.3742000000000019
0
LINE
8
Edge.Cuts
6
CONTINUOUS
10
83.3637949999999961
20
-140.3742000000000019
11
83.6138699999999915
21
-140.4412079999999889
0
LINE
8
Edge.Cuts
6
CONTINUOUS
10
83.6138699999999915
20
-140.4412079999999889
11
83.8705519999999893
21
-140.4749999999999943
0
LINE
8
Edge.Cuts
6
CONTINUOUS
10
83.8705519999999893
20
-140.4749999999999943
11
84.
21
-140.4749999999999943
0
LINE
8
Edge.Cuts
6
CONTINUOUS
10
84.
20
-140.4749999999999943
11
157.5999999999999943
21
-140.4749999999999943
0
LINE
8
Edge.Cuts
6
CONTINUOUS
10
157.5999999999999943
20
-140.4749999999999943
11
157.7294479999999908
21
-140.4749999999999943
0
LINE
8
Edge.Cuts
6
CONTINUOUS
10
157.7294479999999908
20
-140.4749999999999943
11
157.9861300000000028
21
-140.4412079999999889
0
LINE
8
Edge.Cuts
6
CONTINUOUS
10
157.9861300000000028
20
-140.4412079999999889
11
158.236204999999984
21
-140.3742000000000019
0
LINE
8
Edge.Cuts
6
CONTINUOUS
10
158.236204999999984
20
-140.3742000000000019
11
158.4753949999999918
21
-140.2751250000000027
0
LINE
8
Edge.Cuts
6
CONTINUOUS
10
158.4753949999999918
20
-140.2751250000000027
11
158.6996059999999886
21
-140.1456770000000063
0
LINE
8
Edge.Cuts
6
CONTINUOUS
10
158.6996059999999886
20
-140.1456770000000063
11
158.9050029999999936
21
-139.9880699999999933
0
LINE
8
Edge.Cuts
6
CONTINUOUS
10
158.9050029999999936
20
-139.9880699999999933
11
159.0880699999999877
21
-139.8050029999999992
0
LINE
8
Edge.Cuts
6
CONTINUOUS
10
159.0880699999999877
20
-139.8050029999999992
11
159.2456770000000006
21
-139.5996059999999943
0
LINE
8
Edge.Cuts
6
CONTINUOUS
10
159.2456770000000006
20
-139.5996059999999943
11
159.375124999999997
21
-139.3753949999999975
0
LINE
8
Edge.Cuts
6
CONTINUOUS
10
159.375124999999997
20
-139.3753949999999975
11
159.4741999999999962
21
-139.1362049999999897
0
LINE
8
Edge.Cuts
6
CONTINUOUS
10
159.4741999999999962
20
-139.1362049999999897
11
159.5412079999999833
21
-138.8861299999999801
0
LINE
8
Edge.Cuts
6
CONTINUOUS
10
159.5412079999999833
20
-138.8861299999999801
11
159.5749999999999886
21
-138.6294479999999965
0
LINE
8
Edge.Cuts
6
CONTINUOUS
10
159.5749999999999886
20
-138.6294479999999965
11
159.5749999999999886
21
-138.5
0
LINE
8
Edge.Cuts
6
CONTINUOUS
10
159.5749999999999886
20
-138.5
11
159.5749999999999886
21
-123.0999999999999943
0
LINE
8
Edge.Cuts
6
CONTINUOUS
10
159.5749999999999886
20
-123.0999999999999943
11
159.5749999999999886
21
-122.9705519999999979
0
LINE
8
Edge.Cuts
6
CONTINUOUS
10
159.5749999999999886
20
-122.9705519999999979
11
159.5412079999999833
21
-122.71387
0
LINE
8
Edge.Cuts
6
CONTINUOUS
10
159.5412079999999833
20
-122.71387
11
159.4741999999999962
21
-122.4637949999999904
0
LINE
8
Edge.Cuts
6
CONTINUOUS
10
159.4741999999999962
20
-122.4637949999999904
11
159.375124999999997
21
-122.2246049999999968
0
LINE
8
Edge.Cuts
6
CONTINUOUS
10
159.375124999999997
20
-122.2246049999999968
11
159.2456770000000006
21
-122.000394
0
LINE
8
Edge.Cuts
6
CONTINUOUS
10
159.2456770000000006
20
-122.000394
11
159.0880699999999877
21
-121.7949969999999951
0
LINE
8
Edge.Cuts
6
CONTINUOUS
10
159.0880699999999877
20
-121.7949969999999951
11
158.9050029999999936
21
-121.611930000000001
0
LINE
8
Edge.Cuts
6
CONTINUOUS
10
158.9050029999999936
20
-121.611930000000001
11
158.6996059999999886
21
-121.454322999999988
0
LINE
8
Edge.Cuts
6
CONTINUOUS
10
158.6996059999999886
20
-121.454322999999988
11
158.4753949999999918
21
-121.3248749999999916
0
LINE
8
Edge.Cuts
6
CONTINUOUS
10
158.4753949999999918
20
-121.3248749999999916
11
158.236204999999984
21
-121.2257999999999925
0
LINE
8
Edge.Cuts
6
CONTINUOUS
10
158.236204999999984
20
-121.2257999999999925
11
157.9861300000000028
21
-121.1587919999999912
0
LINE
8
Edge.Cuts
6
CONTINUOUS
10
157.9861300000000028
20
-121.1587919999999912
11
157.7294479999999908
21
-121.125
0
LINE
8
Edge.Cuts
6
CONTINUOUS
10
157.7294479999999908
20
-121.125
11
157.5999999999999943
21
-121.125
0
LINE
8
Edge.Cuts
6
CONTINUOUS
10
157.5999999999999943
20
-121.125
11
120.197891999999996
21
-121.125
0
LINE
8
Edge.Cuts
6
CONTINUOUS
10
120.197891999999996
20
-121.125
11
119.9444039999999916
21
-121.1090699999999885
0
LINE
8
Edge.Cuts
6
CONTINUOUS
10
119.9444039999999916
20
-121.1090699999999885
11
119.6949049999999914
21
-121.0615349999999921
0
LINE
8
Edge.Cuts
6
CONTINUOUS
10
119.6949049999999914
20
-121.0615349999999921
11
119.4533179999999959
21
-120.9831420000000008
0
LINE
8
Edge.Cuts
6
CONTINUOUS
10
119.4533179999999959
20
-120.9831420000000008
11
119.2234449999999981
21
-120.8751239999999996
0
LINE
8
Edge.Cuts
6
CONTINUOUS
10
119.2234449999999981
20
-120.8751239999999996
11
119.0089009999999945
21
-120.7391809999999879
0
LINE
8
Edge.Cuts
6
CONTINUOUS
10
119.0089009999999945
20
-120.7391809999999879
11
118.813061999999988
21
-120.5774509999999964
0
LINE
8
Edge.Cuts
6
CONTINUOUS
10
118.813061999999988
20
-120.5774509999999964
11
118.6390079999999898
21
-120.392477999999997
0
LINE
8
Edge.Cuts
6
CONTINUOUS
10
118.6390079999999898
20
-120.392477999999997
11
118.4894809999999978
21
-120.1871769999999913
0
LINE
8
Edge.Cuts
6
CONTINUOUS
10
118.4894809999999978
20
-120.1871769999999913
11
118.4894769999999937
21
-120.1871730000000014
0
LINE
8
Edge.Cuts
6
CONTINUOUS
10
118.4894769999999937
20
-120.1871730000000014
11
111.2683389999999974
21
-108.8396709999999956
0
LINE
8
Edge.Cuts
6
CONTINUOUS
10
111.2683389999999974
20
-108.8396709999999956
11
111.2683369999999883
21
-108.839665999999994
0
LINE
8
Edge.Cuts
6
CONTINUOUS
10
111.2683369999999883
20
-108.839665999999994
11
111.2017189999999971
21
-108.7349649999999883
0
LINE
8
Edge.Cuts
6
CONTINUOUS
10
111.2017189999999971
20
-108.7349649999999883
11
111.043297999999993
21
-108.5438919999999996
0
LINE
8
Edge.Cuts
6
CONTINUOUS
10
111.043297999999993
20
-108.5438919999999996
11
110.8622049999999888
21
-108.3741529999999926
0
LINE
8
Edge.Cuts
6
CONTINUOUS
10
110.8622049999999888
20
-108.3741529999999926
11
110.6612889999999965
21
-108.2284169999999932
0
LINE
8
Edge.Cuts
6
CONTINUOUS
10
110.6612889999999965
20
-108.2284169999999932
11
110.4437099999999958
21
-108.1089779999999934
0
LINE
8
Edge.Cuts
6
CONTINUOUS
10
110.4437099999999958
20
-108.1089779999999934
11
110.2128909999999991
21
-108.0177149999999955
0
LINE
8
Edge.Cuts
6
CONTINUOUS
10
110.2128909999999991
20
-108.0177149999999955
11
109.972463999999988
21
-107.9560619999999886
0
LINE
8
Edge.Cuts
6
CONTINUOUS
10
109.972463999999988
20
-107.9560619999999886
11
109.7262109999999922
21
-107.9249909999999915
0
LINE
8
Edge.Cuts
6
CONTINUOUS
10
109.7262109999999922
20
-107.9249909999999915
11
109.6021080000000012
21
-107.9249999999999972
  0
ENDSEC
  0
EOF
